<?xml version="1.0" encoding="UTF-8"?>
<svg width="24px" height="24px" viewBox="0 0 24 24" version="1.1" xmlns="http://www.w3.org/2000/svg" xmlns:xlink="http://www.w3.org/1999/xlink">
    <title>用户名登录</title>
    <g id="页面-1" stroke="none" stroke-width="1" fill="none" fill-rule="evenodd">
        <g id="短信登录" transform="translate(-375.000000, -15.000000)" fill-rule="nonzero">
            <g id="用户名登录" transform="translate(375.000000, 15.000000)">
                <rect id="矩形" fill="#000000" opacity="0" x="0" y="0" width="24" height="24"></rect>
                <path d="M12.4629781,2 C6.68440796,2 2,6.68440796 2,12.4629781 C2,18.2414763 6.68440796,22.9259562 12.4629781,22.9259562 C18.2415482,22.9259562 22.9259322,18.2414523 22.9259322,12.4629541 C22.9259322,6.68440796 18.2415243,2 12.4629781,2 Z M12.4048415,5.13889583 C15.8548304,5.13889583 16.590028,7.9169563 16.590028,9.71638428 C16.590028,12.4131879 15.0464585,14.9043548 12.4048415,14.9043548 C9.76322455,14.9043548 8.21965508,12.4131639 8.21965508,9.7163603 C8.21965508,7.96019898 9.06714448,5.13889583 12.4048415,5.13889583 Z M17.287547,19.0895173 C17.287547,19.0895173 15.2486654,17.6944551 12.4048175,17.6944551 C9.32871116,17.6944551 7.52208805,19.0895173 7.52208805,19.0895173 L6.30141167,17.3456836 C6.30141167,17.3456836 7.99521528,15.7214089 12.4919985,15.60185 C16.7278865,15.4891983 18.6244726,17.5200694 18.6244726,17.5200694 L17.287547,19.0895173 Z" id="形状" fill="#C7E7FF"></path>
            </g>
        </g>
    </g>
</svg>