<?xml version="1.0" encoding="UTF-8"?>
<svg width="16px" height="18px" viewBox="0 0 16 18" version="1.1" xmlns="http://www.w3.org/2000/svg" xmlns:xlink="http://www.w3.org/1999/xlink">
    <title>密码</title>
    <g id="页面-1" stroke="none" stroke-width="1" fill="none" fill-rule="evenodd">
        <g id="账号登录" transform="translate(-48.000000, -348.000000)" fill-rule="nonzero">
            <g id="密码" transform="translate(48.000000, 348.000000)">
                <rect id="矩形" fill="#000000" opacity="0" x="0" y="2" width="16" height="16"></rect>
                <path d="M12.6318025,5.78497478 L3.3681975,5.78497478 C2.27699698,5.78962815 1.39355701,6.67306814 1.38890364,7.76426866 L1.38890364,14.0164587 C1.39357147,15.1069643 2.2776844,15.98918 3.3681975,15.9915052 L12.6318025,15.9915052 C13.7223156,15.98918 14.6064285,15.1069643 14.6110964,14.0164587 L14.6110964,7.76426866 C14.606443,6.67306814 13.723003,5.78962815 12.6318025,5.78497478 Z M8.80913194,11.2216618 L8.80913194,13.2731617 L7.17812583,13.2731617 L7.17812583,11.2174144 C6.528603,10.8449763 6.2107115,10.0823211 6.40342326,9.35882111 C6.59613502,8.63532116 7.25127442,8.1318428 8,8.1318428 C8.74872558,8.1318428 9.40386498,8.63532116 9.59657674,9.35882111 C9.7892885,10.0823211 9.471397,10.8449763 8.82187417,11.2174144 L8.80913194,11.2216618 Z M12.3557207,5.84019114 L11.0814972,5.84019114 L11.0814972,4.35359703 C11.0814972,2.652906 9.70281474,1.27422352 8.00212371,1.27422352 C6.30143268,1.27422352 4.9227502,2.652906 4.9227502,4.35359703 L4.9227502,5.84019114 L3.64852667,5.84019114 L3.64852667,4.35359703 C3.64852667,1.94917178 5.59769846,0 8.0021237,0 C10.406549,0 12.3557207,1.94917178 12.3557207,4.35359703 L12.3557207,5.84019114 Z" id="形状" fill="#FFFFFF"></path>
            </g>
        </g>
    </g>
</svg>