<?xml version="1.0" encoding="UTF-8"?>
<svg width="122px" height="122px" viewBox="0 0 122 122" version="1.1" xmlns="http://www.w3.org/2000/svg" xmlns:xlink="http://www.w3.org/1999/xlink">
    <title>登录头像带边框</title>
    <g id="页面-1" stroke="none" stroke-width="1" fill="none" fill-rule="evenodd">
        <g id="短信登录" transform="translate(-146.000000, -92.000000)">
            <g id="登录头像带边框" transform="translate(146.000000, 92.000000)">
                <g id="默认登录头像" transform="translate(13.000000, 13.000000)" fill-rule="nonzero">
                    <rect id="矩形" fill="#000000" opacity="0" x="0" y="0" width="96" height="96"></rect>
                    <path d="M0,48 C0,74.509668 21.490332,96 48,96 C74.509668,96 96,74.509668 96,48 C96,21.490332 74.509668,0 48,0 C21.490332,0 0,21.490332 0,48 Z" id="路径" fill="#424A60"></path>
                    <path d="M87.6115862,75.1051034 C86.5241379,64.5268966 77.5878621,56.2758621 66.7216552,56.2758621 L56.88,56.2758621 C56.2807936,56.2758621 55.7061292,56.0378283 55.2824264,55.6141254 C54.8587235,55.1904225 54.6206897,54.6157581 54.6206897,54.0165517 L54.6206897,52.9489656 C54.6206897,51.984 55.248,51.158069 56.1517241,50.8187587 C65.7583448,47.2071725 72.336,31.4466207 71.0002759,20.3089656 C69.7390344,9.79696556 61.1917241,1.32579309 50.6714482,0.148965563 C49.8277859,0.0547755273 48.9796578,0.00615317084 48.1307587,0.0033103125 L48.0513103,0.00159810924 C35.2303448,-0.0264827812 24.8275862,10.358069 24.8275862,23.1724138 C24.8275862,33.1431725 31.1288275,47.5944828 39.9641379,50.8617931 C40.8297931,51.1812413 41.3793103,52.041931 41.3793103,52.9655172 L41.3793103,54.0165517 C41.3793103,55.2645518 40.368,56.2758621 39.12,56.2758621 L29.2783448,56.2758621 C18.4121379,56.2758621 9.47586206,64.5268965 8.38841381,75.1051034 C17.0366897,87.7208276 31.5492413,96 48,96 C64.4507587,96 78.9633103,87.7208276 87.6115862,75.1051034 Z" id="路径" fill="#FBCE9D"></path>
                    <path d="M55.4350344,10.9406897 C61.584,12.6306207 67.3737931,16.4126897 71.0813793,21.4046897 C71.0548965,21.0388966 71.0433103,20.6648276 71.0002759,20.3073103 C69.7390344,9.79696556 61.1917241,1.32579309 50.6714483,0.148965562 C49.8277859,0.0547755273 48.9796578,0.00615317084 48.1307587,0.0033103125 L48.0513103,0.00159955294 C36.5975172,-0.0231724688 27.0968275,8.26924134 25.1966897,19.1735172 L25.2049656,19.1735172 C25.5012414,19.5906206 25.7908966,20.0126896 26.1070344,20.4148966 C26.2228965,20.2708966 26.3404137,20.1285517 26.4595862,19.9878621 C29.769931,16.0485518 35.2998621,15.1365517 40.0038621,17.222069 C42.8772148,18.4906654 46.1424937,18.538326 49.0516478,17.354132 C51.9608019,16.1699381 54.2645189,13.8553743 55.4350344,10.9406897 L55.4350344,10.9406897 Z" id="路径" fill="#6C797A"></path>
                    <path d="M87.6115862,75.1051034 C86.5241379,64.5268966 77.5862069,56.2758621 66.7216552,56.2758621 L64.5517241,56.2758621 L54.6206897,66.2068966 L41.3793103,66.2068966 L36.4137931,62.8965518 L30.7382069,56.2758621 L29.2783448,56.2758621 C18.4137931,56.2758621 9.47586206,64.5268965 8.38841381,75.1051034 C17.0366897,87.7208276 31.5492413,96 48,96 C64.4507587,96 78.9633103,87.7208276 87.6115862,75.1051034 Z" id="路径" fill="#E7ECED"></path>
                    <path d="M71.1724138,90.0281379 C72.3062069,89.4008276 73.4068966,88.7222069 74.4827587,88.0088276 L74.4827587,77.7931034 L71.1724138,77.7931034 L71.1724138,90.0281379 Z M24.8275862,90.0281379 L24.8275862,77.7931034 L21.5172413,77.7931034 L21.5172413,88.0088276 C22.5931034,88.7222069 23.6937931,89.4008276 24.8275862,90.0281379 Z" id="形状" fill="#CCD5D6"></path>
                    <polygon id="路径" fill="#38454F" points="43.0344828 62.8965518 52.9655172 62.8965518 52.9655172 72.8275862 43.0344828 72.8275862"></polygon>
                    <path d="M41.3147587,95.5266207 C43.4995863,95.8311725 45.7307587,96 48,96 C50.2874482,96 52.5335172,95.8295172 54.7348966,95.52 L51.3103448,72.8275862 L44.6896552,72.8275862 L41.3147587,95.5266207 Z" id="路径" fill="#546A79"></path>
                    <path d="M43.0344828,64.2206897 L36.4137931,56.2758621 L28.3762759,56.2758621 C28.3226201,56.2758621 28.2724761,56.3025525 28.2423321,56.3469404 C28.2121881,56.3913283 28.2059448,56.4477507 28.2256552,56.4976552 L34.7586207,72.8275862 L43.0344828,67.3108966 L43.0344828,64.2206897 Z M67.6237241,56.2758611 L59.5862069,56.2758611 L52.9655172,64.2206897 L52.9655172,67.3108966 L61.2413793,72.8275862 L67.7726897,56.4976552 C67.7931664,56.4480325 67.787488,56.3914593 67.7575576,56.3468962 C67.7276271,56.3023331 67.6774053,56.2756771 67.6237241,56.2758611 L67.6237241,56.2758611 Z" id="形状" fill="#FFFFFF"></path>
                </g>
                <circle id="椭圆形" stroke-opacity="0.3" stroke="#FFFFFF" stroke-width="2" cx="61" cy="61" r="52"></circle>
                <circle id="椭圆形备份" stroke-opacity="0.1" stroke="#FFFFFF" stroke-width="2" cx="61" cy="61" r="56"></circle>
                <circle id="椭圆形备份-2" stroke-opacity="0.05" stroke="#FFFFFF" stroke-width="2" cx="61" cy="61" r="60"></circle>
            </g>
        </g>
    </g>
</svg>