<?xml version="1.0" encoding="UTF-8"?>
<svg width="16px" height="16px" viewBox="0 0 16 16" version="1.1" xmlns="http://www.w3.org/2000/svg" xmlns:xlink="http://www.w3.org/1999/xlink">
    <title>用户名</title>
    <g id="页面-1" stroke="none" stroke-width="1" fill="none" fill-rule="evenodd">
        <g id="账号登录" transform="translate(-48.000000, -276.000000)" fill-rule="nonzero">
            <g id="用户名" transform="translate(48.000000, 276.000000)">
                <rect id="矩形" fill="#000000" opacity="0" x="0" y="0" width="16" height="16"></rect>
                <path d="M6.85714286,9.14285714 L9.14285714,9.14285714 C12.29877,9.14285714 14.8571429,11.70123 14.8571429,14.8571429 C14.8571429,15.4883254 14.3454683,16 13.7142857,16 L2.28571428,16 C1.65453171,16 1.14285714,15.4883254 1.14285714,14.8571429 C1.14285714,11.70123 3.70123,9.14285714 6.85714286,9.14285714 L6.85714286,9.14285714 Z M8,8 C5.790861,8 4,6.209139 4,4 C4,1.790861 5.790861,0 8,0 C10.209139,0 12,1.790861 12,4 C12,6.209139 10.209139,8 8,8 Z" id="形状" fill="#FFFFFF"></path>
            </g>
        </g>
    </g>
</svg>