<?xml version="1.0" standalone="no"?><!DOCTYPE svg PUBLIC "-//W3C//DTD SVG 1.1//EN" "http://www.w3.org/Graphics/SVG/1.1/DTD/svg11.dtd"><svg t="1628497214706" class="icon" viewBox="0 0 1024 1024" version="1.1" xmlns="http://www.w3.org/2000/svg" p-id="4669" xmlns:xlink="http://www.w3.org/1999/xlink" width="200" height="200"><defs><style type="text/css"></style></defs><path d="M531.754667 85.333333C285.184 85.333333 85.333333 285.184 85.333333 531.754667c0 246.528 199.850667 446.421333 446.421334 446.421333 246.570667 0 446.421333-199.893333 446.421333-446.421333C978.176 285.184 778.325333 85.333333 531.754667 85.333333z m-2.474667 133.930667c147.2 0 178.56 118.528 178.56 195.285333 0 115.072-65.877333 221.354667-178.56 221.354667-112.725333 0-178.56-106.24-178.56-221.354667 0-74.922667 36.138667-195.285333 178.56-195.285333z m208.341333 595.2s-87.04-59.52-208.341333-59.52c-131.242667 0-208.341333 59.562667-208.341333 59.562667l-52.053334-74.410667s72.234667-69.333333 264.106667-74.410667c180.736-4.821333 261.632 81.834667 261.632 81.834667l-57.002667 66.986667z" fill="#BDBDBD" p-id="4670"></path></svg>