<?xml version="1.0" standalone="no"?><!DOCTYPE svg PUBLIC "-//W3C//DTD SVG 1.1//EN" "http://www.w3.org/Graphics/SVG/1.1/DTD/svg11.dtd"><svg t="1628503299924" class="icon" viewBox="0 0 1024 1024" version="1.1" xmlns="http://www.w3.org/2000/svg" p-id="4847" xmlns:xlink="http://www.w3.org/1999/xlink" width="200" height="200"><defs><style type="text/css"></style></defs><path d="M327.722667 804.266667l150.613333-60.928 33.706667-13.653334 33.706666 13.653334 150.613334 60.928-4.48-166.570667-0.853334-32.981333 20.608-25.728 96.597334-120.32L652.8 411.52l-30.037333-9.088-17.834667-25.685333-92.928-134.058667-92.842667 134.058667-17.834666 25.685333-30.037334 9.088-155.477333 47.146667 96.554667 120.32 20.650666 25.685333-0.896 32.981333-4.437333 166.613334m462.208 134.826666l-277.888-112.426666-277.888 112.426666 8.106667-303.872-179.882667-224.085333 282.88-85.674667 166.826667-240.64 166.826666 240.64 282.709334 85.674667-179.84 224.085333 8.149333 303.872z" p-id="4848" fill="#ffffff"></path></svg>