<?xml version="1.0" encoding="UTF-8"?>
<svg width="17px" height="17px" viewBox="0 0 17 17" version="1.1" xmlns="http://www.w3.org/2000/svg" xmlns:xlink="http://www.w3.org/1999/xlink">
    <title>下一题</title>
    <g id="页面-1" stroke="none" stroke-width="1" fill="none" fill-rule="evenodd">
        <g id="app-电工基础训练-训练中" transform="translate(-356.000000, -616.000000)" fill-rule="nonzero">
            <g id="编组-7" transform="translate(-47.000000, 52.000000)">
                <g id="下一题" transform="translate(411.399982, 572.595204) scale(-1, 1) translate(-411.399982, -572.595204) translate(403.399982, 564.595204)">
                    <rect id="矩形" fill="#000000" opacity="0" x="0" y="0" width="16" height="16"></rect>
                    <path d="M13.959375,5.1109375 L13.9515625,5.1109375 L13.9515625,5.109375 L13.10625,5.109375 L13.10625,5.1078125 L7.88125,5.1078125 C7.715625,5.071875 7.5875,4.9375 7.5625,4.76875 L7.5625,2.6625 C7.5625,2.6515625 7.5625,2.6421875 7.5609375,2.63125 C7.5609375,2.6265625 7.5609375,2.621875 7.559375,2.615625 C7.559375,2.6109375 7.559375,2.6046875 7.5578125,2.6 C7.5578125,2.59375 7.55625,2.5875 7.55625,2.58125 C7.55625,2.5765625 7.5546875,2.5734375 7.5546875,2.56875 C7.553125,2.5625 7.553125,2.5546875 7.5515625,2.5484375 C7.5515625,2.5453125 7.55,2.5421875 7.55,2.5375 C7.5484375,2.53125 7.546875,2.5234375 7.5453125,2.5171875 C7.5453125,2.5140625 7.54375,2.5109375 7.54375,2.5078125 L7.5390625,2.4890625 C7.5375,2.4859375 7.5375,2.48125 7.5359375,2.478125 C7.534375,2.471875 7.5328125,2.465625 7.5296875,2.4609375 C7.528125,2.45625 7.5265625,2.453125 7.525,2.4484375 C7.5234375,2.44375 7.5203125,2.4375 7.51875,2.4328125 L7.5140625,2.41875 C7.5125,2.4140625 7.509375,2.409375 7.5078125,2.4046875 C7.50625,2.4 7.503125,2.39375 7.5015625,2.3890625 C7.5,2.3859375 7.4984375,2.38125 7.4953125,2.378125 C7.4921875,2.371875 7.4890625,2.3671875 7.4875,2.3609375 C7.4859375,2.3578125 7.484375,2.3546875 7.48125,2.3515625 C7.478125,2.3453125 7.475,2.340625 7.471875,2.334375 C7.4703125,2.33125 7.46875,2.328125 7.465625,2.325 C7.4625,2.31875 7.4578125,2.3140625 7.4546875,2.3078125 C7.453125,2.3046875 7.45,2.3015625 7.4484375,2.2984375 C7.4453125,2.2921875 7.440625,2.2875 7.4359375,2.28125 C7.4328125,2.278125 7.43125,2.275 7.428125,2.271875 C7.425,2.2671875 7.4203125,2.2625 7.4171875,2.2578125 C7.4140625,2.253125 7.409375,2.25 7.40625,2.2453125 C7.403125,2.2421875 7.4,2.2375 7.396875,2.234375 C7.3890625,2.2265625 7.3828125,2.21875 7.375,2.2109375 C7.3671875,2.203125 7.359375,2.196875 7.3515625,2.1890625 C7.3484375,2.1859375 7.34375,2.1828125 7.340625,2.1796875 C7.3359375,2.1765625 7.3328125,2.171875 7.328125,2.16875 C7.3234375,2.1640625 7.31875,2.1609375 7.3140625,2.1578125 C7.3109375,2.1546875 7.3078125,2.153125 7.3046875,2.15 C7.2984375,2.1453125 7.29375,2.1421875 7.2875,2.1375 C7.284375,2.1359375 7.28125,2.1328125 7.278125,2.13125 C7.271875,2.128125 7.2671875,2.1234375 7.2609375,2.1203125 C7.2578125,2.11875 7.2546875,2.1171875 7.2515625,2.1140625 C7.2453125,2.1109375 7.240625,2.1078125 7.234375,2.1046875 C7.23125,2.103125 7.228125,2.1015625 7.225,2.0984375 C7.21875,2.0953125 7.2140625,2.0921875 7.2078125,2.090625 C7.2046875,2.0890625 7.2,2.0875 7.196875,2.084375 C7.1921875,2.08125 7.1859375,2.0796875 7.18125,2.078125 C7.1765625,2.0765625 7.171875,2.0734375 7.1671875,2.071875 L7.153125,2.0671875 C7.1484375,2.065625 7.1421875,2.0625 7.1375,2.0609375 C7.1328125,2.059375 7.1296875,2.0578125 7.125,2.05625 C7.11875,2.0546875 7.1125,2.0515625 7.1078125,2.05 C7.1046875,2.0484375 7.1,2.0484375 7.096875,2.046875 L7.078125,2.0421875 C7.075,2.040625 7.071875,2.040625 7.0671875,2.0390625 C7.0609375,2.0375 7.053125,2.0359375 7.046875,2.034375 C7.04375,2.034375 7.040625,2.0328125 7.0359375,2.0328125 C7.0296875,2.03125 7.021875,2.0296875 7.015625,2.0296875 C7.0109375,2.0296875 7.0078125,2.028125 7.003125,2.028125 C6.996875,2.0265625 6.990625,2.0265625 6.984375,2.0265625 C6.9796875,2.0265625 6.9734375,2.025 6.96875,2.025 C6.9640625,2.025 6.959375,2.0234375 6.9546875,2.0234375 C6.934375,2.021875 6.9125,2.021875 6.890625,2.0234375 C6.8859375,2.0234375 6.88125,2.0234375 6.8765625,2.025 C6.871875,2.025 6.865625,2.025 6.8609375,2.0265625 C6.8546875,2.0265625 6.8484375,2.028125 6.8421875,2.028125 C6.8375,2.028125 6.834375,2.0296875 6.8296875,2.0296875 C6.8234375,2.03125 6.815625,2.03125 6.809375,2.0328125 C6.80625,2.0328125 6.803125,2.034375 6.7984375,2.034375 C6.7921875,2.0359375 6.784375,2.0375 6.778125,2.0390625 C6.775,2.040625 6.771875,2.040625 6.7671875,2.0421875 L6.7484375,2.046875 C6.7453125,2.0484375 6.740625,2.0484375 6.7375,2.05 C6.73125,2.0515625 6.725,2.053125 6.7203125,2.05625 C6.715625,2.0578125 6.7125,2.059375 6.7078125,2.0609375 C6.703125,2.0625 6.696875,2.065625 6.6921875,2.0671875 C6.6875,2.06875 6.6828125,2.0703125 6.678125,2.0734375 C6.6734375,2.075 6.66875,2.078125 6.6640625,2.0796875 C6.659375,2.08125 6.653125,2.084375 6.6484375,2.0859375 C6.6453125,2.0875 6.640625,2.0890625 6.6375,2.0921875 C6.63125,2.0953125 6.6265625,2.0984375 6.6203125,2.1015625 C6.6171875,2.103125 6.6140625,2.1046875 6.6109375,2.1078125 C6.6046875,2.1109375 6.5984375,2.1140625 6.59375,2.1171875 C6.590625,2.11875 6.5875,2.1203125 6.584375,2.1234375 C6.578125,2.1265625 6.571875,2.13125 6.5671875,2.134375 C6.5640625,2.1359375 6.5609375,2.1390625 6.5578125,2.140625 C6.5515625,2.14375 6.546875,2.1484375 6.540625,2.153125 C6.5375,2.15625 6.534375,2.1578125 6.53125,2.1609375 C6.5265625,2.1640625 6.521875,2.16875 6.515625,2.171875 C6.5109375,2.175 6.5078125,2.178125 6.503125,2.1828125 C6.5,2.1859375 6.4953125,2.1890625 6.4921875,2.1921875 C6.484375,2.1984375 6.4765625,2.20625 6.4703125,2.2140625 L0.8640625,7.8171875 L0.85,7.83125 C0.725,7.95625 0.6625,8.1203125 0.6625,8.284375 C0.6625,8.4484375 0.725,8.6125 0.85,8.7375 L0.8640625,8.7515625 L6.4703125,14.3578125 C6.596875,14.484375 6.7640625,14.546875 6.9296875,14.5453411 L6.9359375,14.5453411 C7.2890625,14.5453411 7.5765625,14.259375 7.5765625,13.9046875 L7.5765625,11.403125 L14.18125,11.403125 C14.615625,11.3140625 14.9546875,10.9578125 15.01875,10.515625 L15.01875,6.065625 C14.9625,5.5296875 14.509375,5.1109375 13.959375,5.1109375 Z" id="路径" fill="#4E4E4E"></path>
                </g>
            </g>
        </g>
    </g>
</svg>