<?xml version="1.0" encoding="UTF-8"?>
<svg width="16px" height="16px" viewBox="0 0 16 16" version="1.1" xmlns="http://www.w3.org/2000/svg" xmlns:xlink="http://www.w3.org/1999/xlink">
    <title>地区选择</title>
    <g id="页面-1" stroke="none" stroke-width="1" fill="none" fill-rule="evenodd">
        <g id="app-电工基础训练" transform="translate(-30.000000, -102.000000)" fill-rule="nonzero">
            <g id="地区选择" transform="translate(30.000000, 102.000000)">
                <rect id="矩形" fill="#000000" opacity="0" x="0" y="0" width="16" height="16"></rect>
                <path d="M13.7228569,15.9970686 L2.1251735,15.9970686 C1.79469266,16.0245606 1.47852019,15.8568488 1.31593859,15.5678149 C1.153357,15.2787809 1.17421515,14.9214895 1.36932448,14.653337 L1.95720705,13.8135048 C2.18815166,13.602443 2.48822351,13.4829831 2.8010385,13.4775719 L13.1349743,13.4775719 C13.4389369,13.4720097 13.7244234,13.6230607 13.8908233,13.877492 L14.4787059,14.7173242 C14.878626,15.2212236 14.4787059,15.9770726 13.7228569,15.9770726 L13.7228569,15.9970686 Z M11.7912427,1.62793881 C9.73565054,-0.475550427 6.37571131,-0.550176254 4.22875331,1.45997237 L4.06078686,1.62793881 C1.96086616,3.84202336 1.96086616,7.31227657 4.06078686,9.52636111 L7.92801438,13.4775719 L11.7912427,9.52636111 C13.8911634,7.31227657 13.8911634,3.84202336 11.7912427,1.62793881 L11.7912427,1.62793881 Z M7.92801438,7.34279728 C7.0003613,7.34279728 6.24834989,6.59078588 6.24834989,5.6631328 C6.24834989,4.73547972 7.0003613,3.98346831 7.92801437,3.98346831 C8.85566745,3.98346831 9.60767886,4.73547972 9.60767886,5.6631328 C9.60548018,6.58987362 8.8547552,7.3405986 7.92801438,7.34279728 L7.92801438,7.34279728 Z" id="形状" fill="#5D5D5D"></path>
            </g>
        </g>
    </g>
</svg>