<?xml version="1.0" encoding="UTF-8"?>
<svg width="48px" height="48px" viewBox="0 0 48 48" version="1.1" xmlns="http://www.w3.org/2000/svg" xmlns:xlink="http://www.w3.org/1999/xlink">
    <title>学习认证</title>
    <g id="页面-1" stroke="none" stroke-width="1" fill="none" fill-rule="evenodd">
        <g id="app-考试" transform="translate(-35.000000, -285.000000)" fill-rule="nonzero">
            <g id="学习认证" transform="translate(35.000000, 285.000000)">
                <rect id="矩形" fill="#000000" opacity="0" x="0" y="0" width="48" height="48"></rect>
                <path d="M36.48,2.88 C39.6611602,2.88 42.24,5.45883984 42.24,8.64 L42.24,39.36 C42.24,42.5411602 39.6611602,45.12 36.48,45.12 L11.52,45.12 C8.33883984,45.12 5.76,42.5411602 5.76,39.36 L5.76,8.64 C5.76,5.45883984 8.33883984,2.88 11.52,2.88 L36.48,2.88 Z M30.24,35.52 L17.76,35.52 C16.8,35.52 16.32,36 16.32,36.96 L16.32,36.96 L16.3249827,37.1244291 C16.3781315,37.9748097 16.8564706,38.4 17.76,38.4 L17.76,38.4 L30.24,38.4 C31.2,38.4 31.68,37.92 31.68,36.96 L31.68,36.96 L31.6750173,36.7955709 C31.6218685,35.9451903 31.1435294,35.52 30.24,35.52 L30.24,35.52 Z M34.08,28.8 L13.92,28.8 C13.12471,28.8 12.48,29.44471 12.48,30.24 C12.48,31.03529 13.12471,31.68 13.92,31.68 L13.92,31.68 L34.08,31.68 C34.87529,31.68 35.52,31.03529 35.52,30.24 C35.52,29.44471 34.87529,28.8 34.08,28.8 L34.08,28.8 Z M24,9.05080549 C23.3813694,9.05080549 22.8006376,9.34888266 22.44,9.85152 L22.44,9.85152 L20.70816,12.26496 C20.4695787,12.5969882 20.1312361,12.8441867 19.7424,12.97056 L19.7424,12.97056 L16.90752,13.89216 C16.3236892,14.0821181 15.8659108,14.5398289 15.6758664,15.1236316 C15.485822,15.7074343 15.5864328,16.3469167 15.94656,16.84416 L15.94656,16.84416 L17.71296,19.28448 C17.95089,19.6131158 18.0785987,20.0086766 18.07776,20.4144 L18.07776,20.4144 L18.072,23.42016 C18.0709225,24.0367713 18.3660567,24.6163807 18.8653492,24.9782061 C19.3646417,25.3400316 20.0073309,25.4400406 20.59296,25.24704 L20.59296,25.24704 L23.39904,24.32256 C23.7893552,24.193928 24.2106448,24.193928 24.60096,24.32256 L24.60096,24.32256 L27.40704,25.24704 C27.9926691,25.4400406 28.6353583,25.3400316 29.1346508,24.9782061 C29.6339433,24.6163807 29.9290775,24.0367713 29.928,23.42016 L29.928,23.42016 L29.92224,20.4144 C29.9214013,20.0086766 30.04911,19.6131158 30.28704,19.28448 L30.28704,19.28448 L32.05344,16.84416 C32.4135672,16.3469167 32.514178,15.7074343 32.3241336,15.1236316 C32.1340892,14.5398289 31.6763108,14.0821181 31.09248,13.89216 L31.09248,13.89216 L28.2576,12.97056 C27.8687639,12.8441867 27.5304213,12.5969882 27.29184,12.26496 L27.29184,12.26496 L25.56,9.85152 C25.1993624,9.34888266 24.6186306,9.05080549 24,9.05080549 Z" id="形状结合" fill="#FFFFFF"></path>
            </g>
        </g>
    </g>
</svg>