<?xml version="1.0" encoding="UTF-8"?>
<svg width="16px" height="16px" viewBox="0 0 16 16" version="1.1" xmlns="http://www.w3.org/2000/svg" xmlns:xlink="http://www.w3.org/1999/xlink">
    <title>定位</title>
    <g id="页面-1" stroke="none" stroke-width="1" fill="none" fill-rule="evenodd">
        <g id="app-搜索结果" transform="translate(-10.000000, -41.000000)" fill-rule="nonzero">
            <g id="定位" transform="translate(10.000000, 41.000000)">
                <rect id="矩形" fill="#000000" opacity="0" x="0" y="0" width="16" height="16"></rect>
                <path d="M7.8515625,14.8423437 L3.91390625,10.9048437 C1.65390625,8.64484375 1.65390625,4.98078125 3.91390625,2.72078125 C6.17390625,0.46078125 9.83796875,0.46078125 12.0979687,2.72078125 C14.3579687,4.98078125 14.3579687,8.64484375 12.0979687,10.9048437 L8.1603125,14.8423437 C8.075,14.9276563 7.936875,14.9276563 7.8515625,14.8423437 Z" id="路径" fill="#333333"></path>
                <path d="M5.9746875,6.5 C5.9746875,7.6218284 6.8841091,8.53125 8.0059375,8.53125 C9.1277659,8.53125 10.0371875,7.6218284 10.0371875,6.5 C10.0371875,5.3781716 9.1277659,4.46875 8.0059375,4.46875 C6.8841091,4.46875 5.9746875,5.3781716 5.9746875,6.5 Z" id="路径" fill="#FFFFFF"></path>
            </g>
        </g>
    </g>
</svg>