<?xml version="1.0" encoding="UTF-8"?>
<svg width="48px" height="48px" viewBox="0 0 48 48" version="1.1" xmlns="http://www.w3.org/2000/svg" xmlns:xlink="http://www.w3.org/1999/xlink">
    <title>岗位认证</title>
    <g id="页面-1" stroke="none" stroke-width="1" fill="none" fill-rule="evenodd">
        <g id="app-考试" transform="translate(-240.000000, -285.000000)" fill-rule="nonzero">
            <g id="岗位认证" transform="translate(240.000000, 285.000000)">
                <rect id="矩形" fill="#000000" opacity="0" x="0" y="0" width="48" height="48"></rect>
                <path d="M15.74,44 C15.74,44 13.5,41.48 11.38,39.4 C9.12,38.78 6.84,38.2 4.53999998,37.66 L9.20000002,29.6 C11.66,32.8 15.98,35.56 20.06,36.56 L15.74,44 Z M37,39 C34.88,41.08 32.24,44 32.24,44 L27.96,36.56 C32.04,35.56 35.96,32.82 38.42,29.6 L43.46,37.66 C43.44,37.68 40.02,38.16 37,39 Z M23.98,3.99999998 C15.86,3.99999998 8.88,11.38 8.88,19.52 C8.88,27.66 15.86,34.24 23.98,34.24 C32.1,34.24 39.08,27.26 39.08,19.12 C39.08,10.98 32.1,3.99999998 23.98,3.99999998 Z M32.7,18.46 L30.06,21.2 C29.7,21.56 29.52,22.08 29.64,22.6 L29.64,22.66 L30.24,26.38 C30.3,26.74 30.24,27.12 30.06,27.42 C29.6,28.24 28.58,28.56 27.76,28.1 L24.72,26.48 C24.24,26.22 23.64,26.22 23.16,26.54 L20.2,28.12 C19.86,28.3 19.5,28.34 19.12,28.3 C18.22,28.16 17.58,27.28 17.72,26.38 L18.34,22.52 C18.4,22.06 18.26,21.62 17.94,21.28 L15.28,18.46 C15.06,18.2 14.88,17.86 14.82,17.52 C14.68,16.62 15.34,15.76 16.24,15.62 L19.64,15.08 C20.18,15.06 20.66,14.72 20.88,14.22 L22.44,10.9 C22.72,10.34 23.32,9.93999998 23.98,9.93999998 C24.64,9.93999998 25.22,10.3 25.52,10.9 L27.06,14.2 C27.28,14.72 27.76,15.06 28.34,15.1 L31.74,15.62 C32.08,15.68 32.42,15.84 32.68,16.08 C33.32,16.74 33.34,17.82 32.7,18.46 L32.7,18.46 Z" id="形状" fill="#FFFFFF"></path>
            </g>
        </g>
    </g>
</svg>