<?xml version="1.0" encoding="UTF-8"?>
<svg width="34px" height="34px" viewBox="0 0 34 34" version="1.1" xmlns="http://www.w3.org/2000/svg" xmlns:xlink="http://www.w3.org/1999/xlink">
    <title>我的下载</title>
    <g id="页面-1" stroke="none" stroke-width="1" fill="none" fill-rule="evenodd">
        <g id="app-阅读" transform="translate(-319.000000, -278.000000)" fill-rule="nonzero">
            <g id="我的下载" transform="translate(319.000000, 278.000000)">
                <rect id="矩形" fill="#000000" opacity="0" x="0" y="0" width="34" height="34"></rect>
                <path d="M19.064723,17.421809 L18.1720652,18.2376269 L18.1720652,18.2345091 L18.1220975,15.5758264 C18.115925,15.252617 17.8146494,14.9948809 17.4490036,15.0000772 C17.0833578,15.0055333 16.7917817,15.2718433 16.7976603,15.5950526 L16.8476279,18.2537354 C16.8476279,18.2547746 16.8476279,18.2558139 16.8479219,18.257113 L15.9229321,17.4662373 C15.7068954,17.2815092 15.3621184,17.2864456 15.153136,17.4774094 C14.9441535,17.6683731 14.9497382,17.9731356 15.1657749,18.1578638 L17.0836517,19.7978135 C17.102757,19.8214566 17.1242137,19.8438007 17.1486097,19.8645859 C17.2838163,19.9802033 17.4692846,20.0215139 17.6403504,19.9895567 C17.7505028,19.9711357 17.8514635,19.922928 17.9292811,19.8515951 C17.9492682,19.8334081 17.9671977,19.8141818 17.9830698,19.7941761 L19.846864,18.0910914 C20.0558465,17.9001277 20.0502618,17.595625 19.8342251,17.410637 C19.6181884,17.2259088 19.2737054,17.2308453 19.064723,17.421809 Z M17,3 C9.268,3 3,9.268 3,17 C3,24.732 9.268,31 17,31 C24.732,31 31,24.732 31,17 C31,9.268 24.732,3 17,3 Z M22.0860595,22.9951593 C22.0304695,22.9982915 21.9745929,23 21.9184297,23 L12.5724247,23 C12.5211328,23 12.469841,22.9985763 12.4191222,22.9960136 C12.3609532,22.9982915 12.3024977,23 12.2437557,23 C9.90009074,23 8,21.1073048 8,18.7724017 C8,16.4374986 9.90009074,14.5448034 12.2437557,14.5448034 C12.5096709,14.5448034 12.7695687,14.5692914 13.0217298,14.6159895 C13.0217298,14.6026065 13.0211567,14.5895083 13.0211567,14.5761253 C13.0211567,12.0487351 15.0777019,10 17.6147858,10 C20.1518697,10 22.2084149,12.0487351 22.2084149,14.5761253 C22.2084149,14.6646808 22.2055495,14.7526667 22.2006782,14.8400832 C24.3254215,14.9986858 26,16.7621071 26,18.9142044 C25.9997135,21.1047421 24.2649601,22.8926514 22.0860595,22.9951593 L22.0860595,22.9951593 Z" id="形状" fill="#5BB001"></path>
            </g>
        </g>
    </g>
</svg>