<?xml version="1.0" encoding="UTF-8"?>
<svg width="16px" height="16px" viewBox="0 0 16 16" version="1.1" xmlns="http://www.w3.org/2000/svg" xmlns:xlink="http://www.w3.org/1999/xlink">
    <title>搜索</title>
    <g id="页面-1" stroke="none" stroke-width="1" fill="none" fill-rule="evenodd">
        <g id="app-应用" transform="translate(-367.000000, -157.000000)" fill-rule="nonzero">
            <g id="搜索" transform="translate(367.000000, 157.000000)">
                <rect id="矩形" fill="#000000" opacity="0" x="0" y="0" width="16" height="16"></rect>
                <path d="M11.032,9.618 L14.707,13.293 L13.293,14.707 L9.618,11.032 C7.27569747,12.6433805 4.09133192,12.2040303 2.2728811,10.0185865 C0.454430285,7.83314263 0.601289035,4.62196762 2.61162833,2.61162833 C4.62196762,0.601289035 7.83314263,0.454430285 10.0185865,2.2728811 C12.2040303,4.09133192 12.6433805,7.27569747 11.032,9.618 L11.032,9.618 Z M6.50000007,10 C7.75042958,10 8.90587418,9.3329038 9.53108897,8.25000002 C10.1563038,7.16709624 10.1563038,5.83290376 9.53108897,4.74999998 C8.90587418,3.6670962 7.75042958,3 6.50000007,3 C4.5670034,3 3.00000007,4.5670034 3.00000007,6.5 C3.00000007,8.4329966 4.5670034,10 6.50000007,10 L6.50000007,10 Z" id="形状" fill="#787878"></path>
            </g>
        </g>
    </g>
</svg>