<?xml version="1.0" encoding="UTF-8"?>
<svg width="24px" height="24px" viewBox="0 0 24 24" version="1.1" xmlns="http://www.w3.org/2000/svg" xmlns:xlink="http://www.w3.org/1999/xlink">
    <title>收藏</title>
    <g id="页面-1" stroke="none" stroke-width="1" fill="none" fill-rule="evenodd">
        <g id="app-最近学习" transform="translate(-267.000000, -365.000000)" fill-rule="nonzero">
            <g id="编组-4" transform="translate(0.000000, 120.000000)">
                <g id="收藏" transform="translate(267.000000, 245.000000)">
                    <rect id="矩形" fill="#000000" opacity="0" x="0" y="0" width="24" height="24"></rect>
                    <path d="M7.68112819,18.8508112 L11.210935,17.4219079 L12.0012711,17.1025165 L12.7916073,17.4219079 L16.32151,18.849588 L16.2164133,14.9457788 L16.1951397,14.1726869 L16.6794433,13.5700715 L18.9426449,10.7492959 L15.3010019,9.64628381 L14.5971511,9.43342812 L14.1793544,8.83069277 L12.0012712,5.68927866 L9.82460295,8.83069277 L9.40680621,9.43342812 L8.70290745,9.64628381 L5.05860227,10.7506631 L7.32187577,13.5700715 L7.80617941,14.1726869 L7.78490583,14.9457788 L7.68112819,18.8508112 M18.5142234,22.0108367 L12.0012711,19.3764148 L5.48843883,22.0108367 L5.67865385,14.8885056 L1.46226459,9.63693016 L8.09225747,7.62910746 L12.0012711,1.98913936 L15.9116759,7.62910746 L22.5377354,9.63693016 L18.3226413,14.8885296 L18.5142234,22.0108367 L18.5142234,22.0108367 L18.5142234,22.0108367 Z" id="形状" fill="#FFFFFF"></path>
                </g>
            </g>
        </g>
    </g>
</svg>