<?xml version="1.0" encoding="UTF-8"?>
<svg width="24px" height="24px" viewBox="0 0 24 24" version="1.1" xmlns="http://www.w3.org/2000/svg" xmlns:xlink="http://www.w3.org/1999/xlink">
    <title>未开始</title>
    <g id="页面-1" stroke="none" stroke-width="1" fill="none" fill-rule="evenodd">
        <g id="app-考试" transform="translate(-31.000000, -559.000000)" fill-rule="nonzero">
            <g id="编组-6备份" transform="translate(0.000000, 528.000000)">
                <g id="未开始" transform="translate(31.000000, 31.000000)">
                    <rect id="矩形" fill="#000000" opacity="0" x="0" y="0" width="24" height="24"></rect>
                    <path d="M12,24 C5.37257812,24 0,18.6274219 0,12 C0,5.37257813 5.37257812,0 12,0 C18.6274219,0 24,5.37257812 24,12 C24,18.6274219 18.6274219,24 12,24 Z M16.1399531,14.7508594 L13.03125,12.3734063 L13.03125,5.2734375 C13.03125,4.70390625 12.5695312,4.2421875 12,4.2421875 C11.4304688,4.2421875 10.96875,4.70390625 10.96875,5.2734375 L10.96875,13.3925625 L14.8870078,16.3891641 C15.3394219,16.7351484 15.9866484,16.648875 16.3326328,16.1964844 C16.6786172,15.7440703 16.5923438,15.0968438 16.1399531,14.7508594 L16.1399531,14.7508594 Z" id="形状" fill="#FFFFFF"></path>
                </g>
            </g>
        </g>
    </g>
</svg>