<?xml version="1.0" standalone="no"?><!DOCTYPE svg PUBLIC "-//W3C//DTD SVG 1.1//EN" "http://www.w3.org/Graphics/SVG/1.1/DTD/svg11.dtd"><svg t="1628479548655" class="icon" viewBox="0 0 1024 1024" version="1.1" xmlns="http://www.w3.org/2000/svg" p-id="1641" xmlns:xlink="http://www.w3.org/1999/xlink" width="200" height="200"><defs><style type="text/css"></style></defs><path d="M828.16 195.2a448.256 448.256 0 0 0-633.984 0 448.256 448.256 0 0 0 0 633.984A448.256 448.256 0 1 0 828.16 195.2z m-28.8 605.184A407.552 407.552 0 1 1 222.976 224a407.552 407.552 0 0 1 576.384 576.384zM726.848 362.24l26.432 26.432-304 304-26.432-26.432 304-304z m-250.368 304l-26.432 26.432L251.52 494.208l26.368-26.432 198.528 198.528z" fill="#ffffff" p-id="1642"></path></svg>