<?xml version="1.0" encoding="UTF-8"?>
<svg width="86px" height="86px" viewBox="0 0 86 86" version="1.1" xmlns="http://www.w3.org/2000/svg" xmlns:xlink="http://www.w3.org/1999/xlink">
    <title>标准基础</title>
    <defs>
        <linearGradient x1="0.000671862402%" y1="49.9819005%" x2="99.9966407%" y2="49.9819005%" id="linearGradient-1">
            <stop stop-color="#EBEFF2" offset="49.4%"></stop>
            <stop stop-color="#FFFFFF" offset="100%"></stop>
        </linearGradient>
        <linearGradient x1="-0.00497765136%" y1="50.0102848%" x2="99.9964445%" y2="50.0102848%" id="linearGradient-2">
            <stop stop-color="#EBEFF2" offset="49.4%"></stop>
            <stop stop-color="#FFFFFF" offset="100%"></stop>
        </linearGradient>
        <linearGradient x1="-0.0157791295%" y1="49.9997074%" x2="100.074463%" y2="49.9997074%" id="linearGradient-3">
            <stop stop-color="#444B8C" offset="0%"></stop>
            <stop stop-color="#26264F" offset="99.64%"></stop>
        </linearGradient>
        <linearGradient x1="0%" y1="50.0123265%" x2="100%" y2="50.0123265%" id="linearGradient-4">
            <stop stop-color="#444B8C" offset="0%"></stop>
            <stop stop-color="#26264F" offset="99.64%"></stop>
        </linearGradient>
        <linearGradient x1="-0.00203970155%" y1="49.9995216%" x2="100.002109%" y2="49.9995216%" id="linearGradient-5">
            <stop stop-color="#444B8C" offset="0%"></stop>
            <stop stop-color="#26264F" offset="99.64%"></stop>
        </linearGradient>
        <linearGradient x1="0%" y1="50.0019799%" x2="100%" y2="50.0019799%" id="linearGradient-6">
            <stop stop-color="#444B8C" offset="0%"></stop>
            <stop stop-color="#26264F" offset="99.64%"></stop>
        </linearGradient>
        <linearGradient x1="0.00322841001%" y1="49.9940199%" x2="99.9939467%" y2="49.9940199%" id="linearGradient-7">
            <stop stop-color="#444B8C" offset="0%"></stop>
            <stop stop-color="#26264F" offset="99.64%"></stop>
        </linearGradient>
        <linearGradient x1="99.9941485%" y1="49.9940199%" x2="0.00322841001%" y2="49.9940199%" id="linearGradient-8">
            <stop stop-color="#444B8C" offset="0%"></stop>
            <stop stop-color="#26264F" offset="99.64%"></stop>
        </linearGradient>
        <linearGradient x1="0.00322841001%" y1="50.0017715%" x2="99.9939467%" y2="50.0017715%" id="linearGradient-9">
            <stop stop-color="#444B8C" offset="0%"></stop>
            <stop stop-color="#26264F" offset="99.64%"></stop>
        </linearGradient>
        <linearGradient x1="99.9941485%" y1="50.0017715%" x2="0.00322841001%" y2="50.0017715%" id="linearGradient-10">
            <stop stop-color="#444B8C" offset="0%"></stop>
            <stop stop-color="#26264F" offset="99.64%"></stop>
        </linearGradient>
        <linearGradient x1="-0.00968718466%" y1="50.0070875%" x2="100.001211%" y2="50.0070875%" id="linearGradient-11">
            <stop stop-color="#444B8C" offset="0%"></stop>
            <stop stop-color="#26264F" offset="99.64%"></stop>
        </linearGradient>
        <linearGradient x1="100.001211%" y1="50.0070875%" x2="-0.00988900101%" y2="50.0070875%" id="linearGradient-12">
            <stop stop-color="#444B8C" offset="0%"></stop>
            <stop stop-color="#26264F" offset="99.64%"></stop>
        </linearGradient>
        <linearGradient x1="-0.00968718466%" y1="50.0028787%" x2="100.001211%" y2="50.0028787%" id="linearGradient-13">
            <stop stop-color="#444B8C" offset="0%"></stop>
            <stop stop-color="#26264F" offset="99.64%"></stop>
        </linearGradient>
        <linearGradient x1="100.001211%" y1="50.0028787%" x2="-0.00988900101%" y2="50.0028787%" id="linearGradient-14">
            <stop stop-color="#444B8C" offset="0%"></stop>
            <stop stop-color="#26264F" offset="99.64%"></stop>
        </linearGradient>
        <linearGradient x1="-0.00968718466%" y1="50.0011074%" x2="100.001211%" y2="50.0011074%" id="linearGradient-15">
            <stop stop-color="#444B8C" offset="0%"></stop>
            <stop stop-color="#26264F" offset="99.64%"></stop>
        </linearGradient>
        <linearGradient x1="100.001211%" y1="50.0011074%" x2="-0.00988900101%" y2="50.0011074%" id="linearGradient-16">
            <stop stop-color="#444B8C" offset="0%"></stop>
            <stop stop-color="#26264F" offset="99.64%"></stop>
        </linearGradient>
        <linearGradient x1="-0.00968718466%" y1="49.9975637%" x2="100.001211%" y2="49.9975637%" id="linearGradient-17">
            <stop stop-color="#444B8C" offset="0%"></stop>
            <stop stop-color="#26264F" offset="99.64%"></stop>
        </linearGradient>
        <linearGradient x1="100.001211%" y1="49.9975637%" x2="-0.00988900101%" y2="49.9975637%" id="linearGradient-18">
            <stop stop-color="#444B8C" offset="0%"></stop>
            <stop stop-color="#26264F" offset="99.64%"></stop>
        </linearGradient>
        <linearGradient x1="0%" y1="50%" x2="100%" y2="50%" id="linearGradient-19">
            <stop stop-color="#444B8C" offset="0%"></stop>
            <stop stop-color="#26264F" offset="99.64%"></stop>
        </linearGradient>
        <linearGradient x1="0%" y1="50%" x2="100%" y2="50%" id="linearGradient-20">
            <stop stop-color="#444B8C" offset="0%"></stop>
            <stop stop-color="#26264F" offset="99.64%"></stop>
        </linearGradient>
        <linearGradient x1="0%" y1="50%" x2="100%" y2="50%" id="linearGradient-21">
            <stop stop-color="#444B8C" offset="0%"></stop>
            <stop stop-color="#26264F" offset="99.64%"></stop>
        </linearGradient>
        <linearGradient x1="0%" y1="50%" x2="100%" y2="50%" id="linearGradient-22">
            <stop stop-color="#444B8C" offset="0%"></stop>
            <stop stop-color="#26264F" offset="99.64%"></stop>
        </linearGradient>
        <linearGradient x1="0%" y1="50%" x2="100%" y2="50%" id="linearGradient-23">
            <stop stop-color="#444B8C" offset="0%"></stop>
            <stop stop-color="#26264F" offset="99.64%"></stop>
        </linearGradient>
        <linearGradient x1="0%" y1="50%" x2="100%" y2="50%" id="linearGradient-24">
            <stop stop-color="#444B8C" offset="0%"></stop>
            <stop stop-color="#26264F" offset="99.64%"></stop>
        </linearGradient>
        <linearGradient x1="-0.00851379284%" y1="50.018186%" x2="100.015854%" y2="50.018186%" id="linearGradient-25">
            <stop stop-color="#444B8C" offset="0%"></stop>
            <stop stop-color="#26264F" offset="99.64%"></stop>
        </linearGradient>
        <linearGradient x1="-0.00792453625%" y1="49.9960005%" x2="99.9744881%" y2="49.9960005%" id="linearGradient-26">
            <stop stop-color="#444B8C" offset="0%"></stop>
            <stop stop-color="#26264F" offset="99.64%"></stop>
        </linearGradient>
        <linearGradient x1="0%" y1="50.0016423%" x2="99.9986219%" y2="50.0016423%" id="linearGradient-27">
            <stop stop-color="#444B8C" offset="0%"></stop>
            <stop stop-color="#26264F" offset="99.64%"></stop>
        </linearGradient>
        <linearGradient x1="0%" y1="50.0454959%" x2="100%" y2="50.0454959%" id="linearGradient-28">
            <stop stop-color="#FFC444" offset="0%"></stop>
            <stop stop-color="#F36F56" offset="99.64%"></stop>
        </linearGradient>
        <linearGradient x1="0%" y1="50%" x2="100%" y2="50%" id="linearGradient-29">
            <stop stop-color="#444B8C" offset="0%"></stop>
            <stop stop-color="#26264F" offset="99.64%"></stop>
        </linearGradient>
        <linearGradient x1="-0.0434782609%" y1="50%" x2="99.9565217%" y2="50%" id="linearGradient-30">
            <stop stop-color="#FFC444" offset="0%"></stop>
            <stop stop-color="#F36F56" offset="99.64%"></stop>
        </linearGradient>
        <linearGradient x1="-0.0667111408%" y1="49.9736704%" x2="100%" y2="49.9736704%" id="linearGradient-31">
            <stop stop-color="#FFC444" offset="0%"></stop>
            <stop stop-color="#F36F56" offset="99.64%"></stop>
        </linearGradient>
        <linearGradient x1="47.0523584%" y1="3.03214025%" x2="54.6557713%" y2="124.212564%" id="linearGradient-32">
            <stop stop-color="#444B8C" offset="0%"></stop>
            <stop stop-color="#3E4177" offset="99.64%"></stop>
        </linearGradient>
        <linearGradient x1="45.447284%" y1="1.6373073%" x2="57.1965015%" y2="126.419938%" id="linearGradient-33">
            <stop stop-color="#FF9085" offset="0%"></stop>
            <stop stop-color="#FB6FBB" offset="100%"></stop>
        </linearGradient>
        <linearGradient x1="37.4172539%" y1="-4.42432446%" x2="69.883878%" y2="135.987744%" id="linearGradient-34">
            <stop stop-color="#E38DDD" offset="0.359712%"></stop>
            <stop stop-color="#9571F6" offset="100%"></stop>
        </linearGradient>
        <linearGradient x1="44.3682137%" y1="47.4569228%" x2="58.8927736%" y2="54.0187604%" id="linearGradient-35">
            <stop stop-color="#444B8C" offset="0%"></stop>
            <stop stop-color="#3E4177" offset="99.64%"></stop>
        </linearGradient>
        <linearGradient x1="43.5839162%" y1="0.109885621%" x2="60.1389167%" y2="128.822084%" id="linearGradient-36">
            <stop stop-color="#AA80F9" offset="0%"></stop>
            <stop stop-color="#6165D7" offset="99.64%"></stop>
        </linearGradient>
        <linearGradient x1="37.5086131%" y1="-4.36377401%" x2="69.7376901%" y2="135.883976%" id="linearGradient-37">
            <stop stop-color="#E38DDD" offset="0.359712%"></stop>
            <stop stop-color="#9571F6" offset="100%"></stop>
        </linearGradient>
        <linearGradient x1="45.0963167%" y1="48.6965945%" x2="57.7588103%" y2="52.0592547%" id="linearGradient-38">
            <stop stop-color="#444B8C" offset="0%"></stop>
            <stop stop-color="#3E4177" offset="99.64%"></stop>
        </linearGradient>
        <linearGradient x1="45.329932%" y1="49.04394%" x2="57.3824579%" y2="51.5102087%" id="linearGradient-39">
            <stop stop-color="#444B8C" offset="0%"></stop>
            <stop stop-color="#3E4177" offset="99.64%"></stop>
        </linearGradient>
        <linearGradient x1="47.0547568%" y1="3.00913075%" x2="54.6581697%" y2="124.18992%" id="linearGradient-40">
            <stop stop-color="#444B8C" offset="0%"></stop>
            <stop stop-color="#3E4177" offset="99.64%"></stop>
        </linearGradient>
        <linearGradient x1="47.0496505%" y1="3.00913075%" x2="54.6531408%" y2="124.18992%" id="linearGradient-41">
            <stop stop-color="#444B8C" offset="0%"></stop>
            <stop stop-color="#3E4177" offset="99.64%"></stop>
        </linearGradient>
        <linearGradient x1="47.0521263%" y1="3.00913075%" x2="54.6557713%" y2="124.18992%" id="linearGradient-42">
            <stop stop-color="#444B8C" offset="0%"></stop>
            <stop stop-color="#3E4177" offset="99.64%"></stop>
        </linearGradient>
        <linearGradient x1="47.0547568%" y1="3.0109569%" x2="54.6581697%" y2="124.191381%" id="linearGradient-43">
            <stop stop-color="#444B8C" offset="0%"></stop>
            <stop stop-color="#3E4177" offset="99.64%"></stop>
        </linearGradient>
        <linearGradient x1="47.0496505%" y1="3.0109569%" x2="54.6531408%" y2="124.191381%" id="linearGradient-44">
            <stop stop-color="#444B8C" offset="0%"></stop>
            <stop stop-color="#3E4177" offset="99.64%"></stop>
        </linearGradient>
        <linearGradient x1="47.0521263%" y1="3.0109569%" x2="54.6557713%" y2="124.191381%" id="linearGradient-45">
            <stop stop-color="#444B8C" offset="0%"></stop>
            <stop stop-color="#3E4177" offset="99.64%"></stop>
        </linearGradient>
        <linearGradient x1="47.0547568%" y1="3.01278305%" x2="54.6581697%" y2="124.193572%" id="linearGradient-46">
            <stop stop-color="#444B8C" offset="0%"></stop>
            <stop stop-color="#3E4177" offset="99.64%"></stop>
        </linearGradient>
        <linearGradient x1="47.0496505%" y1="3.01278305%" x2="54.6531408%" y2="124.193572%" id="linearGradient-47">
            <stop stop-color="#444B8C" offset="0%"></stop>
            <stop stop-color="#3E4177" offset="99.64%"></stop>
        </linearGradient>
        <linearGradient x1="47.0521263%" y1="3.01278305%" x2="54.6557713%" y2="124.193572%" id="linearGradient-48">
            <stop stop-color="#444B8C" offset="0%"></stop>
            <stop stop-color="#3E4177" offset="99.64%"></stop>
        </linearGradient>
        <linearGradient x1="47.0497279%" y1="3.02593134%" x2="54.6533729%" y2="124.20672%" id="linearGradient-49">
            <stop stop-color="#444B8C" offset="0%"></stop>
            <stop stop-color="#3E4177" offset="99.64%"></stop>
        </linearGradient>
        <linearGradient x1="47.0524357%" y1="3.02629657%" x2="54.6560034%" y2="124.20672%" id="linearGradient-50">
            <stop stop-color="#444B8C" offset="0%"></stop>
            <stop stop-color="#3E4177" offset="99.64%"></stop>
        </linearGradient>
        <linearGradient x1="47.0550662%" y1="3.02593134%" x2="54.6584792%" y2="124.20672%" id="linearGradient-51">
            <stop stop-color="#444B8C" offset="0%"></stop>
            <stop stop-color="#3E4177" offset="99.64%"></stop>
        </linearGradient>
        <linearGradient x1="47.0501147%" y1="3.00620891%" x2="54.6536824%" y2="124.186998%" id="linearGradient-52">
            <stop stop-color="#444B8C" offset="0%"></stop>
            <stop stop-color="#3E4177" offset="99.64%"></stop>
        </linearGradient>
        <linearGradient x1="47.0527452%" y1="3.00620891%" x2="54.6561581%" y2="124.186633%" id="linearGradient-53">
            <stop stop-color="#444B8C" offset="0%"></stop>
            <stop stop-color="#3E4177" offset="99.64%"></stop>
        </linearGradient>
        <linearGradient x1="47.0501147%" y1="3.02593134%" x2="54.6536824%" y2="124.20672%" id="linearGradient-54">
            <stop stop-color="#444B8C" offset="0%"></stop>
            <stop stop-color="#3E4177" offset="99.64%"></stop>
        </linearGradient>
        <linearGradient x1="47.0527452%" y1="3.02629657%" x2="54.6561581%" y2="124.20672%" id="linearGradient-55">
            <stop stop-color="#444B8C" offset="0%"></stop>
            <stop stop-color="#3E4177" offset="99.64%"></stop>
        </linearGradient>
        <linearGradient x1="47.0497279%" y1="3.00620891%" x2="54.6533729%" y2="124.186998%" id="linearGradient-56">
            <stop stop-color="#444B8C" offset="0%"></stop>
            <stop stop-color="#3E4177" offset="99.64%"></stop>
        </linearGradient>
        <linearGradient x1="47.0524357%" y1="3.00620891%" x2="54.6560034%" y2="124.186633%" id="linearGradient-57">
            <stop stop-color="#444B8C" offset="0%"></stop>
            <stop stop-color="#3E4177" offset="99.64%"></stop>
        </linearGradient>
        <linearGradient x1="47.0550662%" y1="3.00620891%" x2="54.6584792%" y2="124.186998%" id="linearGradient-58">
            <stop stop-color="#444B8C" offset="0%"></stop>
            <stop stop-color="#3E4177" offset="99.64%"></stop>
        </linearGradient>
        <linearGradient x1="47.0497279%" y1="3.0230095%" x2="54.6533729%" y2="124.203433%" id="linearGradient-59">
            <stop stop-color="#444B8C" offset="0%"></stop>
            <stop stop-color="#3E4177" offset="99.64%"></stop>
        </linearGradient>
        <linearGradient x1="47.0524357%" y1="3.0230095%" x2="54.6560034%" y2="124.203433%" id="linearGradient-60">
            <stop stop-color="#444B8C" offset="0%"></stop>
            <stop stop-color="#3E4177" offset="99.64%"></stop>
        </linearGradient>
        <linearGradient x1="47.0550662%" y1="3.0230095%" x2="54.6584792%" y2="124.203433%" id="linearGradient-61">
            <stop stop-color="#444B8C" offset="0%"></stop>
            <stop stop-color="#3E4177" offset="99.64%"></stop>
        </linearGradient>
        <linearGradient x1="47.0497279%" y1="3.03981008%" x2="54.6533729%" y2="124.220599%" id="linearGradient-62">
            <stop stop-color="#444B8C" offset="0%"></stop>
            <stop stop-color="#3E4177" offset="99.64%"></stop>
        </linearGradient>
        <linearGradient x1="47.0524357%" y1="3.04017531%" x2="54.6560034%" y2="124.220234%" id="linearGradient-63">
            <stop stop-color="#444B8C" offset="0%"></stop>
            <stop stop-color="#3E4177" offset="99.64%"></stop>
        </linearGradient>
        <linearGradient x1="47.0550662%" y1="3.03981008%" x2="54.6584792%" y2="124.220599%" id="linearGradient-64">
            <stop stop-color="#444B8C" offset="0%"></stop>
            <stop stop-color="#3E4177" offset="99.64%"></stop>
        </linearGradient>
        <linearGradient x1="47.0497279%" y1="3.02008766%" x2="54.6533729%" y2="124.200511%" id="linearGradient-65">
            <stop stop-color="#444B8C" offset="0%"></stop>
            <stop stop-color="#3E4177" offset="99.64%"></stop>
        </linearGradient>
        <linearGradient x1="47.0524357%" y1="3.02008766%" x2="54.6560034%" y2="124.200511%" id="linearGradient-66">
            <stop stop-color="#444B8C" offset="0%"></stop>
            <stop stop-color="#3E4177" offset="99.64%"></stop>
        </linearGradient>
        <linearGradient x1="47.0550662%" y1="3.02008766%" x2="54.6584792%" y2="124.200511%" id="linearGradient-67">
            <stop stop-color="#444B8C" offset="0%"></stop>
            <stop stop-color="#3E4177" offset="99.64%"></stop>
        </linearGradient>
        <linearGradient x1="47.0487994%" y1="3.02520088%" x2="54.6524445%" y2="124.205625%" id="linearGradient-68">
            <stop stop-color="#444B8C" offset="0%"></stop>
            <stop stop-color="#3E4177" offset="99.64%"></stop>
        </linearGradient>
        <linearGradient x1="47.0534415%" y1="3.02520088%" x2="54.6570866%" y2="124.205625%" id="linearGradient-69">
            <stop stop-color="#444B8C" offset="0%"></stop>
            <stop stop-color="#3E4177" offset="99.64%"></stop>
        </linearGradient>
        <linearGradient x1="47.0505789%" y1="3.02520088%" x2="54.6539918%" y2="124.205625%" id="linearGradient-70">
            <stop stop-color="#444B8C" offset="0%"></stop>
            <stop stop-color="#3E4177" offset="99.64%"></stop>
        </linearGradient>
        <linearGradient x1="47.055221%" y1="3.02520088%" x2="54.658866%" y2="124.205625%" id="linearGradient-71">
            <stop stop-color="#444B8C" offset="0%"></stop>
            <stop stop-color="#3E4177" offset="99.64%"></stop>
        </linearGradient>
        <linearGradient x1="47.052281%" y1="3.02520088%" x2="54.6557713%" y2="124.205625%" id="linearGradient-72">
            <stop stop-color="#444B8C" offset="0%"></stop>
            <stop stop-color="#3E4177" offset="99.64%"></stop>
        </linearGradient>
        <linearGradient x1="47.0491863%" y1="3.02520088%" x2="54.6526766%" y2="124.205625%" id="linearGradient-73">
            <stop stop-color="#444B8C" offset="0%"></stop>
            <stop stop-color="#3E4177" offset="99.64%"></stop>
        </linearGradient>
        <linearGradient x1="47.0538284%" y1="3.02520088%" x2="54.6574734%" y2="124.205625%" id="linearGradient-74">
            <stop stop-color="#444B8C" offset="0%"></stop>
            <stop stop-color="#3E4177" offset="99.64%"></stop>
        </linearGradient>
        <linearGradient x1="47.0487994%" y1="3.0109569%" x2="54.6524445%" y2="124.191746%" id="linearGradient-75">
            <stop stop-color="#444B8C" offset="0%"></stop>
            <stop stop-color="#3E4177" offset="99.64%"></stop>
        </linearGradient>
        <linearGradient x1="47.0534415%" y1="3.0109569%" x2="54.6570866%" y2="124.191746%" id="linearGradient-76">
            <stop stop-color="#444B8C" offset="0%"></stop>
            <stop stop-color="#3E4177" offset="99.64%"></stop>
        </linearGradient>
        <linearGradient x1="47.0505789%" y1="3.0109569%" x2="54.6539918%" y2="124.191746%" id="linearGradient-77">
            <stop stop-color="#444B8C" offset="0%"></stop>
            <stop stop-color="#3E4177" offset="99.64%"></stop>
        </linearGradient>
        <linearGradient x1="47.055221%" y1="3.0109569%" x2="54.658866%" y2="124.191746%" id="linearGradient-78">
            <stop stop-color="#444B8C" offset="0%"></stop>
            <stop stop-color="#3E4177" offset="99.64%"></stop>
        </linearGradient>
        <linearGradient x1="47.052281%" y1="3.0109569%" x2="54.6557713%" y2="124.191746%" id="linearGradient-79">
            <stop stop-color="#444B8C" offset="0%"></stop>
            <stop stop-color="#3E4177" offset="99.64%"></stop>
        </linearGradient>
        <linearGradient x1="47.0491863%" y1="3.0109569%" x2="54.6526766%" y2="124.191746%" id="linearGradient-80">
            <stop stop-color="#444B8C" offset="0%"></stop>
            <stop stop-color="#3E4177" offset="99.64%"></stop>
        </linearGradient>
        <linearGradient x1="47.0538284%" y1="3.0109569%" x2="54.6574734%" y2="124.191746%" id="linearGradient-81">
            <stop stop-color="#444B8C" offset="0%"></stop>
            <stop stop-color="#3E4177" offset="99.64%"></stop>
        </linearGradient>
        <linearGradient x1="47.0487994%" y1="3.0339664%" x2="54.6522897%" y2="124.214025%" id="linearGradient-82">
            <stop stop-color="#444B8C" offset="0%"></stop>
            <stop stop-color="#3E4177" offset="99.64%"></stop>
        </linearGradient>
        <linearGradient x1="47.0534415%" y1="3.0339664%" x2="54.6570866%" y2="124.214025%" id="linearGradient-83">
            <stop stop-color="#444B8C" offset="0%"></stop>
            <stop stop-color="#3E4177" offset="99.64%"></stop>
        </linearGradient>
        <linearGradient x1="47.0505789%" y1="3.0339664%" x2="54.6539918%" y2="124.214025%" id="linearGradient-84">
            <stop stop-color="#444B8C" offset="0%"></stop>
            <stop stop-color="#3E4177" offset="99.64%"></stop>
        </linearGradient>
        <linearGradient x1="47.055221%" y1="3.0339664%" x2="54.658866%" y2="124.214025%" id="linearGradient-85">
            <stop stop-color="#444B8C" offset="0%"></stop>
            <stop stop-color="#3E4177" offset="99.64%"></stop>
        </linearGradient>
        <linearGradient x1="47.052281%" y1="3.0339664%" x2="54.6557713%" y2="124.214025%" id="linearGradient-86">
            <stop stop-color="#444B8C" offset="0%"></stop>
            <stop stop-color="#3E4177" offset="99.64%"></stop>
        </linearGradient>
        <linearGradient x1="47.0491863%" y1="3.0339664%" x2="54.6526766%" y2="124.214025%" id="linearGradient-87">
            <stop stop-color="#444B8C" offset="0%"></stop>
            <stop stop-color="#3E4177" offset="99.64%"></stop>
        </linearGradient>
        <linearGradient x1="47.0538284%" y1="3.0339664%" x2="54.6574734%" y2="124.214025%" id="linearGradient-88">
            <stop stop-color="#444B8C" offset="0%"></stop>
            <stop stop-color="#3E4177" offset="99.64%"></stop>
        </linearGradient>
        <linearGradient x1="47.0487994%" y1="3.02008766%" x2="54.6524445%" y2="124.200877%" id="linearGradient-89">
            <stop stop-color="#444B8C" offset="0%"></stop>
            <stop stop-color="#3E4177" offset="99.64%"></stop>
        </linearGradient>
        <linearGradient x1="47.0534415%" y1="3.02008766%" x2="54.6570866%" y2="124.200877%" id="linearGradient-90">
            <stop stop-color="#444B8C" offset="0%"></stop>
            <stop stop-color="#3E4177" offset="99.64%"></stop>
        </linearGradient>
        <linearGradient x1="47.0505789%" y1="3.02008766%" x2="54.6539918%" y2="124.200877%" id="linearGradient-91">
            <stop stop-color="#444B8C" offset="0%"></stop>
            <stop stop-color="#3E4177" offset="99.64%"></stop>
        </linearGradient>
        <linearGradient x1="47.055221%" y1="3.02008766%" x2="54.658866%" y2="124.200877%" id="linearGradient-92">
            <stop stop-color="#444B8C" offset="0%"></stop>
            <stop stop-color="#3E4177" offset="99.64%"></stop>
        </linearGradient>
        <linearGradient x1="47.052281%" y1="3.02008766%" x2="54.6557713%" y2="124.200877%" id="linearGradient-93">
            <stop stop-color="#444B8C" offset="0%"></stop>
            <stop stop-color="#3E4177" offset="99.64%"></stop>
        </linearGradient>
        <linearGradient x1="47.0491863%" y1="3.02008766%" x2="54.6526766%" y2="124.200877%" id="linearGradient-94">
            <stop stop-color="#444B8C" offset="0%"></stop>
            <stop stop-color="#3E4177" offset="99.64%"></stop>
        </linearGradient>
        <linearGradient x1="47.0538284%" y1="3.02008766%" x2="54.6574734%" y2="124.200877%" id="linearGradient-95">
            <stop stop-color="#444B8C" offset="0%"></stop>
            <stop stop-color="#3E4177" offset="99.64%"></stop>
        </linearGradient>
        <linearGradient x1="47.6280862%" y1="3.53579887%" x2="53.7468407%" y2="123.396247%" id="linearGradient-96">
            <stop stop-color="#444B8C" offset="0%"></stop>
            <stop stop-color="#3E4177" offset="99.64%"></stop>
        </linearGradient>
        <linearGradient x1="41.0167585%" y1="38.1801572%" x2="64.1900856%" y2="68.6745362%" id="linearGradient-97">
            <stop stop-color="#FCB148" offset="0%"></stop>
            <stop stop-color="#FDBA46" offset="5.21%"></stop>
            <stop stop-color="#FFC244" offset="14.24%"></stop>
            <stop stop-color="#FFC444" offset="31.83%"></stop>
            <stop stop-color="#FDB946" offset="48.49%"></stop>
            <stop stop-color="#F99C4D" offset="77.54%"></stop>
            <stop stop-color="#F8924F" offset="86.58%"></stop>
            <stop stop-color="#F8924F" offset="100%"></stop>
        </linearGradient>
        <linearGradient x1="45.2868276%" y1="48.9866826%" x2="57.4438064%" y2="51.6008456%" id="linearGradient-98">
            <stop stop-color="#444B8C" offset="0%"></stop>
            <stop stop-color="#3E4177" offset="99.64%"></stop>
        </linearGradient>
        <linearGradient x1="47.0496505%" y1="3.01789627%" x2="54.6532182%" y2="124.19832%" id="linearGradient-99">
            <stop stop-color="#444B8C" offset="0%"></stop>
            <stop stop-color="#3E4177" offset="99.64%"></stop>
        </linearGradient>
        <linearGradient x1="47.053132%" y1="3.01789627%" x2="54.656545%" y2="124.19832%" id="linearGradient-100">
            <stop stop-color="#444B8C" offset="0%"></stop>
            <stop stop-color="#3E4177" offset="99.64%"></stop>
        </linearGradient>
        <linearGradient x1="47.0488768%" y1="3.01789627%" x2="54.6523671%" y2="124.19832%" id="linearGradient-101">
            <stop stop-color="#444B8C" offset="0%"></stop>
            <stop stop-color="#3E4177" offset="99.64%"></stop>
        </linearGradient>
        <linearGradient x1="47.0524357%" y1="3.01789627%" x2="54.6558487%" y2="124.19832%" id="linearGradient-102">
            <stop stop-color="#444B8C" offset="0%"></stop>
            <stop stop-color="#3E4177" offset="99.64%"></stop>
        </linearGradient>
        <linearGradient x1="47.0481805%" y1="3.01789627%" x2="54.6516708%" y2="124.19832%" id="linearGradient-103">
            <stop stop-color="#444B8C" offset="0%"></stop>
            <stop stop-color="#3E4177" offset="99.64%"></stop>
        </linearGradient>
        <linearGradient x1="47.0515073%" y1="3.01789627%" x2="54.6551524%" y2="124.19832%" id="linearGradient-104">
            <stop stop-color="#444B8C" offset="0%"></stop>
            <stop stop-color="#3E4177" offset="99.64%"></stop>
        </linearGradient>
        <linearGradient x1="0.00941820541%" y1="50.0022647%" x2="100.006807%" y2="50.0022647%" id="linearGradient-105">
            <stop stop-color="#FF9085" offset="0%"></stop>
            <stop stop-color="#FB6FBB" offset="100%"></stop>
        </linearGradient>
        <linearGradient x1="-29.4973629%" y1="11.6600356%" x2="87.7364634%" y2="61.9658452%" id="linearGradient-106">
            <stop stop-color="#444B8C" offset="0%"></stop>
            <stop stop-color="#26264F" offset="99.64%"></stop>
        </linearGradient>
        <linearGradient x1="55.4763222%" y1="118.493906%" x2="44.4575849%" y2="-15.3225587%" id="linearGradient-107">
            <stop stop-color="#AB316D" offset="0%"></stop>
            <stop stop-color="#792D3D" offset="100%"></stop>
        </linearGradient>
        <linearGradient x1="-89.6022883%" y1="-16.1923476%" x2="58.88542%" y2="49.191641%" id="linearGradient-108">
            <stop stop-color="#444B8C" offset="0%"></stop>
            <stop stop-color="#26264F" offset="99.64%"></stop>
        </linearGradient>
        <linearGradient x1="-23.1750684%" y1="-6.22340182%" x2="86.2801208%" y2="66.2471383%" id="linearGradient-109">
            <stop stop-color="#444B8C" offset="0%"></stop>
            <stop stop-color="#26264F" offset="99.64%"></stop>
        </linearGradient>
        <linearGradient x1="50.0523077%" y1="122.187316%" x2="50.0523077%" y2="-19.3355457%" id="linearGradient-110">
            <stop stop-color="#AB316D" offset="0%"></stop>
            <stop stop-color="#792D3D" offset="100%"></stop>
        </linearGradient>
        <linearGradient x1="43.6386222%" y1="108.956741%" x2="60.4540062%" y2="-25.1913265%" id="linearGradient-111">
            <stop stop-color="#444B8C" offset="0%"></stop>
            <stop stop-color="#26264F" offset="99.64%"></stop>
        </linearGradient>
        <linearGradient x1="24.2083626%" y1="88.9211274%" x2="75.1302781%" y2="13.1932796%" id="linearGradient-112">
            <stop stop-color="#FF9085" offset="0%"></stop>
            <stop stop-color="#FB6FBB" offset="100%"></stop>
        </linearGradient>
        <linearGradient x1="-78.0987641%" y1="-33.1902136%" x2="57.843726%" y2="49.0377778%" id="linearGradient-113">
            <stop stop-color="#444B8C" offset="0%"></stop>
            <stop stop-color="#26264F" offset="99.64%"></stop>
        </linearGradient>
        <linearGradient x1="-13.3822216%" y1="7.30472602%" x2="121.396401%" y2="163.616952%" id="linearGradient-114">
            <stop stop-color="#AB316D" offset="0%"></stop>
            <stop stop-color="#792D3D" offset="100%"></stop>
        </linearGradient>
        <linearGradient x1="47.0724095%" y1="19.5582111%" x2="92.6971158%" y2="204.678577%" id="linearGradient-115">
            <stop stop-color="#311944" offset="0%"></stop>
            <stop stop-color="#893976" offset="100%"></stop>
        </linearGradient>
        <linearGradient x1="-124.915662%" y1="-278.548326%" x2="568.188368%" y2="1046.46166%" id="linearGradient-116">
            <stop stop-color="#AB316D" offset="0%"></stop>
            <stop stop-color="#792D3D" offset="100%"></stop>
        </linearGradient>
        <linearGradient x1="22.5084333%" y1="88.8218171%" x2="93.4346748%" y2="-7.58437531%" id="linearGradient-117">
            <stop stop-color="#FF9085" offset="0%"></stop>
            <stop stop-color="#FB6FBB" offset="100%"></stop>
        </linearGradient>
        <linearGradient x1="33.9886998%" y1="20.9983604%" x2="92.3310099%" y2="109.013224%" id="linearGradient-118">
            <stop stop-color="#444B8C" offset="0%"></stop>
            <stop stop-color="#26264F" offset="99.64%"></stop>
        </linearGradient>
        <linearGradient x1="59.4873916%" y1="56.9948422%" x2="14.4001336%" y2="22.2179791%" id="linearGradient-119">
            <stop stop-color="#AA80F9" offset="0%"></stop>
            <stop stop-color="#6165D7" offset="99.64%"></stop>
        </linearGradient>
        <linearGradient x1="99.9728881%" y1="50.0295324%" x2="-0.0207388458%" y2="50.0295324%" id="linearGradient-120">
            <stop stop-color="#444B8C" offset="0%"></stop>
            <stop stop-color="#26264F" offset="99.64%"></stop>
        </linearGradient>
        <linearGradient x1="100.010819%" y1="50.0129147%" x2="-0.00386602508%" y2="50.0129147%" id="linearGradient-121">
            <stop stop-color="#444B8C" offset="0%"></stop>
            <stop stop-color="#26264F" offset="99.64%"></stop>
        </linearGradient>
        <linearGradient x1="100.005992%" y1="49.9147515%" x2="0.0196343854%" y2="49.9147515%" id="linearGradient-122">
            <stop stop-color="#444B8C" offset="0%"></stop>
            <stop stop-color="#26264F" offset="99.64%"></stop>
        </linearGradient>
        <linearGradient x1="44.1102917%" y1="21.4385741%" x2="71.5465455%" y2="108.776402%" id="linearGradient-123">
            <stop stop-color="#AB316D" offset="0%"></stop>
            <stop stop-color="#792D3D" offset="100%"></stop>
        </linearGradient>
        <linearGradient x1="34.1398088%" y1="78.1390848%" x2="118.547005%" y2="-21.7561816%" id="linearGradient-124">
            <stop stop-color="#FF9085" offset="0%"></stop>
            <stop stop-color="#FB6FBB" offset="100%"></stop>
        </linearGradient>
        <linearGradient x1="9.12104051%" y1="-10.0657474%" x2="136.496624%" y2="151.213386%" id="linearGradient-125">
            <stop stop-color="#FFC444" offset="0%"></stop>
            <stop stop-color="#F36F56" offset="99.64%"></stop>
        </linearGradient>
        <linearGradient x1="44.9291492%" y1="-63.9784685%" x2="53.7624537%" y2="97.2496809%" id="linearGradient-126">
            <stop stop-color="#FFC444" offset="0%"></stop>
            <stop stop-color="#F36F56" offset="99.64%"></stop>
        </linearGradient>
        <linearGradient x1="41.4856836%" y1="-28.8918565%" x2="53.714104%" y2="82.1863543%" id="linearGradient-127">
            <stop stop-color="#FFC444" offset="0%"></stop>
            <stop stop-color="#F36F56" offset="99.64%"></stop>
        </linearGradient>
        <linearGradient x1="46.7290503%" y1="-64.2110355%" x2="52.9148184%" y2="97.4836976%" id="linearGradient-128">
            <stop stop-color="#FFC444" offset="0%"></stop>
            <stop stop-color="#F36F56" offset="99.64%"></stop>
        </linearGradient>
        <linearGradient x1="-0.000782523639%" y1="49.9993101%" x2="99.9985871%" y2="49.9993101%" id="linearGradient-129">
            <stop stop-color="#444B8C" offset="0%"></stop>
            <stop stop-color="#26264F" offset="99.64%"></stop>
        </linearGradient>
        <linearGradient x1="0.00116741127%" y1="50.0004065%" x2="99.9996183%" y2="50.0004065%" id="linearGradient-130">
            <stop stop-color="#E38DDD" offset="0.359712%"></stop>
            <stop stop-color="#9571F6" offset="100%"></stop>
        </linearGradient>
        <linearGradient x1="0.00478831074%" y1="49.9892372%" x2="100.004503%" y2="49.9892372%" id="linearGradient-131">
            <stop stop-color="#444B8C" offset="0%"></stop>
            <stop stop-color="#26264F" offset="99.64%"></stop>
        </linearGradient>
        <linearGradient x1="13.5304327%" y1="20.4861656%" x2="86.5355178%" y2="79.5097208%" id="linearGradient-132">
            <stop stop-color="#AA80F9" offset="0%"></stop>
            <stop stop-color="#6165D7" offset="99.64%"></stop>
        </linearGradient>
        <linearGradient x1="13.5133878%" y1="20.4869593%" x2="86.5144794%" y2="79.5130365%" id="linearGradient-133">
            <stop stop-color="#AA80F9" offset="0%"></stop>
            <stop stop-color="#6165D7" offset="99.64%"></stop>
        </linearGradient>
        <linearGradient x1="4.47647942%" y1="21.6025314%" x2="95.4944389%" y2="78.4216575%" id="linearGradient-134">
            <stop stop-color="#AA80F9" offset="0%"></stop>
            <stop stop-color="#6165D7" offset="99.64%"></stop>
        </linearGradient>
        <linearGradient x1="4.37824195%" y1="21.9208294%" x2="95.6481828%" y2="78.0992082%" id="linearGradient-135">
            <stop stop-color="#AA80F9" offset="0%"></stop>
            <stop stop-color="#6165D7" offset="99.64%"></stop>
        </linearGradient>
        <linearGradient x1="4.72112581%" y1="22.0961056%" x2="95.2608329%" y2="77.9621062%" id="linearGradient-136">
            <stop stop-color="#AA80F9" offset="0%"></stop>
            <stop stop-color="#6165D7" offset="99.64%"></stop>
        </linearGradient>
    </defs>
    <g id="页面-1" stroke="none" stroke-width="1" fill="none" fill-rule="evenodd">
        <g id="app-训练" transform="translate(-259.000000, -441.000000)">
            <g id="标准基础" transform="translate(259.403252, 441.403252)">
                <circle id="椭圆形" fill-opacity="0.5" fill="#FFFFFF" transform="translate(42.596748, 42.596748) rotate(-14.382248) translate(-42.596748, -42.596748) " cx="42.5967482" cy="42.5967482" r="35"></circle>
                <g id="编组" transform="translate(11.124935, 5.940785)" fill-rule="nonzero">
                    <path d="M15.3870086,3.07033541 L16.0480351,4.42965685 C15.4890068,4.84255318 14.9721508,5.29762183 14.5033516,5.79192053 L13.2548551,4.94749358 C12.9145344,4.717017 12.4516197,4.81018839 12.2211431,5.15443213 L10.7784578,7.31306595 C10.5479812,7.65829044 10.6362489,8.1270896 10.9765696,8.35854693 L12.2368351,9.21572365 C11.9602633,9.84732755 11.7376327,10.5024695 11.5718857,11.1733034 L10.0487788,11.0693438 C9.63784395,11.040902 9.28085044,11.3567039 9.25044715,11.7735233 L9.06116213,14.3852642 C9.03075884,14.8040451 9.33969553,15.1669231 9.75161111,15.1953649 L11.2806025,15.3022668 C11.3502359,15.9848698 11.4816566,16.666492 11.6719223,17.3422297 L10.2841591,18.0307172 C9.91147359,18.2150984 9.75553412,18.6731093 9.93599237,19.0516794 L11.065818,21.42804 C11.247257,21.8085716 11.6964411,21.9674533 12.0701074,21.7820913 L13.4617936,21.0916423 C13.8688055,21.6644011 14.3170089,22.1959684 14.805423,22.678498 L13.9413811,23.9848589 C13.7079622,24.3369486 13.7991721,24.8155553 14.1443966,25.0548587 L16.3079342,26.5505045 C16.6541394,26.7898079 17.1249001,26.6976173 17.3583189,26.3445468 L18.2223609,25.0352436 C18.8539648,25.3235845 19.5091067,25.5560226 20.1809214,25.7305964 L20.0779425,27.3066639 C20.0504815,27.7332907 20.3662835,28.1049955 20.7850643,28.1353988 L23.4036705,28.3295876 C23.8234321,28.3609716 24.1843486,28.0392852 24.2118097,27.6116776 L24.3098848,26.0483598 C24.99543,25.9787265 25.6799945,25.8433828 26.3576937,25.6482133 L27.0422582,27.057553 C27.2295817,27.4429883 27.6875926,27.6048123 28.0642011,27.4174888 L30.4209467,26.2484331 C30.7975553,26.0611096 30.9505525,25.5972142 30.7622482,25.2117789 L30.0786645,23.8161697 C30.6504426,23.3954273 31.1780868,22.9315319 31.6566935,22.4264449 L32.9248051,23.2885254 C33.2768948,23.5278287 33.749617,23.4356381 33.9810743,23.0815869 L35.4267019,20.8699925 C35.6571784,20.516922 35.5590974,20.0373345 35.2070135,19.7990119 L33.9447865,18.9447775 C34.2243007,18.2955201 34.4459505,17.6227246 34.6087552,16.9332564 L36.1112663,17.0381968 C36.5310279,17.0676193 36.8909637,16.7478944 36.913521,16.3251905 L37.0596529,13.684027 C37.083191,13.2623039 36.7624853,12.8974644 36.3437044,12.8690226 L34.8549238,12.7670244 C34.7745022,12.070691 34.629351,11.376319 34.4243739,10.689793 L35.7552536,10.0297473 C36.1289199,9.84438529 36.2789748,9.3883359 36.0906706,9.01074661 L34.9137689,6.65792401 C34.7264454,6.28229623 34.2723575,6.12831826 33.8996719,6.31269952 L32.5727153,6.97078371 C32.1509922,6.39704414 31.6880775,5.86743839 31.1849521,5.38883171 L31.997995,4.15602721 C32.2265101,3.80982197 32.1303964,3.3410228 31.7832104,3.10956547 L29.6167306,1.66688017 C29.2705254,1.43640359 28.8056492,1.52957497 28.5771341,1.87578022 L27.7582067,3.11348848 C27.1216991,2.83495508 26.4636149,2.61232451 25.7898387,2.44853903 L25.88301,0.962700668 C25.9085096,0.548823579 25.5956499,0.192810823 25.1837343,0.166330536 L22.6082811,0.00156430147 C22.1973463,-0.0249159862 21.8413335,0.287943709 21.8148533,0.700840046 L21.7177589,2.19060141 C21.0410404,2.26710002 20.3662835,2.40636672 19.6983918,2.60545925 L19.0393268,1.25888759 C18.8578878,0.888163562 18.4116459,0.736147096 18.0419026,0.919547606 L15.7322331,2.06604599 C15.3605283,2.25042725 15.2065504,2.69961139 15.3870086,3.07033541 Z M16.209859,17.4069593 C14.3738924,13.5898749 15.9313256,9.0048621 19.6787767,7.14535746 C23.4262278,5.28585281 27.9769143,6.83936302 29.8540724,10.6368324 C31.7420189,14.4568591 30.2110659,19.0938517 26.4224233,20.9739521 C22.6327999,22.8530718 18.0566139,21.246601 16.209859,17.4069593 Z" id="形状" fill="#FFFFFF"></path>
                    <g transform="translate(44.033776, 24.751806)">
                        <rect id="矩形" fill="#FFFFFF" x="6.80739543" y="0.588450837" width="3.13840446" height="1"></rect>
                        <rect id="矩形" fill="#FFFFFF" x="1.0209622" y="0.588450837" width="2.54995362" height="1"></rect>
                        <rect id="矩形" fill="#D8DEE8" x="16.1245337" y="0.588450837" width="2.45187849" height="1"></rect>
                        <rect id="矩形" fill="#FFFFFF" x="24.3628454" y="0.588450837" width="2.45187849" height="1"></rect>
                        <g transform="translate(5.924719, 0.000000)" id="矩形">
                            <rect fill="#D8DEE8" x="1.66727737" y="1.76535251" width="3.13840446" height="12.2593924"></rect>
                            <rect fill="#97A6B7" x="0" y="1.76535251" width="1.66727737" height="12.2593924"></rect>
                            <rect fill="#97A6B7" x="0.686525976" y="0" width="1" height="2.45187849"></rect>
                            <rect fill="#D8DEE8" x="3.43262988" y="0" width="1" height="2.45187849"></rect>
                        </g>
                        <g transform="translate(23.087869, 0.000000)" id="矩形">
                            <rect fill="#D8DEE8" x="1.66727737" y="1.76535251" width="3.04032932" height="12.2593924"></rect>
                            <rect fill="#97A6B7" x="0" y="1.76535251" width="1.66727737" height="12.2593924"></rect>
                            <rect fill="#97A6B7" x="0.686525976" y="0" width="1" height="2.45187849"></rect>
                            <rect fill="#D8DEE8" x="3.43262988" y="0" width="1" height="2.45187849"></rect>
                        </g>
                        <g transform="translate(14.849557, 0.000000)" id="矩形">
                            <rect fill="#D8DEE8" x="1.76535251" y="1.76535251" width="3.04032932" height="12.2593924"></rect>
                            <rect fill="#97A6B7" x="0" y="1.76535251" width="1.76535251" height="12.2593924"></rect>
                            <rect fill="#97A6B7" x="0.686525976" y="0" width="1" height="2.45187849"></rect>
                            <rect fill="#D8DEE8" x="3.43262988" y="0" width="1" height="2.45187849"></rect>
                        </g>
                        <g transform="translate(0.236361, 0.000000)" id="矩形">
                            <rect fill="#D8DEE8" x="1.47112709" y="1.76535251" width="2.54995362" height="12.2593924"></rect>
                            <rect fill="#97A6B7" x="0" y="1.76535251" width="1.47112709" height="12.2593924"></rect>
                            <rect fill="#97A6B7" x="0.588450837" y="0" width="1" height="2.45187849"></rect>
                            <rect fill="#D8DEE8" x="2.94225418" y="0" width="1" height="2.45187849"></rect>
                        </g>
                        <polygon id="路径" fill="#E6EBF4" points="7.87347219 37.0057116 0.287360159 36.3162434 0.287360159 13.570657 7.87347219 13.1714912"></polygon>
                        <polygon id="路径" fill="#97A6B7" points="7.12613963 14.0276872 0 14.272875 0 12.9606297 7.12613963 12.679154"></polygon>
                        <polygon id="路径" fill="#97A6B7" points="7.12613963 23.8087208 0 23.7842021 0 22.4729374 7.12613963 22.4592069"></polygon>
                        <polygon id="路径" fill="#FFFFFF" points="28.3888299 36.20738 7.64299562 37.0194421 7.64299562 13.02634 28.3888299 13.4274673"></polygon>
                        <polygon id="路径" fill="#D8DEE8" points="28.9066666 14.0227834 7.12613963 13.9982646 7.12613963 12.5859826 28.9066666 12.6850385"></polygon>
                        <polygon id="路径" fill="#D8DEE8" points="28.9066666 23.3320757 7.12613963 23.8283359 7.12613963 22.4729374 28.9066666 22.0482721"></polygon>
                        <polygon id="路径" fill="#D8DEE8" points="28.9066666 35.852348 7.12613963 37.0478839 7.12613963 36.8223111 28.9066666 35.6375634"></polygon>
                        <g transform="translate(9.022913, 15.364451)" fill="#D8DEE8" id="路径">
                            <polygon points="4.88414194 5.97571824 0 6.05908211 0 0.04217231 4.88414194 0.0304032932"></polygon>
                            <polygon points="11.6081735 5.86195108 6.89566305 5.94139195 6.89566305 0.0264802876 11.6081735 0.0156920223"></polygon>
                            <polygon points="18.1595928 5.75014542 13.5618303 5.82762478 13.5618303 0.00980751394 18.1595928 0"></polygon>
                        </g>
                        <g transform="translate(9.022913, 27.401213)" fill="#D8DEE8" id="路径">
                            <polygon points="4.88414194 6.32878875 0 6.56024608 0 0.600219853 4.88414194 0.439376625"></polygon>
                            <polygon points="18.1595928 5.69718485 13.5618303 5.91491166 13.5618303 0.152016466 18.1595928 0"></polygon>
                        </g>
                        <path d="M7.64299562,14.056129 C7.64299562,14.056129 11.8209966,14.6190803 13.6196946,17.397549 C15.4027006,20.1524796 19.4267236,18.999116 22.9329099,19.7199683 C26.3773087,20.4280708 28.4290407,22.1110402 28.4290407,22.1110402 L7.64299562,22.5749356 L7.64299562,14.056129 Z" id="路径" fill="#97A6B7" opacity="0.1"></path>
                        <path d="M7.64299562,28.2780049 C7.64299562,28.2780049 11.8209966,28.6987473 13.6196946,31.4164094 C15.4027006,34.1105335 19.4267236,32.8208454 22.9329099,33.422046 C26.3773087,34.0124584 28.4290407,35.6257944 28.4290407,35.6257944 L7.64299562,36.7968116 L7.64299562,28.2780049 Z" id="路径" fill="#97A6B7" opacity="0.1"></path>
                        <polygon id="路径" fill="#E4E9F2" points="20.6310863 34.9941905 15.9185759 35.2374168 15.9185759 26.6685919 20.6310863 26.5254022"></polygon>
                        <polygon id="路径" fill="#D8DEE8" points="21.3784189 26.9392793 15.2291076 27.1324873 15.2291076 25.9143941 21.3784189 25.7398203"></polygon>
                        <g transform="translate(13.448063, 34.219397)" id="路径">
                            <polygon fill="url(#linearGradient-1)" points="8.50507609 0.708102507 1.20632421 1.08373029 1.20632421 0.362878016 8.50507609 0"></polygon>
                            <polygon fill="#D8DEE8" points="9.19454432 1.37697496 0.402108072 1.84773563 0.402108072 1.12492185 9.19454432 0.669853202"></polygon>
                            <polygon fill="url(#linearGradient-2)" points="9.65451672 2.05859718 0 2.59212593 0 1.86931216 9.65451672 1.35245617"></polygon>
                        </g>
                    </g>
                    <g transform="translate(31.226144, 2.907337)">
                        <path d="M1.83792811,22.7447994 C1.82517834,22.7447994 1.81242858,22.7271459 1.80065956,22.7271459 L1.76829476,22.7271459 C1.57508674,22.7271459 1.37893646,22.639859 1.21515098,22.4486125 C0.986635903,22.1828288 0.876791746,21.8228931 0.926810068,21.4963029 C0.94250209,21.3913625 1.04057723,21.3236906 1.14551763,21.3403634 C1.25045803,21.3560554 1.32205288,21.4570728 1.30636086,21.5610325 C1.27301531,21.7767978 1.35147542,22.0612157 1.50643414,22.2426547 C1.59175951,22.3426913 1.69277691,22.4329204 1.76829476,22.4329204 L1.80065956,22.4329204 C2.00465585,22.4329204 2.28515075,22.4064402 2.43422496,22.2583467 C2.51856958,22.1740021 2.56074189,22.0259086 2.56074189,21.8425081 C2.56074189,21.2177695 1.72612245,20.8794102 1.71827644,20.876468 C1.64570084,20.8480262 1.59666327,20.7754506 1.59568252,20.6969905 L1.57606749,19.5857991 C1.57410599,19.479878 1.65845061,19.3925911 1.76437176,19.3925911 C1.76535251,19.3925911 1.76633326,19.3925911 1.76731401,19.3925911 C1.87127366,19.3925911 1.95757978,19.4730127 1.95856053,19.5779531 L1.97523331,20.5665505 C2.25965121,20.7048365 2.94323493,21.1108676 2.94323493,21.8297583 C2.94323493,22.1180992 2.86281332,22.3358261 2.70393159,22.493727 C2.45580149,22.7428379 2.09292348,22.7447994 1.83792811,22.7447994 Z" id="路径" fill="url(#linearGradient-3)"></path>
                        <path d="M2.20669064,16.6494295 C2.10076949,16.6494295 2.05957793,16.5631234 2.05957793,16.4572022 L2.05957793,9.28300575 C2.05957793,9.1770846 2.10076949,9.09077848 2.20669064,9.09077848 C2.31261179,9.09077848 2.35380335,9.1770846 2.35380335,9.28300575 L2.35380335,16.4572022 C2.35380335,16.5641041 2.31261179,16.6494295 2.20669064,16.6494295 Z" id="路径" fill="url(#linearGradient-4)"></path>
                        <path d="M21.7148166,9.22612217 C21.6932401,9.22612217 21.6706828,9.22219917 21.6491063,9.21435316 C21.5500504,9.17806535 21.4980706,9.0682212 21.5343584,8.96818456 L24.7639727,0.125729986 C24.7924145,0.0472698741 24.8689131,-0.00176769561 24.9512962,0.000137070967 C25.0346601,0.00313606136 25.1062549,0.0590388908 25.1288122,0.139460505 L27.6601316,8.98191508 C27.6895541,9.08391322 27.630709,9.18983437 27.5287109,9.21925691 C27.4267127,9.24867945 27.3207916,9.18983437 27.291369,9.08783623 L24.9218737,0.812255962 L21.8942941,9.10156675 C21.8658523,9.17806535 21.7932767,9.22612217 21.7148166,9.22612217 Z" id="路径" fill="url(#linearGradient-5)"></path>
                        <path d="M24.8130103,11.7005579 C24.7070891,11.7005579 24.61686,11.6142518 24.61686,11.5083307 L24.61686,0.499396267 C24.61686,0.393475116 24.7070891,0.307168994 24.8130103,0.307168994 C24.9189314,0.307168994 25.0091606,0.393475116 25.0091606,0.499396267 L25.0091606,11.5093114 C25.0091606,11.6152326 24.9189314,11.7005579 24.8130103,11.7005579 Z" id="路径" fill="url(#linearGradient-6)"></path>
                        <g transform="translate(21.857026, 15.395048)" id="路径">
                            <polygon fill="url(#linearGradient-7)" points="4.60364704 4.42809254 0 0.284417904 0.256956865 0 4.86060391 4.14269389"></polygon>
                            <polygon fill="url(#linearGradient-8)" points="0.256956865 4.42809254 0 4.14269389 4.60364704 0 4.86060391 0.284417904"></polygon>
                        </g>
                        <g transform="translate(21.857026, 19.652490)" id="路径">
                            <polygon fill="url(#linearGradient-9)" points="4.60364704 4.4290733 0 0.285398656 0.256956865 0 4.86060391 4.14367464"></polygon>
                            <polygon fill="url(#linearGradient-10)" points="0.256956865 4.4290733 0 4.14367464 4.60364704 0 4.86060391 0.285398656"></polygon>
                        </g>
                        <g transform="translate(21.972754, 23.872663)" id="路径">
                            <polygon fill="url(#linearGradient-11)" points="4.60266629 4.42809254 0 0.285398656 0.255976114 0 4.85962316 4.14367464"></polygon>
                            <polygon fill="url(#linearGradient-12)" points="0.255976114 4.42809254 0 4.14367464 4.60266629 0 4.85962316 0.285398656"></polygon>
                        </g>
                        <g transform="translate(21.972754, 28.284083)" id="路径">
                            <polygon fill="url(#linearGradient-13)" points="4.60266629 4.4290733 0 0.285398656 0.255976114 0 4.85962316 4.14367464"></polygon>
                            <polygon fill="url(#linearGradient-14)" points="0.255976114 4.4290733 0 4.14367464 4.60266629 0 4.85962316 0.285398656"></polygon>
                        </g>
                        <g transform="translate(21.972754, 32.734733)" id="路径">
                            <polygon fill="url(#linearGradient-15)" points="4.60266629 4.42809254 0 0.285398656 0.255976114 0 4.85962316 4.14269389"></polygon>
                            <polygon fill="url(#linearGradient-16)" points="0.255976114 4.42809254 0 4.14269389 4.60266629 0 4.85962316 0.285398656"></polygon>
                        </g>
                        <g transform="translate(21.972754, 36.993156)" id="路径">
                            <polygon fill="url(#linearGradient-17)" points="4.60266629 4.42809254 0 0.285398656 0.255976114 0 4.85962316 4.14269389"></polygon>
                            <polygon fill="url(#linearGradient-18)" points="0.255976114 4.42809254 0 4.14269389 4.60266629 0 4.85962316 0.285398656"></polygon>
                        </g>
                        <rect id="矩形" fill="url(#linearGradient-19)" x="21.8707561" y="15.077285" width="1" height="26.4802876"></rect>
                        <rect id="矩形" fill="url(#linearGradient-20)" x="26.5783628" y="15.077285" width="1" height="26.4802876"></rect>
                        <rect id="矩形" fill="url(#linearGradient-21)" x="21.9688312" y="19.4906663" width="4.90375697" height="1"></rect>
                        <rect id="矩形" fill="url(#linearGradient-21)" x="21.9688312" y="23.8059724" width="4.90375697" height="1"></rect>
                        <rect id="矩形" fill="url(#linearGradient-22)" x="21.9688312" y="28.2193537" width="4.90375697" height="1"></rect>
                        <rect id="矩形" fill="url(#linearGradient-22)" x="21.9688312" y="32.5346598" width="4.90375697" height="1"></rect>
                        <rect id="矩形" fill="url(#linearGradient-23)" x="21.9688312" y="36.7518908" width="4.90375697" height="1"></rect>
                        <polygon id="路径" fill="url(#linearGradient-7)" points="26.4606726 19.823141 21.8570256 15.6794663 22.1139824 15.3950484 26.7176295 19.5377423"></polygon>
                        <path d="M21.4784555,8.70240093 L21.4784555,15.6235635 C21.4784555,15.8510978 21.5559349,15.9599612 21.78445,15.9599612 L27.3276568,15.9599612 C27.5551912,15.9599612 27.7552645,15.8510978 27.7552645,15.6235635 L27.7552645,8.70240093 L21.4784555,8.70240093 Z" id="路径" fill="url(#linearGradient-24)"></path>
                        <path d="M26.5783628,12.2635092 C26.5783628,12.5175239 26.372405,12.7234816 26.1183904,12.7234816 L22.6259347,12.7234816 C22.3719201,12.7234816 22.1659623,12.5175239 22.1659623,12.2635092 L22.1659623,10.6344812 C22.1659623,10.3804666 22.3719201,10.1745088 22.6259347,10.1745088 L26.1183904,10.1745088 C26.372405,10.1745088 26.5783628,10.3804666 26.5783628,10.6344812 L26.5783628,12.2635092 Z" id="路径" fill="#FFFFFF" opacity="0.5"></path>
                        <path d="M24.8247793,5.77387726 C24.782607,5.77387726 24.7404347,5.76014675 24.7051276,5.73170495 L23.1702517,4.50380421 C23.0878686,4.43809387 23.0741381,4.31648069 23.1398484,4.23409758 C23.2055587,4.15171446 23.3271719,4.13798394 23.409555,4.20369428 L24.8198755,5.33155839 L26.033065,4.28705815 C26.1134866,4.2174248 26.234119,4.22723232 26.3037524,4.30765393 C26.372405,4.38807554 26.3635782,4.50870797 26.2831566,4.57834132 L24.9493347,5.7268012 C24.9140277,5.75818524 24.8689131,5.77387726 24.8247793,5.77387726 Z" id="路径" fill="url(#linearGradient-25)"></path>
                        <path d="M24.8247793,8.07570079 C24.8002605,8.07570079 24.7757417,8.07079703 24.7531844,8.06197027 L22.4091886,7.11554517 C22.3111135,7.07631512 22.2630566,6.96450946 22.3032675,6.86545357 C22.3424975,6.76737843 22.4543032,6.72030236 22.5533591,6.75953242 L24.8336061,7.68045798 L26.9020107,7.04198882 C27.0030281,7.01060477 27.1109108,7.06748835 27.1422948,7.16850575 C27.1736789,7.26952314 27.1167953,7.37740579 27.0157779,7.40878984 L24.8826436,8.06785478 C24.8620478,8.07275853 24.8434136,8.07570079 24.8247793,8.07570079 Z" id="路径" fill="url(#linearGradient-26)"></path>
                        <path d="M1.17690167,16.6494295 C1.07098052,16.6494295 0.980751394,16.5631234 0.980751394,16.4572022 L0.980751394,9.0338949 C0.980751394,8.95347328 1.00232792,8.88187843 1.07784578,8.85441739 L24.9022587,0.0119628239 C24.9630652,-0.0105944582 25.0238718,-0.00078694422 25.0758516,0.0374623602 L36.2279758,8.32383089 C36.3133011,8.38659898 36.3289931,8.5072314 36.2662251,8.59255677 C36.203457,8.67788214 36.0818438,8.69553567 35.9965184,8.63178683 L24.9571807,0.407205636 L1.37305195,9.16825784 L1.37305195,16.458183 C1.37305195,16.5641041 1.28282282,16.6494295 1.17690167,16.6494295 Z" id="路径" fill="url(#linearGradient-27)"></path>
                        <path d="M37.3666281,8.8200911 C37.3666281,8.59255677 37.1822469,8.40817551 36.9547125,8.40817551 L0.411915586,8.40817551 C0.184381262,8.40817551 0,8.59255677 0,8.8200911 L0,9.07410571 C0,9.30164003 0.184381262,9.48602129 0.411915586,9.48602129 L36.9537318,9.48602129 C37.1812661,9.48602129 37.3656474,9.30164003 37.3656474,9.07410571 L37.3656474,8.8200911 L37.3666281,8.8200911 Z" id="路径" fill="url(#linearGradient-28)"></path>
                        <rect id="矩形" fill="url(#linearGradient-29)" x="32.8551717" y="9.58507718" width="4.11915586" height="5.29605753"></rect>
                        <rect id="矩形" fill="#FFFFFF" opacity="0.5" x="33.1493971" y="9.97737774" width="1" height="4.11915586"></rect>
                        <rect id="矩形" fill="#FFFFFF" opacity="0.5" x="34.0320734" y="9.97737774" width="1" height="4.11915586"></rect>
                        <rect id="矩形" fill="#FFFFFF" opacity="0.5" x="35.1108999" y="9.97737774" width="1" height="4.11915586"></rect>
                        <rect id="矩形" fill="#FFFFFF" opacity="0.5" x="36.0916513" y="9.97737774" width="1" height="4.11915586"></rect>
                        <path d="M2.67647055,15.8618861 L0.899349028,15.8618861 C0.786562618,15.8618861 0.687506727,15.8971932 0.687506727,16.0099796 L0.687506727,18.3735904 C0.687506727,18.4638196 0.713987015,18.5520872 0.756159325,18.6305473 L1.43385854,19.8927743 C1.45837732,19.9369081 1.50643414,19.981042 1.55645246,19.981042 L2.06252018,19.981042 C2.11351925,19.981042 2.16157607,19.9359274 2.18511411,19.8908128 L2.85202505,18.6540853 C2.89223586,18.5775867 2.94323493,18.4844153 2.94323493,18.3981092 L2.94323493,16.0099796 C2.94225418,15.8971932 2.78925697,15.8618861 2.67647055,15.8618861 Z" id="路径" fill="url(#linearGradient-30)"></path>
                        <path d="M2.54995362,17.6576419 C2.54995362,17.9116565 2.34399583,18.1176143 2.08998122,18.1176143 L1.53977969,18.1176143 C1.28576508,18.1176143 1.07980729,17.9116565 1.07980729,17.6576419 L1.07980729,16.7151398 C1.07980729,16.4611252 1.28576508,16.2551674 1.53977969,16.2551674 L2.08998122,16.2551674 C2.34399583,16.2551674 2.54995362,16.4611252 2.54995362,16.7151398 L2.54995362,17.6576419 Z" id="路径" fill="url(#linearGradient-31)" opacity="0.9"></path>
                    </g>
                    <g transform="translate(37.149882, 33.752162)" id="矩形">
                        <rect fill="url(#linearGradient-32)" x="6.48374747" y="2.21845965" width="1" height="2.68529732"></rect>
                        <rect fill="url(#linearGradient-33)" x="5.25094296" y="3.9367361" width="3.03346406" height="9.54271107"></rect>
                        <rect fill="url(#linearGradient-34)" x="2.65489402" y="11.2855063" width="15.5547171" height="19.9259261"></rect>
                        <rect fill="url(#linearGradient-35)" x="2.63233674" y="11.2855063" width="7.96664358" height="1.06607677"></rect>
                        <rect fill="url(#linearGradient-36)" x="10.4322526" y="0" width="13.5530035" height="31.2114324"></rect>
                        <rect fill="url(#linearGradient-37)" x="18.2096111" y="10.8863405" width="17.5887955" height="22.6710492"></rect>
                        <rect fill="url(#linearGradient-38)" x="10.4322526" y="0" width="13.5530035" height="1.06607677"></rect>
                        <rect fill="url(#linearGradient-39)" x="18.2096111" y="10.8863405" width="17.5887955" height="1.06607677"></rect>
                        <g transform="translate(4.295691, 13.997284)">
                            <g>
                                <rect fill="url(#linearGradient-40)" x="0" y="0" width="1" height="2.68529732"></rect>
                                <rect fill="url(#linearGradient-41)" x="2.06055868" y="0" width="1" height="2.68529732"></rect>
                                <rect fill="url(#linearGradient-42)" x="4.12013661" y="0" width="1" height="2.68529732"></rect>
                            </g>
                            <g transform="translate(0.000000, 4.699761)">
                                <rect fill="url(#linearGradient-43)" x="0" y="0" width="1" height="2.68529732"></rect>
                                <rect fill="url(#linearGradient-44)" x="2.06055868" y="0" width="1" height="2.68529732"></rect>
                                <rect fill="url(#linearGradient-45)" x="4.12013661" y="0" width="1" height="2.68529732"></rect>
                            </g>
                            <g transform="translate(0.000000, 9.399521)">
                                <rect fill="url(#linearGradient-46)" x="0" y="0" width="1" height="2.68529732"></rect>
                                <rect fill="url(#linearGradient-47)" x="2.06055868" y="0" width="1" height="2.68529732"></rect>
                                <rect fill="url(#linearGradient-48)" x="4.12013661" y="0" width="1" height="2.68529732"></rect>
                            </g>
                        </g>
                        <g transform="translate(12.521253, 2.658817)">
                            <rect fill="url(#linearGradient-49)" x="0" y="0" width="1" height="2.68529732"></rect>
                            <rect fill="url(#linearGradient-50)" x="2.05957793" y="0" width="1" height="2.68529732"></rect>
                            <rect fill="url(#linearGradient-51)" x="4.11915586" y="0" width="1" height="2.68529732"></rect>
                        </g>
                        <g transform="translate(19.699373, 7.451749)">
                            <rect fill="url(#linearGradient-52)" x="0" y="0" width="1" height="2.68529732"></rect>
                            <rect fill="url(#linearGradient-53)" x="2.05957793" y="0" width="1" height="2.68529732"></rect>
                        </g>
                        <g transform="translate(19.699373, 2.658817)">
                            <rect fill="url(#linearGradient-54)" x="0" y="0" width="1" height="2.68529732"></rect>
                            <rect fill="url(#linearGradient-55)" x="2.05957793" y="0" width="1" height="2.68529732"></rect>
                        </g>
                        <g transform="translate(12.521253, 7.451749)">
                            <rect fill="url(#linearGradient-56)" x="0" y="0" width="1" height="2.68529732"></rect>
                            <rect fill="url(#linearGradient-57)" x="2.05957793" y="0" width="1" height="2.68529732"></rect>
                            <rect fill="url(#linearGradient-58)" x="4.11915586" y="0" width="1" height="2.68529732"></rect>
                        </g>
                        <g transform="translate(12.521253, 12.243700)">
                            <rect fill="url(#linearGradient-59)" x="0" y="0" width="1" height="2.68529732"></rect>
                            <rect fill="url(#linearGradient-60)" x="2.05957793" y="0" width="1" height="2.68529732"></rect>
                            <rect fill="url(#linearGradient-61)" x="4.11915586" y="0" width="1" height="2.68529732"></rect>
                        </g>
                        <g transform="translate(12.521253, 17.035652)">
                            <rect fill="url(#linearGradient-62)" x="0" y="0" width="1" height="2.68529732"></rect>
                            <rect fill="url(#linearGradient-63)" x="2.05957793" y="0" width="1" height="2.68529732"></rect>
                            <rect fill="url(#linearGradient-64)" x="4.11915586" y="0" width="1" height="2.68529732"></rect>
                        </g>
                        <g transform="translate(12.521253, 21.828584)">
                            <rect fill="url(#linearGradient-65)" x="0" y="0" width="1" height="2.68529732"></rect>
                            <rect fill="url(#linearGradient-66)" x="2.05957793" y="0" width="1" height="2.68529732"></rect>
                            <rect fill="url(#linearGradient-67)" x="4.11915586" y="0" width="1" height="2.68529732"></rect>
                        </g>
                        <g transform="translate(20.587933, 13.863902)">
                            <rect fill="url(#linearGradient-68)" x="0" y="0" width="1" height="2.68529732"></rect>
                            <rect fill="url(#linearGradient-69)" x="2.09880798" y="0" width="1" height="2.68529732"></rect>
                            <rect fill="url(#linearGradient-70)" x="4.19859672" y="0" width="1" height="2.68529732"></rect>
                            <rect fill="url(#linearGradient-71)" x="6.2974047" y="0" width="1" height="2.68529732"></rect>
                            <rect fill="url(#linearGradient-72)" x="8.39719344" y="0" width="1" height="2.68529732"></rect>
                            <rect fill="url(#linearGradient-73)" x="10.4969822" y="0" width="1" height="2.68529732"></rect>
                            <rect fill="url(#linearGradient-74)" x="12.5957902" y="0" width="1" height="2.68529732"></rect>
                        </g>
                        <g transform="translate(20.587933, 18.682333)">
                            <rect fill="url(#linearGradient-75)" x="0" y="0" width="1" height="2.68529732"></rect>
                            <rect fill="url(#linearGradient-76)" x="2.09880798" y="0" width="1" height="2.68529732"></rect>
                            <rect fill="url(#linearGradient-77)" x="4.19859672" y="0" width="1" height="2.68529732"></rect>
                            <rect fill="url(#linearGradient-78)" x="6.2974047" y="0" width="1" height="2.68529732"></rect>
                            <rect fill="url(#linearGradient-79)" x="8.39719344" y="0" width="1" height="2.68529732"></rect>
                            <rect fill="url(#linearGradient-80)" x="10.4969822" y="0" width="1" height="2.68529732"></rect>
                            <rect fill="url(#linearGradient-81)" x="12.5957902" y="0" width="1" height="2.68529732"></rect>
                        </g>
                        <g transform="translate(20.587933, 23.499784)">
                            <rect fill="url(#linearGradient-82)" x="0" y="0" width="1" height="2.68529732"></rect>
                            <rect fill="url(#linearGradient-83)" x="2.09880798" y="0" width="1" height="2.68529732"></rect>
                            <rect fill="url(#linearGradient-84)" x="4.19859672" y="0" width="1" height="2.68529732"></rect>
                            <rect fill="url(#linearGradient-85)" x="6.2974047" y="0" width="1" height="2.68529732"></rect>
                            <rect fill="url(#linearGradient-86)" x="8.39719344" y="0" width="1" height="2.68529732"></rect>
                            <rect fill="url(#linearGradient-87)" x="10.4969822" y="0" width="1" height="2.68529732"></rect>
                            <rect fill="url(#linearGradient-88)" x="12.5957902" y="0" width="1" height="2.68529732"></rect>
                        </g>
                        <g transform="translate(20.587933, 28.318216)">
                            <rect fill="url(#linearGradient-89)" x="0" y="0" width="1" height="2.68529732"></rect>
                            <rect fill="url(#linearGradient-90)" x="2.09880798" y="0" width="1" height="2.68529732"></rect>
                            <rect fill="url(#linearGradient-91)" x="4.19859672" y="0" width="1" height="2.68529732"></rect>
                            <rect fill="url(#linearGradient-92)" x="6.2974047" y="0" width="1" height="2.68529732"></rect>
                            <rect fill="url(#linearGradient-93)" x="8.39719344" y="0" width="1" height="2.68529732"></rect>
                            <rect fill="url(#linearGradient-94)" x="10.4969822" y="0" width="1" height="2.68529732"></rect>
                            <rect fill="url(#linearGradient-95)" x="12.5957902" y="0" width="1" height="2.68529732"></rect>
                        </g>
                        <rect fill="url(#linearGradient-96)" x="6.30426996" y="6.67793624" width="1" height="5.3833444"></rect>
                        <rect fill="url(#linearGradient-97)" x="0" y="26.9873361" width="16.7375033" height="6.52395827"></rect>
                        <rect fill="url(#linearGradient-98)" x="0" y="26.8755305" width="16.7375033" height="1.06607677"></rect>
                        <rect fill="url(#linearGradient-99)" x="2.15569156" y="29.5451358" width="1" height="2.68529732"></rect>
                        <rect fill="url(#linearGradient-100)" x="4.30353712" y="29.5451358" width="1" height="2.68529732"></rect>
                        <rect fill="url(#linearGradient-101)" x="6.45236342" y="29.5451358" width="1" height="2.68529732"></rect>
                        <rect fill="url(#linearGradient-102)" x="8.60020898" y="29.5451358" width="1" height="2.68529732"></rect>
                        <rect fill="url(#linearGradient-103)" x="10.7490353" y="29.5451358" width="1" height="2.68529732"></rect>
                        <rect fill="url(#linearGradient-104)" x="12.8968808" y="29.5451358" width="1" height="2.68529732"></rect>
                    </g>
                    <g transform="translate(52.387351, 38.190738)" id="路径">
                        <path d="M15.9386559,4.7530261 C16.1112681,4.81873645 18.7475279,5.86617894 19.2889027,8.6171866 C19.3330365,8.83981716 19.7557403,11.203428 18.1531925,12.8726669 C16.3554752,14.7449213 12.8944036,14.698826 11.5213516,13.1335468 C11.2006459,12.7687072 11.0319567,12.3636569 10.9368238,12.0243169 L10.9368238,12.0243169 L11.2987211,11.0621998 C11.7400592,10.5286711 12.3422405,10.4021541 12.6629462,10.323694 C13.4544126,10.1285245 14.052671,10.481595 14.5057781,10.099102 C14.7568505,9.8882404 14.8068688,9.58420747 14.8510026,9.31253934 C15.0030191,8.38769077 14.4802786,7.81787421 14.4420293,7.2470769 C14.4135875,6.82045004 14.2645133,5.88579397 14.8205993,5.27674735 C15.1746506,4.8922928 15.6630648,4.78637165 15.9386559,4.7530261 Z" fill="url(#linearGradient-105)"></path>
                        <path d="M16.9664834,35.4122954 C16.9968867,35.2426254 17.5441459,35.0896282 17.8148333,35.3161818 C17.9491963,35.4289682 18.0423676,35.6574833 17.9639075,35.7604622 C17.9354657,35.7977307 18.0511944,35.8644218 17.9403695,35.8654026 C17.571607,35.8703063 16.9350993,35.5809847 16.9664834,35.4122954 Z" fill="url(#linearGradient-106)"></path>
                        <path d="M17.5392422,35.4740828 L18.1021935,35.3946419 C17.8413136,35.0808015 17.8893704,34.0814158 17.8893704,34.0814158 L17.2911121,34.214798 C17.2911121,34.214798 17.3587839,34.4894084 17.4754933,34.893478 C17.5147234,35.0327446 17.5323769,35.2494907 17.5392422,35.4740828 Z" fill="url(#linearGradient-107)"></path>
                        <path d="M17.4892239,35.4054302 C17.4892239,35.4054302 18.1669231,35.2494907 18.2394987,35.3838536 C18.313055,35.5182166 18.3699386,35.8781524 17.9403695,35.8663833 C17.5108004,35.8536336 17.4509745,35.5191973 17.4892239,35.4054302 Z" fill="url(#linearGradient-108)"></path>
                        <path d="M9.24796989,36.0478223 C9.30191122,35.8840369 9.86486252,35.8094998 10.1012236,36.0713604 C10.2189138,36.2018003 10.2787396,36.4411037 10.186549,36.5323135 C10.1532034,36.5656591 10.2591246,36.6470614 10.1482997,36.6323502 C9.7844409,36.5852741 9.19402856,36.2096463 9.24796989,36.0478223 Z" fill="url(#linearGradient-109)"></path>
                        <path d="M9.80699818,36.1890505 L10.3748532,36.1890505 C10.1610494,35.8418645 10.348373,34.8591517 10.348373,34.8591517 L9.73736483,34.9072085 C9.73736483,34.9072085 9.76678738,35.1886841 9.82465171,35.6055035 C9.84524749,35.7486932 9.83249772,35.9654392 9.80699818,36.1890505 Z" fill="url(#linearGradient-110)"></path>
                        <path d="M8.33489034,14.706672 C8.07204897,15.5756177 7.69544043,16.9780922 7.45417559,18.7375602 C6.76372661,23.7570459 8.23093069,23.9169083 7.95730105,29.4787495 C7.87001418,31.2539095 9.49511924,35.3485466 9.63830894,35.4387757 C9.70794229,35.445641 9.7824794,35.449564 9.86290101,35.4476025 C10.0041292,35.4436795 10.2032217,35.422103 10.4356598,35.3524696 C10.6935974,35.3083358 11.6213883,32.7936892 11.4066037,31.2980433 C11.2545872,30.2398126 11.2987211,29.1041025 11.3869887,26.8326822 C11.4017,26.4649005 12.3432213,19.6722163 12.3432213,19.6722163 L12.3432213,19.6722163 C12.6296007,22.1858821 12.9591332,24.3219587 13.2445318,25.9784478 C14.1615344,31.2990241 17.1449801,34.5198117 17.3009196,34.5717915 C17.3313229,34.5845413 17.6118178,34.6855587 17.8403329,34.5345229 C17.942331,34.4678318 17.9766573,34.380545 17.9766573,34.380545 C18.0560982,34.3177769 17.9531193,29.0678147 17.042982,25.1173481 C15.7219098,19.3828947 16.2976109,18.040246 15.8788301,15.4795041 C15.515952,13.2639867 8.33489034,14.706672 8.33489034,14.706672 Z" fill="url(#linearGradient-111)"></path>
                        <path d="M13.6691972,4.30580347 C12.7924054,4.28030393 10.8701327,4.06944238 9.35487179,4.76675662 C9.33133376,4.77754489 9.87565078,5.10805811 9.76384512,5.23849804 C9.65988547,5.36011122 9.30289197,5.78673807 8.98022476,6.36341989 C8.74582517,6.78121999 8.53496362,7.26767268 8.32115982,7.99244796 C7.94553204,9.27134778 7.83764938,10.3609626 7.80136158,10.8356463 C7.59834604,13.5042708 7.79940008,14.7351138 7.98181984,15.5726755 C8.77426697,15.9796873 10.8171721,16.7083856 13.2513971,16.3464883 C14.3625884,16.1807414 15.2521299,15.8109981 15.8788301,15.4814656 C15.2472262,13.5690004 15.7425056,12.5460767 15.9769052,11.6025938 C16.3103607,10.2579837 16.3152644,10.3590011 16.5898748,9.29096281 C17.042982,7.52855255 17.1175191,5.72691224 16.8056401,5.35814971 C15.9661169,4.36464855 14.454779,4.32836075 13.6691972,4.30580347 Z" fill="url(#linearGradient-112)"></path>
                        <path d="M9.76776813,36.1135327 C9.76776813,36.1135327 10.4601786,36.0537069 10.5141199,36.1968966 C10.5680613,36.3400863 10.5739458,36.703945 10.1502612,36.6323502 C9.72559582,36.5607553 9.7138268,36.2204346 9.76776813,36.1135327 Z" fill="url(#linearGradient-113)"></path>
                        <path d="M11.2016267,3.30053329 C10.9299585,2.84154164 11.050591,2.31683964 11.078052,2.20307248 C11.1918192,1.7283888 11.2349722,1.65679395 11.3232398,1.55577656 L11.4477953,1.42435587 C11.4477953,1.42435587 11.4556413,1.41847136 11.4634873,1.41258686 C11.5497934,1.35276102 11.8734414,1.25664738 11.9430747,1.25272438 C12.1657053,1.24193611 12.6197932,2.0412485 12.8796923,3.274053 C12.9012688,3.31818681 12.9218646,3.36232063 12.9424604,3.40743519 C13.0375933,3.61241223 13.1219379,3.81542777 13.1984365,4.01550106 C13.2474741,4.14594099 13.366145,4.23715087 13.5044309,4.25088139 C14.805888,4.37641757 14.9941923,4.54020305 15.0000768,4.63631669 C15.0138073,4.85110124 14.1556499,5.09923135 13.5093347,5.19436423 C12.1009757,5.40032202 10.6533866,5.029598 10.6592533,4.76675662 C10.6622134,4.66475848 10.884844,4.5352993 11.7812507,4.39701335 C11.977401,4.36661006 12.1137255,4.18320954 12.0852837,3.98705927 C12.0744954,3.90957991 12.0637071,3.83210055 12.0519381,3.75462119 C11.9558245,3.7320639 11.4017,3.63791177 11.2016267,3.30053329 Z" fill="url(#linearGradient-114)"></path>
                        <path d="M11.1810309,1.31353097 C11.283029,1.6901395 11.3046056,1.92650059 11.4124882,1.96769215 C11.4262187,1.9725959 11.5056596,2.0069222 11.5890235,2.08047856 C11.5998117,2.09028607 11.6115807,2.10303584 11.622369,2.11970861 C11.768501,2.33547392 11.4654488,2.71502471 11.5664662,2.80133083 C11.6400225,2.86409892 11.8685376,2.69246743 11.9165944,2.75131251 C11.961709,2.80623459 11.7832122,2.99257735 11.8361728,3.05926845 C11.8763836,3.10928677 11.993093,3.02298065 12.0990142,3.08771024 C12.1519748,3.12007503 12.1490325,3.15734359 12.2274926,3.27797601 C12.2716264,3.34564785 12.32851,3.41822346 12.3677401,3.45745351 C12.5570251,3.64379628 12.9473641,3.62614275 12.9944402,3.51924085 C13.00719,3.48981831 12.9856135,3.47314554 12.9836519,3.38487791 C12.9836519,3.38487791 12.9816904,3.30347554 13.011113,3.20049665 C13.0532853,3.05338394 13.2131478,2.91411724 13.3632027,2.73071673 C13.6407554,2.39137675 13.6780239,2.15501566 13.6868507,2.07655555 C13.689793,2.04811376 13.6907737,2.02751798 13.6917545,2.01280671 C13.7074465,1.71171603 13.5985831,1.30372345 13.4073366,1.08599664 C13.0866308,0.722137875 12.66785,1.04676659 12.1715898,0.733906891 C11.598831,0.372990378 12.1774743,1.03892057 11.9165944,1.03107456 C11.6282535,1.0202863 10.9927266,0.618178227 11.1810309,1.31353097 Z" fill="url(#linearGradient-115)"></path>
                        <path d="M11.6772911,2.67579465 C11.7361362,2.52475894 11.9293442,2.60027679 11.9744588,2.76406228 C12.0195733,2.92784776 11.9058062,3.14067081 11.7430014,3.14949758 C11.5801967,3.15832434 11.598831,2.87979094 11.6772911,2.67579465 Z" fill="url(#linearGradient-116)"></path>
                        <path d="M13.3092614,14.000531 C12.4344312,13.7631892 11.8950179,14.8165162 11.1427816,14.6615574 C10.1061274,14.4477536 9.73736483,12.1596606 9.63732819,11.5398258 C9.27641168,9.30175107 9.95018789,8.47301614 9.34310277,7.50011076 C9.21070134,7.28728771 9.01553181,7.0675994 8.72424864,6.86948761 C8.5859627,7.17744355 8.45356126,7.53836006 8.32017907,7.99146721 C7.94455129,9.27036703 7.83666863,10.3599818 7.80038083,10.8346655 C7.59736529,13.50329 7.79841933,14.734133 7.98083909,15.5716947 C8.77328621,15.9787066 10.8161914,16.7074048 13.2504163,16.3455076 C14.2556865,16.1964334 15.0785369,15.8796507 15.689545,15.5756177 C15.0412684,15.4696966 14.6215068,15.2264702 14.3370889,14.9538214 C13.9389038,14.5723091 13.8153291,14.1378362 13.3092614,14.000531 Z" fill="url(#linearGradient-117)" opacity="0.4"></path>
                        <g transform="translate(0.000000, 5.964051)">
                            <path d="M7.30902438,5.76800171 L4.77083977,0.103181655 C4.73945573,0.033548306 4.66589937,-0.00764325252 4.59038152,0.00118351002 L0.152481458,0.561192556 C0.0338105398,0.575903827 -0.0348420578,0.703401508 0.0181185175,0.81030341 L3.01039102,6.93117286 C3.04667882,7.00472922 3.12906194,7.04297852 3.2085028,7.02336349 L7.15995017,6.0465351 L7.30902438,5.76800171 Z" fill="url(#linearGradient-118)"></path>
                            <path d="M6.61072939,5.08147573 L4.55605522,0.494501461 C4.53055568,0.43761788 4.4717106,0.404272333 4.40992326,0.412118344 L0.816450152,0.865225488 C0.720336516,0.876994505 0.664433686,0.979973401 0.707586748,1.06726028 L3.13102344,6.02299707 C3.16044598,6.08282291 3.22713708,6.11420695 3.29186667,6.09753418 L6.49107772,5.3060678 L6.61072939,5.08147573 Z" fill="#FFFFFF"></path>
                            <path d="M3.81068416,0.467040422 L3.64787943,0.0992586494 C3.62532215,0.0482595769 3.57236157,0.0178562837 3.51645874,0.0247215435 L1.66970387,0.241467602 C1.58437849,0.251275116 1.53239867,0.342484995 1.56868647,0.420945107 L1.75110623,0.821091676 C1.77464426,0.872090748 1.82858559,0.902494041 1.88448842,0.89464803 L3.71260902,0.644556425 C3.79499214,0.633768159 3.84501046,0.544519782 3.81068416,0.467040422 Z" fill="url(#linearGradient-119)"></path>
                            <path d="M1.29211458,1.70769094 C1.29505683,1.70769094 1.29799909,1.70769094 1.30094134,1.70671018 L4.55605522,1.28891009 C4.59626603,1.28400633 4.62470782,1.24673778 4.61980406,1.20652697 C4.6149003,1.16631617 4.576651,1.13787438 4.53742094,1.14277813 L1.28230706,1.56057823 C1.24209626,1.56548198 1.21365447,1.60275054 1.21855822,1.64296134 C1.22248123,1.68121065 1.25484603,1.70769094 1.29211458,1.70769094 Z" fill="url(#linearGradient-120)"></path>
                            <path d="M1.45884232,2.03624265 C1.46178457,2.03624265 1.46472682,2.03624265 1.46766908,2.0352619 L4.70611018,1.58607776 C4.74632099,1.58019325 4.77476278,1.54390545 4.76887827,1.50271389 C4.76299376,1.46250309 4.72670596,1.43504205 4.68649515,1.43994581 L1.44805405,1.88912994 C1.40784324,1.89501445 1.37940145,1.93130225 1.38528596,1.97249381 C1.39018972,2.00976237 1.42255451,2.03624265 1.45884232,2.03624265 Z" fill="url(#linearGradient-121)"></path>
                            <path d="M3.08787038,2.55309864 C3.09179339,2.55309864 3.09571639,2.55309864 3.09865865,2.55211789 L4.86499191,2.25789247 C4.90520271,2.25102721 4.93266375,2.21375866 4.92579849,2.17354785 C4.91893323,2.13333704 4.88068393,2.10685675 4.84145387,2.11274126 L3.07512061,2.40696668 C3.03490981,2.41383194 3.00842952,2.45110049 3.01431403,2.4913113 C3.02117929,2.5275991 3.05256333,2.55309864 3.08787038,2.55309864 Z" fill="url(#linearGradient-122)"></path>
                        </g>
                        <path d="M2.27776973,11.396636 C2.27776973,11.396636 1.55495595,10.9042988 1.47061133,10.5580936 C1.38626671,10.2109076 1.40784324,9.55870794 1.40784324,9.55870794 L1.82956634,10.477672 C1.82956634,10.477672 2.03356263,10.4188269 2.12084951,10.1167555 C2.20813638,9.8137033 2.35721059,10.0912559 2.29738476,10.319771 C2.23657817,10.5492668 2.27776973,11.396636 2.27776973,11.396636 Z" fill="url(#linearGradient-123)"></path>
                        <path d="M9.35487179,4.76675662 C8.59675096,4.88150454 7.15308491,5.51801219 6.37927206,6.53897439 C4.94933653,8.42790158 5.49561505,10.4119616 4.29713685,11.1181027 C3.95485461,11.3201374 3.35267326,11.4839229 2.26698146,11.1004491 L1.85114287,11.3220989 C1.85114287,11.3220989 1.34311365,13.9073596 4.48249886,14.004454 C7.62188408,14.1015484 9.18618255,10.1981578 9.18618255,10.1981578 L10.6592711,5.4209178 L9.35487179,4.76675662 Z" fill="url(#linearGradient-124)"></path>
                        <path d="M13.8535784,0.98596 C13.8202329,0.922211159 13.7800221,0.860423821 13.7339268,0.802559489 C13.5544493,0.576986668 13.3318187,0.441642976 13.0778041,0.315126046 C12.652158,0.103283745 12.1902241,0.0483616667 11.7586935,0.287665007 C11.4546605,0.456354247 11.2143764,0.778040704 11.050591,1.07913138 C10.9750731,1.21741733 10.9721308,1.38512582 11.0437257,1.52635402 C11.3095093,2.05301752 12.0538996,3.32014832 12.9973825,3.15538208 C13.354376,3.09261399 13.689793,2.86900268 13.8320019,2.53260495 C14.0310944,2.06282503 14.1007278,1.45377841 13.8535784,0.98596 Z" fill="url(#linearGradient-125)"></path>
                        <path d="M13.5995638,2.00986446 C13.4465666,2.745428 13.2935694,2.86606042 12.991498,2.83271487 C12.9532487,2.82879187 12.9208839,2.8180036 12.8953843,2.80035008 C12.8944036,2.80035008 12.8934228,2.79936933 12.8934228,2.79936933 C12.8679233,2.78269655 12.849289,2.75817777 12.8345777,2.72679372 C12.833597,2.72483222 12.8326162,2.72385147 12.8326162,2.72287072 C12.7521946,2.53652795 12.841443,2.10401659 12.9257876,1.32137698 C13.0405355,0.258242465 11.9165944,0.217050906 11.9165944,0.217050906 C11.9165944,0.210185647 11.961709,0.109168253 11.9705358,0.0993607392 C11.9832855,0.0846494683 11.997016,0.0728804515 12.0127081,0.0630729376 C12.0333038,0.0493424181 12.0568419,0.0395349041 12.0813607,0.0326696444 C12.4001049,-0.0634439922 12.8130012,0.0669959432 13.0856501,0.235685183 C13.6623319,0.593659442 13.7201962,1.43416339 13.5995638,2.00986446 Z" fill="url(#linearGradient-126)"></path>
                        <path d="M11.1947614,0.841789545 C11.1947614,0.841789545 10.8416909,0.912403645 10.9024975,1.31745397 C10.9515351,1.64306343 11.634138,3.21128491 12.8306547,3.21815017 C14.0261907,3.22403468 13.7976756,2.59537304 13.7976756,2.59537304 C13.7976756,2.59537304 13.4652009,3.14459382 12.7973092,2.9915966 C12.1294175,2.83859938 11.7694817,2.4953364 11.3448164,1.74310008 C11.3438356,1.74211932 11.0103801,1.07815063 11.1947614,0.841789545 Z" fill="url(#linearGradient-127)"></path>
                        <path d="M13.0807463,1.34589576 C13.0729003,1.67542823 12.9316721,2.80035008 12.8953843,2.80035008 C12.8944036,2.80035008 12.8934228,2.79936933 12.8934228,2.79936933 C12.8787115,2.78563881 12.8561543,2.75523551 12.8345777,2.72679372 C12.833597,2.72483222 12.8326162,2.72385147 12.8326162,2.72287072 C12.7521946,2.53652795 12.841443,2.10401659 12.9257876,1.32137698 C13.0405355,0.258242465 11.9165944,0.217050906 11.9165944,0.217050906 C11.9165944,0.210185647 11.961709,0.109168253 11.9705358,0.0993607392 C11.9832855,0.0846494683 11.997016,0.0728804515 12.0127081,0.0630729376 C12.2294541,0.0983799878 12.7551369,0.21214715 12.9091148,0.508334071 C13.1052651,0.883961855 13.0895731,1.01047878 13.0807463,1.34589576 Z" fill="url(#linearGradient-128)" opacity="0.2"></path>
                    </g>
                    <g transform="translate(0.000000, 12.032056)">
                        <g>
                            <path d="M43.7473967,7.7169376 L1.83400511,5.29252015 C0.868945735,5.24544409 0,6.29877108 0,7.18340884 L0,61.1551388 C0,62.3820588 1.25340028,62.6292082 2.21845965,62.5301523 L43.7483774,58.2884025 C44.507479,58.2109231 45.1194679,57.5165511 45.1194679,56.7378345 L45.1194679,9.19492995 C45.1184871,8.41523259 44.5064983,7.75420615 43.7473967,7.7169376 Z" id="路径" fill="url(#linearGradient-129)"></path>
                            <path d="M44.4368649,7.28834924 L2.44010947,5.22190605 C1.4750501,5.17482999 0.688487479,5.85841371 0.688487479,6.74991672 L0.688487479,61.1433698 C0.688487479,62.0348728 1.4750501,62.6762842 2.44010947,62.5772283 L44.4368649,58.2550569 C45.1949857,58.1765968 45.8079554,57.4773211 45.8079554,56.6917392 L45.8079554,8.77712986 C45.8079554,7.99252874 45.1959665,7.32561779 44.4368649,7.28834924 Z" id="路径" fill="#D8DEE8"></path>
                            <path d="M2.44010947,61.8397033 C1.91933048,61.8926639 1.49466512,61.5444971 1.49466512,61.0639289 L1.49466512,6.78620453 C1.49466512,6.30563634 1.91933048,5.93491232 2.44010947,5.9594311 L44.4368649,7.94349117 C44.846819,7.9631062 45.1802745,8.32402271 45.1802745,8.74868807 L45.1802745,56.7535266 C45.1802745,57.1781919 44.8477998,57.5577427 44.4368649,57.5989343 L2.44010947,61.8397033 Z" id="路径" fill="url(#linearGradient-130)" opacity="0.3"></path>
                            <polygon id="路径" fill="#FFFFFF" points="41.7299911 56.3121884 5.81095201 59.7732601 5.81095201 9.69707466 41.7299911 11.0495308"></polygon>
                            <path d="M27.3639446,11.2947187 L13.0086865,11.4741962 L13.330373,8.23673584 C13.3548917,7.81599349 13.6589247,7.470769 14.0590712,7.40898166 L16.4903539,7.03531538 C16.7767333,6.99118157 17.0229019,6.80189655 17.1484381,6.53022841 L17.4122603,5.9574696 L23.7714523,6.34977016 L27.3639446,11.2947187 Z" id="路径" fill="#97A6B7" opacity="0.3"></path>
                            <path d="M35.0294975,9.19492995 C34.9618257,8.82910968 34.6676003,8.57117206 34.297857,8.55548004 L32.0038795,8.45250115 C30.9623215,8.40542508 30.1992969,7.56001738 30.2375462,6.48903685 L30.3258139,4.00675508 C30.3424866,3.54776342 30.0139349,3.17998165 29.56377,3.15252061 L28.810553,3.10740605 C28.2358326,3.07307975 27.8533396,2.56603128 27.9337612,1.98052269 C28.0749894,0.956618239 27.3727714,0.0729612329 26.356713,0.00430863526 C25.3318278,-0.0653247137 24.3755952,0.717314899 24.2235787,1.75396912 C24.2010214,1.90794709 24.1490416,2.05996356 24.0637162,2.196288 C23.8273551,2.57583879 23.4124973,2.78473884 23.0054855,2.7612008 L22.2277496,2.71510549 C21.7569889,2.6866637 21.3087855,3.01717692 21.1901146,3.48303383 L20.5437995,6.00258416 C20.2642853,7.09219896 19.2099776,7.87974233 18.0899595,7.82972401 L15.5733514,7.7169376 C15.1614358,7.69830332 14.7563855,7.93858741 14.5671005,8.31519595 L13.0508588,11.3241412 C12.9263034,11.5703098 13.0793006,11.8370742 13.349988,11.845901 L35.1717065,12.5706762 C35.4110098,12.5785223 35.6130446,12.3401997 35.5689108,12.1038386 L35.0294975,9.19492995 Z M26.0477763,2.15215419 C25.7476664,2.13351991 25.5387663,1.87264004 25.5819194,1.56860711 C25.6260532,1.26457418 25.9045866,1.03507835 26.2056773,1.05469338 C26.5057872,1.07430841 26.7127257,1.33518828 26.6695727,1.63824046 C26.6254389,1.94031189 26.3478862,2.17078847 26.0477763,2.15215419 Z" id="形状" fill="url(#linearGradient-131)"></path>
                            <path d="M35.1589567,9.26162105 C35.0912849,8.89580078 34.7970595,8.63786316 34.4273162,8.62217114 L32.1333387,8.51919224 C31.0917807,8.47211617 30.3287561,7.62670847 30.3670054,6.55572795 L30.455273,4.07344617 C30.4719458,3.61445452 30.1433941,3.24667274 29.6932292,3.21921171 L28.9400121,3.17409714 C28.3652918,3.13977084 27.9827988,2.63272237 28.0632204,2.04721379 C28.2044486,1.02330933 27.5022306,0.139652328 26.4861722,0.0709997301 C25.4612869,0.00136638108 24.5050543,0.784005994 24.3530379,1.82066022 C24.3304806,1.97463819 24.2785008,2.12665465 24.1931754,2.2629791 C23.9568143,2.64252989 23.5419565,2.85142993 23.1349446,2.8278919 L22.3572088,2.78179658 C21.8864481,2.75335479 21.4382447,3.08386801 21.3195738,3.54972493 L20.6732586,6.06927526 C20.3937445,7.15889006 19.3394367,7.94643343 18.2194187,7.8964151 L15.7028106,7.78362869 C15.290895,7.76499442 14.8858447,8.00527851 14.6965596,8.38188704 L13.180318,11.3908323 C13.0557626,11.6370009 13.2087598,11.9037653 13.4794472,11.9125921 L35.3011657,12.6373673 C35.540469,12.6452134 35.7425038,12.4068908 35.69837,12.1705297 L35.1589567,9.26162105 Z M26.1772355,2.21884528 C25.8771255,2.20021101 25.6682255,1.93933114 25.7113786,1.6352982 C25.7555124,1.33126527 26.0340458,1.10176945 26.3351364,1.12040372 C26.6352464,1.14001875 26.8421849,1.40089862 26.7990318,1.7039508 C26.754898,2.00700298 26.4773454,2.23747956 26.1772355,2.21884528 Z" id="形状" fill="#97A6B7"></path>
                            <path d="M31.4242554,10.6444805 C29.4774639,9.44306005 27.9837795,10.295333 26.7705901,8.93993459 C25.4720752,7.48940328 26.3478862,5.57889956 25.0042568,4.67758903 C24.1441378,4.10090721 23.3762095,4.60991718 22.3758431,4.45299696 C22.009042,4.39611338 21.618703,4.24998142 21.2126719,3.96654427 L20.6732586,6.06829451 C20.3937445,7.1579093 19.3394367,7.94545267 18.2194187,7.89543435 L15.7028106,7.78264794 C15.290895,7.76401367 14.8858447,8.00429776 14.6965596,8.38090629 L13.180318,11.3898516 C13.0557626,11.6360202 13.2087598,11.9027845 13.4794472,11.9116113 L33.3102404,12.5706762 C32.8120186,11.7772484 32.191203,11.1181834 31.4242554,10.6444805 Z" id="路径" fill="#FFFFFF" opacity="0.5"></path>
                        </g>
                        <g transform="translate(9.453463, 14.379182)">
                            <g fill="#D8DEE8" id="路径">
                                <polygon points="20.2034787 1.30243785 10.2978896 1.00330868 10.2978896 0 20.2034787 0.335416977"></polygon>
                                <polygon points="22.3611318 3.47087918 8.04216143 3.16292325 8.04216143 2.15274931 22.3611318 2.51170432"></polygon>
                                <polygon points="29.4225418 7.4576336 0 7.24481055 0 6.41411412 29.4225418 6.71030104"></polygon>
                                <polygon points="29.4225418 9.14158375 0 9.11412271 0 8.28342628 29.4225418 8.39327043"></polygon>
                                <polygon points="29.4225418 10.730401 0 10.8794752 0 10.0487788 29.4225418 9.98306844"></polygon>
                                <g transform="translate(0.000000, 26.906915)">
                                    <polygon points="29.4225418 0.748313314 0 2.77160344 0 1.93992626 29.4225418 0"></polygon>
                                    <polygon points="29.4225418 2.43128271 0 4.6409156 0 3.81021917 29.4225418 1.68296939"></polygon>
                                    <polygon points="29.4225418 4.1142521 0 6.51022775 0 5.67953132 29.4225418 3.36691954"></polygon>
                                </g>
                                <g transform="translate(0.784601, 13.172472)">
                                    <polygon points="27.9514147 0.656122683 2.45187849 1.07882653 2.45187849 0.359935762 27.9514147 0"></polygon>
                                    <polygon points="27.9514147 2.34301508 2.45187849 2.92754291 2.45187849 2.10567324 27.9514147 1.59372102"></polygon>
                                    <polygon points="27.9514147 4.02990748 2.45187849 4.77625929 2.45187849 3.95438962 27.9514147 3.28061341"></polygon>
                                    <polygon points="0.784601115 1.10530682 0 1.12197959 0 0.397204315 0.784601115 0.382493044"></polygon>
                                </g>
                                <g transform="translate(0.784601, 20.108346)">
                                    <polygon points="27.9514147 0.656122683 2.45187849 1.74279523 2.45187849 1.02390446 27.9514147 0"></polygon>
                                    <polygon points="27.9514147 2.34399583 2.45187849 3.59053085 2.45187849 2.76964194 27.9514147 1.59372102"></polygon>
                                    <polygon points="27.9514147 4.03088823 2.45187849 5.43924723 2.45187849 4.61835832 27.9514147 3.28061341"></polygon>
                                    <polygon points="0.784601115 1.81046707 0 1.85067788 0 1.12492185 0.784601115 1.0876533"></polygon>
                                </g>
                                <polygon points="29.4225418 35.7905606 21.772681 36.5359317 21.772681 35.8631362 29.4225418 35.1354187"></polygon>
                                <polygon points="29.4225418 38.0345198 21.772681 38.8436397 21.772681 38.0747306 29.4225418 37.2862065"></polygon>
                            </g>
                            <g opacity="0.5" transform="translate(18.569299, 30.631284)">
                                <g fill="url(#linearGradient-132)" id="形状">
                                    <path d="M1.86661775,8.97145759 C-0.313592595,7.47777322 -0.632336798,4.38056032 1.16636126,2.11600535 C2.94152128,-0.11912708 6.086791,-0.66050185 8.16696471,0.861624314 C10.2157544,2.36021244 10.5099798,5.33875443 8.83191416,7.54642582 C7.13325274,9.78155824 4.01348256,10.4416039 1.86661775,8.97145759 Z M7.80408669,1.32944273 C5.96517783,-0.0102636752 3.19357439,0.473246762 1.63123742,2.44455706 C0.0512469234,4.43842465 0.330761071,7.16393277 2.24616854,8.48206265 C4.13509573,9.78155824 6.88806489,9.20585718 8.39155678,7.23356612 C9.87837589,5.28383235 9.61749602,2.65149561 7.80408669,1.32944273 Z"></path>
                                </g>
                                <g transform="translate(1.478539, 1.402922)" fill="url(#linearGradient-133)" id="形状">
                                    <path d="M1.31586968,6.37496163 C-0.220967752,5.31182712 -0.445559821,3.1208285 0.82157098,1.51533847 C2.07693276,-0.0754402892 4.31108444,-0.472644604 5.79888431,0.605201178 C7.2700114,1.67127794 7.48087295,3.80245072 6.27552948,5.37851821 C5.058417,6.96929698 2.83603434,7.42730788 1.31586968,6.37496163 Z M5.43208328,1.0769426 C4.18947127,0.179555073 2.32604362,0.51497205 1.28252414,1.84192869 C0.230177889,3.17869284 0.416520654,5.00190968 1.69345897,5.88948969 C2.95862827,6.76824294 4.81322915,6.39065365 5.8312491,5.06467777 C6.84044229,3.74752865 6.66292628,1.96550336 5.43208328,1.0769426 Z"></path>
                                </g>
                                <g transform="translate(4.006923, 2.684210)" fill="url(#linearGradient-134)" id="路径">
                                    <path d="M2.96156333,2.55941116 L0.107576777,0.527294268 C-0.0179594012,0.438045891 -0.0365936777,0.257587634 0.0673659701,0.126166947 C0.170344866,-0.00525373945 0.356687631,-0.0395800382 0.48222381,0.0496683386 L3.32836436,2.08374673 C3.45095828,2.1710336 3.46861181,2.34854961 3.36759441,2.47997029 C3.26657702,2.61139098 3.08513801,2.64669803 2.96156333,2.55941116 Z"></path>
                                </g>
                                <g transform="translate(3.011542, 3.344308)" fill="url(#linearGradient-135)" id="路径">
                                    <path d="M3.50677995,2.93204456 L0.108476368,0.529203646 C-0.0180405614,0.439955269 -0.0366748379,0.259497013 0.0672848099,0.127095574 C0.171244458,-0.0053058638 0.358567974,-0.0396321626 0.485084904,0.0496162143 L3.87358097,2.45441863 C3.99715565,2.54170551 4.01480917,2.71922151 3.91281103,2.8506422 C3.81277438,2.98304363 3.63035463,3.01933144 3.50677995,2.93204456 Z"></path>
                                </g>
                                <g transform="translate(2.625791, 4.440168)" fill="url(#linearGradient-136)" id="路径">
                                    <path d="M2.99220093,2.55605588 L0.108791828,0.531785003 C-0.0187058533,0.442536626 -0.0363593784,0.262078369 0.0676002694,0.12869618 C0.171559917,-0.00468601005 0.359864185,-0.0399930602 0.486381115,0.0492553166 L3.3619442,2.0754877 C3.48551888,2.16277457 3.50415315,2.34127132 3.40215501,2.47367276 C3.30015686,2.6060742 3.11675635,2.64334275 2.99220093,2.55605588 Z"></path>
                                </g>
                            </g>
                        </g>
                    </g>
                </g>
            </g>
        </g>
    </g>
</svg>