<?xml version="1.0" encoding="UTF-8"?>
<svg width="80px" height="80px" viewBox="0 0 80 80" version="1.1" xmlns="http://www.w3.org/2000/svg" xmlns:xlink="http://www.w3.org/1999/xlink">
    <title>法律基础</title>
    <g id="页面-1" stroke="none" stroke-width="1" fill="none" fill-rule="evenodd">
        <g id="app-训练" transform="translate(-68.000000, -444.000000)">
            <g id="法律基础" transform="translate(68.000000, 444.000000)">
                <circle id="椭圆形" fill-opacity="0.5" fill="#FFFFFF" transform="translate(40.000000, 40.000000) rotate(-14.382248) translate(-40.000000, -40.000000) " cx="40" cy="40" r="32.8663585"></circle>
                <g id="编组" opacity="0.58" transform="translate(44.462014, 20.329361)" fill="#D6E5E4" fill-rule="nonzero">
                    <path d="M0,5.5611717 C0,7.91951323 1.91080147,9.8303147 4.269143,9.8303147 L16.6017904,9.8303147 C18.4542171,9.8303147 19.956395,8.32424511 19.956395,6.47571008 C19.956395,4.6232834 18.4503254,3.11721381 16.6017904,3.11721381 C16.1814919,3.11721381 15.7845433,3.19115521 15.4148363,3.33514636 C14.7610387,1.39321166 12.9241786,0 10.7643113,0 C9.10257565,0 7.63153093,0.825030371 6.74423412,2.08592584 C6.04762828,1.58390265 5.19146469,1.29202869 4.269143,1.29202869 C1.91080147,1.29202869 0,3.20283017 0,5.5611717 Z" id="路径"></path>
                </g>
                <g id="编组" opacity="0.34" transform="translate(62.219626, 36.541986)" fill="#D6E5E4" fill-rule="nonzero">
                    <path d="M0,3.3974128 C0,4.8373243 1.16749581,6.0048201 2.6074073,6.0048201 L10.1377553,6.0048201 C11.2663345,6.0048201 12.1886562,5.08639007 12.1886562,3.95391914 C12.1886562,2.8214482 11.2702262,1.90301817 10.1377553,1.90301817 C9.88090618,1.90301817 9.63962372,1.949718 9.41390786,2.03533436 C9.01306763,0.85227194 7.89227166,0 6.5730014,0 C5.55728004,0 4.66219992,0.502023197 4.11736855,1.27257043 C3.68928675,0.965129868 3.17169694,0.786113844 2.6074073,0.786113844 C1.16749581,0.790005496 0,1.9575013 0,3.3974128 Z" id="路径"></path>
                </g>
                <path d="M6.08253563,34.0240867 C6.08253563,36.0360711 7.71313811,37.6666736 9.72512255,37.6666736 L20.2403681,37.6666736 C21.8203791,37.6666736 23.1007329,36.3863199 23.1007329,34.8063089 C23.1007329,33.2262979 21.8203791,31.9420525 20.2403681,31.9420525 C19.8823361,31.9420525 19.5437623,32.0082106 19.2285384,32.1249602 C18.6681404,30.4710078 17.1036961,29.2801621 15.2629443,29.2801621 C13.8463828,29.2801621 12.5932706,29.9845512 11.8343983,31.0586474 C11.2389754,30.6305656 10.5112364,30.3814998 9.72512255,30.3814998 C7.71313811,30.3853914 6.08253563,32.0159939 6.08253563,34.0240867 Z" id="路径" fill="#D6E5E4" fill-rule="nonzero"></path>
                <g id="编组" transform="translate(35.375005, 7.237841)" fill-rule="nonzero">
                    <g transform="translate(0.000000, 9.382775)">
                        <path d="M10.7292865,10.6242118 C9.95873924,12.6361963 8.00902124,14.0605412 5.72072946,14.0605412 C3.43632933,14.0605412 1.48661133,12.6323046 0.712172443,10.6242118 L10.7292865,10.6242118 Z" id="路径" fill="#50474C"></path>
                        <path d="M10.7292865,9.91593106 C10.6631284,9.91593106 10.6008619,9.88090618 10.5697287,9.81863974 L5.72072946,0.572072946 L0.871730203,9.81863974 C0.825030371,9.90814775 0.716064095,9.93928098 0.626556083,9.8964728 C0.537048071,9.84977296 0.502023197,9.74080669 0.54872303,9.65129868 L5.55728004,0.0972913173 C5.61954649,-0.0233499162 5.81412912,-0.0233499162 5.87639556,0.0972913173 L10.8849526,9.65129868 C10.9316524,9.74080669 10.8966275,9.84977296 10.8071195,9.8964728 C10.7876613,9.90814775 10.7604197,9.91593106 10.7292865,9.91593106 Z" id="路径" fill="#E5E5E5"></path>
                        <path d="M5.72072946,10.3595795 C5.61954649,10.3595795 5.54171343,10.2778548 5.54171343,10.1805634 L5.54171343,0.182907677 C5.54171343,0.0817247065 5.62343814,0 5.72072946,0 C5.82191243,0 5.90363713,0.0817247065 5.90363713,0.182907677 L5.90363713,10.1805634 C5.90363713,10.2778548 5.82191243,10.3595795 5.72072946,10.3595795 Z" id="路径" fill="#E5E5E5"></path>
                        <rect id="矩形" fill="#FDCF14" x="0" y="9.73302338" width="11.4414589" height="1"></rect>
                        <path d="M11.4414589,9.73302338 L11.4414589,10.6242118 L10.7292865,10.6242118 C9.95873924,12.6361963 8.00902124,14.0605412 5.72072946,14.0605412 L5.72072946,9.73302338 L11.4414589,9.73302338 Z" id="路径" fill="#E6DAC4"></path>
                    </g>
                    <g transform="translate(24.770369, 9.382775)">
                        <path d="M10.7292865,10.6242118 C9.95873924,12.6361963 8.00902124,14.0605412 5.72072946,14.0605412 C3.43632933,14.0605412 1.48661133,12.6323046 0.712172443,10.6242118 L10.7292865,10.6242118 Z" id="路径" fill="#50474C"></path>
                        <path d="M10.7292865,9.91593106 C10.6631284,9.91593106 10.6008619,9.88090618 10.5697287,9.81863974 L5.72072946,0.572072946 L0.871730203,9.81863974 C0.825030371,9.90814775 0.716064095,9.93928098 0.626556083,9.8964728 C0.537048071,9.84977296 0.50591485,9.74080669 0.552614682,9.65129868 L5.5611717,0.0972913173 C5.62343814,-0.0233499162 5.81802077,-0.0233499162 5.88028722,0.0972913173 L10.8888442,9.65129868 C10.9355441,9.74080669 10.9005192,9.84977296 10.8110112,9.8964728 C10.7876613,9.90814775 10.7604197,9.91593106 10.7292865,9.91593106 Z" id="路径" fill="#E5E5E5"></path>
                        <path d="M5.72462111,10.3595795 C5.62343814,10.3595795 5.54560509,10.2778548 5.54560509,10.1805634 L5.54560509,0.182907677 C5.54560509,0.0817247065 5.62732979,0 5.72462111,0 C5.82580408,0 5.90363713,0.0817247065 5.90363713,0.182907677 L5.90363713,10.1805634 C5.90363713,10.2778548 5.82191243,10.3595795 5.72462111,10.3595795 Z" id="路径" fill="#E5E5E5"></path>
                        <rect id="矩形" fill="#FDCF14" x="0" y="9.73302338" width="11.4453506" height="1"></rect>
                        <path d="M11.4453506,9.73302338 L11.4453506,10.6242118 L10.7331781,10.6242118 C9.96263089,12.6361963 8.01291289,14.0605412 5.72462111,14.0605412 L5.72462111,9.73302338 L11.4453506,9.73302338 Z" id="路径" fill="#E6DAC4"></path>
                    </g>
                    <path d="M18.0572685,6.51851826 L18.0572685,8.36316164 C16.1892752,8.40207816 14.0722161,9.42169117 12.3832389,10.3517962 C11.1690432,11.0211604 9.73302338,11.2468763 8.78346013,11.1534766 C7.38635681,11.0172688 5.99314515,10.3284462 4.6232834,9.46449935 L4.6232834,8.43321138 C5.99314515,9.29715828 7.148966,9.80307313 8.70562707,9.85755627 C10.0988387,9.90814775 11.227418,9.21932523 12.3832389,8.50715278 C14.0332996,7.49532308 16.1853835,6.55354313 18.0572685,6.51851826 Z" id="路径" fill="#50474C"></path>
                    <path d="M5.72072946,8.84572657 C5.72072946,9.42558282 5.24983948,9.8964728 4.66998323,9.8964728 C4.09012698,9.8964728 3.619237,9.42558282 3.619237,8.84572657 C3.619237,8.26587032 4.09012698,7.79498034 4.66998323,7.79498034 C5.24983948,7.79498034 5.72072946,8.26587032 5.72072946,8.84572657 Z" id="路径" fill="#F8C213"></path>
                    <path d="M18.0572685,6.51851826 L18.0572685,8.36316164 C19.9252618,8.40207816 22.0423208,9.42169117 23.7274065,10.3517962 C24.9416021,11.0211604 26.3776219,11.2468763 27.3271852,11.1534766 C28.7242885,11.0172688 30.1175002,10.3284462 31.4873619,9.46449935 L31.4873619,8.43321138 C30.1175002,9.29715828 28.9616793,9.80307313 27.4050183,9.85755627 C26.0118066,9.90814775 24.8832273,9.21932523 23.7274065,8.50715278 C22.0773457,7.49532308 19.9252618,6.55354313 18.0572685,6.51851826 Z" id="路径" fill="#50474C"></path>
                    <path d="M30.4949905,8.84572657 C30.4949905,9.42558282 30.9658805,9.8964728 31.5457367,9.8964728 C32.125593,9.8964728 32.5964829,9.42558282 32.5964829,8.84572657 C32.5964829,8.26587032 32.125593,7.79498034 31.5457367,7.79498034 C30.9658805,7.79498034 30.4949905,8.26587032 30.4949905,8.84572657 Z" id="路径" fill="#F8C213"></path>
                    <rect id="矩形" fill="#63575D" x="16.7224316" y="3.31568809" width="2.66967375" height="27.3388602"></rect>
                    <path d="M20.3183187,7.77941373 C20.3183187,9.02863425 19.3025974,10.0443556 18.0533768,10.0443556 C16.8041563,10.0443556 15.788435,9.0325259 15.788435,7.77941373 C15.788435,6.53019322 16.8002647,5.51447186 18.0533768,5.51447186 C19.306489,5.51447186 20.3183187,6.53019322 20.3183187,7.77941373 Z" id="路径" fill="#F8C213"></path>
                    <path d="M19.7851623,1.7278938 C19.7851623,2.6813487 19.0107234,3.45578759 18.0572685,3.45578759 C17.1038136,3.45578759 16.3293747,2.6813487 16.3293747,1.7278938 C16.3293747,0.774438886 17.1038136,0 18.0572685,0 C19.0107234,0 19.7851623,0.770547233 19.7851623,1.7278938 Z" id="路径" fill="#F8D916"></path>
                    <path d="M19.115798,7.77941373 C19.115798,8.36705329 18.6410164,8.83794326 18.0572685,8.83794326 C17.4735206,8.83794326 16.998739,8.36316164 16.998739,7.77941373 C16.998739,7.19566583 17.4735206,6.7208842 18.0572685,6.7208842 C18.6410164,6.7208842 19.115798,7.19566583 19.115798,7.77941373 Z" id="路径" fill="#F8D916"></path>
                    <rect id="矩形" fill="#50474C" x="10.7253948" y="30.6545483" width="14.655964" height="4.08234367"></rect>
                    <rect id="矩形" fill="#63575D" x="4.75949124" y="34.7368919" width="26.5877712" height="3.0354891"></rect>
                    <rect id="矩形" fill="#F8C213" x="10.7253948" y="31.4406621" width="14.655964" height="1"></rect>
                    <path d="M20.0653613,3.45578759 C20.0653613,3.86051947 19.7384625,4.19130995 19.3298389,4.19130995 L16.7846981,4.19130995 C16.3799662,4.19130995 16.0491757,3.86441112 16.0491757,3.45578759 L16.0491757,3.45578759 C16.0491757,3.05105571 16.3799662,2.72026523 16.7846981,2.72026523 L19.3298389,2.72026523 C19.7345708,2.71637358 20.0653613,3.04716406 20.0653613,3.45578759 L20.0653613,3.45578759 Z" id="路径" fill="#F8C213"></path>
                    <rect id="矩形" fill="#E6DAC4" x="18.0572685" y="30.6545483" width="7.32798202" height="4.08234367"></rect>
                </g>
                <g id="编组" transform="translate(18.376266, 28.357840)" fill-rule="nonzero">
                    <rect id="矩形" fill="#BEBEBE" x="1.77848528" y="24.4901704" width="39.7687989" height="2.10927576"></rect>
                    <rect id="矩形" fill="#AB563B" x="0" y="1.45936976" width="43.2557197" height="9.22321688"></rect>
                    <rect id="矩形" fill="#DBDBDB" x="0.887296814" y="10.6825866" width="41.5511758" height="13.8114754"></rect>
                    <rect id="矩形" fill="#B9D0D2" x="0.887296814" y="10.6825866" width="11.429784" height="1.18306242"></rect>
                    <rect id="矩形" fill="#B3B3B3" opacity="0.71" x="11.2546596" y="9.65129868" width="20.6024094" height="1"></rect>
                    <rect id="矩形" fill="#F0F0F0" x="32.662641" y="13.1031946" width="2.83312316" height="3.87997773"></rect>
                    <rect id="矩形" fill="#74AABE" x="33.0284564" y="13.4651183" width="2.10538411" height="3.15223868"></rect>
                    <rect id="矩形" fill="#F0F0F0" x="37.772381" y="13.1031946" width="2.83312316" height="3.87997773"></rect>
                    <rect id="矩形" fill="#74AABE" x="38.1343047" y="13.4651183" width="2.10538411" height="3.15223868"></rect>
                    <rect id="矩形" fill="#F0F0F0" x="32.662641" y="19.2558975" width="2.83312316" height="3.87997773"></rect>
                    <rect id="矩形" fill="#74AABE" x="33.0284564" y="19.6178212" width="2.10538411" height="3.15223868"></rect>
                    <rect id="矩形" fill="#F0F0F0" x="37.772381" y="19.2558975" width="2.83312316" height="3.87997773"></rect>
                    <rect id="矩形" fill="#74AABE" x="38.1343047" y="19.6178212" width="2.10538411" height="3.15223868"></rect>
                    <path d="M20.8008836,19.6723044 L20.8008836,24.4823871 L16.9014476,24.4823871 L16.9014476,19.6723044 C16.9014476,18.5943166 17.7731778,17.7225864 18.8511656,17.7225864 C19.3921054,17.7225864 19.878562,17.9405189 20.2288107,18.2946593 C20.5829511,18.644908 20.8008836,19.1313646 20.8008836,19.6723044 Z" id="路径" fill="#BEC7C8"></path>
                    <path d="M26.2180642,19.6723044 L26.2180642,24.4823871 L22.3186282,24.4823871 L22.3186282,19.6723044 C22.3186282,18.5943166 23.1903584,17.7225864 24.2683462,17.7225864 C24.8092859,17.7225864 25.2957425,17.9405189 25.6459912,18.2946593 C25.99624,18.644908 26.2180642,19.1313646 26.2180642,19.6723044 Z" id="路径" fill="#BEC7C8"></path>
                    <polygon id="路径" fill="#BEC7C8" points="40.6055042 13.1031946 40.6055042 13.9204417 38.6674611 13.9204417 38.6674611 16.9831723 37.772381 16.9831723 37.772381 13.1031946"></polygon>
                    <polygon id="路径" fill="#BEC7C8" points="35.4996559 13.1031946 35.4996559 13.9204417 33.5577212 13.9204417 33.5577212 16.9831723 32.662641 16.9831723 32.662641 13.1031946"></polygon>
                    <polygon id="路径" fill="#BEC7C8" points="40.6055042 19.2558975 40.6055042 20.0770362 38.6674611 20.0770362 38.6674611 23.1358753 37.772381 23.1358753 37.772381 19.2558975"></polygon>
                    <polygon id="路径" fill="#BEC7C8" points="35.4996559 19.2558975 35.4996559 20.0770362 33.5577212 20.0770362 33.5577212 23.1358753 32.662641 23.1358753 32.662641 19.2558975"></polygon>
                    <rect id="矩形" fill="#F0F0F0" x="2.6735654" y="13.1031946" width="2.83312316" height="3.87997773"></rect>
                    <rect id="矩形" fill="#74AABE" x="3.0354891" y="13.4651183" width="2.10538411" height="3.15223868"></rect>
                    <rect id="矩形" fill="#F0F0F0" x="7.77941373" y="13.1031946" width="2.83312316" height="3.87997773"></rect>
                    <rect id="矩形" fill="#74AABE" x="8.14522908" y="13.4651183" width="2.10538411" height="3.15223868"></rect>
                    <rect id="矩形" fill="#F0F0F0" x="2.6735654" y="19.2558975" width="2.83312316" height="3.87997773"></rect>
                    <rect id="矩形" fill="#74AABE" x="3.0354891" y="19.6178212" width="2.10538411" height="3.15223868"></rect>
                    <polygon id="路径" fill="#B9D0D2" points="42.434581 11.8656491 36.4998106 11.8656491 40.2435805 15.6133106 40.6055042 15.9752343 42.434581 17.8043111 42.434581 24.494062 41.5472841 24.494062 41.5472841 26.6033378 33.2580639 26.6033378 33.2580639 25.1945595 32.5264332 25.1945595 32.5264332 24.494062 25.8327906 24.494062 25.8327906 24.4901704 31.6741613 24.4901704 31.6741613 23.5989819 31.2071629 23.5989819 31.2071629 22.9841008 30.7946478 22.9841008 30.7946478 10.6825866 31.0631718 10.6825866 31.0631718 10.1766718 31.8609606 10.1766718 31.8609606 9.65129868 32.5653497 9.65129868 33.0868312 8.98582607 33.3436803 9.18819201 33.5538295 8.91966797 35.3167482 10.6825866 42.434581 10.6825866"></polygon>
                    <rect id="矩形" fill="#F0F0F0" x="7.77941373" y="19.2558975" width="2.83312316" height="3.87997773"></rect>
                    <rect id="矩形" fill="#74AABE" x="8.14522908" y="19.6178212" width="2.10538411" height="3.15223868"></rect>
                    <polygon id="路径" fill="#BEC7C8" points="10.6164285 13.1031946 10.6164285 13.9204417 8.67449385 13.9204417 8.67449385 16.9831723 7.77941373 16.9831723 7.77941373 13.1031946"></polygon>
                    <polygon id="路径" fill="#BEC7C8" points="5.50668856 13.1031946 5.50668856 13.9204417 3.56864552 13.9204417 3.56864552 16.9831723 2.6735654 16.9831723 2.6735654 13.1031946"></polygon>
                    <polygon id="路径" fill="#BEC7C8" points="10.6164285 19.2558975 10.6164285 20.0770362 8.67449385 20.0770362 8.67449385 23.1358753 7.77941373 23.1358753 7.77941373 19.2558975"></polygon>
                    <polygon id="路径" fill="#BEC7C8" points="5.50668856 19.2558975 5.50668856 20.0770362 3.56864552 20.0770362 3.56864552 23.1358753 2.6735654 23.1358753 2.6735654 19.2558975"></polygon>
                    <polygon id="路径" fill="#B9D0D2" points="26.7045208 10.6825866 26.7045208 22.9879925 26.2997889 22.9879925 26.2997889 23.5989819 25.8288989 23.5989819 25.8288989 24.494062 17.2867213 24.494062 17.2867213 23.5989819 16.8197229 23.5989819 16.8197229 22.9879925 16.4149911 22.9879925 16.4149911 10.6825866"></polygon>
                    <polygon id="路径" fill="#B9D0D2" points="21.2289654 26.6033378 17.2867213 26.6033378 17.2867213 24.4979537 17.6525366 24.4979537 18.3569257 25.1984512 19.1041231 25.1984512 19.8085122 25.9028403 20.528468 25.9028403"></polygon>
                    <g transform="translate(9.592924, 0.000000)">
                        <rect id="矩形" fill="#FFFFFF" x="17.1115969" y="10.6825866" width="4.09401863" height="12.3015142"></rect>
                        <polygon id="路径" fill="#E66530" points="23.957014 8.92355962 23.7507564 9.18819201 23.4939073 8.98582607 11.9940736 0.408623533 0.466998323 9.00528433 0.206257593 9.20375862 0 8.94301789 11.9940736 0"></polygon>
                        <polygon id="路径" fill="#F2F2F2" points="23.4939073 8.98582607 22.9724258 9.65129868 0.972913173 9.65129868 0.466998323 9.00528433 11.9940736 0.408623533"></polygon>
                        <polygon id="路径" fill="#E5E5E5" points="3.65426188 8.3164618 11.9940736 2.09370915 20.3338853 8.3164618"></polygon>
                        <polygon id="路径" fill="#E5E5E5" points="22.2680367 9.65129868 22.2680367 10.1805634 21.4741396 10.1805634 21.4741396 10.6825866 2.54124921 10.6825866 2.54124921 10.1805634 1.6617357 10.1805634 1.6617357 9.65129868"></polygon>
                        <polygon id="路径" fill="#F2F2F2" points="7.69379737 23.5989819 7.69379737 24.4901704 1.85242668 24.4901704 1.85242668 23.5989819 2.319425 23.5989819 2.319425 22.9841008 7.22679905 22.9841008 7.22679905 23.5989819"></polygon>
                        <polygon id="路径" fill="#F2F2F2" points="22.0812374 23.5989819 22.0812374 24.4901704 16.2398667 24.4901704 16.2398667 23.5989819 16.706865 23.5989819 16.706865 22.9841008 21.6142391 22.9841008 21.6142391 23.5989819"></polygon>
                        <rect id="矩形" fill="#FFFFFF" x="2.72415688" y="10.6825866" width="4.09401863" height="12.3015142"></rect>
                        <g opacity="0.28" transform="translate(2.724157, 11.114560)" fill="#BABABA" id="路径">
                            <path d="M16.7924814,11.1184517 C16.7924814,11.3441676 16.6329236,11.5309669 16.438341,11.5309669 L16.438341,11.5309669 C16.2437583,11.5309669 16.0842006,11.3480592 16.0842006,11.1184517 L16.0842006,0.412515185 C16.0842006,0.186799329 16.2437583,0 16.438341,0 L16.438341,0 C16.6368153,0 16.7924814,0.182907677 16.7924814,0.412515185 L16.7924814,11.1184517 Z"></path>
                            <path d="M17.815986,11.1184517 C17.815986,11.3441676 17.6953448,11.5309669 17.547462,11.5309669 L17.547462,11.5309669 C17.3995792,11.5309669 17.278938,11.3480592 17.278938,11.1184517 L17.278938,0.412515185 C17.278938,0.186799329 17.3995792,0 17.547462,0 L17.547462,0 C17.6953448,0 17.815986,0.182907677 17.815986,0.412515185 L17.815986,11.1184517 Z"></path>
                            <path d="M18.3919506,11.1184517 C18.3919506,11.3441676 18.3335758,11.5309669 18.2596344,11.5309669 L18.2596344,11.5309669 C18.185693,11.5309669 18.1273182,11.3480592 18.1273182,11.1184517 L18.1273182,0.412515185 C18.1273182,0.186799329 18.185693,0 18.2596344,0 L18.2596344,0 C18.3335758,0 18.3919506,0.182907677 18.3919506,0.412515185 L18.3919506,11.1184517 Z"></path>
                            <path d="M14.7143388,11.1184517 C14.7143388,11.3441676 14.655964,11.5309669 14.5820226,11.5309669 L14.5820226,11.5309669 C14.5080812,11.5309669 14.4497064,11.3480592 14.4497064,11.1184517 L14.4497064,0.412515185 C14.4497064,0.186799329 14.5080812,0 14.5820226,0 L14.5820226,0 C14.655964,0 14.7143388,0.182907677 14.7143388,0.412515185 L14.7143388,11.1184517 Z"></path>
                            <path d="M15.5354775,11.1184517 C15.5354775,11.3441676 15.4226196,11.5309669 15.2825201,11.5309669 L15.2825201,11.5309669 C15.1424206,11.5309669 15.0295627,11.3480592 15.0295627,11.1184517 L15.0295627,0.412515185 C15.0295627,0.186799329 15.1424206,0 15.2825201,0 L15.2825201,0 C15.4226196,0 15.5354775,0.182907677 15.5354775,0.412515185 L15.5354775,11.1184517 Z"></path>
                            <path d="M2.40504136,11.1184517 C2.40504136,11.3441676 2.2454836,11.5309669 2.05090097,11.5309669 L2.05090097,11.5309669 C1.85631833,11.5309669 1.69676057,11.3480592 1.69676057,11.1184517 L1.69676057,0.412515185 C1.69676057,0.186799329 1.85631833,0 2.05090097,0 L2.05090097,0 C2.24937526,0 2.40504136,0.182907677 2.40504136,0.412515185 L2.40504136,11.1184517 Z"></path>
                            <path d="M3.42854602,11.1184517 C3.42854602,11.3441676 3.30790479,11.5309669 3.16002199,11.5309669 L3.16002199,11.5309669 C3.01213918,11.5309669 2.89149795,11.3480592 2.89149795,11.1184517 L2.89149795,0.412515185 C2.89149795,0.186799329 3.01213918,0 3.16002199,0 L3.16002199,0 C3.30790479,0 3.42854602,0.182907677 3.42854602,0.412515185 L3.42854602,11.1184517 Z"></path>
                            <path d="M4.00840227,11.1184517 C4.00840227,11.3441676 3.95002748,11.5309669 3.87608608,11.5309669 L3.87608608,11.5309669 C3.80214468,11.5309669 3.74376989,11.3480592 3.74376989,11.1184517 L3.74376989,0.412515185 C3.74376989,0.186799329 3.80214468,0 3.87608608,0 L3.87608608,0 C3.95002748,0 4.00840227,0.182907677 4.00840227,0.412515185 L4.00840227,11.1184517 Z"></path>
                            <path d="M0.326898826,11.1184517 C0.326898826,11.3441676 0.268524036,11.5309669 0.194582635,11.5309669 L0.194582635,11.5309669 C0.120641233,11.5309669 0.0622664431,11.3480592 0.0622664431,11.1184517 L0.0622664431,0.412515185 C0.0622664431,0.186799329 0.120641233,0 0.194582635,0 L0.194582635,0 C0.268524036,0 0.326898826,0.182907677 0.326898826,0.412515185 L0.326898826,11.1184517 Z"></path>
                            <path d="M1.1519292,11.1184517 C1.1519292,11.3441676 1.03517962,11.5309669 0.895080119,11.5309669 L0.895080119,11.5309669 C0.754980622,11.5309669 0.642122694,11.3480592 0.642122694,11.1184517 L0.642122694,0.412515185 C0.642122694,0.186799329 0.754980622,0 0.895080119,0 L0.895080119,0 C1.03517962,0 1.1519292,0.182907677 1.1519292,0.412515185 L1.1519292,11.1184517 Z"></path>
                        </g>
                        <rect id="矩形" fill="#FFFFFF" x="1.02350466" y="24.494062" width="21.9138963" height="1"></rect>
                        <rect id="矩形" fill="#D3D2D1" x="0.295765605" y="25.1945595" width="23.3693744" height="1.40488662"></rect>
                        <polygon id="路径" fill="#B3B3B3" opacity="0.71" points="12.4532886 0.75108897 0.786113844 9.41390786 0.466998323 9.00528433 11.9940736 0.412515185"></polygon>
                        <polygon id="路径" fill="#B3B3B3" opacity="0.71" points="12.4065888 2.40114971 4.60771679 8.3164618 3.65815353 8.3164618 11.9940736 2.09370915"></polygon>
                        <rect id="矩形" fill="#FFFFFF" x="7.69379737" y="24.4901704" width="8.54606931" height="1"></rect>
                        <rect id="矩形" fill="#F2F2F2" x="7.69379737" y="25.1945595" width="8.54606931" height="1"></rect>
                    </g>
                    <g transform="translate(18.637125, 10.686478)">
                        <polygon id="路径" fill="#F2F2F2" points="5.84137069 12.9202869 5.84137069 13.8114754 0 13.8114754 0 12.9202869 0.466998323 12.9202869 0.466998323 12.3015142 5.37437237 12.3015142 5.37437237 12.9202869"></polygon>
                        <rect id="矩形" fill="#FFFFFF" x="0.875621856" y="0" width="4.09401863" height="12.3015142"></rect>
                        <path d="M3.27677157,11.5504252 C3.27677157,11.776141 3.11721381,11.9629404 2.92263117,11.9629404 L2.92263117,11.9629404 C2.72804854,11.9629404 2.56849078,11.7800327 2.56849078,11.5504252 L2.56849078,0.844488634 C2.56849078,0.618772778 2.72804854,0.431973449 2.92263117,0.431973449 L2.92263117,0.431973449 C3.12110546,0.431973449 3.27677157,0.618772778 3.27677157,0.844488634 L3.27677157,11.5504252 Z" id="路径" fill="#BABABA" opacity="0.39"></path>
                        <path d="M4.30027622,11.5504252 C4.30027622,11.776141 4.17963499,11.9629404 4.03175219,11.9629404 L4.03175219,11.9629404 C3.88386939,11.9629404 3.76322815,11.7800327 3.76322815,11.5504252 L3.76322815,0.844488634 C3.76322815,0.618772778 3.88386939,0.431973449 4.03175219,0.431973449 L4.03175219,0.431973449 C4.17963499,0.431973449 4.30027622,0.618772778 4.30027622,0.844488634 L4.30027622,11.5504252 Z" id="路径" fill="#BABABA" opacity="0.39"></path>
                        <path d="M4.88013248,11.5504252 C4.88013248,11.776141 4.82175769,11.9629404 4.74781628,11.9629404 L4.74781628,11.9629404 C4.67387488,11.9629404 4.61550009,11.7800327 4.61550009,11.5504252 L4.61550009,0.844488634 C4.61550009,0.618772778 4.67387488,0.431973449 4.74781628,0.431973449 L4.74781628,0.431973449 C4.82175769,0.431973449 4.88013248,0.618772778 4.88013248,0.844488634 L4.88013248,11.5504252 Z" id="路径" fill="#BABABA" opacity="0.39"></path>
                        <path d="M1.20252068,11.5504252 C1.20252068,11.776141 1.14414589,11.9629404 1.07020449,11.9629404 L1.07020449,11.9629404 C0.996263089,11.9629404 0.937888299,11.7800327 0.937888299,11.5504252 L0.937888299,0.844488634 C0.937888299,0.618772778 0.996263089,0.431973449 1.07020449,0.431973449 L1.07020449,0.431973449 C1.14414589,0.431973449 1.20252068,0.618772778 1.20252068,0.844488634 L1.20252068,11.5504252 Z" id="路径" fill="#BABABA" opacity="0.39"></path>
                        <path d="M2.0236594,11.5504252 C2.0236594,11.776141 1.91080147,11.9629404 1.76681032,11.9629404 L1.76681032,11.9629404 C1.62671083,11.9629404 1.5138529,11.7800327 1.5138529,11.5504252 L1.5138529,0.844488634 C1.5138529,0.618772778 1.62671083,0.431973449 1.76681032,0.431973449 L1.76681032,0.431973449 C1.90690982,0.431973449 2.0236594,0.618772778 2.0236594,0.844488634 L2.0236594,11.5504252 Z" id="路径" fill="#BABABA" opacity="0.39"></path>
                    </g>
                    <path d="M23.6067652,10.6864783 L23.6067652,11.8384075 C22.9957758,11.6321499 22.3147365,11.5154003 21.5908891,11.5154003 C20.8436918,11.5154003 20.135411,11.6399332 19.5088549,11.8617574 L19.5088549,10.6864783 L23.6067652,10.6864783 Z" id="路径" fill="#C5CECE"></path>
                    <path d="M16.4149911,10.6864783 L16.4149911,11.8384075 C15.8040016,11.6321499 15.1190707,11.5154003 14.399115,11.5154003 C13.6519176,11.5154003 12.9436369,11.6399332 12.3170808,11.8617574 L12.3170808,10.6864783 L16.4149911,10.6864783 Z" id="路径" fill="#C5CECE"></path>
                    <path d="M30.7985394,10.6864783 L30.7985394,11.8384075 C30.1914416,11.6321499 29.5065107,11.5154003 28.7826633,11.5154003 C28.035466,11.5154003 27.3271852,11.6399332 26.7006291,11.8617574 L26.7006291,10.6864783 L30.7985394,10.6864783 Z" id="路径" fill="#C5CECE"></path>
                    <rect id="矩形" fill="#C5CECE" opacity="0.4" x="11.2546596" y="9.65129868" width="20.6024094" height="1"></rect>
                    <rect id="矩形" fill="#B9D0D2" x="1.77848528" y="24.4901704" width="8.83794326" height="1"></rect>
                </g>
                <g id="编组" transform="translate(10.888727, 50.668685)" fill-rule="nonzero">
                    <g id="路径">
                        <polygon fill="#63575D" points="11.1573683 8.87685979 11.1573683 9.73302338 5.24594783 6.9427084 3.70485336 6.21496935 0 4.46761729 0 3.6114537 1.07020449 4.1212602 6.05930324 6.47571008"></polygon>
                        <polygon fill="#4C4348" points="22.3147365 3.6114537 21.244532 4.1212602 16.5667655 6.32782728 11.1573683 8.87685979 6.05930324 6.47571008 1.07020449 4.1212602 0 3.6114537 11.1573683 0"></polygon>
                        <polygon fill="#FFFFFF" opacity="0.1" points="11.1573683 0 11.1573683 8.88075144 6.05930324 6.47181843 1.07020449 4.1212602 0 3.61534535"></polygon>
                        <path d="M19.2442226,5.91531209 L19.2442226,9.30494159 C19.2442226,11.4881587 15.7650851,13.2549691 11.4764838,13.2549691 C7.18399087,13.2549691 3.70485336,11.4881587 3.70485336,9.30494159 L3.70485336,6.21496935 L5.24983948,6.9427084 L11.1612599,9.73302338 L17.4384957,6.77147568 L19.2442226,5.91531209 Z" fill="#473F43"></path>
                        <path d="M19.2442226,5.91531209 L19.2442226,7.73660555 C17.3061795,7.83389687 15.0451293,8.90020971 13.1654611,10.779878 C12.3910222,11.5543168 11.7527911,12.3910222 11.2663345,13.2471858 C11.1651516,13.2471858 11.0639686,13.2471858 10.958894,13.2394025 C10.4724374,12.3871305 9.83809801,11.5504252 9.06365912,10.7759863 C7.40970673,9.12203391 5.46388038,8.09852925 3.70096171,7.81054695 L3.70096171,6.2110777 L5.24594783,6.93881675 L11.1534766,9.72913173 L17.4307124,6.76758403 L19.2442226,5.91531209 Z" fill="#C7C5CE"></path>
                        <polygon fill="#63575D" points="22.3147365 3.6114537 22.3147365 4.46761729 19.2442226 5.91531209 17.4346041 6.77147568 11.1573683 9.73302338 11.1573683 8.87685979 16.5667655 6.32782728 21.244532 4.1212602"></polygon>
                        <path d="M5.57673831,11.1923931 C5.29653931,11.1923931 5.0669318,10.9627856 5.0669318,10.6825866 L5.0669318,6.24610257 C5.0669318,6.03206167 5.199248,5.84137069 5.39772228,5.76742929 L10.9783522,3.66982849 C11.2429846,3.56864552 11.5348586,3.70485336 11.6360415,3.96948575 C11.7372245,4.23411813 11.6010167,4.52599208 11.3363843,4.62717505 L6.08654481,6.60024297 L6.08654481,10.6825866 C6.08654481,10.9627856 5.86082895,11.1923931 5.57673831,11.1923931 Z" fill="#E7ECEC"></path>
                        <path d="M5.69348789,9.69410686 C5.67792128,9.68632355 5.66624632,9.68632355 5.65067971,9.6824319 C5.66235467,9.6824319 5.67402962,9.68632355 5.68570458,9.6902152 C5.68959624,9.6902152 5.68959624,9.6902152 5.69348789,9.69410686 Z" fill="#F2F2F2"></path>
                        <g transform="translate(3.479925, 9.293267)">
                            <path d="M3.97258952,4.98131545 C3.78579019,5.0591485 3.56785764,4.97353214 3.49002459,4.78673281 L2.82455198,3.21839678 L3.08529271,5.19535634 C3.11253428,5.39772228 2.96854313,5.58452161 2.76617719,5.60787153 C2.75061058,5.60787153 2.73504397,5.61176318 2.71947736,5.61176318 C2.53656968,5.61176318 2.37701192,5.47555534 2.353662,5.28875601 L2.09681292,3.35460462 L1.83996385,5.28875601 C1.81661393,5.47555534 1.65705617,5.61176318 1.47414849,5.61176318 C1.45858188,5.61176318 1.44301527,5.60787153 1.42744866,5.60787153 C1.22508272,5.58062996 1.08109157,5.39383063 1.11222479,5.19535634 L1.37296552,3.21839678 L0.707492913,4.78673281 C0.629659859,4.97353214 0.411727309,5.06304015 0.22492798,4.98131545 C0.0381286503,4.90348239 -0.0513793616,4.68554984 0.0303453449,4.49875051 L1.75823914,0.412515185 C1.76213079,0.40473188 1.76602245,0.393056922 1.77380575,0.385273617 C1.78158906,0.365815353 1.79326401,0.350248742 1.80493897,0.334682132 C1.81661393,0.319115521 1.83218054,0.30354891 1.8438555,0.291873952 C1.85553046,0.280198994 1.87109707,0.264632383 1.88666368,0.256849078 C1.9177969,0.233499162 1.95282177,0.217932551 1.9917383,0.206257593 C2.00341326,0.20236594 2.01897987,0.198474287 2.03065483,0.198474287 C2.07735466,0.190690982 2.12016284,0.190690982 2.16686267,0.198474287 C2.17853763,0.198474287 2.19410424,0.20236594 2.2057792,0.206257593 C2.24469573,0.217932551 2.2797206,0.233499162 2.31474548,0.26074073 C2.33031209,0.268524036 2.3458787,0.280198994 2.35755365,0.295765605 C2.36922861,0.307440563 2.38479522,0.323007173 2.39647018,0.338573784 C2.40814514,0.354140395 2.4198201,0.369707006 2.4276034,0.389165269 C2.43538671,0.396948575 2.43927836,0.408623533 2.44317001,0.416406838 L4.17106381,4.50264216 C4.24500521,4.68554984 4.15938885,4.89959074 3.97258952,4.98131545 Z" fill="#E1E4E4"></path>
                            <path d="M1.99952161,0.198474287 C2.00730491,0.194582635 2.01897987,0.190690982 2.03065483,0.190690982 C2.01897987,0.190690982 2.00341326,0.194582635 1.9917383,0.198474287 C1.99562995,0.198474287 1.99952161,0.198474287 1.99952161,0.198474287 Z" fill="#F2F2F2"></path>
                        </g>
                        <path d="M6.82985047,10.7292865 C6.82985047,11.418109 6.26945249,11.978507 5.58062996,11.978507 C4.89180743,11.978507 4.33140945,11.418109 4.33140945,10.7292865 C4.33140945,10.0365723 4.89180743,9.48004581 5.58062996,9.48004581 C6.26945249,9.4761743 6.82985047,10.0365723 6.82985047,10.7292865 Z" fill="#E1E7E7"></path>
                    </g>
                    <g transform="translate(10.055969, 4.584607)" id="路径">
                        <polygon fill="#ECC014" points="14.7144008 7.70134055 13.3211891 8.44464621 13.9672034 9.88844936 10.005501 8.53415422 10.75659 6.34315376"></polygon>
                        <polygon fill="#F8D916" points="13.445722 10.3943642 11.8890609 10.1180569 11.4998956 11.6474764 9.23495376 8.12942234 11.1807801 6.87631018"></polygon>
                        <path d="M17.9911723,3.06249054 C17.8471812,3.42441424 17.6058987,3.69293827 17.3140248,3.8719543 L17.2712166,3.89919587 L11.7528531,7.51064957 L5.72857469,14.0680844 C5.72468303,14.0797593 5.72079138,14.0875426 5.71689973,14.0914343 C5.33551776,14.4922745 5.07477703,14.8464149 4.5182707,15.0293226 C4.03959742,15.1888803 3.50254935,15.2744967 3.0044178,15.1577471 C2.40121163,15.013756 1.81357208,14.6907488 1.54115639,14.1031092 C1.36992367,13.7295106 1.09750798,13.153546 1.30765723,12.7371391 C1.83692199,11.6902846 4.25363832,12.5308815 3.55314083,13.5543862 C3.49087439,13.6477859 3.14840895,13.6633525 3.16786722,13.6361109 C3.75161512,12.7760557 1.83692199,11.9627002 1.66568928,12.7332475 C1.51002317,13.42207 1.9925881,14.36385 2.57633601,14.7063154 C3.05500929,14.9865144 3.65043215,15.1460721 4.20693848,15.0059727 C4.91132762,14.8269566 5.36275933,14.3015835 5.70133312,13.6400026 L5.70133312,13.6400026 C6.00488203,11.8031425 3.68545702,10.5461387 1.90308009,10.6278634 C1.89918844,10.6278634 1.89918844,10.6278634 1.89918844,10.6278634 C0.67331784,10.8730375 0.175186295,12.1456079 0.408685457,12.7799473 C0.459276942,12.9278301 0,12.962855 0,12.8032972 C-0.00382972876,12.0755582 0.175186295,11.4256522 0.684992798,10.9664372 C0.684992798,10.9664372 0.68888445,10.9664372 0.68888445,10.9664372 L1.14031616,10.6589966 L8.74071387,5.52979835 L13.3717806,0.583507774 L13.445722,0.50567472 C14.7494256,-0.840837112 18.9290606,0.669124133 17.9911723,3.06249054 Z" fill="#FCFDFE"></path>
                        <path d="M11.9474357,7.62350749 C11.8968442,7.75193203 11.8306861,7.86478996 11.7489614,7.96597293 L11.4376292,8.26563019 C11.2352632,8.40572968 10.9900891,8.57307075 10.744915,8.60809562 C10.8850145,8.05548094 10.6748653,7.58459097 10.3518581,7.22655892 C10.0716591,6.91133505 9.67081886,6.66226928 9.23884541,6.49492821 C8.7796304,6.31980384 8.28149885,6.27310401 7.8417421,6.31591219 C7.52262658,6.34704541 7.35528551,6.4715783 7.07119487,6.64670267 L8.14139936,5.51034008 L8.24647398,5.40915711 L8.25425728,5.40137381 C9.43342805,4.44013559 12.706308,5.6815728 11.9474357,7.62350749 Z" fill="#F8D916"></path>
                        <path d="M13.9633118,9.88844936 L12.8775407,9.51874235 L13.4418303,10.3982559 L11.8851692,10.1219485 L11.496004,11.651368 L10.0327426,9.37864286 L10.6164905,8.74819512 L10.7410234,8.61198728 L10.744915,8.61198728 C10.9900891,8.5769624 11.2313716,8.41351299 11.4376292,8.26952184 L11.7489614,7.96986458 C11.776203,7.93483971 11.7956612,7.90370649 11.8190111,7.86868161 C11.8696026,7.79474021 11.9085192,7.71301551 11.9474357,7.62739915 C11.9863522,7.52621618 12.0174854,7.42892486 12.033052,7.32774189 L12.5817751,6.96970984 L14.7182924,7.70134055 L13.3250807,8.44853786 L13.9633118,9.88844936 Z" fill="#E6DAC4"></path>
                        <path d="M0.397010499,12.8422138 C0.412577109,12.8266471 0.416468762,12.8032972 0.408685457,12.7799473 C0.179077948,12.1417163 0.677209492,10.8691458 1.89918844,10.6278634 C1.89918844,10.6239717 1.89918844,10.6239717 1.90308009,10.6278634 C2.30781197,10.6084051 2.74367707,10.6589966 3.16786722,10.7718545 L0.397010499,12.8422138 Z" fill="#B7BFC0"></path>
                        <path d="M3.55314083,13.5504945 C4.17969692,12.6359562 2.31170362,11.8693006 1.53337308,12.4647234 L3.54924918,10.8808208 C4.19915518,11.1104283 4.79846969,11.4801353 5.20709323,11.9588086 L3.55314083,13.5504945 Z" fill="#D0D7D7"></path>
                        <path d="M5.70522477,13.6322192 C5.70522477,13.6361109 5.70522477,13.6361109 5.70522477,13.6361109 C5.36665099,14.2938002 4.91132762,14.823065 4.21472179,15.002081 C3.65821545,15.1421805 3.06279259,14.9826227 2.58411931,14.7024237 C1.99647975,14.3560667 1.51780647,13.4181784 1.66958093,12.7293558 C1.8447053,11.9588086 3.75939842,12.7760557 3.17175887,13.6322192 C3.1523006,13.6594608 3.49476604,13.6438942 3.55703248,13.5504945 L5.21098488,11.9627002 C5.60015015,12.4296986 5.81029939,12.9978799 5.70522477,13.6322192 Z" fill="#B7BFC0"></path>
                    </g>
                </g>
                <g id="编组" transform="translate(40.893188, 47.446397)" fill-rule="nonzero">
                    <rect id="矩形" fill="#4C4348" x="5.00484593" y="5.53782178" width="22.8945928" height="3.51027073"></rect>
                    <rect id="矩形" fill="#FFFFFF" x="9.11443118" y="0" width="14.5859143" height="9.31661654"></rect>
                    <path d="M28.3119539,17.6758865 L28.3119539,21.2250738 L4.37050655,21.2250738 L4.37050655,17.6758865 L5.82598465,11.1962848 L5.82598465,9.60070719 L6.37859933,7.14507434 L12.2044034,7.14507434 C12.4379026,8.18803726 14.3409207,9.00528433 16.6564541,9.00528433 C18.9719874,9.00528433 20.8788973,8.18803726 21.1123964,7.14507434 L26.6151933,7.14507434 L27.0821917,9.60070719 L27.0860833,9.60070719 L27.0860833,11.1962848 L27.0938666,11.1962848 L28.3119539,17.6758865 Z" id="路径" fill="#747186"></path>
                    <polygon id="路径" fill="#C7C5CE" opacity="0.6" points="27.0860833 11.2001764 5.822093 11.2001764 4.36661489 17.6758865 28.3080623 17.6758865"></polygon>
                    <path d="M27.0821917,9.60070719 L5.82987631,9.60070719 L6.38249099,7.14507434 L12.2044034,7.14507434 C12.4379026,8.19192892 14.3409207,9.00528433 16.6564541,9.00528433 C18.9719874,9.00528433 20.8788973,8.19192892 21.1123964,7.14507434 L26.619085,7.14507434 L27.0821917,9.60070719 Z" id="路径" fill="#C7C5CE" opacity="0.6"></path>
                    <polygon id="路径" fill="#C7C5CE" opacity="0.6" points="24.5020259 11.2001764 8.39058378 11.2001764 7.28924606 16.629032 25.4282393 16.629032"></polygon>
                    <g transform="translate(8.168996, 11.355843)" fill="#ABAEBC" id="路径">
                        <path d="M2.66943747,0.513698155 C2.6421959,0.797788802 2.33086369,1.02739631 1.97672329,1.02739631 C1.6225829,1.02739631 1.36184217,0.797788802 1.39297539,0.513698155 C1.42800026,0.229607509 1.73544083,0 2.08568957,0 C2.43593831,0 2.69667904,0.229607509 2.66943747,0.513698155 Z"></path>
                        <path d="M4.44013945,0.513698155 C4.42068118,0.797788802 4.11713227,1.02739631 3.76299188,1.02739631 C3.40885148,1.02739631 3.14032745,0.797788802 3.16367736,0.513698155 C3.18702728,0.229607509 3.49057619,0 3.84082493,0 C4.19107368,0 4.45959771,0.229607509 4.44013945,0.513698155 Z"></path>
                        <path d="M6.21473308,0.513698155 C6.20694977,0.797788802 5.90729251,1.02739631 5.55315212,1.02739631 C5.19901172,1.02739631 4.92270438,0.797788802 4.93827099,0.513698155 C4.9538376,0.229607509 5.24960321,0 5.59985195,0 C5.95010069,0 6.22640803,0.229607509 6.21473308,0.513698155 Z"></path>
                        <path d="M7.9893267,0.513698155 C7.9893267,0.797788802 7.69745275,1.02739631 7.34331236,1.02739631 C6.98917196,1.02739631 6.70508131,0.797788802 6.71286462,0.513698155 C6.72064793,0.229607509 7.00863022,0 7.35887897,0 C7.70523606,0 7.9893267,0.229607509 7.9893267,0.513698155 Z"></path>
                        <path d="M9.76002868,0.513698155 C9.76781198,0.797788802 9.48372134,1.02739631 9.12958094,1.02739631 C8.77544055,1.02739631 8.48356659,0.797788802 8.48356659,0.513698155 C8.48356659,0.229607509 8.76376559,0 9.11401433,0 C9.46426307,0 9.75224537,0.229607509 9.76002868,0.513698155 Z"></path>
                        <path d="M11.5346223,0.513698155 C11.5501889,0.797788802 11.2777732,1.02739631 10.9197412,1.02739631 C10.5656008,1.02739631 10.2698352,0.797788802 10.2581602,0.513698155 C10.2503769,0.229607509 10.5227926,0 10.8730413,0 C11.2232901,0 11.5190557,0.229607509 11.5346223,0.513698155 Z"></path>
                        <path d="M13.3092159,0.513698155 C13.3325658,0.797788802 13.0679335,1.02739631 12.7099014,1.02739631 C12.355761,1.02739631 12.0522121,0.797788802 12.0327538,0.513698155 C12.0132956,0.229607509 12.2818196,0 12.6320684,0 C12.9784255,0 13.2819744,0.229607509 13.3092159,0.513698155 Z"></path>
                        <path d="M15.0799179,0.513698155 C15.1149428,0.797788802 14.8503104,1.02739631 14.49617,1.02739631 C14.1420296,1.02739631 13.8306974,0.797788802 13.8034558,0.513698155 C13.7762143,0.229607509 14.036955,0 14.3872037,0 C14.7374525,0 15.0487847,0.229607509 15.0799179,0.513698155 Z"></path>
                        <path d="M1.64204116,1.76291867 C1.61090794,2.04700932 1.28790077,2.27661682 0.925977067,2.27661682 C0.564053367,2.27661682 0.299420984,2.04700932 0.33833751,1.76291867 C0.377254037,1.47882802 0.696369558,1.24922051 1.05050995,1.24922051 C1.408542,1.24922051 1.67317438,1.48271968 1.64204116,1.76291867 Z"></path>
                        <path d="M3.45555132,1.76291867 C3.4322014,2.04700932 3.12086919,2.27661682 2.75505383,2.27661682 C2.39313013,2.27661682 2.12071444,2.04700932 2.15184766,1.76291867 C2.17908923,1.47882802 2.4943131,1.24922051 2.85234515,1.24922051 C3.20648554,1.24922051 3.47500958,1.48271968 3.45555132,1.76291867 Z"></path>
                        <path d="M5.26516982,1.76291867 C5.24960321,2.04700932 4.9460543,2.27661682 4.58023894,2.27661682 C4.21831524,2.27661682 3.93811625,2.04700932 3.96146617,1.76291867 C3.98092443,1.47882802 4.28836499,1.24922051 4.64639704,1.24922051 C5.00053744,1.24922051 5.28073643,1.48271968 5.26516982,1.76291867 Z"></path>
                        <path d="M7.07478832,1.76291867 C7.07089667,2.04700932 6.77123941,2.27661682 6.40542406,2.27661682 C6.04350036,2.27661682 5.75940971,2.04700932 5.77108467,1.76291867 C5.78275963,1.47882802 6.08241688,1.24922051 6.44044893,1.24922051 C6.79848098,1.24922051 7.08257163,1.48271968 7.07478832,1.76291867 Z"></path>
                        <path d="M8.88829847,1.76291867 C8.89219013,2.04700932 8.60031618,2.27661682 8.23839248,2.27661682 C7.87646877,2.27661682 7.58459482,2.04700932 7.58848648,1.76291867 C7.59237813,1.47882802 7.88425208,1.24922051 8.23839248,1.24922051 C8.59253287,1.24922051 8.88440682,1.48271968 8.88829847,1.76291867 Z"></path>
                        <path d="M10.697917,1.76291867 C10.7095919,2.04700932 10.4255013,2.27661682 10.0635776,2.27661682 C9.70165389,2.27661682 9.40199663,2.04700932 9.39810498,1.76291867 C9.39032167,1.47882802 9.67830397,1.24922051 10.0324444,1.24922051 C10.3904764,1.24922051 10.686242,1.48271968 10.697917,1.76291867 Z"></path>
                        <path d="M12.5114271,1.76291867 C12.5308854,2.04700932 12.2545781,2.27661682 11.8926544,2.27661682 C11.5307307,2.27661682 11.2232901,2.04700932 11.2116151,1.76291867 C11.1960485,1.47882802 11.4762475,1.24922051 11.8303879,1.24922051 C12.1845283,1.24922051 12.4919689,1.48271968 12.5114271,1.76291867 Z"></path>
                        <path d="M14.3210456,1.76291867 C14.3482872,2.04700932 14.0797632,2.27661682 13.7178395,2.27661682 C13.3559158,2.27661682 13.0445835,2.04700932 13.0212336,1.76291867 C12.9978837,1.47882802 13.2702994,1.24922051 13.6244398,1.24922051 C13.9824718,1.24922051 14.2938041,1.48271968 14.3210456,1.76291867 Z"></path>
                        <path d="M16.1345558,1.76291867 C16.1734723,2.04700932 15.9088399,2.27661682 15.5469162,2.27661682 C15.1849925,2.27661682 14.8619854,2.04700932 14.8308521,1.76291867 C14.7997189,1.47882802 15.0643513,1.24922051 15.4184917,1.24922051 C15.7765237,1.24922051 16.0956393,1.48271968 16.1345558,1.76291867 Z"></path>
                        <path d="M2.42815501,3.01603084 C2.40091344,3.30012148 2.07790626,3.52972899 1.70819926,3.52972899 C1.33849225,3.52972899 1.06218491,3.30012148 1.09720979,3.01603084 C1.13223466,2.73194019 1.45135018,2.50233268 1.81716553,2.50233268 C2.18298089,2.50233268 2.45539657,2.73194019 2.42815501,3.01603084 Z"></path>
                        <path d="M4.27669003,3.01603084 C4.25723177,3.30012148 3.9420079,3.52972899 3.5723009,3.52972899 C3.20259389,3.52972899 2.9223949,3.30012148 2.94574481,3.01603084 C2.96909473,2.73194019 3.28821025,2.50233268 3.65013395,2.50233268 C4.0159493,2.50233268 4.2961483,2.73194019 4.27669003,3.01603084 Z"></path>
                        <path d="M6.12911672,3.01603084 C6.12133341,3.30012148 5.8100012,3.52972899 5.44029419,3.52972899 C5.07058718,3.52972899 4.78260488,3.30012148 4.7981715,3.01603084 C4.81373811,2.73194019 5.12117867,2.50233268 5.48699402,2.50233268 C5.84891772,2.50233268 6.13690002,2.73194019 6.12911672,3.01603084 Z"></path>
                        <path d="M7.97765174,3.01603084 C7.97765174,3.30012148 7.67410283,3.52972899 7.30439583,3.52972899 C6.93468882,3.52972899 6.63892322,3.30012148 6.64670652,3.01603084 C6.65448983,2.73194019 6.95803874,2.50233268 7.31996244,2.50233268 C7.68577779,2.50233268 7.97765174,2.73194019 7.97765174,3.01603084 Z"></path>
                        <path d="M9.82618677,3.01603084 C9.83397008,3.30012148 9.53820447,3.52972899 9.16849747,3.52972899 C8.79879046,3.52972899 8.49913321,3.30012148 8.49524155,3.01603084 C8.49524155,2.73194019 8.7871155,2.50233268 9.15293086,2.50233268 C9.51874621,2.50233268 9.81840347,2.73194019 9.82618677,3.01603084 Z"></path>
                        <path d="M11.6747218,3.01603084 C11.6902884,3.30012148 11.4023061,3.52972899 11.0325991,3.52972899 C10.6628921,3.52972899 10.3515599,3.30012148 10.3437766,3.01603084 C10.3359933,2.73194019 10.6200839,2.50233268 10.9858993,2.50233268 C11.3517146,2.50233268 11.6591552,2.73194019 11.6747218,3.01603084 Z"></path>
                        <path d="M13.5271485,3.01603084 C13.5504984,3.30012148 13.2702994,3.52972899 12.9005924,3.52972899 C12.5308854,3.52972899 12.2156615,3.30012148 12.1962033,3.01603084 C12.176745,2.73194019 12.456944,2.50233268 12.8227593,2.50233268 C13.184683,2.50233268 13.4999069,2.73194019 13.5271485,3.01603084 Z"></path>
                        <path d="M15.3756835,3.01603084 C15.4107084,3.30012148 15.134401,3.52972899 14.764694,3.52972899 C14.394987,3.52972899 14.0719799,3.30012148 14.0447383,3.01603084 C14.0174967,2.73194019 14.2899124,2.50233268 14.6557278,2.50233268 C15.0215431,2.50233268 15.3406586,2.73194019 15.3756835,3.01603084 Z"></path>
                        <path d="M1.36184217,4.26525135 C1.33070895,4.549342 0.996026815,4.77894951 0.618536504,4.77894951 C0.241046193,4.77894951 -0.035261148,4.549342 0.00365537897,4.26525135 C0.0425719059,3.9811607 0.373362385,3.7515532 0.746961043,3.7515532 C1.1205597,3.7515532 1.39686704,3.9811607 1.36184217,4.26525135 Z"></path>
                        <path d="M3.25318538,4.26525135 C3.22983546,4.549342 2.90293663,4.77894951 2.52544632,4.77894951 C2.14795601,4.77894951 1.86386537,4.549342 1.89499859,4.26525135 C1.92224016,3.9811607 2.24913898,3.7515532 2.62273764,3.7515532 C2.99244465,3.7515532 3.27264364,3.9811607 3.25318538,4.26525135 Z"></path>
                        <path d="M5.14063693,4.26525135 C5.12507032,4.549342 4.8059548,4.77894951 4.42846449,4.77894951 C4.05097418,4.77894951 3.75910023,4.549342 3.78245014,4.26525135 C3.80190841,3.9811607 4.12102393,3.7515532 4.49462259,3.7515532 C4.86432959,3.7515532 5.15231189,3.9811607 5.14063693,4.26525135 Z"></path>
                        <path d="M7.02808849,4.26525135 C7.02030518,4.549342 6.71286462,4.77894951 6.33148266,4.77894951 C5.95399235,4.77894951 5.65822674,4.549342 5.6699017,4.26525135 C5.68157666,3.9811607 5.99290887,3.7515532 6.36650753,3.7515532 C6.73621454,3.7515532 7.03198014,3.9811607 7.02808849,4.26525135 Z"></path>
                        <path d="M8.91554004,4.26525135 C8.9194317,4.549342 8.61588279,4.77894951 8.23450082,4.77894951 C7.85701051,4.77894951 7.5534616,4.549342 7.5534616,4.26525135 C7.55735325,3.9811607 7.86090216,3.7515532 8.23450082,3.7515532 C8.60809948,3.7515532 8.91164839,3.9811607 8.91554004,4.26525135 Z"></path>
                        <path d="M10.8029916,4.26525135 C10.8146666,4.549342 10.518901,4.77894951 10.1414106,4.77894951 C9.76392033,4.77894951 9.45258812,4.549342 9.44480481,4.26525135 C9.4370215,3.9811607 9.73667876,3.7515532 10.1063858,3.7515532 C10.4799844,3.7515532 10.7913166,3.9811607 10.8029916,4.26525135 Z"></path>
                        <path d="M12.6904432,4.26525135 C12.7099014,4.549342 12.4219191,4.77894951 12.0444288,4.77894951 C11.6669385,4.77894951 11.347823,4.549342 11.3322564,4.26525135 C11.3166898,3.9811607 11.6085637,3.7515532 11.9782707,3.7515532 C12.3518694,3.7515532 12.6709849,3.9811607 12.6904432,4.26525135 Z"></path>
                        <path d="M14.5817864,4.26525135 C14.6090279,4.549342 14.3288289,4.77894951 13.947447,4.77894951 C13.5699567,4.77894951 13.2430578,4.549342 13.2197079,4.26525135 C13.196358,3.9811607 13.4804487,3.7515532 13.8540473,3.7515532 C14.2237543,3.7515532 14.5506531,3.9811607 14.5817864,4.26525135 Z"></path>
                        <path d="M16.4692379,4.26525135 C16.5081544,4.549342 16.2318471,4.77894951 15.8543568,4.77894951 C15.4768665,4.77894951 15.1421844,4.549342 15.1110511,4.26525135 C15.0799179,3.9811607 15.3562252,3.7515532 15.7298239,3.7515532 C16.0956393,3.7515532 16.4303214,3.9811607 16.4692379,4.26525135 Z"></path>
                    </g>
                    <g transform="translate(8.168996, 11.083427)" fill="#E5E5E5" id="路径">
                        <path d="M2.66943747,0.513698155 C2.6421959,0.797788802 2.33086369,1.02739631 1.97672329,1.02739631 C1.6225829,1.02739631 1.36184217,0.797788802 1.39297539,0.513698155 C1.42800026,0.229607509 1.73544083,0 2.08568957,0 C2.43593831,0.00389165269 2.69667904,0.233499162 2.66943747,0.513698155 Z"></path>
                        <path d="M4.44013945,0.513698155 C4.42068118,0.797788802 4.11713227,1.02739631 3.76299188,1.02739631 C3.40885148,1.02739631 3.14032745,0.797788802 3.16367736,0.513698155 C3.18702728,0.229607509 3.49057619,0 3.84082493,0 C4.19107368,0.00389165269 4.45959771,0.233499162 4.44013945,0.513698155 Z"></path>
                        <path d="M6.21473308,0.513698155 C6.20694977,0.797788802 5.90729251,1.02739631 5.55315212,1.02739631 C5.19901172,1.02739631 4.92270438,0.797788802 4.93827099,0.513698155 C4.9538376,0.229607509 5.24960321,0 5.59985195,0 C5.95010069,0.00389165269 6.22640803,0.233499162 6.21473308,0.513698155 Z"></path>
                        <path d="M7.9893267,0.513698155 C7.9893267,0.797788802 7.69745275,1.02739631 7.34331236,1.02739631 C6.98917196,1.02739631 6.70508131,0.797788802 6.71286462,0.513698155 C6.72064793,0.229607509 7.00863022,0 7.35887897,0 C7.70523606,0.00389165269 7.9893267,0.233499162 7.9893267,0.513698155 Z"></path>
                        <path d="M9.76002868,0.513698155 C9.76781198,0.797788802 9.48372134,1.02739631 9.12958094,1.02739631 C8.77544055,1.02739631 8.48356659,0.797788802 8.48356659,0.513698155 C8.48356659,0.229607509 8.76376559,0 9.11401433,0 C9.46426307,0.00389165269 9.75224537,0.233499162 9.76002868,0.513698155 Z"></path>
                        <path d="M11.5346223,0.513698155 C11.5501889,0.797788802 11.2777732,1.02739631 10.9197412,1.02739631 C10.5656008,1.02739631 10.2698352,0.797788802 10.2581602,0.513698155 C10.2503769,0.229607509 10.5227926,0 10.8730413,0 C11.2232901,0.00389165269 11.5190557,0.233499162 11.5346223,0.513698155 Z"></path>
                        <path d="M13.3092159,0.513698155 C13.3325658,0.797788802 13.0679335,1.02739631 12.7099014,1.02739631 C12.355761,1.02739631 12.0522121,0.797788802 12.0327538,0.513698155 C12.0132956,0.229607509 12.2818196,0 12.6320684,0 C12.9784255,0.00389165269 13.2819744,0.233499162 13.3092159,0.513698155 Z"></path>
                        <path d="M15.0799179,0.513698155 C15.1149428,0.797788802 14.8503104,1.02739631 14.49617,1.02739631 C14.1420296,1.02739631 13.8306974,0.797788802 13.8034558,0.513698155 C13.7762143,0.229607509 14.036955,0 14.3872037,0 C14.7374525,0.00389165269 15.0487847,0.233499162 15.0799179,0.513698155 Z"></path>
                        <path d="M1.64204116,1.76681032 C1.61090794,2.05090097 1.28790077,2.28050848 0.925977067,2.28050848 C0.564053367,2.28050848 0.299420984,2.05090097 0.33833751,1.76681032 C0.377254037,1.48271968 0.696369558,1.25311217 1.05050995,1.25311217 C1.408542,1.25311217 1.67317438,1.48271968 1.64204116,1.76681032 Z"></path>
                        <path d="M3.45555132,1.76681032 C3.4322014,2.05090097 3.12086919,2.28050848 2.75505383,2.28050848 C2.39313013,2.28050848 2.12071444,2.05090097 2.15184766,1.76681032 C2.17908923,1.48271968 2.4943131,1.25311217 2.85234515,1.25311217 C3.20648554,1.25311217 3.47500958,1.48271968 3.45555132,1.76681032 Z"></path>
                        <path d="M5.26516982,1.76681032 C5.24960321,2.05090097 4.9460543,2.28050848 4.58023894,2.28050848 C4.21831524,2.28050848 3.93811625,2.05090097 3.96146617,1.76681032 C3.98092443,1.48271968 4.28836499,1.25311217 4.64639704,1.25311217 C5.00053744,1.25311217 5.28073643,1.48271968 5.26516982,1.76681032 Z"></path>
                        <path d="M7.07478832,1.76681032 C7.07089667,2.05090097 6.77123941,2.28050848 6.40542406,2.28050848 C6.04350036,2.28050848 5.75940971,2.05090097 5.77108467,1.76681032 C5.78275963,1.48271968 6.08241688,1.25311217 6.44044893,1.25311217 C6.79848098,1.25311217 7.08257163,1.48271968 7.07478832,1.76681032 Z"></path>
                        <path d="M8.88829847,1.76681032 C8.89219013,2.05090097 8.60031618,2.28050848 8.23839248,2.28050848 C7.87646877,2.28050848 7.58459482,2.05090097 7.58848648,1.76681032 C7.59237813,1.48271968 7.88425208,1.25311217 8.23839248,1.25311217 C8.59253287,1.25311217 8.88440682,1.48271968 8.88829847,1.76681032 Z"></path>
                        <path d="M10.697917,1.76681032 C10.7095919,2.05090097 10.4255013,2.28050848 10.0635776,2.28050848 C9.70165389,2.28050848 9.40199663,2.05090097 9.39810498,1.76681032 C9.39032167,1.48271968 9.67830397,1.25311217 10.0324444,1.25311217 C10.3904764,1.25311217 10.686242,1.48271968 10.697917,1.76681032 Z"></path>
                        <path d="M12.5114271,1.76681032 C12.5308854,2.05090097 12.2545781,2.28050848 11.8926544,2.28050848 C11.5307307,2.28050848 11.2232901,2.05090097 11.2116151,1.76681032 C11.1960485,1.48271968 11.4762475,1.25311217 11.8303879,1.25311217 C12.1845283,1.25311217 12.4919689,1.48271968 12.5114271,1.76681032 Z"></path>
                        <path d="M14.3210456,1.76681032 C14.3482872,2.05090097 14.0797632,2.28050848 13.7178395,2.28050848 C13.3559158,2.28050848 13.0445835,2.05090097 13.0212336,1.76681032 C12.9978837,1.48271968 13.2702994,1.25311217 13.6244398,1.25311217 C13.9824718,1.25311217 14.2938041,1.48271968 14.3210456,1.76681032 Z"></path>
                        <path d="M16.1345558,1.76681032 C16.1734723,2.05090097 15.9088399,2.28050848 15.5469162,2.28050848 C15.1849925,2.28050848 14.8619854,2.05090097 14.8308521,1.76681032 C14.7997189,1.48271968 15.0643513,1.25311217 15.4184917,1.25311217 C15.7765237,1.25311217 16.0956393,1.48271968 16.1345558,1.76681032 Z"></path>
                        <path d="M2.42815501,3.01603084 C2.40091344,3.30012148 2.07790626,3.52972899 1.70819926,3.52972899 C1.33849225,3.52972899 1.06218491,3.30012148 1.09720979,3.01603084 C1.13223466,2.73194019 1.45135018,2.50233268 1.81716553,2.50233268 C2.18298089,2.50233268 2.45539657,2.73194019 2.42815501,3.01603084 Z"></path>
                        <path d="M4.27669003,3.01603084 C4.25723177,3.30012148 3.9420079,3.52972899 3.5723009,3.52972899 C3.20259389,3.52972899 2.9223949,3.30012148 2.94574481,3.01603084 C2.96909473,2.73194019 3.28821025,2.50233268 3.65013395,2.50233268 C4.0159493,2.50233268 4.2961483,2.73194019 4.27669003,3.01603084 Z"></path>
                        <path d="M6.12911672,3.01603084 C6.12133341,3.30012148 5.8100012,3.52972899 5.44029419,3.52972899 C5.07058718,3.52972899 4.78260488,3.30012148 4.7981715,3.01603084 C4.81373811,2.73194019 5.12117867,2.50233268 5.48699402,2.50233268 C5.84891772,2.50233268 6.13690002,2.73194019 6.12911672,3.01603084 Z"></path>
                        <path d="M7.97765174,3.01603084 C7.97765174,3.30012148 7.67410283,3.52972899 7.30439583,3.52972899 C6.93468882,3.52972899 6.63892322,3.30012148 6.64670652,3.01603084 C6.65448983,2.73194019 6.95803874,2.50233268 7.31996244,2.50233268 C7.68577779,2.50233268 7.97765174,2.73194019 7.97765174,3.01603084 Z"></path>
                        <path d="M9.82618677,3.01603084 C9.83397008,3.30012148 9.53820447,3.52972899 9.16849747,3.52972899 C8.79879046,3.52972899 8.49913321,3.30012148 8.49524155,3.01603084 C8.49524155,2.73194019 8.7871155,2.50233268 9.15293086,2.50233268 C9.51874621,2.50233268 9.81840347,2.73194019 9.82618677,3.01603084 Z"></path>
                        <path d="M11.6747218,3.01603084 C11.6902884,3.30012148 11.4023061,3.52972899 11.0325991,3.52972899 C10.6628921,3.52972899 10.3515599,3.30012148 10.3437766,3.01603084 C10.3359933,2.73194019 10.6200839,2.50233268 10.9858993,2.50233268 C11.3517146,2.50233268 11.6591552,2.73194019 11.6747218,3.01603084 Z"></path>
                        <path d="M13.5271485,3.01603084 C13.5504984,3.30012148 13.2702994,3.52972899 12.9005924,3.52972899 C12.5308854,3.52972899 12.2156615,3.30012148 12.1962033,3.01603084 C12.176745,2.73194019 12.456944,2.50233268 12.8227593,2.50233268 C13.184683,2.50233268 13.4999069,2.73194019 13.5271485,3.01603084 Z"></path>
                        <path d="M15.3756835,3.01603084 C15.4107084,3.30012148 15.134401,3.52972899 14.764694,3.52972899 C14.394987,3.52972899 14.0719799,3.30012148 14.0447383,3.01603084 C14.0174967,2.73194019 14.2899124,2.50233268 14.6557278,2.50233268 C15.0215431,2.50233268 15.3406586,2.73194019 15.3756835,3.01603084 Z"></path>
                        <path d="M1.36184217,4.26525135 C1.33070895,4.549342 0.996026815,4.77894951 0.618536504,4.77894951 C0.241046193,4.77894951 -0.035261148,4.549342 0.00365537897,4.26525135 C0.0425719059,3.9811607 0.373362385,3.7515532 0.746961043,3.7515532 C1.1205597,3.7515532 1.39686704,3.9811607 1.36184217,4.26525135 Z"></path>
                        <path d="M3.25318538,4.26525135 C3.22983546,4.549342 2.90293663,4.77894951 2.52544632,4.77894951 C2.14795601,4.77894951 1.86386537,4.549342 1.89499859,4.26525135 C1.92224016,3.9811607 2.24913898,3.7515532 2.62273764,3.7515532 C2.99244465,3.7515532 3.27264364,3.9811607 3.25318538,4.26525135 Z"></path>
                        <path d="M5.14063693,4.26525135 C5.12507032,4.549342 4.8059548,4.77894951 4.42846449,4.77894951 C4.05097418,4.77894951 3.75910023,4.549342 3.78245014,4.26525135 C3.80190841,3.9811607 4.12102393,3.7515532 4.49462259,3.7515532 C4.86432959,3.7515532 5.15231189,3.9811607 5.14063693,4.26525135 Z"></path>
                        <path d="M7.02808849,4.26525135 C7.02030518,4.549342 6.71286462,4.77894951 6.33148266,4.77894951 C5.95399235,4.77894951 5.65822674,4.549342 5.6699017,4.26525135 C5.68157666,3.9811607 5.99290887,3.7515532 6.36650753,3.7515532 C6.73621454,3.7515532 7.03198014,3.9811607 7.02808849,4.26525135 Z"></path>
                        <path d="M8.91554004,4.26525135 C8.9194317,4.549342 8.61588279,4.77894951 8.23450082,4.77894951 C7.85701051,4.77894951 7.5534616,4.549342 7.5534616,4.26525135 C7.55735325,3.9811607 7.86090216,3.7515532 8.23450082,3.7515532 C8.60809948,3.7515532 8.91164839,3.9811607 8.91554004,4.26525135 Z"></path>
                        <path d="M10.8029916,4.26525135 C10.8146666,4.549342 10.518901,4.77894951 10.1414106,4.77894951 C9.76392033,4.77894951 9.45258812,4.549342 9.44480481,4.26525135 C9.4370215,3.9811607 9.73667876,3.7515532 10.1063858,3.7515532 C10.4799844,3.7515532 10.7913166,3.9811607 10.8029916,4.26525135 Z"></path>
                        <path d="M12.6904432,4.26525135 C12.7099014,4.549342 12.4219191,4.77894951 12.0444288,4.77894951 C11.6669385,4.77894951 11.347823,4.549342 11.3322564,4.26525135 C11.3166898,3.9811607 11.6085637,3.7515532 11.9782707,3.7515532 C12.3518694,3.7515532 12.6709849,3.9811607 12.6904432,4.26525135 Z"></path>
                        <path d="M14.5817864,4.26525135 C14.6090279,4.549342 14.3288289,4.77894951 13.947447,4.77894951 C13.5699567,4.77894951 13.2430578,4.549342 13.2197079,4.26525135 C13.196358,3.9811607 13.4804487,3.7515532 13.8540473,3.7515532 C14.2237543,3.7515532 14.5506531,3.9811607 14.5817864,4.26525135 Z"></path>
                        <path d="M16.4692379,4.26525135 C16.5081544,4.549342 16.2318471,4.77894951 15.8543568,4.77894951 C15.4768665,4.77894951 15.1421844,4.549342 15.1110511,4.26525135 C15.0799179,3.9811607 15.3562252,3.7515532 15.7298239,3.7515532 C16.0956393,3.7515532 16.4303214,3.9811607 16.4692379,4.26525135 Z"></path>
                    </g>
                    <rect id="矩形" fill="#4C4348" x="28.8606769" y="6.00871176" width="1" height="2.56849078"></rect>
                    <rect id="矩形" fill="#3B3438" x="27.8994387" y="7.0166498" width="1" height="1"></rect>
                    <polygon id="路径" fill="#4D4D4D" points="1.38950058 8.35148668 0.976985398 7.68212241 4.22262374 5.68181293 5.6080521 6.77925899 5.11770386 7.40192342 4.16424895 6.6469428"></polygon>
                    <polygon id="矩形" fill="#4C4348" transform="translate(1.241758, 6.871410) rotate(-35.537012) translate(-1.241758, -6.871410) " points="0.521838114 5.74288633 1.96167843 5.74288633 1.96167843 7.99993331 0.521838114 7.99993331"></polygon>
                    <rect id="矩形" fill="#FFFFFF" opacity="0.3" x="5.56913557" y="6.00871176" width="21.8516299" height="1"></rect>
                    <polygon id="路径" fill="#E5E5E5" points="20.9917552 16.9637141 11.8152381 16.9637141 12.0098208 16.2943498 20.9100305 16.2943498"></polygon>
                    <rect id="矩形" fill="#ABAEBC" x="11.8152381" y="16.9637141" width="9.17651705" height="1"></rect>
                    <path d="M20.5948066,7.53423961 C19.9760338,8.25808701 18.450506,8.77178517 16.6603457,8.77178517 C14.920777,8.77178517 13.4263824,8.28532858 12.780368,7.58872275 L13.8272226,7.09448286 L13.8311142,7.09448286 C14.360379,7.48753978 15.4344751,7.75606382 16.6720207,7.75606382 C17.8939997,7.75606382 18.9564208,7.49532308 19.4934689,7.11394112 L20.5948066,7.53423961 Z" id="路径" fill="#C7C5CE"></path>
                </g>
                <path d="M38.180887,19.5782719 C38.180887,21.8159722 36.3712685,23.6255907 34.1335682,23.6255907 L22.4469352,23.6255907 C20.6917998,23.6255907 19.267455,22.2012458 19.267455,20.4461105 C19.267455,18.6909751 20.6917998,17.2627386 22.4469352,17.2627386 C22.8438838,17.2627386 23.2213741,17.33668 23.5716228,17.4689962 C24.1942873,15.6282444 25.9299644,14.3089742 27.9808653,14.3089742 C29.5569847,14.3089742 30.9463047,15.0911964 31.7907933,16.2859337 C32.4523743,15.8111521 33.261838,15.5348448 34.1374599,15.5348448 C36.3673769,15.5309531 38.180887,17.3444633 38.180887,19.5782719 Z" id="路径" fill="#E8F6FA" fill-rule="nonzero"></path>
            </g>
        </g>
    </g>
</svg>