<?xml version="1.0" encoding="UTF-8"?>
<svg width="24px" height="24px" viewBox="0 0 24 24" version="1.1" xmlns="http://www.w3.org/2000/svg" xmlns:xlink="http://www.w3.org/1999/xlink">
    <title>测试</title>
    <defs>
        <rect id="path-1" x="0" y="0" width="24" height="24"></rect>
    </defs>
    <g id="页面-1" stroke="none" stroke-width="1" fill="none" fill-rule="evenodd">
        <g id="app-应用" transform="translate(-196.000000, -689.000000)">
            <g id="测试" transform="translate(196.000000, 689.000000)">
                <mask id="mask-2" fill="white">
                    <use xlink:href="#path-1"></use>
                </mask>
                <use id="矩形" fill="#D8D8D8" opacity="0" xlink:href="#path-1"></use>
                <path d="M21.9973709,5.83331143 C21.9973709,4.76061523 20.4225056,4.8053109 20.4225056,5.83331143 L20.4225056,19.778362 C20.4225056,20.1359274 20.1332983,20.4251347 19.7757329,20.4251347 L5.60457475,20.4251347 C4.66596557,20.4225056 3.57223611,19.6679374 3.57223611,18.3507296 C3.57223611,17.2280794 4.34520838,16.2763244 5.25752597,16.2763244 L18.1719469,16.2763244 C18.6057579,16.2763244 18.9580649,15.9240173 18.9580649,15.4902064 L18.9580649,2.78874721 C18.9580649,2.35493624 18.608387,2 18.1719469,2 C18.1719469,2 18.1719469,2 18.1693177,2 L18.1693177,2 L18.1666886,2 L6.7351124,2 C4.12435914,2 2,4.12435914 2,6.7351124 L2,18.390167 C2,18.5058499 2.08676219,19.1473643 2.08939136,19.1710267 C2.42329434,20.7879585 3.71421061,21.9973709 5.26015512,21.9973709 L19.778362,21.9973709 C21.0035493,21.9947417 21.9973708,21.0035494 22,19.7757329 L22,5.83331143 L21.9973709,5.83331143 Z M18.174576,17.5646115 L7.1610359,17.5646115 C6.07519391,17.5646115 6.12777707,19.1394768 7.1610359,19.1394768 L18.1745761,19.1394768 C19.1894308,19.1394768 19.2814513,17.5646115 18.174576,17.5646115 Z" id="形状" fill="#BBBBBB" fill-rule="nonzero" mask="url(#mask-2)"></path>
            </g>
        </g>
    </g>
</svg>