<?xml version="1.0" encoding="UTF-8"?>
<svg width="80px" height="70px" viewBox="0 0 80 70" version="1.1" xmlns="http://www.w3.org/2000/svg" xmlns:xlink="http://www.w3.org/1999/xlink">
    <title>热工基础</title>
    <g id="页面-1" stroke="none" stroke-width="1" fill="none" fill-rule="evenodd">
        <g id="app-训练" transform="translate(-267.000000, -328.000000)">
            <g id="热工基础" transform="translate(267.000000, 328.000000)">
                <circle id="椭圆形" fill-opacity="0.5" fill="#FFFFFF" cx="40" cy="35" r="35"></circle>
                <g id="编组" transform="translate(0.000000, 2.000000)" fill-rule="nonzero">
                    <rect id="矩形" fill="#5D7A7F" x="12.4500434" y="11.2988705" width="49.5221546" height="48.8227628"></rect>
                    <path d="M71.8462207,13.9096438 L70.2519548,13.9096438 C70.6429192,13.8662033 70.9470026,13.5360556 70.9470026,13.1364031 C70.9470026,12.7019983 70.5951347,12.3544744 70.1650738,12.3544744 L69.4396177,12.3544744 L69.4396177,12.3544744 L68.4100782,12.3544744 C67.9756733,12.3544744 67.6281494,12.0026064 67.6281494,11.5725456 C67.6281494,11.1381407 67.9800174,10.7906169 68.4100782,10.7906169 L69.4396177,10.7906169 L71.2814944,10.7906169 C71.7158992,10.7906169 72.0634231,10.4387489 72.0634231,10.0086881 C72.0634231,9.57428323 71.7115552,9.22675934 71.2814944,9.22675934 L69.4396177,9.22675934 L67.2415291,9.22675934 L66.602954,9.22675934 C66.1685491,9.22675934 65.8210252,8.8748914 65.8210252,8.44483058 C65.8210252,8.01042572 66.1728931,7.66290182 66.602954,7.66290182 L69.4396177,7.66290182 L69.730669,7.66290182 C70.1650738,7.66290182 70.5125977,7.31103388 70.5125977,6.88097307 C70.5125977,6.4465682 70.1607298,6.09904431 69.730669,6.09904431 L69.4396177,6.09904431 L65.6863597,6.09904431 L50.5082537,6.09904431 L49.730669,6.09904431 C49.2962641,6.09904431 48.9487402,6.45091225 48.9487402,6.88097307 C48.9487402,7.31537793 49.3006082,7.66290182 49.730669,7.66290182 L50.5082537,7.66290182 L51.2858384,7.66290182 C51.7202433,7.66290182 52.0677672,8.01476977 52.0677672,8.44483058 C52.0677672,8.87923545 51.7158992,9.22675934 51.2858384,9.22675934 L50.5082537,9.22675934 L46.4639444,9.22675934 C46.0295395,9.22675934 45.6820156,9.57862728 45.6820156,10.0086881 C45.6820156,10.443093 46.0338836,10.7906169 46.4639444,10.7906169 L48.6794092,10.7906169 C48.2450043,10.7906169 47.8974805,11.1424848 47.8974805,11.5725456 C47.8974805,12.0069505 48.2493484,12.3544744 48.6794092,12.3544744 L50.5082537,12.3544744 L53.2797567,12.3544744 C53.7141616,12.3544744 54.0616855,12.7063423 54.0616855,13.1364031 C54.0616855,13.570808 53.7098175,13.9183319 53.2797567,13.9183319 L50.5082537,13.9183319 L50.5082537,13.9096438 L50.2085143,13.9096438 C49.7741095,13.9096438 49.4265856,14.2615117 49.4265856,14.6915725 C49.4265856,15.1259774 49.7784535,15.4735013 50.2085143,15.4735013 L50.5082537,15.4735013 L67.8019114,15.4735013 L69.4352737,15.4735013 L71.8418766,15.4735013 C72.2762815,15.4735013 72.6239629,15.1216334 72.6239629,14.6915725 C72.6324935,14.2571677 72.2806255,13.9096438 71.8462207,13.9096438 Z" id="路径" fill="#5D7A7F"></path>
                    <path d="M73.8705474,23.2927889 L72.2762815,23.2927889 C72.6672459,23.2493484 72.9713293,22.9192007 72.9713293,22.5195482 C72.9713293,22.0851434 72.6194613,21.7376195 72.1894005,21.7376195 L71.4639444,21.7376195 L71.4639444,21.7376195 L70.4344049,21.7376195 C70,21.7376195 69.6524761,21.3857515 69.6524761,20.9556907 C69.6524761,20.5212858 70.004344,20.1737619 70.4344049,20.1737619 L71.4639444,20.1737619 L73.305821,20.1737619 C73.7402259,20.1737619 74.0877498,19.821894 74.0877498,19.3918332 C74.0877498,18.9574283 73.7358818,18.6099044 73.305821,18.6099044 L71.4639444,18.6099044 L69.2658558,18.6099044 L68.6272806,18.6099044 C68.1928758,18.6099044 67.8453519,18.2580365 67.8453519,17.8279757 C67.8453519,17.3935708 68.1972198,17.0460469 68.6272806,17.0460469 L71.4639444,17.0460469 L71.7549957,17.0460469 C72.1894005,17.0460469 72.5369244,16.694179 72.5369244,16.2641182 C72.5369244,15.8297133 72.1850565,15.4821894 71.7549957,15.4821894 L71.4639444,15.4821894 L67.7106864,15.4821894 L52.5325804,15.4821894 L51.7549957,15.4821894 C51.3205908,15.4821894 50.9730669,15.8340573 50.9730669,16.2641182 C50.9730669,16.698523 51.3249348,17.0460469 51.7549957,17.0460469 L52.5325804,17.0460469 L53.3101651,17.0460469 C53.7445699,17.0460469 54.0920938,17.3979149 54.0920938,17.8279757 C54.0920938,18.2623805 53.7402259,18.6099044 53.3101651,18.6099044 L52.5325804,18.6099044 L48.4882711,18.6099044 C48.0538662,18.6099044 47.7063423,18.9617724 47.7063423,19.3918332 C47.7063423,19.8262381 48.0582103,20.1737619 48.4882711,20.1737619 L50.7037359,20.1737619 C50.269331,20.1737619 49.9218071,20.5256299 49.9218071,20.9556907 C49.9218071,21.3900956 50.2736751,21.7376195 50.7037359,21.7376195 L52.5325804,21.7376195 L55.3040834,21.7376195 C55.7384883,21.7376195 56.0860122,22.0894874 56.0860122,22.5195482 C56.0860122,22.9539531 55.7341442,23.301477 55.3040834,23.301477 L52.5325804,23.301477 L52.5325804,23.2927889 L52.232841,23.2927889 C51.7984361,23.2927889 51.4509123,23.6446568 51.4509123,24.0747176 C51.4509123,24.5091225 51.8027802,24.8566464 52.232841,24.8566464 L52.5325804,24.8566464 L69.8262381,24.8566464 L71.4596003,24.8566464 L73.8662033,24.8566464 C74.3006082,24.8566464 74.6481719,24.5047785 74.6481719,24.0747176 C74.6524761,23.6446568 74.3006082,23.2927889 73.8705474,23.2927889 Z" id="路径" fill="#334142"></path>
                    <path d="M51.6420504,34.1615986 L53.2363162,34.1615986 C52.8453519,34.1181581 52.5412685,33.7880104 52.5412685,33.3883579 C52.5412685,32.9539531 52.8931364,32.6064292 53.3231972,32.6064292 L54.0486533,32.6064292 L54.0486533,32.6064292 L55.0781929,32.6064292 C55.5125977,32.6064292 55.8601216,32.2545613 55.8601216,31.8245004 C55.8601216,31.3900956 55.5082537,31.0425717 55.0781929,31.0425717 L54.0486533,31.0425717 L52.2067767,31.0425717 C51.7723719,31.0425717 51.424848,30.6907037 51.424848,30.2606429 C51.424848,29.8262381 51.7767159,29.4787142 52.2067767,29.4787142 L54.0486533,29.4787142 L56.246742,29.4787142 L56.8853171,29.4787142 C57.319722,29.4787142 57.6672459,29.1268462 57.6672459,28.6967854 C57.6672459,28.2623805 57.3153779,27.9148566 56.8853171,27.9148566 L54.0486533,27.9148566 L53.7576021,27.9148566 C53.3231972,27.9148566 52.9756733,27.5629887 52.9756733,27.1329279 C52.9756733,26.698523 53.3275413,26.3509991 53.7576021,26.3509991 L54.0486533,26.3509991 L57.8019114,26.3509991 L72.9800174,26.3509991 L73.7576021,26.3509991 C74.192007,26.3509991 74.5395308,26.7028671 74.5395308,27.1329279 C74.5395308,27.5673328 74.1876629,27.9148566 73.7576021,27.9148566 L72.9800174,27.9148566 L72.2024327,27.9148566 C71.7680278,27.9148566 71.4205039,28.2667246 71.4205039,28.6967854 C71.4205039,29.1311903 71.7723719,29.4787142 72.2024327,29.4787142 L72.9800174,29.4787142 L77.0243267,29.4787142 C77.4587315,29.4787142 77.8062554,29.8305821 77.8062554,30.2606429 C77.8062554,30.6950478 77.4543875,31.0425717 77.0243267,31.0425717 L74.8088619,31.0425717 C75.2432667,31.0425717 75.5907906,31.3944396 75.5907906,31.8245004 C75.5907906,32.2589053 75.2389227,32.6064292 74.8088619,32.6064292 L72.9800174,32.6064292 L70.2085143,32.6064292 C69.7741095,32.6064292 69.4265856,32.9582971 69.4265856,33.3883579 C69.4265856,33.8227628 69.7784535,34.1702867 70.2085143,34.1702867 L72.9800174,34.1702867 L72.9800174,34.1615986 L73.2797567,34.1615986 C73.7141616,34.1615986 74.0616855,34.5134666 74.0616855,34.9435274 C74.0616855,35.3779322 73.7098175,35.7254561 73.2797567,35.7254561 L72.9800174,35.7254561 L55.6863597,35.7254561 L54.0529974,35.7254561 L51.6463944,35.7254561 C51.2119896,35.7254561 50.8644259,35.3735882 50.8644259,34.9435274 C50.8601216,34.5134666 51.2119896,34.1615986 51.6420504,34.1615986 Z" id="路径" fill="#334142"></path>
                    <path d="M26.1685491,16.0165074 L24.5742832,16.0165074 C24.9652476,15.9730669 25.269331,15.6429192 25.269331,15.2432667 C25.269331,14.8088619 24.9174631,14.461338 24.4874023,14.461338 L23.7619461,14.461338 L23.7619461,14.461338 L22.7324066,14.461338 C22.2980017,14.461338 21.9504778,14.10947 21.9504778,13.6794092 C21.9504778,13.2450043 22.3023458,12.8974805 22.7324066,12.8974805 L23.7619461,12.8974805 L25.6038228,12.8974805 C26.0382276,12.8974805 26.3857515,12.5456125 26.3857515,12.1155517 C26.3857515,11.6811468 26.0338836,11.3336229 25.6038228,11.3336229 L23.7619461,11.3336229 L21.5638575,11.3336229 L20.9209383,11.3336229 C20.4865334,11.3336229 20.1390096,10.981755 20.1390096,10.5516942 C20.1390096,10.1172893 20.4908775,9.76976542 20.9209383,9.76976542 L23.7576021,9.76976542 L24.0486533,9.76976542 C24.4830582,9.76976542 24.8305821,9.41789748 24.8305821,8.98783666 C24.8305821,8.5534318 24.4787142,8.20590791 24.0486533,8.20590791 L23.7576021,8.20590791 L20.004344,8.20590791 L4.82623805,8.20590791 L4.04865334,8.20590791 C3.61424848,8.20590791 3.26672459,8.55777585 3.26672459,8.98783666 C3.26672459,9.42224153 3.61859253,9.76976542 4.04865334,9.76976542 L4.82623805,9.76976542 L5.60382276,9.76976542 C6.03822763,9.76976542 6.38575152,10.1216334 6.38575152,10.5516942 C6.38575152,10.986099 6.03388358,11.3336229 5.60382276,11.3336229 L4.82623805,11.3336229 L0.781928758,11.3336229 C0.347523892,11.3336229 0,11.6854909 0,12.1155517 C0,12.5499566 0.351867941,12.8974805 0.781928758,12.8974805 L2.99739357,12.8974805 C2.56298871,12.8974805 2.21546481,13.2493484 2.21546481,13.6794092 C2.21546481,14.1138141 2.56733275,14.461338 2.99739357,14.461338 L4.82623805,14.461338 L7.59774109,14.461338 C8.03214596,14.461338 8.37966985,14.8132059 8.37966985,15.2432667 C8.37966985,15.6776716 8.02780191,16.0251955 7.59774109,16.0251955 L4.82623805,16.0251955 L4.82623805,16.0165074 L4.5264987,16.0165074 C4.09209383,16.0165074 3.74456994,16.3683753 3.74456994,16.7984361 C3.74456994,17.232841 4.09643788,17.5803649 4.5264987,17.5803649 L4.82623805,17.5803649 L22.1198957,17.5803649 L23.753258,17.5803649 L26.159861,17.5803649 C26.5942659,17.5803649 26.9419492,17.228497 26.9419492,16.7984361 C26.9504778,16.3640313 26.602954,16.0165074 26.1685491,16.0165074 Z" id="路径" fill="#5D7A7F"></path>
                    <path d="M29.7610773,32.6020851 L28.1668115,32.6020851 C28.5577758,32.5586447 28.8618593,32.228497 28.8618593,31.8288445 C28.8618593,31.3944396 28.5099913,31.0469157 28.0799305,31.0469157 L27.3544744,31.0469157 L27.3544744,31.0469157 L26.3249348,31.0469157 C25.89053,31.0469157 25.5430061,30.6950478 25.5430061,30.264987 C25.5430061,29.8305821 25.894874,29.4830582 26.3249348,29.4830582 L27.3544744,29.4830582 L29.196351,29.4830582 C29.6307559,29.4830582 29.9782798,29.1311903 29.9782798,28.7011295 C29.9782798,28.2667246 29.6264118,27.9192007 29.196351,27.9192007 L27.3544744,27.9192007 L25.1563858,27.9192007 L24.5178106,27.9192007 C24.0834057,27.9192007 23.7358818,27.5673328 23.7358818,27.1372719 C23.7358818,26.7028671 24.0877498,26.3553432 24.5178106,26.3553432 L27.3544744,26.3553432 L27.6455256,26.3553432 C28.0799305,26.3553432 28.4274544,26.0034752 28.4274544,25.5734144 C28.4274544,25.1390096 28.0755864,24.7914857 27.6455256,24.7914857 L27.3544744,24.7914857 L23.6012163,24.7914857 L8.42311034,24.7914857 L7.64552563,24.7914857 C7.21112076,24.7914857 6.86359687,25.1433536 6.86359687,25.5734144 C6.86359687,26.0078193 7.21546481,26.3553432 7.64552563,26.3553432 L8.42311034,26.3553432 L9.20069505,26.3553432 C9.63509991,26.3553432 9.98262381,26.7072111 9.98262381,27.1372719 C9.98262381,27.5716768 9.63075586,27.9192007 9.20069505,27.9192007 L8.42311034,27.9192007 L4.37880104,27.9192007 C3.94439618,27.9192007 3.59687228,28.2710686 3.59687228,28.7011295 C3.59687228,29.1355343 3.94874023,29.4830582 4.37880104,29.4830582 L6.59426586,29.4830582 C6.15986099,29.4830582 5.8123371,29.8349262 5.8123371,30.264987 C5.8123371,30.6993918 6.16420504,31.0469157 6.59426586,31.0469157 L8.42311034,31.0469157 L11.1946134,31.0469157 C11.6290182,31.0469157 11.9765421,31.3987837 11.9765421,31.8288445 C11.9765421,32.2632493 11.6246742,32.6107732 11.1946134,32.6107732 L8.42311034,32.6107732 L8.42311034,32.6020851 L8.12337098,32.6020851 C7.68896612,32.6020851 7.34144222,32.9539531 7.34144222,33.3840139 C7.34144222,33.8184188 7.69331017,34.1659427 8.12337098,34.1659427 L8.42311034,34.1659427 L25.716768,34.1659427 L27.3501303,34.1659427 L29.7567333,34.1659427 C30.1911381,34.1659427 30.5387018,33.8140747 30.5387018,33.3840139 C30.5430061,32.9539531 30.1911381,32.6020851 29.7610773,32.6020851 Z" id="路径" fill="#5D7A7F"></path>
                    <path d="M33.9096438,24.7871416 L32.3153779,24.7871416 C32.7063423,24.7437011 33.0104257,24.4135534 33.0104257,24.013901 C33.0104257,23.5794961 32.6585578,23.2319722 32.228497,23.2319722 L31.5030408,23.2319722 L31.5030408,23.2319722 L30.4735013,23.2319722 C30.0390964,23.2319722 29.6915725,22.8801043 29.6915725,22.4500434 C29.6915725,22.0156386 30.0434405,21.6681147 30.4735013,21.6681147 L31.5030408,21.6681147 L33.3449175,21.6681147 C33.7793223,21.6681147 34.1268462,21.3162467 34.1268462,20.8861859 C34.1268462,20.4517811 33.7749783,20.1042572 33.3449175,20.1042572 L31.5030408,20.1042572 L29.3049522,20.1042572 L28.6663771,20.1042572 C28.2319722,20.1042572 27.8844483,19.7523892 27.8844483,19.3223284 C27.8844483,18.8879235 28.2363162,18.5403997 28.6663771,18.5403997 L31.5030408,18.5403997 L31.7940921,18.5403997 C32.228497,18.5403997 32.5760209,18.1885317 32.5760209,17.7584709 C32.5760209,17.324066 32.2241529,16.9765421 31.7940921,16.9765421 L31.5030408,16.9765421 L27.7497828,16.9765421 L12.5716768,16.9765421 L11.7940921,16.9765421 C11.3596872,16.9765421 11.0121633,17.3284101 11.0121633,17.7584709 C11.0121633,18.1928758 11.3640313,18.5403997 11.7940921,18.5403997 L12.5716768,18.5403997 L13.3492615,18.5403997 C13.7836664,18.5403997 14.1311903,18.8922676 14.1311903,19.3223284 C14.1311903,19.7567333 13.7793223,20.1042572 13.3492615,20.1042572 L12.5716768,20.1042572 L8.52736751,20.1042572 C8.09296264,20.1042572 7.74543875,20.4561251 7.74543875,20.8861859 C7.74543875,21.3205908 8.09730669,21.6681147 8.52736751,21.6681147 L10.7428323,21.6681147 C10.3084275,21.6681147 9.96090356,22.0199826 9.96090356,22.4500434 C9.96090356,22.8844483 10.3127715,23.2319722 10.7428323,23.2319722 L12.5673328,23.2319722 L15.3388358,23.2319722 C15.7732407,23.2319722 16.1207646,23.5838401 16.1207646,24.013901 C16.1207646,24.4483058 15.7688966,24.7958297 15.3388358,24.7958297 L12.5673328,24.7958297 L12.5673328,24.7871416 L12.2675934,24.7871416 C11.8331885,24.7871416 11.4856646,25.1390096 11.4856646,25.5690704 C11.4856646,26.0034752 11.8375326,26.3509991 12.2675934,26.3509991 L12.5673328,26.3509991 L29.8609904,26.3509991 L31.4943527,26.3509991 L33.9009557,26.3509991 C34.3353606,26.3509991 34.6830439,25.9991312 34.6830439,25.5690704 C34.6915725,25.1390096 34.3440487,24.7871416 33.9096438,24.7871416 Z" id="路径" fill="#5D7A7F"></path>
                    <path d="M78.214596,43.5230235 L50.538662,43.5230235 L50.538662,40.3214596 L78.214596,40.3214596 C79.200695,40.3214596 80,41.0382276 80,41.9244136 L80,41.9244136 C80,42.8062554 79.200695,43.5230235 78.214596,43.5230235 Z" id="路径" fill="#127177"></path>
                    <path d="M46.068636,63.3231972 L23.9921807,63.3231972 L23.9921807,60.1216334 L46.068636,60.1216334 C47.0417029,60.1216334 47.8279757,60.8384014 47.8279757,61.7245873 L47.8279757,61.7245873 C47.8279757,62.6064292 47.0417029,63.3231972 46.068636,63.3231972 Z" id="路径" fill="#18979E"></path>
                    <path d="M6.19461338,41.9200695 L20.5299739,41.9200695 L20.5299739,38.7185056 L6.19461338,38.7185056 C5.30842745,38.7185056 4.59165943,39.4352737 4.59165943,40.3214596 L4.59165943,40.3214596 C4.59600348,41.2033015 5.3127715,41.9200695 6.19461338,41.9200695 Z" id="路径" fill="#18979E"></path>
                    <path d="M1.6159861,45.1259774 L20.5299739,45.1259774 L20.5299739,41.9244136 L1.6159861,41.9244136 C0.729800174,41.9244136 0.013032146,42.6411816 0.013032146,43.5273675 L0.013032146,43.5273675 C0.0173761946,44.4092094 0.734144222,45.1259774 1.6159861,45.1259774 Z" id="路径" fill="#127177"></path>
                    <rect id="矩形" fill="#61E5A0" x="12.4717637" y="39.8913988" width="26.4205039" height="18.4231103"></rect>
                    <g transform="translate(8.218940, 6.911381)">
                        <path d="M26.164205,11.7115552 L24.5699392,11.7115552 C24.9609036,11.6681147 25.264987,11.337967 25.264987,10.9383145 C25.264987,10.5039096 24.913119,10.1563858 24.4830582,10.1563858 L23.7576021,10.1563858 L23.7576021,10.1563858 L22.7280626,10.1563858 C22.2936577,10.1563858 21.9461338,9.80451781 21.9461338,9.37445699 C21.9461338,8.94005213 22.2980017,8.59252824 22.7280626,8.59252824 L23.7576021,8.59252824 L25.5994787,8.59252824 C26.0338836,8.59252824 26.3814075,8.2406603 26.3814075,7.81059948 C26.3814075,7.37619461 26.0295395,7.02867072 25.5994787,7.02867072 L23.7576021,7.02867072 L21.5595135,7.02867072 L20.9209383,7.02867072 C20.4865334,7.02867072 20.1390096,6.67680278 20.1390096,6.24674196 C20.1390096,5.8123371 20.4908775,5.46481321 20.9209383,5.46481321 L23.7576021,5.46481321 L24.0486533,5.46481321 C24.4830582,5.46481321 24.8305821,5.11294526 24.8305821,4.68288445 C24.8305821,4.24847958 24.4787142,3.90095569 24.0486533,3.90095569 L23.7576021,3.90095569 L20.004344,3.90095569 L4.82623805,3.90095569 L4.04865334,3.90095569 C3.61424848,3.90095569 3.26672459,4.25282363 3.26672459,4.68288445 C3.26672459,5.11728931 3.61859253,5.46481321 4.04865334,5.46481321 L4.82623805,5.46481321 L5.60382276,5.46481321 C6.03822763,5.46481321 6.38575152,5.81668115 6.38575152,6.24674196 C6.38575152,6.68114683 6.03388358,7.02867072 5.60382276,7.02867072 L4.82623805,7.02867072 L0.781928758,7.02867072 C0.347523892,7.02867072 0,7.38053866 0,7.81059948 C0,8.24500434 0.351867941,8.59252824 0.781928758,8.59252824 L2.99739357,8.59252824 C2.56298871,8.59252824 2.21546481,8.94439618 2.21546481,9.37445699 C2.21546481,9.80886186 2.56733275,10.1563858 2.99739357,10.1563858 L4.82623805,10.1563858 L7.59774109,10.1563858 C8.03214596,10.1563858 8.37966985,10.5082537 8.37966985,10.9383145 C8.37966985,11.3727194 8.02780191,11.7202433 7.59774109,11.7202433 L4.82623805,11.7202433 L4.82623805,11.7115552 L4.5264987,11.7115552 C4.09209383,11.7115552 3.74456994,12.0634231 3.74456994,12.4934839 C3.74456994,12.9278888 4.09643788,13.2754127 4.5264987,13.2754127 L4.82623805,13.2754127 L22.1198957,13.2754127 L23.753258,13.2754127 L26.159861,13.2754127 C26.5942659,13.2754127 26.9418295,12.9235447 26.9418295,12.4934839 C26.9461338,12.0634231 26.5942659,11.7115552 26.164205,11.7115552 Z" id="路径" fill="#D0D9DA"></path>
                        <g transform="translate(1.285330, 0.000000)">
                            <g transform="translate(0.000000, 11.555169)" id="路径">
                                <path d="M7.68947452,6.95047785 C7.98486983,7.11120765 11.8684493,9.51346655 11.7077195,9.80886186 C11.5469897,10.1042572 7.40711136,8.17549957 7.11171605,8.01476977 C6.81632074,7.85403997 6.70771953,7.48913988 6.86844933,7.19374457 C7.02917913,6.90269331 7.39407922,6.79409209 7.68947452,6.95047785 Z" fill="#D0F1FF"></path>
                                <path d="M4.02309746,6.95047785 C3.72770215,7.11120765 -0.155877344,9.51346655 0.00485245587,9.80886186 C0.165582256,10.1042572 4.30546062,8.17549957 4.60085593,8.01476977 C4.89625124,7.85403997 5.00485246,7.48913988 4.84412266,7.19374457 C4.68339286,6.90269331 4.31849277,6.79409209 4.02309746,6.95047785 Z" fill="#D0F1FF"></path>
                                <path d="M5.28721562,4.89574283 C5.28721562,4.56125109 5.55654663,0 5.89103838,0 C6.22553013,0 6.49486114,4.56125109 6.49486114,4.89574283 C6.49486114,5.23023458 6.22553013,5.49961661 5.89103838,5.49961661 C5.55654663,5.50390964 5.28721562,5.23023458 5.28721562,4.89574283 Z" fill="#D0F1FF"></path>
                                <path d="M6.32544325,33.9748045 L5.38712874,33.9748045 L5.38712874,8.214596 C5.38712874,7.98870547 5.56957878,7.81059948 5.79112526,7.81059948 L5.91710267,7.81059948 C6.1429932,7.81059948 6.3210992,7.99304952 6.3210992,8.214596 L6.3210992,33.9748045 L6.32544325,33.9748045 Z" fill="#D0F1FF"></path>
                                <g transform="translate(4.705113, 5.503910)">
                                    <g>
                                        <path d="M1.15117289,0 L1.15117289,2.30668983 C1.78974805,2.30668983 2.30668983,1.78974805 2.30668983,1.15117289 C2.30668983,0.51694179 1.78974805,0 1.15117289,0 Z" fill="#F6980D"></path>
                                        <path d="M0,1.15117289 C0,1.78974805 0.51694179,2.30668983 1.15551694,2.30668983 L1.15551694,0 C0.512597741,0 0,0.51694179 0,1.15117289 Z" fill="#FFBF00"></path>
                                    </g>
                                    <path d="M1.66811468,1.15117289 C1.66811468,1.4378801 1.4378801,1.66811468 1.15117289,1.66811468 C0.864465682,1.66811468 0.634231103,1.4378801 0.634231103,1.15117289 C0.634231103,0.864465682 0.864465682,0.634231103 1.15117289,0.634231103 C1.4378801,0.634231103 1.66811468,0.868809731 1.66811468,1.15117289 Z" fill="#FFBF00"></path>
                                </g>
                            </g>
                            <g transform="translate(0.787361, 0.000000)">
                                <path d="M13.3573695,12.0677672 C13.8656232,12.3414422 20.6119308,16.520417 20.3382557,17.0330148 C20.0645806,17.5456125 12.8708361,14.196351 12.3582383,13.9183319 C11.8456406,13.6446568 11.6588465,13.0060817 11.9325216,12.4934839 C12.2061966,11.9852302 12.8447718,11.7940921 13.3573695,12.0677672 Z" id="路径" fill="#FFFFFF"></path>
                                <path d="M6.98899419,12.0677672 C6.47639645,12.3414422 -0.265567064,16.520417 0.00810800101,17.0330148 C0.281783066,17.5456125 7.47552764,14.196351 7.98812538,13.9183319 C8.49637907,13.6446568 8.68751721,13.0060817 8.41384215,12.4934839 C8.13582303,11.9852302 7.50159193,11.7940921 6.98899419,12.0677672 Z" id="路径" fill="#FFFFFF"></path>
                                <path d="M9.18273876,8.50130321 C9.18273876,7.9192007 9.65189601,0 10.2339985,0 C10.8161011,0 11.2852583,7.9192007 11.2852583,8.50130321 C11.2852583,9.08340573 10.8161011,9.55256299 10.2339985,9.55256299 C9.65189601,9.55256299 9.18273876,9.08340573 9.18273876,8.50130321 Z" id="路径" fill="#FFFFFF"></path>
                                <path d="M10.989863,45.5299739 L9.36084475,45.5299739 L9.36084475,14.374457 C9.36084475,13.9226759 9.72574484,13.5621199 10.1731818,13.5621199 L10.1731818,13.5621199 C10.6249629,13.5621199 10.989863,13.92702 10.989863,14.374457 L10.989863,45.5299739 Z" id="路径" fill="#D0F1FF"></path>
                                <g transform="translate(8.170575, 9.552563)">
                                    <g id="路径">
                                        <path d="M2.00260643,0 L2.00260643,4.00521286 C3.11033884,4.00521286 4.00521286,3.11033884 4.00521286,2.00260643 C4.00521286,0.899218071 3.11033884,0 2.00260643,0 Z" fill="#F6980D"></path>
                                        <path d="M0,2.00260643 C0,3.11033884 0.894874023,4.00521286 2.00260643,4.00521286 L2.00260643,0 C0.899218071,0 0,0.899218071 0,2.00260643 Z" fill="#FFBF00"></path>
                                    </g>
                                    <circle id="椭圆形" fill="#FFBF00" cx="2.00260643" cy="2.00260643" r="1"></circle>
                                </g>
                            </g>
                            <g transform="translate(10.965034, 13.675065)" id="路径">
                                <path d="M6.65059215,6.01216334 C6.90689102,6.15117289 10.2648406,8.2319722 10.1258311,8.48392702 C9.98682152,8.74022589 6.40732543,7.07211121 6.15102655,6.93310165 C5.89907173,6.79409209 5.80350266,6.47697654 5.93816817,6.22502172 C6.07717773,5.96872285 6.39429328,5.87315378 6.65059215,6.01216334 Z" fill="#FFFFFF"></path>
                                <path d="M3.47943663,6.01216334 C3.22313776,6.15117289 -0.134811847,8.2319722 0.00419771019,8.48392702 C0.143207267,8.74022589 3.72270336,7.07211121 3.97900223,6.93310165 C4.2353011,6.79409209 4.32652612,6.47697654 4.19186061,6.22502172 C4.04850701,5.96872285 3.73139145,5.87315378 3.47943663,6.01216334 Z" fill="#FFFFFF"></path>
                                <path d="M4.56979284,4.23544744 C4.56979284,3.94439618 4.80437147,0 5.09542273,0 C5.38647399,0 5.62105262,3.94439618 5.62105262,4.23544744 C5.62105262,4.5264987 5.38647399,4.76107732 5.09542273,4.76107732 C4.80437147,4.76107732 4.56979284,4.5264987 4.56979284,4.23544744 Z" fill="#FFFFFF"></path>
                                <path d="M5.46901092,31.8549088 L4.65667382,31.8549088 L4.65667382,7.15899218 C4.65667382,6.93310165 4.83912386,6.75499566 5.06067034,6.75499566 L5.06067034,6.75499566 C5.28656087,6.75499566 5.46466687,6.9374457 5.46466687,7.15899218 L5.46466687,31.8549088 L5.46901092,31.8549088 Z" fill="#D0F1FF"></path>
                                <g transform="translate(4.065883, 4.761077)">
                                    <g>
                                        <path d="M0.99913119,0 L0.99913119,1.99391833 C1.55082537,1.99391833 1.99826238,1.54648132 1.99826238,0.994787142 C1.99826238,0.443092963 1.55082537,0 0.99913119,0 Z" fill="#F6980D"></path>
                                        <path d="M0,0.994787142 C0,1.54648132 0.447437011,1.99391833 0.99913119,1.99391833 L0.99913119,0 C0.447437011,0 0,0.443092963 0,0.994787142 Z" fill="#FFBF00"></path>
                                    </g>
                                    <path d="M1.4465682,0.994787142 C1.4465682,1.24239791 1.24674196,1.44222415 0.99913119,1.44222415 C0.751520417,1.44222415 0.551694179,1.24239791 0.551694179,0.994787142 C0.551694179,0.747176368 0.751520417,0.54735013 0.99913119,0.54735013 C1.24674196,0.551694179 1.4465682,0.751520417 1.4465682,0.994787142 Z" fill="#FFBF00"></path>
                                </g>
                            </g>
                        </g>
                    </g>
                    <rect id="矩形" fill="#00B8AC" x="20.5125977" y="44.1833189" width="30.3475239" height="14.6872285"></rect>
                    <g transform="translate(4.561251, 34.278888)">
                        <g transform="translate(2.463076, 0.000000)">
                            <g transform="translate(19.561251, 0.000000)">
                                <g transform="translate(6.246742, 7.562989)">
                                    <polygon id="路径" fill="#7D9599" points="6.68549088 0 2.06342311 0 2.06342311 0.438748914 6.77237185 0.438748914"></polygon>
                                    <polygon id="路径" fill="#7D9599" points="9.51346655 13.7880104 6.95482189 1.32927889 2.06342311 1.32927889 2.06342311 13.7880104"></polygon>
                                    <rect id="矩形" fill="#5D7A7F" x="0" y="0.438748914" width="2.06342311" height="1"></rect>
                                    <polygon id="路径" fill="#5D7A7F" points="6.77237185 0.438748914 2.06342311 0.438748914 2.06342311 1.32927889 6.95482189 1.32927889"></polygon>
                                </g>
                                <polygon id="路径" fill="#5D7A7F" points="3.68375326 7.56298871 0.855777585 21.3509991 8.31016507 21.3509991 8.31016507 7.56298871"></polygon>
                                <rect id="矩形" fill="#B1BFC1" x="8.31016507" y="0" width="4.62206777" height="7.56733275"></rect>
                                <rect id="矩形" fill="#9EAFB2" x="3.68375326" y="0" width="4.62206777" height="7.56733275"></rect>
                                <g transform="translate(9.874023, 0.000000)" fill="#5D7A7F" id="矩形">
                                    <g>
                                        <rect x="0" y="0" width="1.89400521" height="1"></rect>
                                        <rect x="0" y="0.890529974" width="1.89400521" height="1"></rect>
                                        <rect x="0" y="1.78105995" width="1.89400521" height="1"></rect>
                                        <rect x="0" y="2.67158992" width="1.89400521" height="1"></rect>
                                    </g>
                                    <g transform="translate(0.000000, 3.549088)">
                                        <rect x="0" y="0" width="1.89400521" height="1"></rect>
                                        <rect x="0" y="0.890529974" width="1.89400521" height="1"></rect>
                                        <rect x="0" y="1.78105995" width="1.89400521" height="1"></rect>
                                        <rect x="0" y="2.67158992" width="1.89400521" height="1"></rect>
                                    </g>
                                </g>
                                <g transform="translate(9.874023, 7.111208)" fill="#334142" id="矩形">
                                    <g>
                                        <rect x="0" y="0" width="1.89400521" height="1"></rect>
                                        <rect x="0" y="0.890529974" width="1.89400521" height="1"></rect>
                                        <rect x="0" y="1.78105995" width="1.89400521" height="1"></rect>
                                        <rect x="0" y="2.67158992" width="1.89400521" height="1"></rect>
                                    </g>
                                    <g transform="translate(0.000000, 3.562120)">
                                        <rect x="0" y="0" width="1.89400521" height="1"></rect>
                                        <rect x="0" y="0.886185925" width="1.89400521" height="1"></rect>
                                        <rect x="0" y="1.7767159" width="1.89400521" height="1"></rect>
                                        <rect x="0" y="2.66724587" width="1.89400521" height="1"></rect>
                                    </g>
                                    <g transform="translate(0.000000, 7.119896)">
                                        <rect x="0" y="0" width="1.89400521" height="1"></rect>
                                        <rect x="0" y="0.890529974" width="1.89400521" height="1"></rect>
                                        <rect x="0" y="1.78105995" width="1.89400521" height="1"></rect>
                                        <rect x="0" y="2.67158992" width="1.89400521" height="1"></rect>
                                    </g>
                                    <g transform="translate(0.000000, 10.668983)">
                                        <rect x="0" y="0" width="1.89400521" height="1"></rect>
                                        <rect x="0" y="0.890529974" width="1.89400521" height="1"></rect>
                                        <rect x="0" y="1.78105995" width="1.89400521" height="1"></rect>
                                        <rect x="0" y="2.67158992" width="1.89400521" height="1"></rect>
                                    </g>
                                </g>
                                <rect id="矩形" fill="#9EAFB2" x="3.68375326" y="0" width="9.24413553" height="1"></rect>
                                <g transform="translate(0.000000, 7.111208)" id="矩形">
                                    <rect fill="#274347" x="0" y="14.2397915" width="8.30582103" height="1.52476108"></rect>
                                    <rect fill="#34595F" x="8.31016507" y="14.2397915" width="8.30582103" height="1.52476108"></rect>
                                    <rect fill="#34595F" x="8.31016507" y="0" width="4.92180712" height="1"></rect>
                                    <rect fill="#274347" x="3.38835795" y="0" width="4.92180712" height="1"></rect>
                                </g>
                            </g>
                            <rect id="矩形" fill="#334142" x="22.1763684" y="11.0121633" width="4.1789748" height="1.88097307"></rect>
                            <rect id="矩形" fill="#5D7A7F" x="19.81755" y="12.8974805" width="10.447437" height="9.98262381"></rect>
                            <rect id="矩形" fill="#34595F" x="20.625543" y="12.0634231" width="3.09730669" height="1"></rect>
                            <rect id="矩形" fill="#34595F" x="26.3553432" y="12.0634231" width="3.09730669" height="1"></rect>
                            <path d="M13.2276281,21.7984361 L13.2276281,22.8757602 L19.81755,22.8757602 L19.81755,15.2085143 C16.1772372,15.2128584 13.2276281,18.1624674 13.2276281,21.7984361 Z" id="路径" fill="#9EAFB2"></path>
                            <path d="M26.4031277,21.7984361 C26.4031277,18.1581234 23.4535187,15.2085143 19.8132059,15.2085143 L19.8132059,15.2085143 L19.8132059,22.8757602 L26.4031277,22.8757602 L26.4031277,21.7984361 Z" id="路径" fill="#BECACC"></path>
                            <path d="M23.8314509,18.4317984 C23.8314509,19.0356212 23.3405734,19.5264987 22.7367507,19.5264987 C22.1329279,19.5264987 21.6420504,19.0356212 21.6420504,18.4317984 C21.6420504,17.8279757 22.1329279,17.3370982 22.7367507,17.3370982 C23.3405734,17.3370982 23.8314509,17.8279757 23.8314509,18.4317984 Z" id="路径" fill="#D8DFE0"></path>
                            <g>
                                <g transform="translate(6.242398, 7.562989)">
                                    <polygon id="路径" fill="#7D9599" points="6.68549088 0 2.06342311 0 2.06342311 0.438748914 6.7767159 0.438748914"></polygon>
                                    <polygon id="路径" fill="#7D9599" points="9.5178106 13.7880104 6.95916594 1.32927889 2.06342311 1.32927889 2.06342311 13.7880104"></polygon>
                                    <rect id="矩形" fill="#5D7A7F" x="0" y="0.438748914" width="2.06342311" height="1"></rect>
                                    <polygon id="路径" fill="#5D7A7F" points="6.7767159 0.438748914 2.06342311 0.438748914 2.06342311 1.32927889 6.95916594 1.32927889"></polygon>
                                </g>
                                <polygon id="路径" fill="#5D7A7F" points="3.68375326 7.56298871 0.855777585 21.3509991 8.30582103 21.3509991 8.30582103 7.56298871"></polygon>
                                <rect id="矩形" fill="#B1BFC1" x="8.30582103" y="0" width="4.62206777" height="7.56733275"></rect>
                                <rect id="矩形" fill="#9EAFB2" x="3.68375326" y="0" width="4.62206777" height="7.56733275"></rect>
                                <g transform="translate(9.874023, 0.000000)" fill="#5D7A7F" id="矩形">
                                    <g>
                                        <rect x="0" y="0" width="1.89400521" height="1"></rect>
                                        <rect x="0" y="0.890529974" width="1.89400521" height="1"></rect>
                                        <rect x="0" y="1.78105995" width="1.89400521" height="1"></rect>
                                        <rect x="0" y="2.67158992" width="1.89400521" height="1"></rect>
                                    </g>
                                    <g transform="translate(0.000000, 3.549088)">
                                        <rect x="0" y="0" width="1.89400521" height="1"></rect>
                                        <rect x="0" y="0.890529974" width="1.89400521" height="1"></rect>
                                        <rect x="0" y="1.78105995" width="1.89400521" height="1"></rect>
                                        <rect x="0" y="2.67158992" width="1.89400521" height="1"></rect>
                                    </g>
                                </g>
                                <g transform="translate(9.874023, 7.111208)" fill="#334142" id="矩形">
                                    <g>
                                        <rect x="0" y="0" width="1.89400521" height="1"></rect>
                                        <rect x="0" y="0.890529974" width="1.89400521" height="1"></rect>
                                        <rect x="0" y="1.78105995" width="1.89400521" height="1"></rect>
                                        <rect x="0" y="2.67158992" width="1.89400521" height="1"></rect>
                                    </g>
                                    <g transform="translate(0.000000, 3.562120)">
                                        <rect x="0" y="0" width="1.89400521" height="1"></rect>
                                        <rect x="0" y="0.886185925" width="1.89400521" height="1"></rect>
                                        <rect x="0" y="1.7767159" width="1.89400521" height="1"></rect>
                                        <rect x="0" y="2.66724587" width="1.89400521" height="1"></rect>
                                    </g>
                                    <g transform="translate(0.000000, 7.119896)">
                                        <rect x="0" y="0" width="1.89400521" height="1"></rect>
                                        <rect x="0" y="0.890529974" width="1.89400521" height="1"></rect>
                                        <rect x="0" y="1.78105995" width="1.89400521" height="1"></rect>
                                        <rect x="0" y="2.67158992" width="1.89400521" height="1"></rect>
                                    </g>
                                    <g transform="translate(0.000000, 10.668983)">
                                        <rect x="0" y="0" width="1.89400521" height="1"></rect>
                                        <rect x="0" y="0.890529974" width="1.89400521" height="1"></rect>
                                        <rect x="0" y="1.78105995" width="1.89400521" height="1"></rect>
                                        <rect x="0" y="2.67158992" width="1.89400521" height="1"></rect>
                                    </g>
                                </g>
                                <rect id="矩形" fill="#9EAFB2" x="3.68375326" y="0" width="9.24413553" height="1"></rect>
                                <g transform="translate(0.000000, 7.111208)" id="矩形">
                                    <rect fill="#274347" x="0" y="14.2397915" width="8.30582103" height="1.52476108"></rect>
                                    <rect fill="#34595F" x="8.30582103" y="14.2397915" width="8.30582103" height="1.52476108"></rect>
                                    <rect fill="#34595F" x="8.30582103" y="0" width="4.92180712" height="1"></rect>
                                    <rect fill="#274347" x="3.3840139" y="0" width="4.92180712" height="1"></rect>
                                </g>
                            </g>
                            <rect id="矩形" fill="#9EAFB2" x="19.81755" y="21.3509991" width="6.58992181" height="1.52476108"></rect>
                            <path d="M19.81755,20.1433536 L19.81755,20.1433536 L19.81755,21.3509991 L21.0251955,21.3509991 L21.0251955,21.3509991 C20.356212,21.3509991 19.81755,20.8123371 19.81755,20.1433536 Z" id="路径" fill="#9EAFB2"></path>
                        </g>
                        <path d="M1.48132059,22.8801043 C0.664639444,22.8801043 0,23.5447437 0,24.3614248 C0,25.178106 0.664639444,25.8427454 1.48132059,25.8427454 L20.5603823,25.8427454 L20.5603823,22.8757602 L1.48132059,22.8757602 L1.48132059,22.8801043 Z" id="路径" fill="#61E5A0"></path>
                        <path d="M39.639444,22.8801043 L20.5603823,22.8801043 L20.5603823,25.8470895 L39.639444,25.8470895 C40.4561251,25.8470895 41.1207857,25.18245 41.1207857,24.3657689 C41.1251086,23.5447437 40.4604692,22.8801043 39.639444,22.8801043 Z" id="路径" fill="#49AC78"></path>
                    </g>
                    <g transform="translate(6.407472, 50.582103)">
                        <path d="M6.90703736,12.7324066 C6.90703736,13.1450912 7.24152911,13.479583 7.65421373,13.479583 C8.06689835,13.479583 8.4013901,13.1450912 8.4013901,12.7324066 C8.4013901,12.7280626 8.4013901,12.7193745 8.4013901,12.7150304 L9.15291051,12.7150304 C9.15291051,12.7193745 9.15291051,12.7237185 9.15291051,12.7324066 C9.15291051,13.1450912 9.48740226,13.479583 9.90008688,13.479583 L9.90008688,11.1120765 L0.851433536,11.1120765 L0.851433536,12.7150304 L6.91572546,12.7150304 C6.91138141,12.7193745 6.90703736,12.7237185 6.90703736,12.7324066 Z" id="路径" fill="#D0D9DA"></path>
                        <path d="M9.89139878,13.4752389 C10.3040834,13.4752389 10.6385752,13.1407472 10.6385752,12.7280626 C10.6385752,12.7237185 10.6385752,12.7150304 10.6385752,12.7106864 L11.3857515,12.7106864 C11.3857515,12.7150304 11.3857515,12.7193745 11.3857515,12.7280626 C11.3857515,13.1407472 11.7202433,13.4752389 12.1329279,13.4752389 C12.5456125,13.4752389 12.8801043,13.1407472 12.8801043,12.7280626 C12.8801043,12.7237185 12.8801043,12.7150304 12.8801043,12.7106864 L18.9443962,12.7106864 L18.9443962,11.1077324 L9.89574283,11.1077324 L9.89574283,13.4752389 L9.89139878,13.4752389 Z" id="路径" fill="#B1BFC1"></path>
                        <polygon id="路径" fill="#B1BFC1" points="9.89139878 4.48740226 15.6298871 4.48740226 15.6298871 6.6246742 15.6298871 7.7324066 15.6298871 8.84448306 9.89139878 8.84448306 9.89139878 10 18.9400521 10 18.9400521 2.78019114 9.89139878 2.78019114"></polygon>
                        <polygon id="路径" fill="#D0D9DA" points="9.89139878 8.84448306 4.15291051 8.84448306 4.15291051 7.7324066 4.15291051 6.6246742 4.15291051 4.48740226 9.89139878 4.48740226 9.89139878 2.78019114 0.847089487 2.78019114 0.847089487 10 9.89139878 10"></polygon>
                        <rect id="矩形" fill="#ECF0F0" x="0.847089487" y="10" width="9.04865334" height="1.11207646"></rect>
                        <rect id="矩形" fill="#D0D9DA" x="9.89139878" y="10" width="9.04865334" height="1.11207646"></rect>
                        <path d="M18.9400521,12.7150304 L12.8757602,12.7150304 C12.8757602,12.7193745 12.8757602,12.7237185 12.8757602,12.7324066 C12.8757602,13.1450912 12.5412685,13.479583 12.1285838,13.479583 C11.7158992,13.479583 11.3814075,13.1450912 11.3814075,12.7324066 C11.3814075,12.7280626 11.3814075,12.7193745 11.3814075,12.7150304 L10.6342311,12.7150304 C10.6342311,12.7193745 10.6342311,12.7237185 10.6342311,12.7324066 C10.6342311,13.1450912 10.2997394,13.479583 9.88705474,13.479583 C9.47437011,13.479583 9.13987837,13.1450912 9.13987837,12.7324066 C9.13987837,12.7280626 9.13987837,12.7193745 9.13987837,12.7150304 L8.38835795,12.7150304 C8.38835795,12.7193745 8.38835795,12.7237185 8.38835795,12.7324066 C8.38835795,13.1450912 8.0538662,13.479583 7.64118158,13.479583 C7.22849696,13.479583 6.89400521,13.1450912 6.89400521,12.7324066 C6.89400521,12.7280626 6.89400521,12.7193745 6.89400521,12.7150304 L0.829713293,12.7150304 L0,12.7150304 L0,14.6264118 L0.829713293,14.6264118 L9.87836664,14.6264118 L18.92702,14.6264118 L19.7567333,14.6264118 L19.7567333,12.7150304 L18.9400521,12.7150304 Z" id="路径" fill="#5D7A7F"></path>
                        <path d="M15.6298871,6.6246742 L15.6298871,4.48740226 L9.89139878,4.48740226 L4.15291051,4.48740226 L4.15291051,6.6246742 L15.6298871,6.6246742 Z M6.54648132,6.16854909 L4.8479583,6.16854909 L4.8479583,5.05647263 L6.54648132,5.05647263 L6.54648132,6.16854909 Z M9.196351,5.05647263 L14.9348393,5.05647263 L14.9348393,6.16854909 L9.196351,6.16854909 L9.196351,5.05647263 Z" id="形状" fill="#15A9E6"></path>
                        <polygon id="路径" fill="#334142" points="15.6298871 7.7324066 4.15291051 7.7324066 4.15291051 8.84448306 9.89139878 8.84448306 15.6298871 8.84448306"></polygon>
                        <polygon id="路径" fill="#334142" points="18.9400521 2.78019114 19.5873154 2.78019114 19.5873154 1.66811468 18.9400521 1.66811468 18.1146829 1.66811468 16.7332754 1.66811468 15.6298871 1.66811468 9.89139878 1.66811468 4.15291051 1.66811468 3.0538662 1.66811468 1.66811468 1.66811468 0.847089487 1.66811468 0.199826238 1.66811468 0.199826238 2.78019114 0.847089487 2.78019114 9.89139878 2.78019114"></polygon>
                        <rect id="矩形" fill="#1A2121" x="15.6298871" y="0.556038228" width="1.10338836" height="1.11207646"></rect>
                        <rect id="矩形" fill="#1A2121" x="3.0538662" y="0.556038228" width="1.10338836" height="1.11207646"></rect>
                        <polygon id="路径" fill="#1A2121" points="1.66811468 1.66811468 1.66811468 0.556038228 0.199826238 0.556038228 0.199826238 1.66811468 0.847089487 1.66811468"></polygon>
                        <polygon id="路径" fill="#1A2121" points="18.9400521 1.66811468 19.5873154 1.66811468 19.5873154 0.556038228 18.1146829 0.556038228 18.1146829 1.66811468"></polygon>
                        <rect id="矩形" fill="#D0D9DA" x="4.15291051" y="6.6246742" width="11.4769765" height="1.11207646"></rect>
                        <rect id="矩形" fill="#EC3B18" x="9.196351" y="5.05647263" width="5.73848827" height="1.11207646"></rect>
                        <rect id="矩形" fill="#334142" x="4.85230235" y="5.05647263" width="1.69852302" height="1.11207646"></rect>
                        <polygon id="路径" fill="#EC3B18" points="18.1146829 1.66811468 18.1146829 0.556038228 18.1146829 0 16.7332754 0 16.7332754 0.556038228 16.7332754 1.66811468"></polygon>
                        <polygon id="路径" fill="#B1BFC1" points="3.0538662 1.66811468 3.0538662 0.556038228 3.0538662 0 1.66811468 0 1.66811468 0.556038228 1.66811468 1.66811468"></polygon>
                        <polygon id="路径" fill="#274347" points="9.89139878 1.66811468 15.6298871 1.66811468 15.6298871 0.556038228 15.6298871 0 9.89139878 0"></polygon>
                        <polygon id="路径" fill="#34595F" points="9.89139878 1.66811468 9.89139878 0 4.15291051 0 4.15291051 0.556038228 4.15291051 1.66811468"></polygon>
                    </g>
                    <path d="M59.4917463,7.97567333 C59.4917463,12.3805387 55.9209383,15.9513467 51.516073,15.9513467 C47.1112076,15.9513467 43.5403997,12.3805387 43.5403997,7.97567333 C43.5403997,3.57080799 47.1112076,0 51.516073,0 C55.9209383,0 59.4917463,3.57080799 59.4917463,7.97567333 Z" id="路径" fill="#334142"></path>
                    <path d="M57.8105995,7.97567333 C57.8105995,11.4726325 54.9782798,14.3049522 51.4813206,14.3049522 C47.9843614,14.3049522 45.1520417,11.4726325 45.1520417,7.97567333 C45.1520417,4.47871416 47.9843614,1.64638946 51.4813206,1.64638946 C54.9739357,1.64205039 57.8105995,4.47871416 57.8105995,7.97567333 Z" id="路径" fill="#FFBF00"></path>
                    <g transform="translate(44.713641, 26.884123)">
                        <polygon id="路径" fill="#263132" points="24.3176364 33.0854686 8.28809687 33.0854686 8.28809687 21.5042349 10.9727189 17.4121411 24.3176364 17.4121411"></polygon>
                        <g>
                            <g transform="translate(3.770286, 16.104582)" id="路径">
                                <polygon fill="#34595F" points="1.3032146 0 0 9.12684622 5.29539531 9.12684622 5.29539531 0"></polygon>
                                <polygon fill="#263132" points="9.3397046 0 5.29539531 0 5.29539531 9.12684622 10.6472632 9.12684622"></polygon>
                            </g>
                            <rect id="矩形" fill="#263132" x="5.07350087" y="8.93690217" width="8.03649001" height="7.16768028"></rect>
                            <path d="M30.2993914,34.3539308 L18.1056468,34.3539308 L18.1056468,16.1045824 L32.115221,16.1045824 L32.115221,32.5337745 C32.1195478,33.5372497 31.3028666,34.3539308 30.2993914,34.3539308 Z" id="路径" fill="#9EAFB2"></path>
                            <rect id="矩形" fill="#334142" x="3.77028627" y="25.2314287" width="14.3353606" height="9.12250217"></rect>
                            <rect id="矩形" fill="#34595F" x="18.1099909" y="25.2314287" width="14.0095569" height="2.04604692"></rect>
                            <rect id="矩形" fill="#263132" x="3.77028627" y="25.2314287" width="14.3353606" height="2.04604692"></rect>
                            <path d="M18.1099909,34.3452427 L2.05438705,34.3452427 C0.924934405,34.3452427 0.00834013901,33.4286485 0.00834013901,32.2991958 L0.00834013901,32.2991958 L18.1143349,32.2991958 L18.1143349,34.3452427 L18.1099909,34.3452427 Z" id="路径" fill="#778385"></path>
                            <rect id="矩形" fill="#9EAFB2" x="4.23075543" y="16.1045824" width="13.8748914" height="2.04604692"></rect>
                            <rect id="矩形" fill="#334142" x="20.2255426" y="15.0359465" width="4.09209383" height="1.06863597"></rect>
                            <rect id="矩形" fill="#34595F" x="20.2255426" y="13.9673105" width="4.09209383" height="1.06863597"></rect>
                            <polygon id="矩形" fill="#9EAFB2" transform="translate(2.841301, 18.960231) rotate(-45.000000) translate(-2.841301, -18.960231) " points="-0.15389178 17.9372174 5.83649386 17.9372174 5.83649386 19.9832447 -0.15389178 19.9832447"></polygon>
                            <rect id="矩形" fill="#334142" x="29.3914852" y="17.9768674" width="1" height="1"></rect>
                            <rect id="矩形" fill="#334142" x="24.8085139" y="17.9768674" width="1" height="1"></rect>
                            <rect id="矩形" fill="#334142" x="20.2255426" y="17.9768674" width="1" height="1"></rect>
                            <rect id="矩形" fill="#334142" x="29.3914852" y="20.3574061" width="1" height="1"></rect>
                            <rect id="矩形" fill="#334142" x="24.8085139" y="20.3574061" width="1" height="1"></rect>
                            <rect id="矩形" fill="#334142" x="20.2255426" y="20.3574061" width="1" height="1"></rect>
                            <rect id="矩形" fill="#334142" x="29.3914852" y="22.7422888" width="1" height="1"></rect>
                            <rect id="矩形" fill="#334142" x="24.8085139" y="22.7422888" width="1" height="1"></rect>
                            <rect id="矩形" fill="#334142" x="20.2255426" y="22.7422888" width="1" height="1"></rect>
                            <rect id="矩形" fill="#334142" x="29.3914852" y="29.5190047" width="1" height="1"></rect>
                            <rect id="矩形" fill="#334142" x="24.8085139" y="29.5190047" width="1" height="1"></rect>
                            <rect id="矩形" fill="#334142" x="20.2255426" y="29.5190047" width="1" height="1"></rect>
                            <rect id="矩形" fill="#334142" x="29.3914852" y="31.8995434" width="1" height="1"></rect>
                            <rect id="矩形" fill="#334142" x="24.8085139" y="31.8995434" width="1" height="1"></rect>
                            <rect id="矩形" fill="#334142" x="20.2255426" y="31.8995434" width="1" height="1"></rect>
                            <path d="M2.05004301,20.3400299 L2.05004301,34.3495868 L2.05004301,34.3495868 C0.920590356,34.3495868 0.00399609036,33.4329925 0.00399609036,32.3035399 L0.00399609036,20.3400299 L2.05004301,20.3400299 Z" id="路径" fill="#9EAFB2"></path>
                            <rect id="矩形" fill="#34595F" x="5.07350087" y="8.93690217" width="1" height="7.16768028"></rect>
                            <rect id="矩形" fill="#34595F" x="6.14648089" y="8.93690217" width="1" height="7.16768028"></rect>
                            <rect id="矩形" fill="#34595F" x="7.2194609" y="8.93690217" width="1" height="7.16768028"></rect>
                            <rect id="矩形" fill="#34595F" x="8.28809687" y="8.93690217" width="1" height="7.16768028"></rect>
                            <rect id="矩形" fill="#34595F" x="9.36107689" y="8.93690217" width="1" height="7.16768028"></rect>
                            <rect id="矩形" fill="#34595F" x="10.4340569" y="8.93690217" width="1" height="7.16768028"></rect>
                            <rect id="矩形" fill="#34595F" x="11.5026929" y="8.93690217" width="1" height="7.16768028"></rect>
                            <rect id="矩形" fill="#34595F" x="12.5756729" y="8.93690217" width="1" height="7.16768028"></rect>
                            <g transform="translate(25.112597, 1.769222)" id="矩形">
                                <rect fill="#8ADDFF" x="0" y="2.04604692" width="1.78974805" height="2.04604692"></rect>
                                <rect fill="#8ADDFF" x="0" y="10.2389227" width="1.78974805" height="4.09643788"></rect>
                                <rect fill="#8ADDFF" x="0" y="6.1424848" width="1.78974805" height="2.04604692"></rect>
                                <rect fill="#24BFFF" x="1.79409209" y="10.2389227" width="1.79409209" height="4.09643788"></rect>
                                <rect fill="#24BFFF" x="1.79409209" y="6.1424848" width="1.79409209" height="2.04604692"></rect>
                                <rect fill="#24BFFF" x="1.79409209" y="2.04604692" width="1.79409209" height="2.04604692"></rect>
                                <rect fill="#F6980D" x="1.79409209" y="8.19287576" width="1.79409209" height="2.04604692"></rect>
                                <rect fill="#FFBF00" x="0" y="8.19287576" width="1.78974805" height="2.04604692"></rect>
                                <rect fill="#FFBF00" x="0" y="4.09643788" width="1.78974805" height="2.04604692"></rect>
                                <rect fill="#F6980D" x="1.79409209" y="4.09643788" width="1.79409209" height="2.04604692"></rect>
                                <rect fill="#FFBF00" x="0" y="0" width="1.78974805" height="2.04604692"></rect>
                                <rect fill="#F6980D" x="1.79409209" y="0" width="1.79409209" height="2.04604692"></rect>
                            </g>
                            <path d="M12.6321455,0.848283579 C12.1543002,0.874347871 11.7980882,1.30006464 11.7980882,1.78225404 L11.7980882,2.32960417 C11.7980882,1.82569453 11.3767155,1.421698 10.8684618,1.44776229 C10.3906164,1.47382658 10.0344044,1.89954335 10.0344044,2.38173275 L10.0344044,2.56852685 L10.0344044,2.79007333 C10.0344044,2.79441738 10.0344044,2.79441738 10.0344044,2.79876142 L10.0344044,2.79876142 L10.0344044,2.97686742 C10.0344044,3.45471277 9.67384839,3.88477359 9.20034709,3.91083788 C8.6920934,3.93690217 8.27072068,3.53290565 8.27072068,3.028996 L8.27072068,2.79876142 L8.27072068,2.79876142 C8.27072068,2.79441738 8.27072068,2.79441738 8.27072068,2.79007333 L8.27072068,2.56852685 L8.27072068,0.935164552 C8.27072068,0.4573192 7.91016464,0.0272583834 7.43666334,0.00119409151 C6.92840964,-0.0248702004 6.50703692,0.379126324 6.50703692,0.883035968 L6.50703692,2.32960417 C6.50703692,1.82569453 6.08566421,1.421698 5.57741051,1.44776229 C5.09956516,1.47382658 4.74335317,1.89954335 4.74335317,2.38173275 L4.74335317,3.58069018 C4.74335317,4.06722363 5.1386616,4.46253206 5.62519505,4.46253206 L5.62519505,8.94124622 L12.5930491,8.94124622 L12.5930491,6.5824278 C12.5930491,6.39997776 12.4757598,6.23924796 12.3063419,6.17843128 C11.958818,6.06114196 11.7112072,5.73099427 11.7112072,5.34437394 C11.7112072,4.85784049 12.1065156,4.46253206 12.5930491,4.46253206 L12.5930491,4.45384396 C12.6278015,4.45818801 12.6625539,4.46253206 12.6973063,4.46253206 C13.1838397,4.46253206 13.5791481,4.06722363 13.5791481,3.58069018 L13.5791481,1.7344695 C13.5617719,1.22621581 13.1403992,0.817875238 12.6321455,0.848283579 Z M7.37584666,6.22187176 C6.88931321,6.22187176 6.49400478,5.82656334 6.49400478,5.34002989 C6.49400478,4.85349644 6.88931321,4.45818801 7.37584666,4.45818801 C7.8623801,4.45818801 8.25768853,4.85349644 8.25768853,5.34002989 C8.26203258,5.82656334 7.86672415,6.22187176 7.37584666,6.22187176 Z" id="形状" fill="#BECACC"></path>
                        </g>
                    </g>
                    <path d="M61.9721981,37.4847958 L61.9721981,37.4847958 L61.9721981,35.712424 L60.1998262,35.712424 L60.1998262,35.712424 C61.1772372,35.712424 61.9721981,36.5073849 61.9721981,37.4847958 Z" id="路径" fill="#334142"></path>
                </g>
            </g>
        </g>
    </g>
</svg>