<?xml version="1.0" encoding="UTF-8"?>
<svg width="80px" height="78px" viewBox="0 0 80 78" version="1.1" xmlns="http://www.w3.org/2000/svg" xmlns:xlink="http://www.w3.org/1999/xlink">
    <title>电工基础</title>
    <g id="页面-1" stroke="none" stroke-width="1" fill="none" fill-rule="evenodd">
        <g id="app-训练" transform="translate(-68.000000, -323.000000)">
            <g id="电工基础" transform="translate(68.000000, 323.000000)">
                <g id="编组" transform="translate(4.000000, 0.000000)">
                    <circle id="椭圆形" fill-opacity="0.5" fill="#FFFFFF" cx="35" cy="43" r="35"></circle>
                    <rect id="矩形" fill="#00B8AC" fill-rule="nonzero" x="42.2902269" y="14.0521295" width="1" height="17.6552396"></rect>
                    <path d="M36.982943,39.0693994 L36.1357253,39.0693994 L36.1357253,18.2297896 C36.1357253,12.6254926 31.5782779,8.06804522 25.9739809,8.06804522 L21.4262717,8.06804522 L21.4262717,7.22082744 L25.9739809,7.22082744 C32.0457084,7.22082744 36.982943,12.1580621 36.982943,18.2297896 L36.982943,39.0693994 Z" id="路径" fill="#18979E" fill-rule="nonzero"></path>
                    <path d="M38.5799973,33.8741042 L37.7327795,33.8741042 L37.7327795,13.0296252 C37.7327795,6.95789778 42.6700142,2.02066311 48.7417416,2.02066311 L51.356431,2.02066311 L51.356431,2.86788089 L48.7417416,2.86788089 C43.1374447,2.86788089 38.5799973,7.42532828 38.5799973,13.0296252 L38.5799973,33.8741042 Z" id="路径" fill="#24BFFF" fill-rule="nonzero"></path>
                    <g transform="translate(13.134249, 14.335753)" fill-rule="nonzero">
                        <path d="M1.6749593,50.0430608 L1.6749593,50.0430608 C1.49967286,49.8677744 1.49967286,49.5804994 1.6749593,49.4052129 L3.92446859,47.1557037 C4.09975503,46.9804172 4.38703002,46.9804172 4.56231646,47.1557037 L4.56231646,47.1557037 C4.7376029,47.3309901 4.7376029,47.6182651 4.56231646,47.7935515 L2.31280717,50.0430608 C2.13752073,50.2183473 1.85024574,50.2183473 1.6749593,50.0430608 Z" id="路径" fill="#8ADDFF"></path>
                        <path d="M0.131464829,48.4995663 L0.131464829,48.4995663 C-0.0438216095,48.3242799 -0.0438216095,48.0370049 0.131464829,47.8617185 L2.38097412,45.6122092 C2.55626056,45.4369227 2.84353555,45.4369227 3.01882199,45.6122092 L3.01882199,45.6122092 C3.19410843,45.7874956 3.19410843,46.0747706 3.01882199,46.2500571 L0.769312701,48.4995663 C0.589157195,48.6748528 0.306751267,48.6748528 0.131464829,48.4995663 Z" id="路径" fill="#8ADDFF"></path>
                        <polygon id="矩形" fill="#34595F" transform="translate(17.989559, 31.968091) rotate(-45.000000) translate(-17.989559, -31.968091) " points="-1.19438385 31.4373673 37.1735019 31.4373673 37.1735019 32.4988139 -1.19438385 32.4988139"></polygon>
                        <path d="M0.618371601,46.099116 L2.10343726,44.6140503 C3.05777453,43.659713 4.60613807,43.659713 5.56047534,44.6140503 L5.56047534,44.6140503 C6.51481262,45.5683876 6.51481262,47.1167511 5.56047534,48.0710884 L4.07540969,49.556154 L0.618371601,46.099116 Z" id="路径" fill="#34595F"></path>
                        <polygon id="矩形" fill="#263132" transform="translate(6.254260, 43.704725) rotate(135.000000) translate(-6.254260, -43.704725) " points="5.80387511 42.6700577 6.704644 42.6700577 6.704644 44.7393916 5.80387511 44.7393916"></polygon>
                        <polygon id="矩形" fill="#263132" transform="translate(7.210983, 42.743391) rotate(135.000000) translate(-7.210983, -42.743391) " points="6.76059822 41.7087245 7.66136711 41.7087245 7.66136711 43.7780585 6.76059822 43.7780585"></polygon>
                        <polygon id="矩形" fill="#263132" transform="translate(22.420863, 27.544961) rotate(135.008103) translate(-22.420863, -27.544961) " points="21.970479 26.5102943 22.8712479 26.5102943 22.8712479 28.5796283 21.970479 28.5796283"></polygon>
                        <polygon id="矩形" fill="#263132" transform="translate(21.142807, 28.821517) rotate(135.008103) translate(-21.142807, -28.821517) " points="20.6924228 27.7868499 21.5931917 27.7868499 21.5931917 29.8561839 20.6924228 29.8561839"></polygon>
                        <path d="M23.4250848,24.7336468 L26.1420246,22.016707 L28.0896517,23.9643341 L25.3727119,26.6812739 C24.8322454,27.2217404 23.9606823,27.2217404 23.4250848,26.6812739 L23.4250848,26.6812739 C22.8846183,26.1456764 22.8846183,25.2741133 23.4250848,24.7336468 Z" id="路径" fill="#263132"></path>
                        <path d="M25.523653,17.848785 L42.0103163,1.3621217 C43.8264786,-0.454040565 46.7771336,-0.454040565 48.5932959,1.3621217 L48.5932959,1.3621217 C50.4094582,3.17828396 50.4094582,6.128939 48.5932959,7.94510126 L32.1066326,24.4317646 C30.2904703,26.2479268 27.3398153,26.2479268 25.523653,24.4317646 L25.523653,24.4317646 C23.7074908,22.6156023 23.7074908,19.6698163 25.523653,17.848785 Z" id="路径" fill="#8ADDFF"></path>
                        <g transform="translate(41.585490, 1.715140)">
                            <path d="M4.64630788,5.6846253 C4.1301867,6.20074648 3.48260069,6.51236681 2.81066934,6.61461723 C3.8283045,6.77529647 4.90436847,6.4685452 5.68828837,5.6846253 C6.98832945,4.38458421 6.98832945,2.27140882 5.68828837,0.971367739 C4.90436847,0.187447835 3.8283045,-0.119303431 2.81066934,0.0413758035 C3.48260069,0.148495293 4.1301867,0.45524656 4.64630788,0.971367739 C5.94634896,2.27140882 5.94634896,4.37971515 4.64630788,5.6846253 Z" id="路径" fill="#1B8FBF"></path>
                            <path d="M0.975030812,5.6846253 C1.49115199,6.20074648 2.138738,6.51236681 2.81066934,6.61461723 C3.48260069,6.50749774 4.1301867,6.20074648 4.64630788,5.6846253 C5.94634896,4.38458421 5.94634896,2.27140882 4.64630788,0.971367739 C4.1301867,0.45524656 3.48260069,0.143626226 2.81066934,0.0413758035 C2.138738,0.148495293 1.49115199,0.45524656 0.975030812,0.971367739 C-0.325010271,2.27140882 -0.325010271,4.37971515 0.975030812,5.6846253 Z" id="路径" fill="#24BFFF"></path>
                            <circle id="椭圆形" fill="#263132" cx="4.49536678" cy="4.4917037" r="1"></circle>
                            <path d="M1.71026004,2.6219817 C1.45706852,2.36879018 1.45706852,1.95491942 1.71026004,1.7017279 C1.96345156,1.44853638 2.37732232,1.44853638 2.63051384,1.7017279 C2.88370536,1.95491942 2.88370536,2.36879018 2.63051384,2.6219817 C2.37732232,2.88004229 1.96345156,2.88004229 1.71026004,2.6219817 Z" id="路径" fill="#263132"></path>
                        </g>
                        <g transform="translate(35.435858, 7.864773)">
                            <path d="M4.64630788,5.6846253 C4.1301867,6.20074648 3.48260069,6.51236681 2.81066934,6.61461723 C3.8283045,6.77529647 4.90436847,6.4685452 5.68828837,5.6846253 C6.98832945,4.38458421 6.98832945,2.27140882 5.68828837,0.971367739 C4.90436847,0.187447835 3.8283045,-0.119303431 2.81066934,0.0413758035 C3.48260069,0.148495293 4.1301867,0.45524656 4.64630788,0.971367739 C5.95121803,2.27140882 5.95121803,4.37971515 4.64630788,5.6846253 Z" id="路径" fill="#1B8FBF"></path>
                            <path d="M0.975030812,5.6846253 C1.49115199,6.20074648 2.138738,6.51236681 2.81066934,6.61461723 C3.48260069,6.50749774 4.1301867,6.20074648 4.64630788,5.6846253 C5.94634896,4.38458421 5.94634896,2.27140882 4.64630788,0.971367739 C4.1301867,0.45524656 3.48260069,0.143626226 2.81066934,0.0413758035 C2.138738,0.148495293 1.49115199,0.45524656 0.975030812,0.971367739 C-0.325010271,2.27140882 -0.325010271,4.37971515 0.975030812,5.6846253 Z" id="路径" fill="#24BFFF"></path>
                            <path d="M4.03767441,4.94939607 C3.78448289,4.69620455 3.78448289,4.28233379 4.03767441,4.02914227 C4.29086593,3.77595075 4.70473669,3.77595075 4.95792821,4.02914227 C5.21111973,4.28233379 5.21111973,4.69620455 4.95792821,4.94939607 C4.70473669,5.20258759 4.29086593,5.20258759 4.03767441,4.94939607 Z" id="路径" fill="#263132"></path>
                            <circle id="椭圆形" fill="#263132" cx="2.1679524" cy="2.16428933" r="1"></circle>
                        </g>
                        <g transform="translate(29.257011, 14.043620)" id="路径">
                            <path d="M4.64630788,5.6846253 C4.1301867,6.20074648 3.48260069,6.51236681 2.81066934,6.61461723 C3.8283045,6.77529647 4.90436847,6.4685452 5.68828837,5.6846253 C6.98832945,4.38458421 6.98832945,2.27140882 5.68828837,0.971367739 C4.90436847,0.187447835 3.8283045,-0.119303431 2.81066934,0.0413758035 C3.48260069,0.148495293 4.1301867,0.45524656 4.64630788,0.971367739 C5.95121803,2.27140882 5.95121803,4.37971515 4.64630788,5.6846253 Z" fill="#1B8FBF"></path>
                            <path d="M0.975030812,5.6846253 C1.49115199,6.20074648 2.138738,6.51236681 2.81066934,6.61461723 C3.48260069,6.50749774 4.1301867,6.20074648 4.64630788,5.6846253 C5.94634896,4.38458421 5.94634896,2.27140882 4.64630788,0.971367739 C4.1301867,0.45524656 3.48260069,0.143626226 2.81066934,0.0413758035 C2.138738,0.148495293 1.49115199,0.45524656 0.975030812,0.971367739 C-0.325010271,2.27140882 -0.325010271,4.37971515 0.975030812,5.6846253 Z" fill="#24BFFF"></path>
                            <path d="M4.03280534,4.94939607 C3.77961382,4.69620455 3.77961382,4.28233379 4.03280534,4.02914227 C4.28599687,3.77595075 4.69986762,3.77595075 4.95305914,4.02914227 C5.20625067,4.28233379 5.20625067,4.69620455 4.95305914,4.94939607 C4.69986762,5.20258759 4.29086593,5.20258759 4.03280534,4.94939607 Z" fill="#263132"></path>
                            <path d="M1.71026004,2.6219817 C1.45706852,2.36879018 1.45706852,1.95491942 1.71026004,1.7017279 C1.96345156,1.44853638 2.37732232,1.44853638 2.63051384,1.7017279 C2.88370536,1.95491942 2.88370536,2.36879018 2.63051384,2.6219817 C2.37732232,2.87517322 1.96345156,2.87517322 1.71026004,2.6219817 Z" fill="#263132"></path>
                        </g>
                        <g transform="translate(28.835836, 1.288045)" fill="#D0F1FF" id="形状">
                            <path d="M18.4379422,6.11172118 C17.6540223,6.89564108 16.5779583,7.20239235 15.5603232,7.04171311 C14.8883918,6.93459362 14.2408058,6.62784235 13.7246847,6.11172118 C12.4246436,4.81168009 12.4246436,2.6985047 13.7246847,1.39846362 C14.2408058,0.882342438 14.8883918,0.570722104 15.5603232,0.468471682 C16.5779583,0.307792447 17.6540223,0.614543713 18.4379422,1.39846362 C19.7379833,2.6985047 19.7379833,4.80681103 18.4379422,6.11172118 L18.4379422,6.11172118 Z M18.7349553,6.40873431 C20.2005447,4.94314492 20.2005447,2.5621708 18.7349553,1.09658142 C17.8926066,0.254232702 16.6802088,-0.140161784 15.4921562,0.0448627896 C14.7033673,0.17145855 13.9876143,0.531769562 13.4228025,1.09658142 C11.9572131,2.5621708 11.9572131,4.94314492 13.4228025,6.40873431 C13.9876143,6.97354616 14.7033673,7.33385717 15.4921562,7.46045294 C16.6802088,7.64547751 17.8926066,7.25595209 18.7349553,6.40873431 L18.7349553,6.40873431 Z"></path>
                            <path d="M12.2883097,12.2613537 C11.5043898,13.0452736 10.4283258,13.3520249 9.41069065,13.1913456 C8.7387593,13.0842262 8.09117329,12.7774749 7.57505211,12.2613537 C6.27501103,10.9613126 6.27501103,8.84813724 7.57505211,7.54809615 C8.09117329,7.03197498 8.7387593,6.72035464 9.41069065,6.61810422 C10.4283258,6.45742498 11.5043898,6.76417625 12.2883097,7.54809615 C13.5883508,8.84813724 13.5883508,10.9564436 12.2883097,12.2613537 L12.2883097,12.2613537 Z M12.5901919,12.5583668 C14.0557813,11.0927775 14.0557813,8.71180334 12.5901919,7.24621396 C11.7478432,6.40386524 10.5354453,6.00947075 9.34739277,6.19449533 C8.55860379,6.32109109 7.84285084,6.6814021 7.27803898,7.24621396 C5.8124496,8.71180334 5.8124496,11.0927775 7.27803898,12.5583668 C7.84285084,13.1231787 8.55860379,13.4834897 9.34739277,13.6100855 C10.5305762,13.79511 11.7429741,13.4055846 12.5901919,12.5583668 L12.5901919,12.5583668 Z"></path>
                            <path d="M6.10946273,18.4402007 C5.32554282,19.2241206 4.24947886,19.5308718 3.2318437,19.3701926 C2.55991236,19.2630731 1.91232635,18.9563218 1.39620517,18.4402007 C0.0961640876,17.1401596 0.0961640876,15.0269842 1.39620517,13.7269431 C1.91232635,13.2108219 2.55991236,12.8992016 3.2318437,12.7969512 C4.24947886,12.6362719 5.32554282,12.9430232 6.10946273,13.7269431 C7.40950381,15.0269842 7.40950381,17.1352905 6.10946273,18.4402007 L6.10946273,18.4402007 Z M6.41134493,18.7372138 C7.87693431,17.2716244 7.87693431,14.8906503 6.41134493,13.4250609 C5.56899621,12.5827122 4.35659835,12.1883177 3.16854582,12.3733423 C2.37975685,12.499938 1.6640039,12.860249 1.09919204,13.4250609 C-0.366397346,14.8906503 -0.366397346,17.2716244 1.09919204,18.7372138 C1.6640039,19.3020256 2.37975685,19.6623367 3.16854582,19.7889324 C4.35172928,19.973957 5.56412714,19.5844316 6.41134493,18.7372138 L6.41134493,18.7372138 Z"></path>
                        </g>
                        <polygon id="矩形" fill="#DF6601" transform="translate(29.814869, 22.501431) rotate(-45.000000) translate(-29.814869, -22.501431) " points="28.9749627 20.836226 30.6547749 20.836226 30.6547749 24.1666364 28.9749627 24.1666364"></polygon>
                        <polygon id="矩形" fill="#BC3B01" transform="translate(27.458129, 20.146117) rotate(-45.000000) translate(-27.458129, -20.146117) " points="26.6182229 18.4809119 28.2980351 18.4809119 28.2980351 21.8113223 26.6182229 21.8113223"></polygon>
                        <polygon id="矩形" fill="#263132" transform="translate(2.887027, 47.285251) rotate(135.000000) translate(-2.887027, -47.285251) " points="2.12015598 44.8410027 3.65389761 44.8410027 3.65389761 49.7294998 2.12015598 49.7294998"></polygon>
                    </g>
                    <g transform="translate(4.087521, 15.266962)" fill-rule="nonzero">
                        <g fill="#263132">
                            <rect id="矩形" x="0" y="4.25799973" width="20.0459518" height="1"></rect>
                            <rect id="矩形" x="0" y="7.65173993" width="20.0459518" height="1"></rect>
                            <rect id="矩形" x="0" y="2.55869509" width="20.0459518" height="1"></rect>
                            <rect id="矩形" x="0" y="3.41078194" width="20.0459518" height="1"></rect>
                            <rect id="矩形" x="0" y="6.79965308" width="20.0459518" height="1"></rect>
                            <rect id="矩形" x="0" y="5.95243529" width="20.0459518" height="1"></rect>
                            <path d="M0.0146072032,2.1350862 L20.0313446,2.1350862 C20.0167374,1.98901417 19.987523,1.8478112 19.9437014,1.71147731 L0.102250422,1.71147731 C0.0632978804,1.8478112 0.0340834741,1.98901417 0.0146072032,2.1350862 Z" id="路径"></path>
                            <rect id="矩形" x="0" y="5.10521751" width="20.0459518" height="1"></rect>
                            <path d="M17.7039303,0.0462561434 L2.34689064,0.0462561434 C1.86485294,0.0462561434 1.41689871,0.192328175 1.04198049,0.440650629 L19.0039713,0.440650629 C18.6339222,0.192328175 18.185968,0.0462561434 17.7039303,0.0462561434 Z" id="路径"></path>
                            <path d="M0.569680924,0.864259521 C0.457692366,0.99572435 0.360311012,1.13692731 0.27753686,1.28786841 L19.773284,1.28786841 C19.6905099,1.13692731 19.5931285,0.99572435 19.48114,0.864259521 L0.569680924,0.864259521 Z" id="路径"></path>
                            <rect id="矩形" x="0" y="7.22813104" width="20.0459518" height="1"></rect>
                            <rect id="矩形" x="0" y="6.37604419" width="20.0459518" height="1"></rect>
                            <rect id="矩形" x="0" y="5.5288264" width="20.0459518" height="1"></rect>
                            <rect id="矩形" x="0" y="4.68160862" width="20.0459518" height="1"></rect>
                            <rect id="矩形" x="0" y="3.83439083" width="20.0459518" height="1"></rect>
                            <rect id="矩形" x="0" y="2.98230398" width="20.0459518" height="1"></rect>
                            <path d="M0,2.38827772 L0,2.55869509 L20.0459518,2.55869509 L20.0459518,2.38827772 C20.0459518,2.3006345 20.0410828,2.21786035 20.0313446,2.1350862 L0.0146072032,2.1350862 C0.00973813545,2.21786035 0,2.30550357 0,2.38827772 Z" id="路径"></path>
                            <path d="M0.102250422,1.71147731 L19.9485705,1.71147731 C19.9047489,1.56540527 19.84632,1.41933324 19.773284,1.28786841 L0.27753686,1.28786841 C0.204500844,1.42420231 0.146072032,1.56540527 0.102250422,1.71147731 Z" id="路径"></path>
                            <path d="M19.0039713,0.440650629 L1.04684956,0.440650629 C0.871563123,0.557508255 0.710883888,0.703580286 0.569680924,0.864259521 L19.48114,0.864259521 C19.3448061,0.703580286 19.1841268,0.557508255 19.0039713,0.440650629 Z" id="路径"></path>
                        </g>
                        <path d="M0,8.07534882 L0,26.0762922 C0,27.3714642 1.05171863,28.4231828 2.34689064,28.4231828 L17.7039303,28.4231828 C18.9991023,28.4231828 20.0508209,27.3714642 20.0508209,26.0762922 L20.0508209,8.07534882 L0,8.07534882 Z" id="路径" fill="#263132"></path>
                        <path d="M16.7057714,27.1474871 L3.34504953,27.1474871 C2.24950929,27.1474871 1.36333896,26.2564477 1.36333896,25.1657765 L1.36333896,11.0649564 C1.36333896,9.96941617 2.25437836,9.08324584 3.34504953,9.08324584 L16.7106404,9.08324584 C17.8061807,9.08324584 18.692351,9.97428524 18.692351,11.0649564 L18.692351,25.1609075 C18.692351,26.2564477 17.8013116,27.1474871 16.7057714,27.1474871 Z M3.34504953,9.50685473 C2.48322454,9.50685473 1.78694786,10.2080005 1.78694786,11.0649564 L1.78694786,25.1609075 C1.78694786,26.0227325 2.48809361,26.7190091 3.34504953,26.7190091 L16.7106404,26.7190091 C17.5724654,26.7190091 18.2687421,26.0178634 18.2687421,25.1609075 L18.2687421,11.0649564 C18.2687421,10.2031314 17.5675964,9.50685473 16.7106404,9.50685473 L3.34504953,9.50685473 Z" id="形状" fill="#34595F"></path>
                        <path d="M14.3588807,16.6303008 C14.3588807,19.0356203 12.4112536,20.9832474 10.0059342,20.9832474 C7.60061472,20.9832474 5.65298763,19.0356203 5.65298763,16.6303008 C5.65298763,14.2249814 7.60061472,12.2773543 10.0059342,12.2773543 C12.4112536,12.2773543 14.3588807,14.2298504 14.3588807,16.6303008 Z" id="路径" fill="#151C1C"></path>
                        <path d="M17.2267616,21.8255961 C17.2267616,22.3709317 16.7836765,22.8091478 16.2432099,22.8091478 C15.6978743,22.8091478 15.2596583,22.3660626 15.2596583,21.8255961 C15.2596583,21.2802605 15.7027434,20.8420444 16.2432099,20.8420444 C16.7836765,20.8420444 17.2267616,21.2851296 17.2267616,21.8255961 Z" id="路径" fill="#151C1C"></path>
                        <path d="M17.2267616,19.2936809 C17.2267616,19.8390164 16.7836765,20.2772325 16.2432099,20.2772325 C15.6978743,20.2772325 15.2596583,19.8341474 15.2596583,19.2936809 C15.2596583,18.7483453 15.7027434,18.3101292 16.2432099,18.3101292 C16.7836765,18.3101292 17.2267616,18.7483453 17.2267616,19.2936809 Z" id="路径" fill="#151C1C"></path>
                        <circle id="椭圆形" fill="#24BFFF" cx="3.80274189" cy="19.2936809" r="1"></circle>
                        <path d="M17.2267616,24.3623804 C17.2267616,24.907716 16.7836765,25.345932 16.2432099,25.345932 C15.6978743,25.345932 15.2596583,24.9028469 15.2596583,24.3623804 C15.2596583,23.8170448 15.7027434,23.3788287 16.2432099,23.3788287 C16.7836765,23.3739596 17.2267616,23.8170448 17.2267616,24.3623804 Z" id="路径" fill="#151C1C"></path>
                        <g transform="translate(6.714444, 13.343680)" id="路径">
                            <path d="M3.29148978,0 C1.47532752,0 0,1.47532752 0,3.29148978 C0,4.00724274 0.233715251,4.66943595 0.618371601,5.20990247 L5.2050334,0.623240669 C4.66943595,0.228846183 4.00724274,0 3.29148978,0 Z" fill="#263132"></path>
                            <path d="M6.00842957,1.43150591 L1.43637498,6.00356051 C1.96710336,6.36387152 2.60495123,6.5781105 3.29148978,6.5781105 C5.10765204,6.5781105 6.58297957,5.10278298 6.58297957,3.28662071 C6.58297957,2.60008217 6.36874059,1.96223429 6.00842957,1.43150591 Z" fill="#263132"></path>
                            <path d="M5.20990247,0.618371601 L0.623240669,5.2050334 C0.847217784,5.51665373 1.11988558,5.78445246 1.43637498,6.00356051 L6.00842957,1.43150591 C5.78932153,1.11501651 5.5215228,0.842348717 5.20990247,0.618371601 Z" fill="#34595F"></path>
                        </g>
                        <polygon id="路径" fill="#151C1C" points="12.2018837 15.0186394 11.7101079 14.5317326 12.2018837 14.5317326"></polygon>
                        <rect id="矩形" fill="#34595F" x="2.81919021" y="21.8255961" width="7.90736599" height="1"></rect>
                        <rect id="矩形" fill="#34595F" x="9.26096681" y="10.9237534" width="1.48506566" height="1"></rect>
                        <rect id="矩形" fill="#34595F" x="2.81919021" y="22.8773147" width="7.90736599" height="1"></rect>
                        <rect id="矩形" fill="#34595F" x="2.81919021" y="23.9339024" width="7.90736599" height="1"></rect>
                        <rect id="矩形" fill="#34595F" x="2.81919021" y="24.985621" width="7.90736599" height="1"></rect>
                        <path d="M18.3612544,2.79727941 C18.190837,2.65120738 17.976598,2.55869509 17.7331447,2.55869509 L2.31767624,2.55869509 C2.03040124,2.55869509 1.77234065,2.69015992 1.59705421,2.8897917 C1.45098218,3.06020907 1.3584699,3.27444805 1.3584699,3.51303236 L1.3584699,5.47039759 C1.3584699,5.69924377 1.44124405,5.90374462 1.57270888,6.06929292 C1.74799531,6.2835319 2.01092497,6.42473486 2.31280717,6.42473486 L17.7331447,6.42473486 C18.0252887,6.42473486 18.2833493,6.29327004 18.4586357,6.08390012 C18.5998387,5.91835182 18.692351,5.70411284 18.692351,5.46552852 L18.692351,3.51790143 C18.692351,3.23062644 18.5608862,2.97743491 18.3612544,2.79727941 Z" id="路径" fill="#18979E"></path>
                        <path d="M2.31767624,2.55869509 L17.7380137,2.55869509 C17.9814671,2.55869509 18.1957061,2.65120738 18.3661235,2.79727941 L18.8140777,2.34932518 C18.5316718,2.08639552 18.1518845,1.92084722 17.7380137,1.92084722 L2.31767624,1.92084722 C1.8551148,1.92084722 1.44124405,2.12534806 1.14909998,2.44183746 L1.59705421,2.8897917 C1.77234065,2.69015992 2.02553217,2.55869509 2.31767624,2.55869509 Z" id="路径" fill="#AEBDBF"></path>
                        <path d="M1.3584699,5.47526666 L1.3584699,3.51790143 C1.3584699,3.27931711 1.45098218,3.06020907 1.59705421,2.89466076 L1.14909998,2.44670653 C0.886170326,2.72911246 0.725491091,3.10403068 0.725491091,3.5227705 L0.725491091,5.48013573 C0.725491091,5.88426835 0.881301258,6.24944843 1.12962371,6.52698529 L1.57757794,6.07903106 C1.44124405,5.90861369 1.3584699,5.70411284 1.3584699,5.47526666 Z" id="路径" fill="#34595F"></path>
                        <path d="M19.3301989,3.51790143 C19.3301989,3.05534 19.1305671,2.64146924 18.8140777,2.34932518 L18.3661235,2.79727941 C18.5657552,2.97256585 18.6972201,3.22575737 18.6972201,3.51303236 L18.6972201,5.47039759 C18.6972201,5.70898191 18.6095768,5.91835182 18.4635048,6.08876919 L18.911459,6.53672342 C19.1695196,6.25431749 19.3301989,5.87939928 19.3301989,5.47039759 L19.3301989,3.51790143 Z" id="路径" fill="#34595F"></path>
                        <path d="M17.7331447,6.42960393 L2.31767624,6.42960393 C2.01579404,6.42960393 1.75286438,6.28840097 1.57757794,6.07416199 L1.12962371,6.52211622 C1.42176778,6.85321282 1.84537667,7.0674518 2.31767624,7.0674518 L17.7380137,7.0674518 C18.2054442,7.0674518 18.619315,6.86295096 18.911459,6.54159249 L18.4635048,6.09363826 C18.2833493,6.2981391 18.0252887,6.42960393 17.7331447,6.42960393 Z" id="路径" fill="#151C1C"></path>
                        <g transform="translate(7.771032, 2.894661)" fill="#151C1C">
                            <path d="M1.24648134,0 C1.45585125,0 1.63600676,0.0389525418 1.79181692,0.121726693 C1.94762709,0.204500844 2.07909192,0.316489402 2.18134234,0.462561434 C2.28359276,0.608633466 2.36149785,0.783919904 2.41505759,0.983551681 C2.46374827,1.18318346 2.49296268,1.4022915 2.49296268,1.64574489 C2.49296268,1.88432921 2.46861734,2.10343726 2.41505759,2.30306903 C2.36149785,2.50756988 2.28359276,2.67798725 2.18134234,2.82405928 C2.07909192,2.97013131 1.94762709,3.08211987 1.78694786,3.16489402 C1.63113769,3.24766817 1.44611311,3.28662071 1.24161227,3.28662071 C1.03224236,3.28662071 0.852086852,3.24766817 0.701145752,3.16489402 C0.545335585,3.08211987 0.418739824,2.97013131 0.311620334,2.82405928 C0.209369912,2.67798725 0.131464829,2.50756988 0.0779050836,2.30306903 C0.0243453386,2.09856819 0,1.87946014 0,1.64574489 C0,1.40716057 0.0243453386,1.18318346 0.0779050836,0.983551681 C0.131464829,0.783919904 0.209369912,0.608633466 0.311620334,0.462561434 C0.413870757,0.316489402 0.545335585,0.199631777 0.701145752,0.121726693 C0.85695592,0.0389525418 1.04198049,0 1.24648134,0 Z M1.24161227,0.433347028 C1.01276609,0.433347028 0.837479649,0.53559745 0.710883888,0.735229227 C0.584288127,0.934861003 0.516121179,1.24161227 0.516121179,1.65061396 C0.516121179,2.05961565 0.579419059,2.36149785 0.710883888,2.56112962 C0.837479649,2.7607614 1.01763515,2.85814275 1.24161227,2.85814275 C1.47045845,2.85814275 1.64574489,2.7607614 1.76747158,2.56112962 C1.89406735,2.36149785 1.95249616,2.05961565 1.95249616,1.65061396 C1.95249616,1.24161227 1.88919828,0.939730071 1.76747158,0.735229227 C1.64574489,0.530728382 1.47045845,0.433347028 1.24161227,0.433347028 Z" id="形状"></path>
                            <path d="M4.20687451,0 C4.41624443,0 4.59639993,0.0389525418 4.7522101,0.121726693 C4.90802027,0.204500844 5.0394851,0.316489402 5.14173552,0.462561434 C5.24398594,0.608633466 5.32189102,0.783919904 5.37545077,0.983551681 C5.42414145,1.18318346 5.45335585,1.4022915 5.45335585,1.64574489 C5.45335585,1.88432921 5.42901051,2.10343726 5.37545077,2.30306903 C5.32189102,2.50756988 5.24398594,2.67798725 5.14173552,2.82405928 C5.0394851,2.97013131 4.90802027,3.08211987 4.74734103,3.16489402 C4.59153087,3.24766817 4.40650629,3.28662071 4.20200545,3.28662071 C3.99263554,3.28662071 3.81248003,3.24766817 3.66153893,3.16489402 C3.50572876,3.08211987 3.379133,2.97013131 3.27201351,2.82405928 C3.16976309,2.67798725 3.09185801,2.50756988 3.03829826,2.30306903 C2.98473852,2.09856819 2.96039318,1.87946014 2.96039318,1.64574489 C2.96039318,1.40716057 2.98473852,1.18318346 3.03829826,0.983551681 C3.09185801,0.783919904 3.16976309,0.608633466 3.27201351,0.462561434 C3.37426393,0.316489402 3.50572876,0.199631777 3.66153893,0.121726693 C3.8173491,0.0389525418 4.00237367,0 4.20687451,0 Z M4.20200545,0.433347028 C3.97315926,0.433347028 3.79787283,0.53559745 3.67127707,0.735229227 C3.5446813,0.934861003 3.47651436,1.24161227 3.47651436,1.65061396 C3.47651436,2.05961565 3.53981224,2.36149785 3.67127707,2.56112962 C3.79787283,2.7607614 3.97802833,2.85814275 4.20200545,2.85814275 C4.43085163,2.85814275 4.60613807,2.7607614 4.72786476,2.56112962 C4.85446052,2.36149785 4.91288934,2.05961565 4.91288934,1.65061396 C4.91288934,1.24161227 4.84959145,0.939730071 4.72786476,0.735229227 C4.60613807,0.530728382 4.43085163,0.433347028 4.20200545,0.433347028 Z" id="形状"></path>
                            <path d="M5.99869144,3.23306097 C5.99382237,3.18923936 5.98408423,3.14054868 5.97921517,3.09672707 C5.9743461,3.05290546 5.96947703,3.00908385 5.96947703,2.96039318 C5.96947703,2.9117025 5.9743461,2.86788089 5.97921517,2.81919021 C5.98408423,2.77049954 5.9889533,2.72667793 5.99869144,2.67798725 C6.04251305,2.67311818 6.09120372,2.66824911 6.13502533,2.66338005 C6.17884694,2.65851098 6.22266855,2.65851098 6.27135923,2.65851098 C6.31518084,2.65851098 6.36387152,2.65851098 6.40769313,2.66338005 C6.45151474,2.66824911 6.50020541,2.67311818 6.54402702,2.67798725 C6.54889609,2.72180886 6.55376516,2.77049954 6.56350329,2.81432115 C6.56837236,2.85814275 6.57324143,2.90683343 6.57324143,2.95065504 C6.57324143,2.99447665 6.57324143,3.04316733 6.56350329,3.08698894 C6.55863423,3.13081055 6.55376516,3.17950122 6.54402702,3.22332283 C6.49533635,3.2281919 6.45151474,3.23306097 6.40769313,3.23793004 C6.36387152,3.24279911 6.32004991,3.24279911 6.27135923,3.24279911 C6.22266855,3.24279911 6.17884694,3.24279911 6.13502533,3.23793004 C6.09120372,3.24279911 6.04738212,3.23793004 5.99869144,3.23306097 Z" id="路径"></path>
                            <path d="M8.36018929,0 C8.5695592,0 8.7497147,0.0389525418 8.90552487,0.121726693 C9.06133504,0.204500844 9.19279987,0.316489402 9.29505029,0.462561434 C9.39730071,0.608633466 9.47520579,0.783919904 9.52876554,0.983551681 C9.58232528,1.18318346 9.60667062,1.4022915 9.60667062,1.64574489 C9.60667062,1.88432921 9.58232528,2.10343726 9.52876554,2.30306903 C9.47520579,2.50756988 9.39730071,2.67798725 9.29505029,2.82405928 C9.19279987,2.97013131 9.06133504,3.08211987 8.9006558,3.16489402 C8.74484564,3.24766817 8.55982106,3.28662071 8.35045115,3.28662071 C8.14108124,3.28662071 7.96092573,3.24766817 7.80998463,3.16489402 C7.65417446,3.08211987 7.5275787,2.97013131 7.42045921,2.82405928 C7.31820879,2.67798725 7.24030371,2.50756988 7.18674396,2.30306903 C7.13318422,2.09856819 7.10883888,1.87946014 7.10883888,1.64574489 C7.10883888,1.40716057 7.13318422,1.18318346 7.18674396,0.983551681 C7.24030371,0.783919904 7.31820879,0.608633466 7.42045921,0.462561434 C7.52270964,0.316489402 7.65417446,0.199631777 7.80998463,0.121726693 C7.97066387,0.0389525418 8.15081937,0 8.36018929,0 Z M8.35532022,0.433347028 C8.12647403,0.433347028 7.9511876,0.53559745 7.82459184,0.735229227 C7.69799607,0.934861003 7.62982913,1.24161227 7.62982913,1.65061396 C7.62982913,2.05961565 7.69312701,2.36149785 7.82459184,2.56112962 C7.9511876,2.7607614 8.1313431,2.85814275 8.35532022,2.85814275 C8.5841664,2.85814275 8.75945284,2.7607614 8.88117953,2.56112962 C9.00777529,2.36149785 9.06620411,2.05961565 9.06620411,1.65061396 C9.06620411,1.24161227 9.00290622,0.939730071 8.88117953,0.735229227 C8.75945284,0.530728382 8.5841664,0.433347028 8.35532022,0.433347028 Z" id="形状"></path>
                        </g>
                        <g opacity="0.39" transform="translate(1.358470, 2.553826)" fill="#FFFFFF" id="路径">
                            <g>
                                <path d="M0.959206342,0.00486906773 C0.671931346,0.00486906773 0.413870757,0.136333896 0.238584319,0.335965673 C0.0925122868,0.506383043 0,0.720622023 0,0.959206342 L0,2.91657157 C0,3.14541775 0.0827741513,3.3499186 0.21423898,3.5154669 C0.389525418,3.72970588 0.652455075,3.87090884 0.954337274,3.87090884 L6.7290516,3.87090884 L10.5999604,0 L0.959206342,0 L0.959206342,0.00486906773 Z"></path>
                            </g>
                        </g>
                    </g>
                    <g transform="translate(27.298367, 18.794601)" fill-rule="nonzero">
                        <g transform="translate(0.000000, 2.025532)">
                            <path d="M1.92815082,3.20871563 L1.92815082,3.20871563 C1.74312625,3.20871563 1.59705421,3.0626436 1.59705421,2.87761903 L1.59705421,0.331096605 C1.59705421,0.146072032 1.74312625,0 1.92815082,0 L1.92815082,0 C2.11317539,0 2.25924742,0.146072032 2.25924742,0.331096605 L2.25924742,2.87761903 C2.25924742,3.0626436 2.10830633,3.20871563 1.92815082,3.20871563 Z" id="路径" fill="#34595F"></path>
                            <polygon id="路径" fill="#F6980D" points="3.03829826 20.4939061 0.81313431 20.4939061 0.81313431 5.64811856 1.2367432 2.3079381 2.61468937 2.3079381 3.03829826 5.59455882"></polygon>
                            <rect id="矩形" fill="#FFBF00" x="0" y="5.27806941" width="3.85143257" height="1.00789702"></rect>
                            <g opacity="0.39" transform="translate(0.000000, 2.307938)" fill="#FFFFFF" id="路径">
                                <g>
                                    <polygon points="1.2367432 0 0.861824987 2.97013131 0 2.97013131 0 3.97802833 0.81313431 3.97802833 0.81313431 18.185968 1.92815082 18.185968 1.92815082 0"></polygon>
                                </g>
                            </g>
                        </g>
                        <g transform="translate(3.320704, 0.000000)">
                            <path d="M1.92815082,3.2135847 L1.92815082,3.2135847 C1.74312625,3.2135847 1.59705421,3.06751267 1.59705421,2.88248809 L1.59705421,0.331096605 C1.59705421,0.146072032 1.74312625,0 1.92815082,0 L1.92815082,0 C2.11317539,0 2.25924742,0.146072032 2.25924742,0.331096605 L2.25924742,2.87761903 C2.25924742,3.0626436 2.11317539,3.2135847 1.92815082,3.2135847 Z" id="路径" fill="#34595F"></path>
                            <polygon id="路径" fill="#263132" points="3.04316733 20.4939061 0.81313431 20.4939061 0.81313431 5.65298763 1.24161227 2.31280717 2.61955844 2.31280717 3.04316733 5.59942788"></polygon>
                            <rect id="矩形" fill="#334142" x="0" y="5.27806941" width="3.85143257" height="1.00789702"></rect>
                            <g opacity="0.39" transform="translate(0.000000, 2.312807)" fill="#FFFFFF" id="路径">
                                <g>
                                    <polygon points="1.24161227 0 0.861824987 2.96526224 0 2.96526224 0 3.97315926 0.81313431 3.97315926 0.81313431 18.1810989 1.92815082 18.1810989 1.92815082 0"></polygon>
                                </g>
                            </g>
                        </g>
                    </g>
                    <g transform="translate(42.717488, 14.582858)" fill-rule="nonzero">
                        <polygon id="矩形" fill="#009DDB" transform="translate(16.625731, 16.043968) rotate(-45.000000) translate(-16.625731, -16.043968) " points="4.2413762 13.4950352 29.0100862 13.4950352 29.0100862 18.5929002 4.2413762 18.5929002"></polygon>
                        <g opacity="0.77" transform="translate(6.064146, 5.483947)" fill="#FFFFFF" id="矩形">
                            <polygon transform="translate(9.168490, 9.168490) rotate(-45.000000) translate(-9.168490, -9.168490) " points="-3.21586492 8.58664206 21.5528451 8.58664206 21.5528451 9.75033808 -3.21586492 9.75033808"></polygon>
                        </g>
                        <path d="M22.3648453,12.2749197 L12.850687,21.7890781 C12.3053514,22.3344137 11.4240502,22.3344137 10.8787146,21.7890781 L10.8787146,21.7890781 C10.333379,21.2437425 10.333379,20.3624412 10.8787146,19.8171056 L20.3928729,10.3029473 C20.9382085,9.75761172 21.8195097,9.75761172 22.3648453,10.3029473 L22.3648453,10.3029473 C22.9101809,10.8482829 22.9101809,11.7295842 22.3648453,12.2749197 Z" id="路径" fill="#0076A4"></path>
                        <path d="M1.74921258,22.4707476 C-0.58307086,24.803031 -0.58307086,28.5862966 1.74921258,30.9234491 C2.22638122,31.4006178 2.76684774,31.775536 3.33652866,32.0579419 L3.33652866,27.2278267 L5.96582523,25.0805679 L8.5951218,27.2278267 L8.5951218,32.062811 C9.17454086,31.780405 9.71500738,31.4054868 10.1970451,30.9234491 C12.5293285,28.5911657 12.5293285,24.8079001 10.1970451,22.4707476 C7.86476164,20.1384641 4.08149602,20.1384641 1.74921258,22.4707476 Z" id="路径" fill="#24BFFF"></path>
                        <path d="M31.5284308,9.59206342 C33.8607142,7.25977998 33.8607142,3.47651436 31.5284308,1.13936185 C31.0512622,0.662193211 30.5107956,0.287274996 29.9411147,0.00486906773 L29.9411147,4.83498425 L27.3118181,6.98224312 L24.6825216,4.83498425 L24.6825216,0 C24.1031025,0.282405928 23.562636,0.657324143 23.0805983,1.13936185 C20.7483148,3.47164529 20.7483148,7.25491091 23.0805983,9.59206342 C25.4128817,11.9243469 29.1961474,11.9243469 31.5284308,9.59206342 Z" id="路径" fill="#24BFFF"></path>
                        <path d="M20.6217191,12.6060163 L13.1817836,20.0459518 C13.0259734,20.201762 12.777651,20.201762 12.6218408,20.0459518 L12.6218408,20.0459518 C12.4660306,19.8901417 12.4660306,19.6418192 12.6218408,19.486009 L20.0617763,12.0460736 C20.2175865,11.8902634 20.4659089,11.8902634 20.6217191,12.0460736 L20.6217191,12.0460736 C20.7775293,12.2018837 20.7775293,12.4502062 20.6217191,12.6060163 Z" id="路径" fill="#24BFFF"></path>
                        <g opacity="0.77" transform="translate(0.000000, 20.722752)" fill="#FFFFFF" id="路径">
                            <g>
                                <path d="M1.74921258,1.74799531 C-0.58307086,4.08027875 -0.58307086,7.86354438 1.74921258,10.2006969 C2.22638122,10.6778655 2.76684774,11.0527837 3.33652866,11.3351897 L3.33652866,6.50507448 L5.96582523,4.35781561 L5.96582523,0 C4.43693797,0 2.91291977,0.584288127 1.74921258,1.74799531 Z"></path>
                            </g>
                        </g>
                        <path d="M31.5332999,9.59693249 C33.8655833,7.26464905 33.8655833,3.48138342 31.5332999,1.14423092 C31.0561312,0.667062278 30.5156647,0.292144064 29.9459838,0.00973813545 L29.9459838,4.83985332 L27.3166872,6.98711219 L27.3166872,11.3497969 C28.8407054,11.3449278 30.3695927,10.7606397 31.5332999,9.59693249 Z" id="路径" fill="#009DDB"></path>
                        <path d="M9.41312518,27.2278267 L9.41312518,26.8383013 L9.11124298,26.5948479 L6.48194641,24.4475891 L5.96582523,24.0288492 L5.44970405,24.4475891 L2.82040748,26.5948479 L2.51852528,26.8383013 L2.51852528,27.2278267 L2.51852528,30.5290546 L2.51852528,31.5710351 C2.78145494,31.7560597 3.05412273,31.9167389 3.33652866,32.0579419 L3.33652866,27.2278267 L5.96582523,25.0805679 L8.5951218,27.2278267 L8.5951218,32.062811 C8.87752773,31.9264771 9.15019552,31.7657978 9.41312518,31.5807733 L9.41312518,30.5387928 L9.41312518,27.2278267 Z" id="路径" fill="#009DDB"></path>
                        <path d="M29.9411147,0.00973813545 L29.9411147,4.83985332 L27.3118181,6.98711219 L24.6825216,4.83985332 L24.6825216,0.00486906773 C24.4001156,0.141202964 24.1274478,0.301882199 23.8645182,0.486906773 L23.8645182,1.52888727 L23.8645182,4.83985332 L23.8645182,5.22937874 L24.1664004,5.47283212 L26.795697,7.62009099 L27.3118181,8.03883082 L27.8279393,7.62009099 L30.4572359,5.47283212 L30.7591181,5.22937874 L30.7591181,4.83985332 L30.7591181,1.5386254 L30.7591181,0.511252111 C30.4913194,0.316489402 30.2235206,0.146072032 29.9411147,0.00973813545 Z" id="路径" fill="#009DDB"></path>
                    </g>
                    <g transform="translate(48.352216, 0.000000)" fill-rule="nonzero">
                        <path d="M6.58297957,1.35360083 L6.58297957,1.35360083 C6.58297957,1.60192328 6.38334779,1.80642413 6.13015627,1.80642413 L2.95065504,1.80642413 C2.70233259,1.80642413 2.49783174,1.60679235 2.49783174,1.35360083 L2.49783174,1.35360083 C2.49783174,1.10527837 2.69746352,0.900777529 2.95065504,0.900777529 L6.13015627,0.900777529 C6.38334779,0.900777529 6.58297957,1.10527837 6.58297957,1.35360083 Z" id="路径" fill="#00B8AC"></path>
                        <path d="M6.58297957,3.53981224 L6.58297957,3.53981224 C6.58297957,3.78813469 6.38334779,3.99263554 6.13015627,3.99263554 L2.95065504,3.99263554 C2.70233259,3.99263554 2.49783174,3.79300376 2.49783174,3.53981224 L2.49783174,3.53981224 C2.49783174,3.29148978 2.69746352,3.08698894 2.95065504,3.08698894 L6.13015627,3.08698894 C6.38334779,3.08698894 6.58297957,3.28662071 6.58297957,3.53981224 Z" id="路径" fill="#00B8AC"></path>
                        <path d="M4.54284019,4.888544 L2.444272,4.888544 C1.09554024,4.888544 0,3.79300376 0,2.444272 L0,2.444272 C0,1.09554024 1.09554024,0 2.444272,0 L4.54284019,0 L4.54284019,4.888544 Z" id="路径" fill="#34595F"></path>
                        <rect id="矩形" fill="#263132" x="3.00908385" y="0" width="1.53375633" height="4.888544"></rect>
                    </g>
                    <g transform="translate(40.268736, 9.090549)" fill-rule="nonzero">
                        <path d="M1.35442857,0 L1.35442857,0 C1.60275102,0 1.80725187,0.199631777 1.80725187,0.452823298 L1.80725187,3.63232452 C1.80725187,3.88064698 1.60762009,4.08514782 1.35442857,4.08514782 L1.35442857,4.08514782 C1.10610612,4.08514782 0.901605271,3.88551605 0.901605271,3.63232452 L0.901605271,0.452823298 C0.901605271,0.204500844 1.10123705,0 1.35442857,0 Z" id="路径" fill="#00B8AC"></path>
                        <path d="M3.53577091,0 L3.53577091,0 C3.78409336,0 3.98859421,0.199631777 3.98859421,0.452823298 L3.98859421,3.63232452 C3.98859421,3.88064698 3.78896243,4.08514782 3.53577091,4.08514782 L3.53577091,4.08514782 C3.28744846,4.08514782 3.08294761,3.88551605 3.08294761,3.63232452 L3.08294761,0.452823298 C3.08781668,0.204500844 3.28744846,0 3.53577091,0 Z" id="路径" fill="#00B8AC"></path>
                        <path d="M4.88937174,2.04500844 L4.88937174,4.14357663 C4.88937174,5.49230839 3.7938315,6.58784863 2.44509974,6.58784863 L2.44509974,6.58784863 C1.09636798,6.58784863 0.000827741513,5.49230839 0.000827741513,4.14357663 L0.000827741513,2.04500844 L4.88937174,2.04500844 L4.88937174,2.04500844 Z" id="路径" fill="#126080"></path>
                        <polygon id="矩形" fill="#24BFFF" transform="translate(2.444272, 2.812860) rotate(-90.000000) translate(-2.444272, -2.812860) " points="1.67739383 0.368588427 3.21115017 0.368588427 3.21115017 5.25713242 1.67739383 5.25713242"></polygon>
                    </g>
                    <g transform="translate(14.843292, 5.196707)" fill-rule="nonzero">
                        <path d="M0,3.53840021 L0,3.53840021 C0,3.29007775 0.199631777,3.08557691 0.452823298,3.08557691 L3.63232452,3.08557691 C3.88064698,3.08557691 4.08514782,3.28520869 4.08514782,3.53840021 L4.08514782,3.53840021 C4.08514782,3.78672266 3.88551605,3.99122351 3.63232452,3.99122351 L0.452823298,3.99122351 C0.199631777,3.99122351 0,3.78672266 0,3.53840021 Z" id="路径" fill="#00B8AC"></path>
                        <path d="M0,1.3521888 L0,1.3521888 C0,1.10386634 0.199631777,0.8993655 0.452823298,0.8993655 L3.63232452,0.8993655 C3.88064698,0.8993655 4.08514782,1.09899728 4.08514782,1.3521888 L4.08514782,1.3521888 C4.08514782,1.60051125 3.88551605,1.8050121 3.63232452,1.8050121 L0.452823298,1.8050121 C0.199631777,1.8050121 0,1.60051125 0,1.3521888 Z" id="路径" fill="#00B8AC"></path>
                        <path d="M2.04013938,0.00345703809 L4.13870757,0.00345703809 C5.48743933,0.00345703809 6.58297957,1.09899728 6.58297957,2.44772904 L6.58297957,2.44772904 C6.58297957,3.7964608 5.48743933,4.89200103 4.13870757,4.89200103 L2.04013938,4.89200103 L2.04013938,0.00345703809 Z" id="路径" fill="#81C0CC"></path>
                        <rect id="矩形" fill="#5D7A7F" transform="translate(2.806385, 2.444272) rotate(-180.000000) translate(-2.806385, -2.444272) " x="2.0395064" y="0" width="1.53375633" height="4.888544"></rect>
                    </g>
                    <path d="M45.6888361,63.6046317 L45.6888361,62.7184614 L44.5640815,63.8286088 L44.1063891,64.276563 L45.0169048,64.276563 C45.3869539,64.276563 45.6888361,63.9795499 45.6888361,63.6046317 Z" id="路径" fill="#D0F1FF" fill-rule="nonzero"></path>
                    <path d="M66.6842562,37.8959541 L61.8054503,42.77476 L61.6009495,42.9792608 L61.6009495,45.4965688 L61.6009495,48.0479603 C61.6009495,49.9907183 60.271694,51.6267251 58.475008,52.0941556 L58.475008,52.1185009 L58.475008,54.9474293 L58.475008,62.4701389 L58.5334368,62.5285677 L63.7141249,57.3478797 C63.9234948,57.1385098 64.0403524,56.8512348 64.0062689,56.5590907 C63.9867927,56.3935424 64.0354833,56.218256 64.1620791,56.0867911 C64.2740676,55.9796716 64.4152706,55.9261119 64.5564736,55.9261119 C64.5808189,55.9261119 64.6051643,55.9261119 64.6295096,55.930981 C64.6635931,55.93585 64.7025456,55.93585 64.7366291,55.93585 C64.9898206,55.93585 65.233274,55.8189924 65.4182986,55.6388369 L66.5625295,54.494606 C67.1857701,52.7076581 67.6726769,50.8622815 68.0086426,48.958476 L67.9209994,48.8708328 L68.0427261,48.7491061 C68.256965,47.5074938 68.4030371,46.2512743 68.4858112,44.9707095 L66.2509091,47.2056116 L65.7153117,46.6700142 L68.539371,43.8459549 C68.5539782,43.4466913 68.5685854,43.0474278 68.5685854,42.6481642 C68.5685854,41.9421494 68.54424,41.2410036 68.5004184,40.549596 L64.0452215,45.004793 L63.4706715,44.430243 L68.3494773,39.5514371 C68.3738227,39.5270918 68.3932989,39.4930083 68.4176443,39.468663 C68.3689536,38.9038511 68.3056557,38.3439083 68.2277506,37.7888346 C68.0183807,37.6281554 67.7651892,37.5405122 67.5119977,37.5405122 C67.2149846,37.5502503 66.9131024,37.6671079 66.6842562,37.8959541 Z" id="路径" fill="#D0F1FF" fill-rule="nonzero"></path>
                    <path d="M59.482905,48.0479603 L59.482905,45.4965688 L59.482905,45.0973053 L59.4001309,45.1800794 L59.4001309,45.1800794 L59.4001309,45.1800794 L59.4001309,45.1800794 L59.4001309,45.1800794 L59.3319639,44.4156358 C59.3563092,44.3815523 59.3709164,44.3425998 59.4001309,44.3133854 L59.3319639,44.3815523 L59.3319639,44.3815523 L59.482905,44.2306112 L59.482905,42.9451773 C59.482905,42.3803655 59.2540588,41.8642443 58.8840097,41.4941952 L57.3015627,43.0766422 L55.5000076,44.8781972 C54.3411695,46.0370353 54.3411695,47.9213646 55.5000076,49.0802027 L55.602258,48.9779523 C55.3928881,49.1873222 55.2760305,49.4745972 55.310114,49.7618722 C55.3344593,49.9274205 55.2808996,50.1027069 55.1543038,50.2341717 C55.0423152,50.3412912 54.9011123,50.394851 54.7599093,50.394851 C54.735564,50.394851 54.7112186,50.394851 54.6868733,50.3899819 C54.6527898,50.3851128 54.6138373,50.3851128 54.5797538,50.3851128 C54.3265623,50.3851128 54.0831089,50.5019705 53.8980843,50.682126 L52.3253755,52.2548348 C52.1160055,52.4642047 51.9991479,52.7514797 52.0332314,53.0436238 C52.0527077,53.2091721 52.004017,53.3844585 51.8774212,53.5159234 C51.7654327,53.6230429 51.6242297,53.6766026 51.4830267,53.6766026 C51.4586814,53.6766026 51.4343361,53.6766026 51.4099907,53.6717335 C51.3759072,53.6668645 51.3369547,53.6668645 51.3028712,53.6668645 C51.0496797,53.6668645 50.8062263,53.7837221 50.6212017,53.9638776 L50.2901051,54.2949742 L53.7033216,57.7081907 L52.1841725,59.2273398 L51.0935013,58.1366686 C50.9571674,58.0003347 50.7770119,57.9321678 50.5968564,57.9321678 C50.4167009,57.9321678 50.2365454,58.0003347 50.1002115,58.1366686 L50.0125683,58.2389191 L49.199434,59.2176017 C48.9657187,59.5000076 48.9316352,59.8700568 49.0241475,60.2206296 C49.131267,60.6198932 48.9949331,61.0727165 48.6200149,61.3405152 C48.4447285,61.467111 48.2450967,61.5255398 48.0405959,61.5255398 C47.9870361,61.5255398 47.9334764,61.5206707 47.8847857,61.5158016 C47.8020115,61.5060635 47.7241064,61.4963254 47.6413323,61.4963254 C47.1787709,61.4963254 46.7356857,61.686219 46.39972,62.0173156 L45.7423959,62.6649016 L47.0959967,62.6649016 L47.0959967,63.6095008 C47.0959967,63.9795499 47.3978789,64.2814321 47.7679281,64.2814321 L50.3436649,64.2814321 C50.713714,64.2814321 51.0155962,63.9795499 51.0155962,63.6095008 L51.0155962,62.6649016 L52.4324949,62.6649016 L52.4324949,63.6095008 C52.4324949,63.843216 52.5542216,64.0477169 52.7343771,64.1694436 C52.7343771,64.1694436 52.7343771,64.1694436 52.7392462,64.1694436 C52.8317585,64.1694436 52.9194017,64.1791817 53.0070449,64.203527 C53.1239026,64.2327414 53.2407602,64.2522177 53.3576178,64.2522177 C53.5962021,64.2522177 53.8250483,64.1840508 54.0100729,64.0282406 L54.9887555,63.2151063 L55.0910059,63.1274631 C55.3636737,62.8547953 55.3636737,62.4117101 55.0910059,62.1341732 L54.0295492,61.0727165 L54.0295492,61.0727165 L55.5486983,59.5535674 L56.3520945,60.3569635 L56.3520945,54.9522984 L56.3520945,54.9522984 L56.3520945,52.12337 L56.3520945,50.112445 L57.4135512,50.112445 C58.5577821,50.112445 59.482905,49.1873222 59.482905,48.0479603 Z" id="路径" fill="#D0F1FF" fill-rule="nonzero"></path>
                    <path d="M47.7727971,66.3994766 C47.2712832,66.3994766 46.7989836,66.2680117 46.3899819,66.0342965 C45.9809802,66.2680117 45.5086806,66.3994766 45.0071667,66.3994766 L42.4314298,66.3994766 C42.2756197,66.3994766 42.1246786,66.3848694 41.9786065,66.355655 L36.1503325,72.0768095 C35.6926401,72.5345019 35.5563062,73.1772188 35.7218545,73.7566379 C35.7997596,74.0293057 35.9360935,74.2873663 36.1503325,74.5016053 L36.4278693,74.7791421 L37.4308973,75.7821701 L38.4339252,76.785198 L38.7114621,77.0627349 C38.9257011,77.2769739 39.1837617,77.4133078 39.4564295,77.4912129 C39.6122396,77.5350345 39.7729189,77.5593798 39.9335981,77.5593798 C40.3718142,77.5593798 40.8051612,77.3938315 41.1362578,77.0627349 L49.3893276,68.658724 L51.2054899,66.8133473 C51.4148598,66.5991084 51.5609318,66.3361787 51.648575,66.0586418 C51.2590496,66.2680117 50.8110954,66.3897384 50.3387958,66.3897384 L47.7727971,66.3897384 L47.7727971,66.3994766 Z" id="路径" fill="#D0F1FF" fill-rule="nonzero"></path>
                    <path d="M62.8084783,40.905038 C63.2710397,40.4424765 63.2710397,39.6975092 62.8084783,39.2349477 L62.8084783,39.2349477 C62.5796321,39.0061016 62.2777499,38.8892439 61.9758677,38.8892439 C61.6739855,38.8892439 61.3721033,39.0061016 61.1432571,39.2349477 L60.3836825,39.9945223 C60.9679707,40.5788104 61.3769724,41.338385 61.5327825,42.1807337 L62.8084783,40.905038 Z" id="路径" fill="#D0F1FF" fill-rule="nonzero"></path>
                    <rect id="矩形" fill="#D0F1FF" fill-rule="nonzero" x="18.6070815" y="35.7925169" width="18.2249205" height="4.45519697"></rect>
                    <path d="M63.4755405,44.4448502 L64.0500905,45.0194002 L68.5052875,40.5642032 C68.4858112,40.2038922 68.4565968,39.8435812 68.4225134,39.4832702 C68.398168,39.5124846 68.3786917,39.541699 68.3543464,39.5660443 L63.4755405,44.4448502 Z" id="路径" fill="#D0F1FF" fill-rule="nonzero"></path>
                    <path d="M68.0037735,48.9730832 C68.0183807,48.9049162 68.0281189,48.8318802 68.0427261,48.7637133 L67.9209994,48.88544 L68.0037735,48.9730832 Z" id="路径" fill="#D0F1FF" fill-rule="nonzero"></path>
                    <path d="M66.2509091,47.2202188 L68.4858112,44.9853167 C68.5101566,44.6103985 68.5247638,44.2354803 68.539371,43.8605621 L65.7153117,46.6846214 L66.2509091,47.2202188 Z" id="路径" fill="#D0F1FF" fill-rule="nonzero"></path>
                    <g transform="translate(35.649293, 48.374188)" fill-rule="nonzero" id="路径">
                        <g transform="translate(0.000000, 15.454421)">
                            <path d="M8.90018101,0 L0.496170117,8.2530698 C0.0384777503,8.71076216 -0.097856146,9.3534791 0.0676921567,9.93289816 L8.55934627,1.44124405 C8.94887169,1.05171863 9.05599118,0.49177584 8.90018101,0 Z" fill="#858D8E"></path>
                            <path d="M5.48696454,13.2438642 L13.7400343,4.83985332 C13.2482585,4.67917408 12.6883157,4.79116264 12.2987903,5.18068806 L3.80713617,13.6723422 C4.38655523,13.8378905 5.03414124,13.7015566 5.48696454,13.2438642 Z" fill="#274347"></path>
                        </g>
                        <g transform="translate(25.756893, 0.000000)">
                            <polygon fill="#676767" points="2.52704615 0 1.61653048 0 0 1.61653048 0.452823298 2.07422285"></polygon>
                            <polygon fill="#343434" points="1.39255337 3.01395292 1.85024574 3.46677622 3.43756181 1.87946014 3.43756181 0.973813545"></polygon>
                        </g>
                        <g transform="translate(16.525141, 0.000000)">
                            <polygon fill="#B6B6B6" points="12.4063846 0 11.7587986 0 9.68457571 2.07422285 9.23175241 1.61653048 0 10.8482829 0.910515665 11.7587986 12.5378494 0.131464829"></polygon>
                            <polygon fill="#898989" points="12.6693142 0.973813545 12.6693142 0.262929657 12.5378494 0.131464829 0.910515665 11.7587986 1.85024574 12.6985286 11.0819981 3.46677622 10.6243058 3.01395292"></polygon>
                        </g>
                        <g transform="translate(0.067692, 9.864731)">
                            <path d="M11.3644041,7.89762785 L14.3929642,4.86906773 C13.8963193,4.35781561 13.9011884,3.53981224 14.4075714,3.03829826 L15.8682917,1.57757794 L14.2907138,0 L13.4775795,0.978682613 C13.2438642,1.26108854 13.2097807,1.63113769 13.302293,1.98171056 C13.4094125,2.38097412 13.2730786,2.83379742 12.8981604,3.10159614 C12.6790524,3.25740631 12.4161227,3.31096605 12.1629312,3.27201351 C11.6175956,3.19410843 11.07226,3.38887114 10.6778655,3.77352749 L8.83248885,5.58968975 C8.99316809,6.08146559 8.88117953,6.64140838 8.49165411,7.0309338 L0,15.5225879 C0.0779050836,15.7952557 0.21423898,16.0533163 0.42847796,16.2675553 L0.70601482,16.5450921 L9.35834817,7.89275878 C9.91342189,7.34255413 10.8093304,7.34255413 11.3644041,7.89762785 Z" fill="#274347"></path>
                            <path d="M15.9900184,7.10396981 C15.9510659,6.85077829 16.0046256,6.58297957 16.1604358,6.36874059 C16.4331036,5.99382237 16.8810578,5.85748847 17.2803214,5.96460796 C17.6308942,6.05712025 18.0058124,6.02303678 18.2833493,5.78932153 L19.2620319,4.97618722 L17.7136684,3.42782368 L16.2529481,4.888544 C15.741696,5.39979611 14.9139544,5.39979611 14.4027023,4.888544 C14.3978333,4.88367493 14.3929642,4.87880586 14.3880951,4.86906773 L11.359535,7.89762785 C11.9146087,8.45270157 11.9146087,9.34861003 11.359535,9.90368375 L2.70720166,18.5560171 L2.98473852,18.833554 C3.1989775,19.0477929 3.45703809,19.1841268 3.72970588,19.2620319 L12.22136,10.7703778 C12.6108854,10.3808524 13.1708282,10.2688638 13.662604,10.4295431 L15.4787663,8.5841664 C15.8731608,8.19464098 16.0679235,7.64443633 15.9900184,7.10396981 Z" fill="#151C1C"></path>
                            <path d="M14.3929642,4.86419866 L16.7739383,2.48322454 L15.8634227,1.57270888 L14.4027023,3.03342919 C13.9011884,3.53981224 13.9011884,4.35294655 14.3929642,4.86419866 Z" fill="#FFBF00"></path>
                            <path d="M14.4075714,4.88367493 C14.9188235,5.39492704 15.746565,5.39492704 16.2578171,4.88367493 L17.7185375,3.42295461 L16.7788074,2.48322454 L14.3978333,4.86419866 C14.3978333,4.87393679 14.4027023,4.87880586 14.4075714,4.88367493 Z" fill="#F6980D"></path>
                            <path d="M9.35834817,7.89762785 L0.70601482,16.5499612 L1.70904277,17.5529892 L11.3644041,7.89762785 C10.8093304,7.34255413 9.91342189,7.34255413 9.35834817,7.89762785 Z" fill="#FFBF00"></path>
                            <path d="M11.3644041,7.89762785 L1.70904277,17.5529892 L2.71207072,18.5560171 L11.3644041,9.90368375 C11.9194778,9.34861003 11.9194778,8.45270157 11.3644041,7.89762785 Z" fill="#F6980D"></path>
                        </g>
                        <g transform="translate(14.353537, 9.553111)">
                            <path d="M2.17160421,1.29517202 L1.08093304,0.204500844 C0.808265242,-0.0681669482 0.365180079,-0.0681669482 0.0876432191,0.204500844 L0,0.306751267 L1.57757794,1.88432921 L2.48809361,2.79484487 L3.0772508,2.20568768 L2.17160421,1.29517202 Z" fill="#858D8E"></path>
                            <path d="M5.08330671,4.20687451 L4.02184994,3.14541775 L3.08211987,2.20568768 L2.49296268,2.79484487 L3.43269275,3.73457495 L4.98105628,5.28293848 L5.08330671,5.19529526 C5.3559745,4.92262747 5.3559745,4.47954231 5.08330671,4.20687451 Z" fill="#274347"></path>
                        </g>
                    </g>
                    <g transform="translate(50.270629, 37.549033)" fill-rule="nonzero" id="路径">
                        <path d="M14.3491426,18.3965551 C14.6412867,18.4355077 14.9285616,18.313781 15.1379316,18.1044111 L19.773284,13.4690586 L11.5299524,5.22572694 L5.32189102,11.4337883 C5.11252111,11.6431582 4.99566349,11.9304332 5.02974696,12.2225773 C5.04922323,12.3881256 5.00053255,12.563412 4.87393679,12.6948768 C4.74247196,12.8166035 4.57205459,12.8701633 4.40163722,12.850687 C4.10949316,12.8117345 3.82221816,12.9334611 3.61284825,13.1428311 L2.04013938,14.7155399 C1.83076946,14.9249098 1.71391184,15.2121848 1.74799531,15.5043289 C1.76747158,15.6698772 1.71878091,15.8451636 1.59218515,15.9766285 C1.46072032,16.0983552 1.29030295,16.1519149 1.11988558,16.1324386 C0.827741513,16.0934861 0.540466518,16.2152128 0.331096605,16.4245827 L0,16.7556793 L8.24333166,24.999011 L13.4240197,19.8183229 C13.6333896,19.608953 13.7502473,19.321678 13.7161638,19.0295339 C13.6918184,18.8639856 13.7453782,18.6886992 13.871974,18.5572344 C14.0083078,18.4257695 14.1835943,18.3722098 14.3491426,18.3965551 Z" fill="#FFBF00"></path>
                        <path d="M18.0691103,0.346921075 L18.0691103,0.346921075 C17.6065489,-0.115640358 16.8615815,-0.115640358 16.3990201,0.346921075 L10.8823664,5.86357481 L12.5524566,7.53366504 L18.0739794,2.01701131 C18.5316718,1.55444987 18.5316718,0.809482509 18.0691103,0.346921075 Z" fill="#FFBF00"></path>
                        <path d="M21.3946836,1.50089013 L21.3946836,1.50089013 C20.9321222,1.03832869 20.1871548,1.03832869 19.7245934,1.50089013 L13.1221375,8.10821503 L14.7922278,9.77830526 L21.3946836,3.17098036 C21.857245,2.70841892 21.857245,1.96345156 21.3946836,1.50089013 Z" fill="#FFBF00"></path>
                        <path d="M22.5145692,4.79237991 L22.5145692,4.79237991 C22.0520077,4.32981848 21.3070404,4.32981848 20.8444789,4.79237991 L15.3278252,10.3090336 L16.9979154,11.9791239 L22.5145692,6.46247014 C22.9771306,5.9999087 22.9771306,5.25494134 22.5145692,4.79237991 Z" fill="#FFBF00"></path>
                        <path d="M22.9673925,8.60485994 L22.9673925,8.60485994 C22.504831,8.1422985 21.7598637,8.1422985 21.2973022,8.60485994 L17.4556078,12.4465544 L19.125698,14.1166446 L22.9673925,10.2749502 C23.4299539,9.81238873 23.4299539,9.0625523 22.9673925,8.60485994 Z" fill="#FFBF00"></path>
                        <path d="M12.5281113,1.69078377 L12.5281113,1.69078377 C12.0655498,1.22822233 11.3205825,1.22822233 10.858021,1.69078377 L7.01632659,5.5324782 L8.68641682,7.20256843 L12.5281113,3.360874 C12.9858036,2.89831256 12.9858036,2.14847613 12.5281113,1.69078377 Z" fill="#FFBF00"></path>
                        <path d="M5.21477153,11.5360387 L5.21477153,11.5360387 C4.05593342,10.3772006 4.05593342,8.49287138 5.21477153,7.33403326 L7.01632659,5.5324782 L9.11976385,7.63591546 L5.21477153,11.5360387 Z" fill="#F6980D"></path>
                        <path d="M9.11976385,6.76435234 L9.11976385,6.76435234 L8.68641682,7.19769937 L9.11976385,7.63104639 L9.11976385,7.63104639 C9.35834817,7.39246207 9.35834817,7.00293666 9.11976385,6.76435234 Z" fill="#FFBF00"></path>
                        <path d="M10.6729965,22.5644771 L6.19832321,18.0898039 C5.9743461,17.8658268 5.9743461,17.5006467 6.19832321,17.2766696 L6.19832321,17.2766696 C6.42230033,17.0526924 6.78748041,17.0526924 7.01145752,17.2766696 L11.4861308,21.7513428 L10.6729965,22.5644771 Z" fill="#F6980D"></path>
                        <path d="M7.26951811,9.48129213 L11.1112126,13.3229866 C11.3351897,13.5469637 11.7003697,13.5469637 11.9243469,13.3229866 L11.9243469,13.3229866 C12.148324,13.0990094 12.148324,12.7338294 11.9243469,12.5098523 L8.08265242,8.66815782 L7.26951811,9.48129213 Z" fill="#F6980D"></path>
                        <path d="M6.33952618,14.9736005 L9.56284901,18.1969234 C9.78682613,18.4209005 10.1520062,18.4209005 10.3759833,18.1969234 L10.3759833,18.1969234 C10.5999604,17.9729462 10.5999604,17.6077662 10.3759833,17.383789 L7.15266049,14.1604662 C6.92868337,13.9364891 6.56350329,13.9364891 6.33952618,14.1604662 L6.33952618,14.1604662 C6.11068,14.3795743 6.11068,14.7447543 6.33952618,14.9736005 Z" fill="#F6980D"></path>
                        <path d="M3.0772508,18.2310068 L6.30057364,21.4543297 C6.52455075,21.6783068 6.88973083,21.6783068 7.11370795,21.4543297 L7.11370795,21.4543297 C7.33768506,21.2303526 7.33768506,20.8651725 7.11370795,20.6411954 L3.89038511,17.4178725 C3.666408,17.1938954 3.30122792,17.1938954 3.0772508,17.4178725 L3.0772508,17.4178725 C2.84840462,17.6418496 2.84840462,18.0070297 3.0772508,18.2310068 Z" fill="#F6980D"></path>
                        <path d="M9.11489478,14.5986823 L11.4617854,16.945573 C11.6857625,17.1695501 12.0509426,17.1695501 12.2749197,16.945573 L12.2749197,16.945573 C12.4988969,16.7215958 12.4988969,16.3564158 12.2749197,16.1324386 L9.92802909,13.785548 C9.70405198,13.5615709 9.3388719,13.5615709 9.11489478,13.785548 L9.11489478,13.785548 C8.89091767,14.0095251 8.89091767,14.3747052 9.11489478,14.5986823 Z" fill="#F6980D"></path>
                        <path d="M14.8165731,10.1532235 L11.861049,7.19769937 C11.6370719,6.97372225 11.2718918,6.97372225 11.0479147,7.19769937 L11.0479147,7.19769937 C10.8239376,7.42167648 10.8239376,7.78685656 11.0479147,8.01570274 L14.0034388,10.9712269 C14.2274159,11.195204 14.592596,11.195204 14.8165731,10.9712269 L14.8165731,10.9712269 C15.0454193,10.7423807 15.0454193,10.3772006 14.8165731,10.1532235 Z" fill="#FBFDCF"></path>
                    </g>
                </g>
                <g id="编组" transform="translate(0.000000, 34.616345)" fill-rule="nonzero">
                    <path d="M3.08211987,10.880224 L3.08211987,20.3359535 C11.8464418,24.1922551 21.5358866,26.339514 31.7219762,26.339514 C41.912935,26.339514 51.5975107,24.1922551 60.3618326,20.3359535 L60.3618326,10.880224 L3.08211987,10.880224 Z" id="路径" fill="#00B8AC"></path>
                    <path d="M31.7219762,26.3346449 C21.5310175,26.3346449 11.8464418,24.1873861 3.08211987,20.3310844 L3.08211987,28.0436877 L3.08211987,28.9882868 C3.08211987,29.358336 3.38400207,29.6602182 3.75405122,29.6602182 L6.32978804,29.6602182 C6.69983719,29.6602182 7.00171939,29.358336 7.00171939,28.9882868 L7.00171939,28.0436877 L8.4186181,28.0436877 L8.4186181,28.9882868 C8.4186181,29.358336 8.7205003,29.6602182 9.09054944,29.6602182 L11.6662863,29.6602182 C12.0363354,29.6602182 12.3382176,29.358336 12.3382176,28.9882868 L12.3382176,28.0436877 L13.7502473,28.0436877 L13.7502473,28.9882868 C13.7502473,29.358336 14.0521295,29.6602182 14.4221786,29.6602182 L16.9979154,29.6602182 C17.3679646,29.6602182 17.6698468,29.358336 17.6698468,28.9882868 L17.6698468,28.0436877 L19.0867455,28.0436877 L19.0867455,28.9882868 C19.0867455,29.358336 19.3886277,29.6602182 19.7586768,29.6602182 L22.3344137,29.6602182 C22.7044628,29.6602182 23.006345,29.358336 23.006345,28.9882868 L23.006345,28.0436877 L24.4232437,28.0436877 L24.4232437,28.9882868 C24.4232437,29.358336 24.7251259,29.6602182 25.0951751,29.6602182 L27.6709119,29.6602182 C28.040961,29.6602182 28.3428432,29.358336 28.3428432,28.9882868 L28.3428432,28.0436877 L29.7548729,28.0436877 L29.7548729,28.9882868 C29.7548729,29.358336 30.0567551,29.6602182 30.4268042,29.6602182 L33.002541,29.6602182 C33.3725902,29.6602182 33.6744724,29.358336 33.6744724,28.9882868 L33.6744724,28.0436877 L35.0913711,28.0436877 L35.0913711,28.9882868 C35.0913711,29.358336 35.3932533,29.6602182 35.7633024,29.6602182 L38.3390393,29.6602182 C38.7090884,29.6602182 39.0109706,29.358336 39.0109706,28.9882868 L39.0109706,28.0436877 L40.4278693,28.0436877 L40.4278693,28.9882868 C40.4278693,29.358336 40.7297515,29.6602182 41.0998007,29.6602182 L43.6755375,29.6602182 C44.0455866,29.6602182 44.3474688,29.358336 44.3474688,28.9882868 L44.3474688,28.0436877 L45.7594985,28.0436877 L45.7594985,28.9882868 C45.7594985,29.358336 46.0613807,29.6602182 46.4314298,29.6602182 L49.0071667,29.6602182 C49.3772158,29.6602182 49.679098,29.358336 49.679098,28.9882868 L49.679098,28.0436877 L51.0959967,28.0436877 L51.0959967,28.9882868 C51.0959967,29.358336 51.3978789,29.6602182 51.7679281,29.6602182 L54.3436649,29.6602182 C54.713714,29.6602182 55.0155962,29.358336 55.0155962,28.9882868 L55.0155962,28.0436877 L56.4324949,28.0436877 L56.4324949,28.9882868 C56.4324949,29.358336 56.7343771,29.6602182 57.1044263,29.6602182 L59.6801631,29.6602182 C60.0502123,29.6602182 60.3520945,29.358336 60.3520945,28.9882868 L60.3520945,28.0436877 L60.3520945,20.3310844 C51.5975107,24.1922551 41.912935,26.3346449 31.7219762,26.3346449 Z" id="路径" fill="#18979E"></path>
                    <polygon id="路径" fill="#008A81" points="21.7063039 18.7291612 10.2737329 18.7291612 9.00290622 18.7291612 9.00290622 16.562426 7.73207955 16.562426 7.73207955 18.7291612 7.73207955 19.9999878 9.00290622 19.9999878 10.2737329 19.9999878 21.7063039 19.9999878 22.9771306 19.9999878 22.9771306 18.7291612 22.9771306 16.562426 21.7063039 16.562426"></polygon>
                    <path d="M23.512728,0.00272667793 L23.512728,0.00272667793 C22.5145692,0.00272667793 21.7063039,0.81099192 21.7063039,1.8091508 L21.7063039,5.85534608 L23.512728,5.85534608 L23.512728,0.00272667793 Z" id="路径" fill="#FFBF00"></path>
                    <path d="M39.9312244,0.00272667793 L39.9312244,0.00272667793 L39.9312244,5.85534608 L41.7376485,5.85534608 L41.7376485,1.8091508 C41.7376485,0.81099192 40.9293833,0.00272667793 39.9312244,0.00272667793 Z" id="路径" fill="#FFBF00"></path>
                    <polygon id="矩形" fill="#F6980D" transform="translate(31.724459, 1.360904) rotate(90.000000) translate(-31.724459, -1.360904) " points="30.363555 -6.84834376 33.0853639 -6.84834376 33.0853639 9.57015261 30.363555 9.57015261"></polygon>
                    <path d="M55.3077403,4.47253085 L8.13621217,4.47253085 C7.14779142,4.47253085 6.34439525,5.27592702 6.34439525,6.26434777 L6.34439525,6.26434777 L57.0995572,6.26434777 L57.0995572,6.26434777 C57.0995572,5.27592702 56.296161,4.47253085 55.3077403,4.47253085 Z" id="路径" fill="#151C1C"></path>
                    <rect id="矩形" fill="#008A81" x="3.08211987" y="15.4961002" width="57.2845818" height="2.01092497"></rect>
                    <g opacity="0.39" transform="translate(3.082120, 10.880224)" fill="#FFFFFF" id="路径">
                        <path d="M0,0 L0,9.45572952 L0,17.1683328 L0,18.1129319 C0,18.4829811 0.301882199,18.7848633 0.671931346,18.7848633 L3.24766817,18.7848633 C3.61771732,18.7848633 3.91959952,18.4829811 3.91959952,18.1129319 L3.91959952,17.1683328 L5.33649823,17.1683328 L5.33649823,18.1129319 C5.33649823,18.4829811 5.63838043,18.7848633 6.00842957,18.7848633 L8.5841664,18.7848633 C8.95421555,18.7848633 9.25609775,18.4829811 9.25609775,18.1129319 L9.25609775,17.1683328 L10.6681274,17.1683328 L10.6681274,18.1129319 C10.6681274,18.4829811 10.9700096,18.7848633 11.3400587,18.7848633 L13.9157956,18.7848633 C14.2858447,18.7848633 14.5877269,18.4829811 14.5877269,18.1129319 L14.5877269,17.1683328 L16.0046256,17.1683328 L16.0046256,18.1129319 C16.0046256,18.4829811 16.3065078,18.7848633 16.676557,18.7848633 L19.2522938,18.7848633 C19.6223429,18.7848633 19.9242251,18.4829811 19.9242251,18.1129319 L19.9242251,17.1683328 L21.3411238,17.1683328 L21.3411238,18.1129319 C21.3411238,18.4829811 21.643006,18.7848633 22.0130552,18.7848633 L24.588792,18.7848633 C24.9588412,18.7848633 25.2607234,18.4829811 25.2607234,18.1129319 L25.2607234,17.1683328 L26.672753,17.1683328 L26.672753,18.1129319 C26.672753,18.4829811 26.9746352,18.7848633 27.3446843,18.7848633 L28.6301182,18.7848633 L28.6301182,15.45929 L28.6301182,0.00486906773 L0,0.00486906773 L0,0 Z"></path>
                    </g>
                    <path d="M61.1165381,15.4961002 L2.37123598,15.4961002 C1.06145676,15.4961002 0,14.4346434 0,13.1248642 L0,10.880224 L63.4829217,10.880224 L63.4829217,13.1248642 C63.4877741,14.4346434 62.4263173,15.4961002 61.1165381,15.4961002 Z" id="路径" fill="#61E8CF"></path>
                    <path d="M61.1165381,6.26434777 L2.37123598,6.26434777 C1.06145676,6.26434777 0,7.32580454 0,8.63558376 L0,10.880224 L63.4829217,10.880224 L63.4829217,8.63558376 C63.4877741,7.32580454 62.4263173,6.26434777 61.1165381,6.26434777 Z" id="路径" fill="#263132"></path>
                    <g transform="translate(9.002906, 6.264348)">
                        <rect id="矩形" fill="#FFBF00" x="1.27082668" y="2.3079381" width="10.1568753" height="10.1568753"></rect>
                        <polygon id="路径" fill="#151C1C" points="12.7033977 0 11.427702 0 1.27082668 0 0 0 0 2.3079381 0 12.4648134 1.27082668 12.4648134 1.27082668 2.3079381 11.427702 2.3079381 11.427702 12.4648134 12.7033977 12.4648134 12.7033977 2.3079381"></polygon>
                        <path d="M3.17463216,5.95000076 L3.17463216,5.95000076 C2.9117025,5.95000076 2.69259445,5.73576178 2.69259445,5.46796306 L2.69259445,2.30306903 L3.65180079,2.30306903 L3.65180079,5.46796306 C3.65666986,5.73576178 3.44243088,5.95000076 3.17463216,5.95000076 Z" id="路径" fill="#F6980D"></path>
                        <path d="M6.34926431,5.95000076 L6.34926431,5.95000076 C6.08633466,5.95000076 5.86722661,5.73576178 5.86722661,5.46796306 L5.86722661,2.30306903 L6.82643295,2.30306903 L6.82643295,5.46796306 C6.83130202,5.73576178 6.61706304,5.95000076 6.34926431,5.95000076 Z" id="路径" fill="#F6980D"></path>
                        <path d="M9.52876554,5.95000076 L9.52876554,5.95000076 C9.26583588,5.95000076 9.04672783,5.73576178 9.04672783,5.46796306 L9.04672783,2.30306903 L10.0059342,2.30306903 L10.0059342,5.46796306 C10.0059342,5.73576178 9.7916952,5.95000076 9.52876554,5.95000076 Z" id="路径" fill="#F6980D"></path>
                        <rect id="矩形" fill="#F6980D" x="1.27082668" y="10.0156723" width="10.1276609" height="2.44914107"></rect>
                        <path d="M8.83248885,7.02119566 L3.86603977,7.02119566 C3.42782368,7.02119566 3.07238173,7.3766376 3.07238173,7.8148537 L3.07238173,7.8148537 C3.07238173,8.2530698 3.42782368,8.60851174 3.86603977,8.60851174 L8.83248885,8.60851174 C9.27070495,8.60851174 9.62614689,8.2530698 9.62614689,7.8148537 L9.62614689,7.8148537 C9.62614689,7.37176854 9.27070495,7.02119566 8.83248885,7.02119566 Z" id="路径" fill="#263132"></path>
                    </g>
                    <g transform="translate(41.737649, 6.264348)">
                        <rect id="矩形" fill="#FFBF00" x="1.27569574" y="2.3079381" width="10.1568753" height="10.1568753"></rect>
                        <polygon id="路径" fill="#151C1C" points="12.7033977 0 11.432571 0 1.27569574 0 0 0 0 2.3079381 0 12.4648134 1.27569574 12.4648134 1.27569574 2.3079381 11.432571 2.3079381 11.432571 12.4648134 12.7033977 12.4648134 12.7033977 2.3079381"></polygon>
                        <path d="M3.17463216,5.95000076 L3.17463216,5.95000076 C2.9117025,5.95000076 2.69259445,5.73576178 2.69259445,5.46796306 L2.69259445,2.30306903 L3.65180079,2.30306903 L3.65180079,5.46796306 C3.65666986,5.73576178 3.44243088,5.95000076 3.17463216,5.95000076 Z" id="路径" fill="#F6980D"></path>
                        <path d="M6.35413338,5.95000076 L6.35413338,5.95000076 C6.09120372,5.95000076 5.87209568,5.73576178 5.87209568,5.46796306 L5.87209568,2.30306903 L6.83130202,2.30306903 L6.83130202,5.46796306 C6.83130202,5.73576178 6.61706304,5.95000076 6.35413338,5.95000076 Z" id="路径" fill="#F6980D"></path>
                        <path d="M9.52876554,5.95000076 L9.52876554,5.95000076 C9.26583588,5.95000076 9.04672783,5.73576178 9.04672783,5.46796306 L9.04672783,2.30306903 L10.0059342,2.30306903 L10.0059342,5.46796306 C10.0059342,5.73576178 9.7916952,5.95000076 9.52876554,5.95000076 Z" id="路径" fill="#F6980D"></path>
                        <rect id="矩形" fill="#F6980D" x="1.27569574" y="10.0156723" width="10.1276609" height="2.44914107"></rect>
                        <path d="M8.83248885,7.02119566 L3.86603977,7.02119566 C3.42782368,7.02119566 3.07238173,7.3766376 3.07238173,7.8148537 L3.07238173,7.8148537 C3.07238173,8.2530698 3.42782368,8.60851174 3.86603977,8.60851174 L8.83248885,8.60851174 C9.27070495,8.60851174 9.62614689,8.2530698 9.62614689,7.8148537 L9.62614689,7.8148537 C9.62614689,7.37176854 9.27070495,7.02119566 8.83248885,7.02119566 Z" id="路径" fill="#263132"></path>
                    </g>
                    <path d="M33.7621156,15.4961002 L29.7305275,15.4961002 L29.7305275,13.6750689 C29.7305275,12.5600523 30.6313051,11.6592748 31.7463216,11.6592748 L31.7463216,11.6592748 C32.8613381,11.6592748 33.7621156,12.5600523 33.7621156,13.6750689 L33.7621156,15.4961002 Z" id="路径" fill="#00B8AC"></path>
                    <path d="M29.7305275,6.26434777 L33.7621156,6.26434777 L33.7621156,8.0853791 C33.7621156,9.20039561 32.8613381,10.1011731 31.7463216,10.1011731 L31.7463216,10.1011731 C30.6313051,10.1011731 29.7305275,9.20039561 29.7305275,8.0853791 L29.7305275,6.26434777 Z" id="路径" fill="#263132"></path>
                    <polygon id="路径" fill="#008A81" points="54.4410462 16.562426 54.4410462 18.7291612 53.1702196 18.7291612 53.1410052 18.7291612 43.0133443 18.7291612 41.7376485 18.7291612 41.7376485 16.562426 40.4668219 16.562426 40.4668219 18.7291612 40.4668219 19.9999878 41.7376485 19.9999878 43.0133443 19.9999878 53.1410052 19.9999878 53.1702196 19.9999878 54.4410462 19.9999878 55.7118729 19.9999878 55.7118729 18.7291612 55.7118729 16.562426"></polygon>
                    <path d="M52.6492293,4.47253085 L10.7947231,4.47253085 C9.8063024,4.47253085 9.00290622,5.27592702 9.00290622,6.26434777 L9.00290622,6.26434777 L54.4410462,6.26434777 L54.4410462,6.26434777 C54.4410462,5.27592702 53.6376501,4.47253085 52.6492293,4.47253085 Z" id="路径" fill="#8ADDFF"></path>
                    <rect id="矩形" fill="#F6980D" x="23.512728" y="2.72453554" width="1.65061396" height="1"></rect>
                    <rect id="矩形" fill="#F6980D" x="25.6210344" y="2.72453554" width="1.65061396" height="1"></rect>
                    <rect id="矩形" fill="#F6980D" x="27.7342098" y="2.72453554" width="1.65061396" height="1"></rect>
                    <rect id="矩形" fill="#F6980D" x="29.8425161" y="2.72453554" width="1.65061396" height="1"></rect>
                    <rect id="矩形" fill="#F6980D" x="31.9508224" y="2.72453554" width="1.65061396" height="1"></rect>
                    <rect id="矩形" fill="#F6980D" x="34.0591287" y="2.72453554" width="1.65061396" height="1"></rect>
                    <rect id="矩形" fill="#F6980D" x="36.1723041" y="2.72453554" width="1.65061396" height="1"></rect>
                    <rect id="矩形" fill="#F6980D" x="38.2806105" y="2.72453554" width="1.65061396" height="1"></rect>
                </g>
            </g>
        </g>
    </g>
</svg>