<?xml version="1.0" encoding="UTF-8"?>
<svg width="16px" height="16px" viewBox="0 0 16 16" version="1.1" xmlns="http://www.w3.org/2000/svg" xmlns:xlink="http://www.w3.org/1999/xlink">
    <title>科目</title>
    <g id="页面-1" stroke="none" stroke-width="1" fill="none" fill-rule="evenodd">
        <g id="app-电工基础训练" transform="translate(-30.000000, -232.000000)" fill-rule="nonzero">
            <g id="科目" transform="translate(30.000000, 232.000000)">
                <rect id="矩形" fill="#000000" opacity="0" x="0" y="0" width="16" height="16"></rect>
                <path d="M1.515625,2.398 C1.515625,1.70359375 2.07910937,1.140625 2.7741875,1.140625 L12.9145937,1.140625 C13.6096875,1.140625 14.1731562,1.70357812 14.1731562,2.398 L14.1731562,11.1278438 C14.1731562,11.8222656 13.6096875,12.3852187 12.9145937,12.3852187 L3.308,12.3852187 C2.8264375,12.3852187 2.4505625,12.7317344 2.4505625,13.1396406 C2.4505625,13.5434688 2.81895312,13.8871406 3.29357812,13.8939688 L3.308,13.8940625 L14.1731562,13.8940625 C14.4313281,13.8940625 14.640625,14.1031719 14.640625,14.3610938 C14.640625,14.6153438 14.4372656,14.8221406 14.1841875,14.828125 L14.1731562,14.828125 L3.308,14.828125 C2.326125,14.828125 1.515625,14.0809219 1.515625,13.1396406 C1.515625,13.108375 1.51651563,13.0773125 1.51828125,13.0465 C1.51690656,13.0333623 1.51606212,13.0201745 1.515625,13.0069687 L1.515625,12.9959375 L1.515625,2.398 Z M11.9796719,7.49939062 L3.709125,7.49939062 L3.69807812,7.49951562 C3.445,7.505375 3.24165625,7.71217187 3.24165625,7.96640625 C3.24165625,8.22176562 3.44678125,8.42925 3.70139063,8.433375 L3.709125,8.4334375 L11.9796719,8.4334375 L11.9907031,8.4333125 C12.2437813,8.42745312 12.447125,8.22065625 12.447125,7.96640625 C12.447125,7.70848437 12.2378438,7.499375 11.9796719,7.499375 L11.9796719,7.49939062 Z M11.9796719,4.84092187 L3.709125,4.84092187 L3.69807812,4.84104687 C3.445,4.84690625 3.24165625,5.05370313 3.24165625,5.30795312 C3.24165625,5.56329687 3.44678125,5.77078125 3.70139063,5.77490625 L3.709125,5.77496875 L11.9796719,5.77496875 L11.9907031,5.77484375 C12.2437813,5.76898437 12.447125,5.5621875 12.447125,5.30795313 C12.447125,5.05001563 12.2378438,4.84092187 11.9796719,4.84092187 L11.9796719,4.84092187 Z" id="形状" fill="#5D5D5D"></path>
            </g>
        </g>
    </g>
</svg>