<?xml version="1.0" encoding="UTF-8"?>
<svg width="16px" height="16px" viewBox="0 0 16 16" version="1.1" xmlns="http://www.w3.org/2000/svg" xmlns:xlink="http://www.w3.org/1999/xlink">
    <title>章节</title>
    <g id="页面-1" stroke="none" stroke-width="1" fill="none" fill-rule="evenodd">
        <g id="app-电工基础训练" transform="translate(-30.000000, -297.000000)" fill-rule="nonzero">
            <g id="章节" transform="translate(30.000000, 297.000000)">
                <rect id="矩形" fill="#000000" opacity="0" x="0" y="0" width="16" height="16"></rect>
                <path d="M0,4 C0,3.4477153 0.443864805,3 1,3 C1.5522847,3 2,3.4438648 2,4 C2,4.5522847 1.5561352,5 1,5 C0.447715303,5 0,4.5561352 0,4 Z M4,4 C4,3.4477153 4.455761,3 5.0024733,3 L14.9975267,3 C15.5511774,3 16,3.4438648 16,4 C16,4.5522847 15.544239,5 14.9975267,5 L5.0024733,5 C4.4488226,5 4,4.5561352 4,4 Z M0,8 C0,7.4477153 0.443864805,7 1,7 C1.5522847,7 2,7.4438648 2,8 C2,8.5522847 1.5561352,9 1,9 C0.447715303,9 0,8.5561352 0,8 Z M4,8 C4,7.4477153 4.455761,7 5.0024733,7 L14.9975267,7 C15.5511774,7 16,7.4438648 16,8 C16,8.5522847 15.544239,9 14.9975267,9 L5.0024733,9 C4.4488226,9 4,8.5561352 4,8 Z M0,12 C0,11.4477153 0.443864805,11 1,11 C1.5522847,11 2,11.4438648 2,12 C2,12.5522847 1.5561352,13 1,13 C0.447715303,13 0,12.5561352 0,12 Z M4,12 C4,11.4477153 4.455761,11 5.0024733,11 L14.9975267,11 C15.5511774,11 16,11.4438648 16,12 C16,12.5522847 15.544239,13 14.9975267,13 L5.0024733,13 C4.4488226,13 4,12.5561352 4,12 Z" id="形状" fill="#5D5D5D"></path>
            </g>
        </g>
    </g>
</svg>