<?xml version="1.0" encoding="UTF-8"?>
<svg width="24px" height="24px" viewBox="0 0 24 24" version="1.1" xmlns="http://www.w3.org/2000/svg" xmlns:xlink="http://www.w3.org/1999/xlink">
    <title>考试</title>
    <g id="页面-1" stroke="none" stroke-width="1" fill="none" fill-rule="evenodd">
        <g id="app-应用" transform="translate(-276.000000, -689.000000)">
            <g id="考试" transform="translate(276.000000, 689.000000)">
                <rect id="矩形" fill="#000000" fill-rule="nonzero" opacity="0" x="0" y="0" width="24" height="24"></rect>
                <rect id="矩形" fill="#BBBBBB" x="2" y="2" width="20" height="20" rx="4"></rect>
                <path d="M7.29259888,5.6505 C7.53125441,5.6505 7.75178122,5.7778212 7.87110898,5.98450295 C7.99043675,6.19118469 7.99043675,6.44582711 7.87110898,6.65250886 C7.75178122,6.85919061 7.53125441,6.98651181 7.29259888,6.98651181 L4.9185059,6.98651181 C4.54957643,6.98651181 4.2505,6.68743538 4.2505,6.3185059 C4.2505,5.94957643 4.54957643,5.6505 4.9185059,5.6505 L7.29259888,5.6505 L7.29259888,5.6505 Z M13.2311714,5.6505 C13.4698269,5.6505 13.6903537,5.7778212 13.8096815,5.98450295 C13.9290092,6.19118469 13.9290092,6.44582711 13.8096815,6.65250886 C13.6903537,6.85919061 13.4698269,6.98651181 13.2311714,6.98651181 L10.8544064,6.98651181 C10.4854769,6.98651181 10.1864005,6.68743538 10.1864005,6.3185059 C10.1864005,5.94957643 10.4854769,5.6505 10.8544064,5.6505 L13.2325074,5.6505 L13.2311714,5.6505 Z M19.1684078,5.6505 C19.4070634,5.6505 19.6275902,5.7778212 19.7469179,5.98450295 C19.8662457,6.19118469 19.8662457,6.44582711 19.7469179,6.65250886 C19.6275902,6.85919061 19.4070634,6.98651181 19.1684078,6.98651181 L16.7943149,6.98651181 C16.4253854,6.98651181 16.126309,6.68743538 16.126309,6.3185059 C16.126309,5.94957643 16.4253854,5.6505 16.7943149,5.6505 L19.1684078,5.6505 L19.1684078,5.6505 Z M7.29259888,9.92573778 C7.66152836,9.92573778 7.96060479,10.2248142 7.96060479,10.5937437 C7.96060479,10.9626732 7.66152836,11.2617496 7.29259888,11.2617496 L4.9185059,11.2617496 C4.54957643,11.2617496 4.2505,10.9626732 4.2505,10.5937437 C4.2505,10.2248142 4.54957643,9.92573778 4.9185059,9.92573778 L7.29259888,9.92573778 Z M13.2311714,9.92573778 C13.6001008,9.92573778 13.8991773,10.2248142 13.8991773,10.5937437 C13.8991773,10.9626732 13.6001008,11.2617496 13.2311714,11.2617496 L10.8544064,11.2617496 C10.4854769,11.2617496 10.1864005,10.9626732 10.1864005,10.5937437 C10.1864005,10.2248142 10.4854769,9.92573778 10.8544064,9.92573778 L13.2325074,9.92573778 L13.2311714,9.92573778 Z M7.29259888,14.2009756 C7.66152836,14.2009756 7.96060479,14.500052 7.96060479,14.8689815 C7.96060479,15.2379109 7.66152836,15.5369874 7.29259888,15.5369874 L4.9185059,15.5369874 C4.54957643,15.5369874 4.2505,15.2379109 4.2505,14.8689815 C4.2505,14.500052 4.54957643,14.2009756 4.9185059,14.2009756 L7.29259888,14.2009756 Z M13.2311714,14.2009756 C13.6001008,14.2009756 13.8991773,14.500052 13.8991773,14.8689815 C13.8991773,15.2379109 13.6001008,15.5369874 13.2311714,15.5369874 L10.8544064,15.5369874 C10.4854769,15.5369874 10.1864005,15.2379109 10.1864005,14.8689815 C10.1864005,14.500052 10.4854769,14.2009756 10.8544064,14.2009756 L13.2325074,14.2009756 L13.2311714,14.2009756 Z M18.0768862,10.5042309 C17.4519197,10.5042309 16.9452842,11.0108664 16.9452842,11.6358329 L16.9452842,18.6445508 L18.0768862,20.361326 L19.2084882,18.6445508 L19.2084882,11.6358329 C19.2084882,11.0108664 18.7018527,10.5042309 18.0768862,10.5042309 L18.0768862,10.5042309 Z M18.0768862,9.16821909 C19.4396182,9.16821909 20.5445,10.2731009 20.5445,11.6358329 L20.5445,18.6445508 C20.5444347,18.9057699 20.4677938,19.1612394 20.3240581,19.3793573 L19.1924561,21.0961325 C18.9452685,21.4712378 18.526114,21.6970039 18.0768862,21.6970039 C17.6276583,21.6970039 17.2085039,21.4712378 16.9613163,21.0961325 L15.8297143,19.3793573 C15.6859785,19.1612394 15.6093377,18.9057699 15.6092724,18.6445508 L15.6092724,11.6358329 C15.6092724,10.2731009 16.7141541,9.16821909 18.0768862,9.16821909 L18.0768862,9.16821909 Z" id="形状" fill="#FFFFFF" fill-rule="nonzero"></path>
            </g>
        </g>
    </g>
</svg>