<?xml version="1.0" encoding="UTF-8"?>
<svg width="16px" height="16px" viewBox="0 0 16 16" version="1.1" xmlns="http://www.w3.org/2000/svg" xmlns:xlink="http://www.w3.org/1999/xlink">
    <title>行业</title>
    <g id="页面-1" stroke="none" stroke-width="1" fill="none" fill-rule="evenodd">
        <g id="app-电工基础训练" transform="translate(-30.000000, -167.000000)" fill-rule="nonzero">
            <g id="行业" transform="translate(30.000000, 167.000000)">
                <rect id="矩形" fill="#000000" opacity="0" x="0" y="0" width="16" height="16"></rect>
                <path d="M9.33333333,14.6666667 L10.6666667,14.6666667 L10.6666667,5.33333333 C10.6666667,4.59695366 11.2636203,4 12,4 L13.3333333,4 C13.6869553,4 14.0260939,4.14047578 14.2761424,4.39052428 C14.5261909,4.64057279 14.6666667,4.97971134 14.6666667,5.33333333 L14.6666667,14.6666667 L15.3333333,14.6666667 C15.7014833,14.666723 15.9998979,14.9651834 15.9998979,15.3333333 C15.9998979,15.7014833 15.7014833,16 15.3333333,16 L0.666666672,16 C0.298516697,16 0.000102062075,15.7014833 0.000102062075,15.3333333 C0.000102062075,14.9651834 0.298516697,14.666723 0.666666672,14.6666667 L1.33333333,14.6666667 L1.33333333,1.33333333 C1.33333333,0.97971134 1.47380912,0.640572789 1.72385762,0.390524285 C1.97390613,0.140475781 2.31304468,0 2.66666667,0 L8,0 C8.73637966,0 9.33333333,0.596953665 9.33333333,1.33333333 L9.33333333,14.6666667 Z M2.66666667,5.33333333 L2.66666667,6.66666667 L5.33333333,6.66666667 L5.33333333,5.33333333 L2.66666667,5.33333333 Z M2.66666667,10.6666667 L2.66666667,12 L5.33333333,12 L5.33333333,10.6666667 L2.66666667,10.6666667 Z M6.66666667,5.33333333 L6.66666667,6.66666667 L8,6.66666667 L8,5.33333333 L6.66666667,5.33333333 L6.66666667,5.33333333 Z M6.66666667,10.6666667 L6.66666667,12 L8,12 L8,10.6666667 L6.66666667,10.6666667 L6.66666667,10.6666667 Z M2.66666667,2.66666667 L2.66666667,4 L5.33333333,4 L5.33333333,2.66666667 L2.66666667,2.66666667 Z M2.66666667,8 L2.66666667,9.33333333 L5.33333333,9.33333333 L5.33333333,8 L2.66666667,8 Z M6.66666667,2.66666667 L6.66666667,4 L8,4 L8,2.66666667 L6.66666667,2.66666667 L6.66666667,2.66666667 Z M6.66666667,8 L6.66666667,9.33333333 L8,9.33333333 L8,8 L6.66666667,8 L6.66666667,8 Z M12,6.66666667 L12,8 L13.3333333,8 L13.3333333,6.66666667 L12,6.66666667 Z M12,9.33333333 L12,10.6666667 L13.3333333,10.6666667 L13.3333333,9.33333333 L12,9.33333333 L12,9.33333333 Z" id="形状" fill="#5D5D5D"></path>
            </g>
        </g>
    </g>
</svg>