<?xml version="1.0" encoding="UTF-8"?>
<svg width="24px" height="24px" viewBox="0 0 24 24" version="1.1" xmlns="http://www.w3.org/2000/svg" xmlns:xlink="http://www.w3.org/1999/xlink">
    <title>训练</title>
    <g id="页面-1" stroke="none" stroke-width="1" fill="none" fill-rule="evenodd">
        <g id="app-应用" transform="translate(-115.000000, -689.000000)" fill="#BBBBBB" fill-rule="nonzero">
            <g id="训练" transform="translate(115.000000, 689.000000)">
                <rect id="矩形" opacity="0" x="0" y="0" width="24" height="24"></rect>
                <path d="M15.6862577,5.25 C15.6892849,3.75837229 14.7930856,2.41193169 13.4158714,1.83900637 C12.0386572,1.26608105 10.4519067,1.579607 9.39609096,2.63327463 C8.34027518,3.68694226 8.02351821,5.27305084 8.59363742,6.65142906 C9.16375664,8.02980727 10.5083692,8.92875 12,8.92875 C14.0236687,8.90652542 15.6599039,7.2736192 15.6862577,5.25 Z M13.23,8.92875 L10.77,8.92875 C9.91308577,8.93656288 9.06968935,9.14323993 8.30625,9.5325 C9.59859695,9.88028574 10.8402506,10.3945951 12,11.0625 C13.1597494,10.3945951 14.401403,9.88028574 15.69375,9.5325 C14.9303106,9.14323993 14.0869142,8.93656288 13.23,8.92875 L13.23,8.92875 Z M21.255,12.615 C20.5777608,12.615 20.02875,13.1640108 20.02875,13.84125 L20.02875,16.30125 C20.0647885,16.9531881 20.6039416,17.4633605 21.256875,17.4633605 C21.9098084,17.4633605 22.4489615,16.9531881 22.485,16.30125 L22.485,13.84125 C22.4829334,13.1634047 21.9328485,12.615 21.255,12.615 Z M3.97125,16.30125 L3.97125,13.84125 C3.93521152,13.1893119 3.39605842,12.6791395 2.743125,12.6791395 C2.09019158,12.6791395 1.55103848,13.1893119 1.515,13.84125 L1.515,16.30125 C1.55103848,16.9531881 2.09019158,17.4633605 2.743125,17.4633605 C3.39605842,17.4633605 3.93521152,16.9531881 3.97125,16.30125 L3.97125,16.30125 Z M2.74495192,10.77 L2.74495192,11.385 C4.10069313,11.387065 5.19918496,12.4855569 5.20125,13.84125 L5.20125,16.30125 C5.19506507,17.6540133 4.09777587,18.747952 2.74495192,18.75 L2.74495192,19.365 C2.74291278,19.5320376 2.80886523,19.6927377 2.92769309,19.810151 C3.04652095,19.9275642 3.20799933,19.9915874 3.375,19.9875 C6.52125,19.9875 9.04125,20.98125 11.4,22.485 L11.4,12.14625 C9,10.78875 6.46875,10.15875 3.375,10.15875 C3.20966269,10.1536759 3.04932796,10.2158282 2.93060846,10.3310144 C2.81188896,10.4462006 2.74495192,10.6045849 2.74495192,10.77 L2.74495192,10.77 Z M18.79875,16.30125 L18.79875,13.84125 C18.800815,12.4855569 19.8993069,11.387065 21.2550001,11.385 L21.2550001,10.77 C21.2550001,10.6045849 21.188111,10.4462006 21.0693915,10.3310144 C20.950672,10.2158282 20.7903373,10.1536759 20.625,10.15875 C17.51625,10.15875 14.97,10.78875 12.6,12.14625 L12.6,22.5 C14.95875,21 17.475,20.0025 20.625,20.0025 C20.9646551,20.0025 21.24,19.7271551 21.24,19.3875 L21.24,18.75 C19.893082,18.7397475 18.8048708,17.6481932 18.79875,16.30125 L18.79875,16.30125 Z" id="形状"></path>
            </g>
        </g>
    </g>
</svg>