<?xml version="1.0" encoding="UTF-8"?>
<svg width="17px" height="17px" viewBox="0 0 17 17" version="1.1" xmlns="http://www.w3.org/2000/svg" xmlns:xlink="http://www.w3.org/1999/xlink">
    <title>选择</title>
    <g id="页面-1" stroke="none" stroke-width="1" fill="none" fill-rule="evenodd">
        <g id="app-电工基础训练-训练中" transform="translate(-338.000000, -297.000000)" fill-rule="nonzero">
            <g id="编组-7" transform="translate(-47.000000, 52.000000)">
                <g id="选择" transform="translate(385.399982, 245.595204)">
                    <rect id="矩形" fill="#000000" opacity="0" x="0" y="0" width="16" height="16"></rect>
                    <path d="M8,1 C4.1,1 1,4.1 1,8 C1,11.9 4.1,15 8,15 C11.9,15 15,11.9 15,8 C15,4.1 11.9,1 8,1 Z M12,6.3 L7.5,10.8 C7.4,11 7.2,11 7,11 C6.8,11 6.7,11 6.5,10.8 L4.9,9.2 C4.7,9 4.7,8.7 4.9,8.5 C5.1,8.3 5.4,8.3 5.6,8.5 L7,9.9 L11.3,5.6 C11.5,5.4 11.8,5.4 12,5.6 C12.2,5.8 12.2,6.2 12,6.3 Z" id="形状" fill="#FFFFFF"></path>
                </g>
            </g>
        </g>
    </g>
</svg>