<?xml version="1.0" encoding="UTF-8"?>
<svg width="24px" height="24px" viewBox="0 0 24 24" version="1.1" xmlns="http://www.w3.org/2000/svg" xmlns:xlink="http://www.w3.org/1999/xlink">
    <title>阅读</title>
    <g id="页面-1" stroke="none" stroke-width="1" fill="none" fill-rule="evenodd">
        <g id="app-应用" transform="translate(-35.000000, -689.000000)" fill-rule="nonzero">
            <g id="阅读" transform="translate(35.000000, 689.000000)">
                <rect id="矩形" fill="#000000" opacity="0" x="0" y="0" width="24" height="24"></rect>
                <path d="M13.1347733,2.4158582 C12.5233466,1.8613806 11.5911167,1.8613806 10.97969,2.4158582 L2.26557467,10.6910354 C1.93587833,10.9883465 1.90955612,11.4967127 2.20678238,11.8265032 C2.50400864,12.1562936 3.01222983,12.1826234 3.34192619,11.8853123 L3.48045706,11.7534085 L3.48045706,20.3904878 C3.47995137,20.8173467 3.64918293,21.2268819 3.95084255,21.5288063 C4.25250217,21.8307307 4.66182029,22.0002529 5.08855766,22 L9.76718782,22 L9.76718782,17.1595592 C9.76680843,16.858949 9.88599068,16.5705351 10.098449,16.3579268 C10.3109073,16.1453185 10.5991889,16.025981 10.8997134,16.0262342 L13.1009737,16.0262342 C13.4015418,16.0259812 13.6898722,16.1453035 13.902406,16.357898 C14.1149399,16.5704926 14.2342282,16.8589052 14.2339753,17.1595592 L14.2339753,22 L19.0230493,22 C19.4497528,22 19.8589728,21.8304114 20.1606531,21.5285557 C20.4623334,21.2267 20.6317522,20.8173131 20.6316259,20.3904878 L20.6316259,11.8586458 C20.9886643,12.1819768 21.4951826,12.157215 21.7927145,11.8262651 C21.9356523,11.6679939 22.0098428,11.4593852 21.9989497,11.2463737 C21.9880566,11.0333622 21.8929732,10.8334149 21.7346363,10.6905592 L13.1347733,2.41633438 L13.1347733,2.4158582 Z" id="路径" fill="#BBBBBB"></path>
            </g>
        </g>
    </g>
</svg>