<?xml version="1.0" standalone="no"?><!DOCTYPE svg PUBLIC "-//W3C//DTD SVG 1.1//EN" "http://www.w3.org/Graphics/SVG/1.1/DTD/svg11.dtd"><svg t="1628478664861" class="icon" viewBox="0 0 1024 1024" version="1.1" xmlns="http://www.w3.org/2000/svg" p-id="1639" xmlns:xlink="http://www.w3.org/1999/xlink" width="200" height="200"><defs><style type="text/css"></style></defs><path d="M923.008 72.512c34.496 1.216 62.08 29.44 62.08 64.32v699.52a64.32 64.32 0 0 1-57.984 60.352h-272.128l-105.6 60.992c-9.6 4.608-19.968 6.592-30.4 6.208a38.528 38.528 0 0 0 36.48-38.592V123.52l68.16-43.904a38.592 38.592 0 0 1 22.4-7.168h276.992z m-540.16 0c8.32 0 16.128 2.688 22.4 7.168l68.16 43.904v801.728c0 20.672 16.192 37.504 36.608 38.592a64.384 64.384 0 0 1-30.4-6.208l-105.6-60.992H101.76a64.32 64.32 0 0 1-58.048-60.416V136.768c0-34.752 27.648-63.04 62.08-64.256z m-31.232 561.92h-78.08a40.96 40.96 0 1 0 0 81.92h78.08a41.088 41.088 0 0 0 0-81.92z m0-183.04h-108.16a40.96 40.96 0 1 0 0 81.984h108.16a40.96 40.96 0 1 0 0-81.984z m0-183.04H263.488a40.96 40.96 0 1 0 0 82.048h88.128a40.96 40.96 0 1 0 0-81.984z" p-id="1640" fill="#ffffff"></path></svg>