<?xml version="1.0" encoding="UTF-8"?>
<svg width="16px" height="16px" viewBox="0 0 16 16" version="1.1" xmlns="http://www.w3.org/2000/svg" xmlns:xlink="http://www.w3.org/1999/xlink">
    <title>难易</title>
    <g id="页面-1" stroke="none" stroke-width="1" fill="none" fill-rule="evenodd">
        <g id="app-电工基础训练" transform="translate(-30.000000, -362.000000)" fill-rule="nonzero">
            <g id="难易" transform="translate(30.000000, 362.000000)">
                <rect id="矩形" fill="#000000" opacity="0" x="0" y="0" width="16" height="16"></rect>
                <path d="M2.64075757,6.81603067 L2.64075757,6.81603067 C3.52834453,6.81603067 3.97213801,7.25982415 3.97213801,8.14741112 L3.97213801,12.1677072 C3.97213801,13.0552942 3.52834453,13.4990876 2.64075757,13.4990876 L2.64075757,13.4990876 C1.7531706,13.4990876 1.30937712,13.0552942 1.30937712,12.1677072 L1.30937712,8.14741112 C1.30937712,7.25982415 1.7531706,6.81603067 2.64075757,6.81603067 Z" id="路径" fill="#5D5D5D"></path>
                <path d="M8.0257029,4.15850072 L8.0257029,4.15850072 C8.91328987,4.15850072 9.35708335,4.60229421 9.35708335,5.48988117 L9.35708335,12.1679164 C9.35708335,13.0555034 8.91328987,13.4992969 8.0257029,13.4992969 L8.0257029,13.4992969 C7.13811594,13.4992969 6.69432246,13.0555034 6.69432246,12.1679164 L6.69432246,5.48988117 C6.69432246,4.60229421 7.13811594,4.15850072 8.0257029,4.15850072 Z" id="路径" fill="#5D5D5D"></path>
                <path d="M13.3384612,1.49929688 L13.3384612,1.49929688 C14.2260481,1.49929688 14.6698416,1.94309036 14.6698416,2.83067732 L14.6698416,12.1677072 C14.6698416,13.0552942 14.2260481,13.4990876 13.3384612,13.4990876 L13.3384612,13.4990876 C12.4508742,13.4990876 12.0070807,13.0552942 12.0070807,12.1677072 L12.0070807,2.83067732 C12.0070807,1.94309036 12.4508742,1.49929688 13.3384612,1.49929688 Z" id="路径" fill="#5D5D5D"></path>
            </g>
        </g>
    </g>
</svg>