<?xml version="1.0" standalone="no"?><!DOCTYPE svg PUBLIC "-//W3C//DTD SVG 1.1//EN" "http://www.w3.org/Graphics/SVG/1.1/DTD/svg11.dtd"><svg t="1628491435081" class="icon" viewBox="0 0 1024 1024" version="1.1" xmlns="http://www.w3.org/2000/svg" p-id="2470" xmlns:xlink="http://www.w3.org/1999/xlink" width="200" height="200"><defs><style type="text/css"></style></defs><path d="M334.506667 558.378667a158.293333 158.293333 0 1 0 223.872-223.872 158.293333 158.293333 0 0 0-223.914667 223.872zM512 22.016C241.365333 22.016 22.016 241.365333 22.016 512S241.365333 1001.984 512 1001.984 1001.984 782.634667 1001.984 512 782.634667 22.016 512 22.016z m278.357333 762.624l-5.717333 5.717333a29.994667 29.994667 0 0 1-42.410667 0l-165.077333-165.077333a221.866667 221.866667 0 0 1-287.36-22.186667 221.781333 221.781333 0 0 1 0-313.301333 221.781333 221.781333 0 0 1 313.258667 0 221.866667 221.866667 0 0 1 22.229333 287.36l165.077333 165.077333a29.994667 29.994667 0 0 1 0 42.410667z" fill="#0091ff" p-id="2471"></path></svg>