<?xml version="1.0" standalone="no"?><!DOCTYPE svg PUBLIC "-//W3C//DTD SVG 1.1//EN" "http://www.w3.org/Graphics/SVG/1.1/DTD/svg11.dtd"><svg t="1628491679146" class="icon" viewBox="0 0 1024 1024" version="1.1" xmlns="http://www.w3.org/2000/svg" p-id="4492" xmlns:xlink="http://www.w3.org/1999/xlink" width="200" height="200"><defs><style type="text/css"></style></defs><path d="M85.333333 85.333333m170.666667 0l512 0q170.666667 0 170.666667 170.666667l0 512q0 170.666667-170.666667 170.666667l-512 0q-170.666667 0-170.666667-170.666667l0-512q0-170.666667 170.666667-170.666667Z" fill="#0091ff" p-id="4493" data-spm-anchor-id="a313x.7781069.0.i32" class="selected"></path><path d="M311.168 241.066667a28.501333 28.501333 0 1 1 0 57.045333H209.877333a28.501333 28.501333 0 0 1 0-57.045333h101.290667z m253.354667 0a28.501333 28.501333 0 0 1 0 57.045333h-101.418667a28.501333 28.501333 0 1 1 0-57.045333h101.504-0.085333z m253.312 0a28.501333 28.501333 0 1 1 0 57.045333h-101.290667a28.501333 28.501333 0 1 1 0-57.045333h101.290667zM311.168 423.552a28.501333 28.501333 0 1 1 0 57.002667H209.877333a28.501333 28.501333 0 1 1 0-57.002667h101.290667z m253.354667 0a28.501333 28.501333 0 0 1 0 57.002667h-101.418667a28.501333 28.501333 0 1 1 0-57.002667h101.504-0.085333zM311.168 605.866667a28.501333 28.501333 0 1 1 0 57.002666H209.877333a28.501333 28.501333 0 0 1 0-57.002666h101.290667z m253.354667 0a28.501333 28.501333 0 0 1 0 57.002666h-101.418667a28.501333 28.501333 0 0 1 0-57.002666h101.504-0.085333z m206.762666-157.738667c-26.666667 0-48.298667 21.632-48.298666 48.298667v299.050666l48.298666 73.216 48.256-73.216v-299.093333c0-26.624-21.589333-48.213333-48.256-48.213333z m0-57.002667a105.301333 105.301333 0 0 1 105.258667 105.301334v299.050666c0 11.093333-3.242667 22.016-9.386667 31.317334l-48.298666 73.258666a57.002667 57.002667 0 0 1-95.146667 0L675.413333 826.88a57.002667 57.002667 0 0 1-9.386666-31.317333v-299.093334a105.301333 105.301333 0 0 1 105.258666-105.258666z" fill="#FFFFFF" p-id="4494"></path></svg>