<?xml version="1.0" standalone="no"?><!DOCTYPE svg PUBLIC "-//W3C//DTD SVG 1.1//EN" "http://www.w3.org/Graphics/SVG/1.1/DTD/svg11.dtd"><svg t="1628491392955" class="icon" viewBox="0 0 1024 1024" version="1.1" xmlns="http://www.w3.org/2000/svg" p-id="1941" xmlns:xlink="http://www.w3.org/1999/xlink" width="200" height="200"><defs><style type="text/css"></style></defs><path d="M560.426667 103.082667a68.437333 68.437333 0 0 0-91.946667 0L96.682667 456.106667a34.304 34.304 0 0 0 45.909333 50.944l5.888-5.632v368.512A68.608 68.608 0 0 0 217.173333 938.666667h199.594667v-206.506667a48.298667 48.298667 0 0 1 48.341333-48.384H558.933333a48.298667 48.298667 0 0 1 48.341334 48.384V938.666667h204.330666a68.608 68.608 0 0 0 68.650667-68.693334V506.026667c15.232 13.781333 36.821333 12.714667 49.493333-1.408a34.304 34.304 0 0 0-2.432-48.426667l-366.933333-353.066667z" fill="#BBBBBB" p-id="1942"></path></svg>