<?xml version="1.0" standalone="no"?><!DOCTYPE svg PUBLIC "-//W3C//DTD SVG 1.1//EN" "http://www.w3.org/Graphics/SVG/1.1/DTD/svg11.dtd"><svg t="1628491505593" class="icon" viewBox="0 0 1024 1024" version="1.1" xmlns="http://www.w3.org/2000/svg" p-id="3586" xmlns:xlink="http://www.w3.org/1999/xlink" width="200" height="200"><defs><style type="text/css"></style></defs><path d="M938.538667 248.874667c0-45.738667-67.157333-43.861333-67.157334 0v594.986666c0 15.274667-12.373333 27.605333-27.605333 27.605334H239.146667c-40.064-0.085333-86.741333-32.298667-86.741334-88.490667 0-47.914667 32.981333-88.533333 71.936-88.533333h550.997334a33.578667 33.578667 0 0 0 33.536-33.536V119.04A33.578667 33.578667 0 0 0 775.338667 85.333333H287.36A202.24 202.24 0 0 0 85.333333 287.36V784.64c0 4.949333 3.712 32.298667 3.84 33.322667 14.208 68.992 69.290667 120.576 135.253334 120.576h619.434666A94.976 94.976 0 0 0 938.666667 843.776V248.874667h-0.128z m-163.072 500.565333H305.493333c-46.336 0-44.074667 67.157333 0 67.157333h469.930667c43.264 0 47.189333-67.157333 0-67.157333z" fill="#0091ff" p-id="3587"></path></svg>