<?xml version="1.0" standalone="no"?><!DOCTYPE svg PUBLIC "-//W3C//DTD SVG 1.1//EN" "http://www.w3.org/Graphics/SVG/1.1/DTD/svg11.dtd"><svg t="1628491405474" class="icon" viewBox="0 0 1024 1024" version="1.1" xmlns="http://www.w3.org/2000/svg" p-id="2206" xmlns:xlink="http://www.w3.org/1999/xlink" width="200" height="200"><defs><style type="text/css"></style></defs><path d="M669.269333 224A157.269333 157.269333 0 1 0 512 380.970667a159.061333 159.061333 0 0 0 157.269333-156.970667zM564.48 380.970667h-104.96c-36.565333 0.341333-72.533333 9.130667-105.130667 25.770666 55.168 14.805333 108.117333 36.778667 157.610667 65.28a658.901333 658.901333 0 0 1 157.610667-65.28 236.16 236.16 0 0 0-105.130667-25.770666z m342.4 157.269333c-28.885333 0-52.309333 23.424-52.309333 52.309333v104.96a52.48 52.48 0 0 0 104.789333 0v-104.96a52.48 52.48 0 0 0-52.48-52.309333zM169.429333 695.509333v-104.96a52.48 52.48 0 0 0-104.789333 0v104.96a52.48 52.48 0 0 0 104.789333 0zM117.12 459.52v26.24a104.96 104.96 0 0 1 104.789333 104.789333v104.96a104.96 104.96 0 0 1-104.789333 104.490667v26.24a26.24 26.24 0 0 0 26.88 26.581333c134.229333 0 241.749333 42.368 342.4 106.538667V518.229333C384 460.373333 276.010667 433.493333 144 433.493333a26.069333 26.069333 0 0 0-26.88 26.069334z m684.970667 235.989333v-104.96a104.96 104.96 0 0 1 104.789333-104.789333v-26.24a26.112 26.112 0 0 0-26.88-26.069333c-132.650667 0-241.28 26.88-342.4 84.778666V960c100.650667-64 208-106.538667 342.4-106.538667 14.506667 0 26.24-11.776 26.24-26.282666v-27.178667a104.96 104.96 0 0 1-104.149333-104.490667z" fill="#BBBBBB" p-id="2207"></path></svg>